<?xml version="1.0" standalone="no"?>
<!DOCTYPE svg PUBLIC "-//W3C//DTD SVG 1.1//EN" "http://www.w3.org/Graphics/SVG/1.1/DTD/svg11.dtd" >
<svg xmlns="http://www.w3.org/2000/svg" xmlns:xlink="http://www.w3.org/1999/xlink" version="1.1">
<metadata></metadata>
<defs>
<font id="db_helvethaicamon_x85_blk" horiz-adv-x="0" >
<font-face units-per-em="2048" ascent="1638" descent="-410" />
<missing-glyph horiz-adv-x="348" />
<glyph unicode="&#x2b;&#x2d;" horiz-adv-x="833" d="M31 88q0 24 8 41t21.5 27t32.5 14.5t41 4.5h566q21 0 39.5 -4.5t32.5 -14.5t22 -27t8 -41q0 -25 -8 -42t-22 -27.5t-33 -14.5t-39 -4h-566q-22 0 -41 4t-32.5 14.5t-21.5 27.5t-8 42zM32 581q0 42 26 65.5t74 23.5h194v196q0 47 24 73.5t67 26.5q42 0 66.5 -27t24.5 -73 v-196h194q48 0 74 -24t26 -65q0 -42 -26 -65.5t-74 -23.5h-194v-196q0 -46 -24 -73t-67 -27q-42 0 -66.5 27t-24.5 73v196h-194q-24 0 -42 7.5t-31 20t-20 28.5t-7 33z" />
<glyph unicode="&#x2e;&#x2e;&#x2e;" horiz-adv-x="1388" d="M109 118q0 26 10 50t27.5 41t40.5 27t50 10q26 0 49.5 -10t41 -27t27.5 -41t10 -50t-10 -49.5t-27.5 -41t-40.5 -27.5t-50 -10q-26 0 -49.5 10t-41 27.5t-27.5 41t-10 49.5zM564 118q0 26 10 50t27 41t41 27t50 10t49.5 -10t41 -27t27.5 -41t10 -50t-10 -49.5t-27.5 -41 t-41 -27.5t-49.5 -10t-50 10t-41 27.5t-27 41t-10 49.5zM1021 118q0 26 10 50t27.5 41t40.5 27t50 10q26 0 49.5 -10t41 -27t27.5 -41t10 -50t-10 -49.5t-27.5 -41t-40.5 -27.5t-50 -10q-26 0 -49.5 10t-41 27.5t-27.5 41t-10 49.5z" />
<glyph unicode="&#x3c;&#x3d;" horiz-adv-x="897" d="M56 90q0 24 8 42t22 28t32 15t40 5h568q21 0 40 -5t32.5 -15t21.5 -28q9 -18 9 -42q0 -25 -8.5 -42t-22 -27.5t-32 -15.5t-40.5 -5h-568q-22 0 -40 5t-32 15.5t-22 28t-8 41.5zM57 616q0 28 16 52q15 22 39 34l554 254q26 13 45 17t35 4q18 0 33.5 -6t27 -17t17.5 -26.5 t6 -33.5q0 -13 -3 -25.5t-10 -25t-21 -24t-36 -21.5l-416 -182l416 -183q22 -10 36 -21.5t21 -23.5t10 -24q3 -14 3 -26q0 -18 -6 -33.5t-17.5 -26.5t-27 -17t-33.5 -6q-16 0 -34.5 3.5t-45.5 16.5l-554 255q-12 6 -22 14.5t-17 20t-11.5 24.5t-4.5 27z" />
<glyph unicode="&#x3e;&#x3d;" horiz-adv-x="897" d="M67 338q0 12 2.5 25t10.5 25t21 23.5t35 21.5l418 183l-418 182q-22 10 -35 21.5t-21 24t-10.5 24.5t-2.5 26q0 18 6.5 33.5t17.5 26.5t27 17t34 6q16 0 34 -3.5t44 -17.5l554 -254q24 -12 40 -35t16 -51q0 -14 -4 -27t-12 -24.5t-18 -20.5q-10 -8 -22 -14l-553 -255 q-27 -13 -45 -17q-18 -3 -34 -3q-18 0 -34 6t-27 17t-17.5 26.5t-6.5 33.5zM68 90q0 24 8 42t22 28t33 15t39 5h568q22 0 40.5 -5t32.5 -15t22 -28t8 -42q0 -25 -8 -42t-22 -27.5t-32.5 -15.5t-40.5 -5h-568q-21 0 -39.5 5t-32.5 15.5t-22 28t-8 41.5z" />
<glyph unicode="&#xe4f;&#x22;" horiz-adv-x="1014" d="M66 448q0 65 17 124.5t47.5 111.5t74 95t95.5 73.5t113 47t127 16.5q64 0 123.5 -16.5t111.5 -47t94.5 -73.5t73 -95t47 -112t16.5 -124q0 -65 -16.5 -125.5t-47 -112.5t-73 -95t-94.5 -73.5t-111.5 -47t-123.5 -16.5q-66 0 -127 16.5t-113 47t-95.5 73.5t-74 95 t-47.5 112.5t-17 125.5zM214 452q0 -44 12 -86t33 -78t50 -66t65 -51.5t78 -33t88 -11.5q44 0 84.5 11.5t76 33t65 51.5t51 66t32.5 78t11 86t-11.5 85t-32.5 76.5t-50.5 65t-65 50.5t-76.5 32q-40 11 -84 11q-46 0 -88 -11t-78 -32t-65 -50.5t-50 -65t-33 -76.5t-12 -85z M288 452q0 34 9 65t26 58t40 50t50.5 39t59.5 25q33 9 67 9q50 0 94 -19.5t78 -53t53 -78.5t19 -95q0 -52 -19 -97.5t-53 -79t-78 -53.5t-94 -20q-34 0 -66.5 9t-60 25t-50.5 39t-40 51t-26 60t-9 66zM354 1073v147q0 18 5 32.5t15 25t24 16.5t30 6q17 0 31.5 -6t24.5 -16.5 t15 -25t5 -32.5v-147q0 -18 -5 -32.5t-15 -24.5t-24 -16t-32 -6q-17 0 -30.5 6t-23.5 16t-15 25t-5 32zM422 452q0 -24 9 -46t24.5 -38t37 -25t47.5 -9q23 0 43 9t35.5 25t23.5 38q9 22 9 46q0 23 -8.5 43.5t-24 35.5t-36 24.5t-42.5 9.5q-26 0 -47.5 -9.5t-37 -24.5 t-24.5 -35.5t-9 -43.5zM574 1073v147q0 18 5 32.5t15 25t24 16.5t30 6q17 0 31.5 -6t24.5 -16.5t15 -25t5 -32.5v-147q0 -18 -5 -32.5t-15 -24.5t-24 -16t-32 -6q-34 0 -54 22t-20 57z" />
<glyph unicode="&#xe0e;&#xe3a;" horiz-adv-x="934" d="M10 91q0 19 6 36t17.5 29t27 19t35.5 7h6v270q0 21 -7 43.5t-28 42.5q-13 12 -19 23.5t-7 23t3.5 23.5t12.5 28q22 44 57.5 84t85.5 71t114.5 49t144.5 18q76 0 136.5 -13t106.5 -36t79.5 -55t54.5 -71t31 -82t10 -89l-1 -672q0 -30 -11 -55t-30 -44t-45 -30 q-24 -11 -54 -11q-32 0 -58 12t-46 32q-24 25 -64 41.5t-96 16.5q-27 0 -50 -6t-44.5 -17t-43.5 -27t-48 -38q-12 -10 -27 -14t-30 -3t-29 8t-24 20q-10 12 -14 27t-2.5 29.5t8.5 28.5q8 14 18 26q24 26 55 49t67.5 40t78 27.5t85.5 10.5q46 0 86 -7q38 -8 66 -20v560 q0 29 -5 58.5t-22 54t-48 40t-83 15.5q-41 0 -70.5 -9t-49 -22.5t-31 -29t-16.5 -29.5q13 -12 23 -25t16 -28t9 -33t3 -42v-355q0 -19 -6.5 -35.5t-18 -29t-27.5 -19.5t-34 -7h-168q-19 0 -35 7t-27.5 19.5t-17.5 29t-6 35.5zM594 -504q0 30 12 58t33 48.5t48 33t59 12.5 q30 0 57 -12.5t47.5 -33t32.5 -48.5t12 -58t-12 -57t-32.5 -47.5t-47.5 -33t-57 -12.5q-31 0 -58.5 12.5t-48.5 33t-33 47.5t-12 57z" />
<glyph unicode="&#xe0f;&#xe3a;" horiz-adv-x="934" d="M10 91q0 19 6 36t17.5 29t27 19t35.5 7h6v270q0 21 -7 43.5t-28 42.5q-13 12 -19 23.5t-7 23t3.5 23.5t12.5 28q22 44 57.5 84t85.5 71t114.5 49t144.5 18q76 0 136.5 -13t106.5 -36t79 -55t54 -71t31 -82t10 -89v-701q0 -26 -11 -47.5t-29.5 -37t-42.5 -24.5 q-23 -9 -49 -9q-14 0 -28 2.5t-27 7.5t-23.5 13t-16.5 19q-6 12 -13 23t-14.5 19.5t-16.5 13t-19 4.5q-18 0 -31 -12.5t-20 -30.5q-11 -26 -35 -42.5t-54 -16.5q-15 0 -28.5 4.5t-25 12.5t-20.5 20q-8 10 -14 24q-7 18 -18.5 30.5t-30.5 12.5q-20 0 -35 -13q-14 -14 -22 -32 q-8 -20 -22 -34t-31 -20t-35.5 -6t-36.5 8t-30.5 21t-18.5 30t-6 35.5t7 36.5q14 33 35 57.5t47.5 40.5t58.5 24q30 8 64 8q24 0 45.5 -5.5t40 -14.5t34.5 -22t28 -27q11 14 25.5 25.5t31 20.5t35 14t37.5 5q18 0 34.5 -4.5t28.5 -10.5v562q0 20 -2 39.5t-8 38t-17 35 t-29 29t-43 19.5t-60 7q-42 0 -70.5 -9t-48.5 -22.5t-31 -29t-16 -29.5q13 -12 23 -25t16 -28t9 -33t3 -42v-355q0 -19 -6.5 -35.5t-18 -29t-27.5 -19.5t-34 -7h-168q-19 0 -35 7t-27.5 19.5t-17.5 29t-6 35.5zM594 -504q0 30 12 58t33 48.5t48 33t59 12.5q30 0 57 -12.5 t47.5 -33t32.5 -48.5t12 -58t-12 -57t-32.5 -47.5t-47.5 -33t-57 -12.5q-31 0 -58.5 12.5t-48.5 33t-33 47.5t-12 57z" />
<glyph unicode="&#xe0e;&#xe38;" horiz-adv-x="934" d="M10 91q0 19 6 36t17.5 29t27 19t35.5 7h6v270q0 21 -7 43.5t-28 42.5q-13 12 -19 23.5t-7 23t3.5 23.5t12.5 28q22 44 57.5 84t85.5 71t114.5 49t144.5 18q76 0 136.5 -13t106.5 -36t79.5 -55t54.5 -71t31 -82t10 -89l-1 -672q0 -30 -11 -55t-30 -44t-45 -30 q-24 -11 -54 -11q-32 0 -58 12t-46 32q-24 25 -64 41.5t-96 16.5q-27 0 -50 -6t-44.5 -17t-43.5 -27t-48 -38q-12 -10 -27 -14t-30 -3t-29 8t-24 20q-10 12 -14 27t-2.5 29.5t8.5 28.5q8 14 18 26q24 26 55 49t67.5 40t78 27.5t85.5 10.5q46 0 86 -7q38 -8 66 -20v560 q0 29 -5 58.5t-22 54t-48 40t-83 15.5q-41 0 -70.5 -9t-49 -22.5t-31 -29t-16.5 -29.5q13 -12 23 -25t16 -28t9 -33t3 -42v-355q0 -19 -6.5 -35.5t-18 -29t-27.5 -19.5t-34 -7h-168q-19 0 -35 7t-27.5 19.5t-17.5 29t-6 35.5zM528 -453q0 18 6.5 34.5t18 29.5t26.5 20t35 7 h178q18 0 34 -7t27 -20t17 -29t6 -35v-191q0 -24 -9 -43.5t-24.5 -33t-36 -21t-44.5 -7.5t-45.5 7.5t-37 21t-24.5 33t-9 43.5v100h-32q-19 0 -34.5 7.5t-27 20t-18 28.5t-6.5 35z" />
<glyph unicode="&#xe0f;&#xe38;" horiz-adv-x="934" d="M10 91q0 19 6 36t17.5 29t27 19t35.5 7h6v270q0 21 -7 43.5t-28 42.5q-13 12 -19 23.5t-7 23t3.5 23.5t12.5 28q22 44 57.5 84t85.5 71t114.5 49t144.5 18q76 0 136.5 -13t106.5 -36t79 -55t54 -71t31 -82t10 -89v-701q0 -26 -11 -47.5t-29.5 -37t-42.5 -24.5 q-23 -9 -49 -9q-14 0 -28 2.5t-27 7.5t-23.5 13t-16.5 19q-6 12 -13 23t-14.5 19.5t-16.5 13t-19 4.5q-18 0 -31 -12.5t-20 -30.5q-11 -26 -35 -42.5t-54 -16.5q-15 0 -28.5 4.5t-25 12.5t-20.5 20q-8 10 -14 24q-7 18 -18.5 30.5t-30.5 12.5q-20 0 -35 -13q-14 -14 -22 -32 q-8 -20 -22 -34t-31 -20t-35.5 -6t-36.5 8t-30.5 21t-18.5 30t-6 35.5t7 36.5q14 33 35 57.5t47.5 40.5t58.5 24q30 8 64 8q24 0 45.5 -5.5t40 -14.5t34.5 -22t28 -27q11 14 25.5 25.5t31 20.5t35 14t37.5 5q18 0 34.5 -4.5t28.5 -10.5v562q0 20 -2 39.5t-8 38t-17 35 t-29 29t-43 19.5t-60 7q-42 0 -70.5 -9t-48.5 -22.5t-31 -29t-16 -29.5q13 -12 23 -25t16 -28t9 -33t3 -42v-355q0 -19 -6.5 -35.5t-18 -29t-27.5 -19.5t-34 -7h-168q-19 0 -35 7t-27.5 19.5t-17.5 29t-6 35.5zM528 -453q0 18 6.5 34.5t18 29.5t26.5 20t35 7h178q18 0 34 -7 t27 -20t17 -29t6 -35v-191q0 -24 -9 -43.5t-24.5 -33t-36 -21t-44.5 -7.5t-45.5 7.5t-37 21t-24.5 33t-9 43.5v100h-32q-19 0 -34.5 7.5t-27 20t-18 28.5t-6.5 35z" />
<glyph unicode="&#xe0e;&#xe39;" horiz-adv-x="934" d="M10 91q0 19 6 36t17.5 29t27 19t35.5 7h6v270q0 21 -7 43.5t-28 42.5q-13 12 -19 23.5t-7 23t3.5 23.5t12.5 28q22 44 57.5 84t85.5 71t114.5 49t144.5 18q76 0 136.5 -13t106.5 -36t79.5 -55t54.5 -71t31 -82t10 -89l-1 -672q0 -30 -11 -55t-30 -44t-45 -30 q-24 -11 -54 -11q-32 0 -58 12t-46 32q-24 25 -64 41.5t-96 16.5q-27 0 -50 -6t-44.5 -17t-43.5 -27t-48 -38q-12 -10 -27 -14t-30 -3t-29 8t-24 20q-10 12 -14 27t-2.5 29.5t8.5 28.5q8 14 18 26q24 26 55 49t67.5 40t78 27.5t85.5 10.5q46 0 86 -7q38 -8 66 -20v560 q0 29 -5 58.5t-22 54t-48 40t-83 15.5q-41 0 -70.5 -9t-49 -22.5t-31 -29t-16.5 -29.5q13 -12 23 -25t16 -28t9 -33t3 -42v-355q0 -19 -6.5 -35.5t-18 -29t-27.5 -19.5t-34 -7h-168q-19 0 -35 7t-27.5 19.5t-17.5 29t-6 35.5zM244 -446q0 18 6 33t16 26t25 18t33 7h166 q18 0 32.5 -7t25 -18t16.5 -27q6 -14 6 -32v-68q0 -32 9 -48.5t33 -16.5t34 16.5t10 48.5v62q0 23 8.5 41.5t23.5 31.5t35 20t43 7t43 -7t35 -20t23.5 -32t8.5 -41v-70q0 -47 -14.5 -88.5t-46 -72.5t-81.5 -49q-52 -19 -122 -19q-66 0 -113.5 17.5t-80 48t-49.5 70t-21 83.5 h-24q-18 0 -33 7t-25 18.5t-16 27t-6 33.5z" />
<glyph unicode="&#xe0f;&#xe39;" horiz-adv-x="934" d="M10 91q0 19 6 36t17.5 29t27 19t35.5 7h6v270q0 21 -7 43.5t-28 42.5q-13 12 -19 23.5t-7 23t3.5 23.5t12.5 28q22 44 57.5 84t85.5 71t114.5 49t144.5 18q76 0 136.5 -13t106.5 -36t79 -55t54 -71t31 -82t10 -89v-701q0 -26 -11 -47.5t-29.5 -37t-42.5 -24.5 q-23 -9 -49 -9q-14 0 -28 2.5t-27 7.5t-23.5 13t-16.5 19q-6 12 -13 23t-14.5 19.5t-16.5 13t-19 4.5q-18 0 -31 -12.5t-20 -30.5q-11 -26 -35 -42.5t-54 -16.5q-15 0 -28.5 4.5t-25 12.5t-20.5 20q-8 10 -14 24q-7 18 -18.5 30.5t-30.5 12.5q-20 0 -35 -13q-14 -14 -22 -32 q-8 -20 -22 -34t-31 -20t-35.5 -6t-36.5 8t-30.5 21t-18.5 30t-6 35.5t7 36.5q14 33 35 57.5t47.5 40.5t58.5 24q30 8 64 8q24 0 45.5 -5.5t40 -14.5t34.5 -22t28 -27q11 14 25.5 25.5t31 20.5t35 14t37.5 5q18 0 34.5 -4.5t28.5 -10.5v562q0 20 -2 39.5t-8 38t-17 35 t-29 29t-43 19.5t-60 7q-42 0 -70.5 -9t-48.5 -22.5t-31 -29t-16 -29.5q13 -12 23 -25t16 -28t9 -33t3 -42v-355q0 -19 -6.5 -35.5t-18 -29t-27.5 -19.5t-34 -7h-168q-19 0 -35 7t-27.5 19.5t-17.5 29t-6 35.5zM244 -446q0 18 6 33t16 26t25 18t33 7h166q18 0 32.5 -7 t25 -18t16.5 -27q6 -14 6 -32v-68q0 -32 9 -48.5t33 -16.5t34 16.5t10 48.5v62q0 23 8.5 41.5t23.5 31.5t35 20t43 7t43 -7t35 -20t23.5 -32t8.5 -41v-70q0 -47 -14.5 -88.5t-46 -72.5t-81.5 -49q-52 -19 -122 -19q-66 0 -113.5 17.5t-80 48t-49.5 70t-21 83.5h-24 q-18 0 -33 7t-25 18.5t-16 27t-6 33.5z" />
<glyph unicode="&#xd;" horiz-adv-x="395" />
<glyph unicode=" "  horiz-adv-x="348" />
<glyph unicode="&#x09;" horiz-adv-x="348" />
<glyph unicode="&#xa0;" horiz-adv-x="348" />
<glyph unicode="!" horiz-adv-x="593" d="M169 690v192q0 62 33.5 93.5t93.5 31.5t94 -31.5t34 -93.5v-192l-43 -350q-2 -20 -9.5 -33t-18.5 -21t-25 -11t-32 -3t-32 3t-25 11t-18 21t-9 33zM175 102q0 25 9.5 47t26 38.5t39 26.5t46.5 10q25 0 47.5 -10t38.5 -26.5t26 -38.5t10 -47t-10 -47t-26 -38.5t-38 -26.5 t-48 -10q-25 0 -47 10t-38.5 26.5t-26 38.5t-9.5 47z" />
<glyph unicode="&#x22;" horiz-adv-x="633" d="M97 716v204q0 22 6.5 39t18.5 30t29.5 20.5t38.5 7.5t38 -7.5t29.5 -20.5t18.5 -31q6 -16 6 -38v-204q0 -22 -6 -40t-18.5 -30.5t-29.5 -20t-38 -7.5t-38.5 7.5t-29.5 20t-18.5 30.5t-6.5 40zM352 716v204q0 22 7 39t19 30t29 20.5t38 7.5t38 -7.5t29 -20.5t19 -31 q7 -16 7 -38v-204q0 -22 -7 -40t-19 -30.5t-29 -20t-38 -7.5t-38 7.5t-29 20t-19 30.5t-7 40z" />
<glyph unicode="#" horiz-adv-x="854" d="M42 346q0 14 4 27.5t14 24t26 16.5q14 7 36 7h68l22 145h-44q-22 0 -38 6.5t-26 17t-14 24.5t-4 28t4 27.5t14 24t26 17.5t38 7h67l29 202q2 17 8 31.5t17 25.5t27 17q18 6 42 6q16 0 30 -5t25 -13t17 -21t6 -27q0 -7 -1 -18.5t-3 -31.5l-26 -166h110l29 202 q2 17 7.5 31.5t16.5 25.5t27 17t42 6q16 0 30 -5t25 -13t17 -21t6 -27q0 -7 -1 -18.5t-3 -31.5l-26 -166h46q22 0 37 -7t24.5 -17.5t14 -24t4.5 -27.5t-4.5 -28t-14 -24.5t-25.5 -17.5q-14 -6 -36 -6h-68l-22 -145h44q22 0 38 -6.5t26 -17t14 -24t4 -27.5t-4 -28t-14 -24.5 t-26 -17t-38 -6.5h-66l-31 -203q-2 -17 -7.5 -31.5t-16.5 -25t-27.5 -16.5t-41.5 -6q-16 0 -30 4t-25 13t-17 21t-6 28q0 10 3 38q0 1 0.5 5.5t3 21.5t8 52t13.5 99h-107l-30 -203q-2 -17 -8 -31.5t-16.5 -25t-27.5 -16.5t-41 -6q-16 0 -30 4t-25 13t-17 21t-6 28v10 q0 8 2 16v4t1 9t3 19t5 32.5t7 51t11 74.5h-45q-22 0 -37 6.5t-25 17t-14 24.5t-4 28zM369 423h107l21 143h-107z" />
<glyph unicode="$" horiz-adv-x="901" d="M54 245q0 49 26 75t72 26q29 0 47.5 -7.5t30 -20t18.5 -29.5t13 -35t14 -36.5t23 -34t39 -26.5q25 -11 63 -14v271q-76 15 -136 41t-102 62.5t-64.5 85.5t-22.5 109q0 74 26.5 129.5t71 94t103.5 59.5q60 21 124 25v70q0 12 4 23t11 20t17 14t21 5t21 -5t17 -14t11 -20 t4 -23v-70q28 -2 64 -9t72 -20t70 -32t60.5 -43t43 -53.5t16.5 -64.5q0 -24 -8 -42.5t-21.5 -31.5t-31.5 -19.5t-38 -6.5q-16 0 -29.5 6t-24.5 15t-21.5 21t-19.5 24q-10 14 -22.5 28.5t-28 27t-35.5 20.5t-46 11v-245q46 -10 89 -22.5t81 -30t69 -40.5t54 -56t35 -75 t12 -98q0 -73 -24 -128.5t-68.5 -94t-107 -60t-140.5 -27.5v-76q0 -12 -4 -23t-11 -19t-17 -13t-21 -5q-12 0 -21.5 5t-16.5 13t-11 19t-4 23v76q-58 2 -106 15t-86.5 34t-67 47t-48 55.5t-29 60t-9.5 59.5zM272 744q0 -46 31 -74t97 -44v225q-28 -3 -52 -13t-40.5 -25 t-26 -32.5t-9.5 -36.5zM506 143q27 3 53 12t46 24t32.5 37t12.5 52t-13 51t-34 36t-46 24t-51 15v-251z" />
<glyph unicode="%" horiz-adv-x="1388" d="M90 708q0 57 13.5 109.5t44 93t79.5 65t119 24.5q72 0 121 -23t79 -62.5t43 -92t13 -112.5q0 -37 -7 -72.5t-20.5 -67.5t-34.5 -59t-49.5 -47t-64.5 -31t-80 -11q-68 0 -117 22t-79.5 61t-45 91t-14.5 112zM260 710q0 -24 3 -51t12 -51t25 -39.5t44 -15.5q27 0 43.5 15.5 t25.5 38.5t12 51t3 52q0 23 -2.5 50.5t-11 51.5t-24.5 40t-44 16q-27 0 -43.5 -16t-26 -40t-13 -51.5t-3.5 -50.5zM376 26q0 13 4 27q4 13 13 29l475 898q4 8 11 17t16 16t20 11t24 4q16 0 29.5 -5.5t23 -15t15 -21.5t5.5 -24q0 -13 -4 -26q-6 -14 -14 -30l-475 -897 q-4 -8 -10.5 -16.5t-15.5 -15.5t-20 -12t-25 -5q-16 0 -29 6t-23 15t-15 21t-5 24zM786 274q0 58 14 111t45 93.5t80 65t119 24.5q72 0 121 -23t79 -63t43 -92t13 -112q0 -56 -15 -107.5t-46 -91t-79 -63.5q-50 -24 -116 -24q-68 0 -116 22t-80 61t-47 90t-15 109zM960 276 q0 -22 3 -49t11.5 -50.5t24 -39.5t41.5 -16q28 0 46 15t27 38.5t12 51.5q3 26 3 52q0 24 -2.5 52t-11.5 51t-25.5 39t-44.5 16q-27 0 -43.5 -16t-25.5 -39.5t-12 -52t-3 -52.5z" />
<glyph unicode="&#x26;" horiz-adv-x="918" d="M42 266q0 54 15 99t42 81.5t64 65.5q37 30 79 52q-18 20 -33 41t-27 43.5t-19 48t-7 55.5q0 60 22.5 106t60 78t87 48t104.5 16q54 0 96 -11t73 -29t53 -42t35 -51t19 -55t6 -54q0 -40 -11.5 -77t-32.5 -68t-50.5 -56t-64.5 -43l109 -132q16 21 28 43q13 23 23 37 q16 22 35 34q20 12 42 12q18 0 34.5 -7t30 -18.5t21.5 -27.5t8 -34t-8 -41.5t-21 -48t-30 -48.5t-35 -42l74 -89q20 -26 20 -60q0 -18 -7 -34.5t-21 -30t-34 -21.5t-46 -8q-13 0 -23 3t-18.5 8.5t-15.5 13t-14 15.5l-55 64q-66 -61 -141 -86.5t-163 -25.5q-54 0 -97 11 t-77 31t-58.5 46t-40.5 57t-23.5 64t-7.5 67zM239 284q0 -28 11.5 -50t31.5 -37t45 -23t51 -8q24 0 46.5 5t42 13t36.5 19t30 25l-181 212q-23 -15 -43.5 -30.5t-36 -34.5t-24.5 -41t-9 -50zM350 768q0 -22 6 -40t17 -33t25 -29l32 -28q16 10 33 21.5t31 26.5t23.5 34.5 t9.5 45.5q0 16 -6.5 30t-18.5 25t-28.5 17t-35.5 6t-35.5 -5.5t-28 -16t-18 -24.5t-6.5 -30z" />
<glyph unicode="'" horiz-adv-x="385" d="M100 716v204q0 22 6.5 39t18.5 30t29.5 20.5t37.5 7.5q21 0 38.5 -7.5t29.5 -20.5t18 -31q7 -16 7 -38v-204q0 -22 -6.5 -40t-18.5 -30.5t-29 -20t-39 -7.5q-21 0 -38 7.5t-29 20t-18.5 30.5t-6.5 40z" />
<glyph unicode="(" horiz-adv-x="461" d="M40 376q0 114 27.5 233t77.5 239q22 50 40.5 86.5t34.5 61t30 39.5t27 23t26 10t25 2q17 0 34.5 -5t31.5 -14.5t23 -22t9 -26.5q0 -18 -10 -49t-26 -74t-33.5 -97t-33 -117.5t-25.5 -136t-10 -152.5t10 -153t25.5 -136.5t33 -117t33.5 -96.5t26 -75t10 -50q0 -14 -9 -26 t-23 -21t-31 -15t-35 -6q-13 0 -25.5 3t-25.5 10.5t-27 22t-30 39.5t-35 61t-40 86q-50 120 -77.5 240t-27.5 234z" />
<glyph unicode=")" horiz-adv-x="461" d="M35 -252q0 18 10.5 50t25.5 75t33 96.5t33.5 117t26.5 135.5q10 74 10 154t-10.5 152.5t-26 136t-33.5 117.5t-33 97t-25.5 74t-10.5 49q0 14 9 26.5t23 22t31.5 14.5t33.5 5q13 0 25.5 -2t26 -10t28 -23t30.5 -39.5t34 -61t40 -86.5q50 -120 77.5 -239t27.5 -233 t-27.5 -234t-77.5 -240q-22 -50 -40 -86t-34 -61t-30.5 -39.5t-28 -22t-25.5 -10.5t-26 -3q-17 0 -34 6t-31 15t-23 21t-9 26z" />
<glyph unicode="*" horiz-adv-x="594" d="M25 850q0 20 8 35t19.5 24.5t23.5 14.5q12 4 22 4q8 0 21 -2.5t21 -6.5l82 -29v96q0 38 19.5 58t55.5 20t55.5 -20t19.5 -58v-97l82 30q9 4 21 7q13 2 21 2q10 0 22 -4.5t23.5 -14t19.5 -24.5t8 -35q0 -26 -15 -44q-16 -16 -46 -26l-94 -28l66 -86q8 -10 14 -23t6 -27 q0 -22 -10 -37t-22.5 -23t-26 -11.5t-20.5 -3.5q-19 0 -35 7.5t-26 21.5l-63 94l-63 -94q-10 -14 -26 -21.5t-34 -7.5q-8 0 -21.5 3.5t-26 11.5t-22.5 23t-10 37q0 14 6 26q6 14 14 24l66 86q-24 7 -47 13.5t-47 14.5q-60 18 -61 70z" />
<glyph unicode="+" horiz-adv-x="833" d="M42 396q0 42 26 66t74 24h184v184q0 47 24 74t67 27q42 0 66.5 -26.5t24.5 -74.5v-184h184q48 0 74 -24t26 -66t-26 -66t-74 -24h-184v-185q0 -46 -24 -73t-67 -27q-42 0 -66.5 26.5t-24.5 73.5v185h-184q-24 0 -42 7.5t-31 20t-20 28.5t-7 34z" />
<glyph unicode="," horiz-adv-x="426" d="M78 117q0 26 10 49t27.5 40.5t40.5 27.5t49 10q36 0 63.5 -13.5t46.5 -37t28.5 -55.5t9.5 -70q0 -34 -4.5 -64t-13.5 -56t-23 -50t-34 -47q-11 -14 -27.5 -28.5t-35 -27t-38 -21t-37.5 -8.5q-15 0 -26.5 5t-19.5 12.5t-12 17.5t-4 21q0 12 5 21t12.5 17t17.5 15 q9 7 21 14q12 8 25 18.5t24 25t21 31.5q8 16 14 36q-12 -2 -26 -2q-27 0 -48.5 10t-35.5 26t-22 37.5t-8 45.5z" />
<glyph unicode="-" horiz-adv-x="676" d="M40 397q0 24 8 41.5t22 27.5t31 15t37 5h400q19 0 36.5 -5t31 -15t22 -27t8.5 -42t-8.5 -42t-22 -28t-31 -15.5t-36.5 -4.5h-400q-20 0 -37 4.5t-31 15.5t-22 28t-8 42z" />
<glyph unicode="." horiz-adv-x="426" d="M85 118q0 26 10 50t27.5 41t40.5 27t50 10q26 0 49.5 -10t41 -27t27.5 -41t10 -50t-10 -50t-27.5 -41t-40.5 -27t-50 -10q-26 0 -49.5 10t-41 27t-27.5 41t-10 50z" />
<glyph unicode="/" horiz-adv-x="600" d="M27 65q0 14 4 27q3 14 9 26l336 850q4 10 10 23t17.5 23.5t29 17.5t43.5 7q16 0 33 -6.5t31.5 -18.5t23.5 -29t9 -38q0 -14 -4.5 -27.5t-8.5 -26.5l-336 -850q-4 -10 -10 -22.5t-17 -22.5t-28.5 -17t-44.5 -7q-16 0 -33 6t-31.5 18t-23.5 29t-9 38z" />
<glyph unicode="0" horiz-adv-x="813" d="M24 490q0 53 5 111t19.5 114t40.5 106.5t68.5 88.5t103.5 61t145 23t145 -23t104 -61t69 -88.5t40 -106.5t19 -114.5t5 -110.5q0 -56 -5 -115.5t-19 -115.5t-40 -106.5t-69 -87.5t-104 -59t-145 -22t-145 22t-103.5 59t-68.5 87.5t-40.5 106.5t-19.5 115.5t-5 115.5z M272 490q0 -28 1 -62t5 -68t12 -65.5t23 -56t37 -39.5t56 -15t56 15t37 39.5t23.5 56t12.5 65.5t4.5 68t0.5 62t-0.5 60.5t-4.5 66t-12.5 65t-23.5 56t-38 38.5t-55 14t-55 -14t-37.5 -38.5t-23 -56t-12.5 -65t-5 -66t-1 -60.5z" />
<glyph unicode="1" horiz-adv-x="813" d="M77 702q0 22 4.5 36t17.5 24t36 17t59 13q34 6 61 16.5t47.5 25t37 31.5t30.5 37q15 21 27.5 37.5t25.5 27.5t27 16t31 5q44 0 68 -18t24 -58v-802q0 -31 -9 -54t-25.5 -38t-38.5 -22.5t-50 -7.5q-26 0 -48.5 7.5t-39 22.5t-25.5 37.5t-9 54.5v546q-22 -11 -44 -17.5 t-44.5 -9.5t-43 -4t-37.5 -1q-42 0 -62 20t-20 58z" />
<glyph unicode="2" horiz-adv-x="813" d="M26 100q0 20 4 38t14 38t29 42t49 49.5t72.5 61t100.5 75.5q52 37 89.5 66.5t63.5 53t42 42t25 35.5t12 32.5t3 32.5q0 32 -10 56t-28 41.5t-44 26.5t-60 9q-30 0 -51 -9.5t-36 -25.5t-25.5 -37t-18.5 -42q-6 -16 -13.5 -31t-19.5 -26.5t-29 -18t-41 -6.5q-32 0 -55 8.5 t-36.5 24.5t-20 38t-6.5 49q0 32 10.5 64.5t31 62t50.5 55t70 44.5t90 29.5t109 10.5q70 0 126 -12.5t98.5 -34.5t72 -51t48 -63.5t27.5 -72t9 -75.5q0 -42 -7.5 -78t-24 -69t-44.5 -63q-28 -32 -68 -62l-277 -206h333q52 0 75 -26.5t23 -74.5t-23 -74.5t-75 -26.5h-566 q-23 0 -41.5 8t-31 22t-19 32t-6.5 38z" />
<glyph unicode="3" horiz-adv-x="813" d="M27 214q0 27 7.5 49.5t22 39t35 25.5t47.5 9q24 0 40.5 -6t28.5 -16t20 -23t14 -27q8 -18 17.5 -34.5t24 -29.5t34.5 -20.5t48 -7.5q80 0 118 34t38 104q0 30 -7.5 50.5t-21.5 32.5t-33.5 18t-42.5 7q-58 6 -84 26q-26 19 -26 49q0 24 7.5 40t20.5 26t31 14t39 4 q20 0 39.5 6t33.5 20t23 35t9 51q0 27 -10 47t-29 33.5t-44 20.5t-55 7q-18 0 -35 -4t-34 -13t-33 -25t-32 -42q-10 -15 -19 -25t-19 -16t-21 -8.5t-25 -2.5q-28 0 -48 10t-33 26t-19 36t-6 40q0 43 23.5 81.5t69 67.5t112.5 46t153 17q76 0 140 -18t110 -53t72 -85 q25 -48 25 -110q0 -34 -7.5 -66t-22.5 -59.5t-37 -48t-50 -30.5q35 -12 61 -32.5t43.5 -48t26.5 -60t9 -67.5q0 -31 -6 -67.5t-22.5 -73t-45 -70.5t-73.5 -60.5t-108 -42t-148 -15.5q-79 0 -143 20.5t-109 53.5t-69.5 75t-24.5 86z" />
<glyph unicode="4" horiz-adv-x="813" d="M20 344q0 18 4 36t13 38t23 42t35 49l273 355q26 32 47 55.5t40.5 38.5t39.5 22q19 7 43 7q34 0 60.5 -9.5t44 -27.5t27 -43t9.5 -57v-450q29 0 52 -5t39.5 -16t25 -30t8.5 -47t-8.5 -46.5t-25 -29.5t-39.5 -15.5t-52 -4.5v-80q0 -32 -8 -58t-23.5 -44t-37.5 -28t-50 -10 q-29 0 -51.5 10t-37.5 28t-23 44t-8 58v80h-310q-30 0 -51 10.5t-34 29t-19 43.5t-6 55zM230 400h210v302z" />
<glyph unicode="5" horiz-adv-x="813" d="M49 172q0 26 10 47t27.5 35.5t40.5 22.5t49 8q25 0 43.5 -7t33.5 -17.5t28.5 -22.5t29 -22.5t34.5 -17.5t44 -7q35 0 61 12t43 32.5t25 46.5t8 54q0 34 -10.5 60t-29 44t-42.5 28q-24 9 -52 9t-51.5 -8.5t-47 -18.5t-50.5 -19t-61 -9q-18 0 -39.5 5t-40.5 18t-32 36 t-13 60q0 14 2.5 37.5t6 52t8.5 60t10.5 61.5t10.5 58t9 48q7 35 18 58.5t28.5 37t42.5 19t60 5.5h361q60 0 86 -22q28 -24 28 -64q0 -18 -5 -34t-17 -28t-32 -20t-50 -8h-306l-36 -198q27 15 49 24.5t43 14.5t44 7t53 2q39 0 77 -7t72.5 -23t63.5 -41t50.5 -59t33.5 -79 t12 -101q0 -63 -15 -113.5t-41.5 -89.5t-64 -67.5t-84 -47t-100 -27t-111.5 -8.5q-30 0 -65 3.5t-70 11.5t-67 21t-57.5 33.5t-40.5 48.5q-15 27 -15 65z" />
<glyph unicode="6" horiz-adv-x="813" d="M20 476q0 74 10 141.5t32 125t55 103.5t80.5 78t109 49.5t137.5 17.5q21 0 50.5 -3t62 -10.5t64 -19.5t57 -30t41 -43t15.5 -57q0 -22 -6.5 -40t-19 -31t-29 -20t-36.5 -7q-55 0 -95 32q-12 10 -25 20t-27 18t-29.5 13t-32.5 5q-49 0 -80.5 -20t-50 -55t-26.5 -82 t-10 -101q27 23 56.5 38.5t58 24.5t56.5 13t50 4q68 0 124 -23t96.5 -66t62.5 -104t22 -139q0 -71 -23 -130.5t-68.5 -102t-114.5 -66.5t-160 -24q-95 0 -170.5 32.5t-128 94.5t-80.5 154t-28 210zM278 310q0 -30 10 -59t28 -51t44 -35t58 -13t57 13t43 35t28 51t10 59 q0 36 -10 65t-28 49.5t-44 32t-56 11.5q-32 0 -58 -14t-44 -36t-28 -50t-10 -58z" />
<glyph unicode="7" horiz-adv-x="813" d="M32 877q0 47 27 74t81 27h517q29 0 51.5 -6t38 -19t24 -34t8.5 -52q0 -19 -6.5 -37.5t-20.5 -41t-37 -51t-56 -68.5q-14 -18 -33 -48t-39 -69t-40.5 -85.5t-37.5 -97.5t-31 -103q-14 -53 -20 -105q-8 -62 -22 -97.5t-33 -53.5t-43 -23t-51 -5q-20 0 -39.5 8t-35 23 t-25 37t-9.5 50q0 34 9 77.5t25 91.5t37 99t46 101t51 97t52 87.5t51 71.5t45 50h-376q-54 0 -81 27.5t-27 74.5z" />
<glyph unicode="8" horiz-adv-x="813" d="M24 301q0 78 29 135.5t91 95.5q-42 36 -63 85t-21 102q0 48 13.5 87t37 69.5t56.5 52.5t71 37t79 22t83 7q88 0 153 -21.5t109 -59t66 -87.5t22 -107q0 -56 -22 -103.5t-62 -81.5q59 -38 91.5 -97.5t32.5 -135.5q0 -79 -29 -138.5t-80.5 -99t-121 -59.5t-147.5 -20 q-80 0 -151 19t-123.5 58t-83 99t-30.5 141zM266 299q0 -32 10 -57.5t29.5 -44.5t46 -29t60.5 -10q30 0 55 11.5t43 31.5t27.5 45.5t9.5 54.5q0 26 -9.5 51t-27.5 44.5t-44 31.5q-24 12 -56 12q-34 0 -61 -11t-45 -30.5t-28 -45.5t-10 -54zM299 712q0 -26 7.5 -47t22 -36 t35 -23t48.5 -8q24 0 42 9t30.5 24.5t19 36t6.5 44.5t-8 44t-22 34t-33 21.5t-41 7.5q-24 0 -44 -8t-34 -22.5t-21.5 -34t-7.5 -42.5z" />
<glyph unicode="9" horiz-adv-x="813" d="M20 668q0 71 23 130.5t68.5 102t114 66.5t160.5 24q95 0 170.5 -32.5t128 -94.5t80.5 -154t28 -210q0 -74 -10 -141.5t-31.5 -125t-55.5 -103.5t-81 -78t-108 -49.5t-138 -17.5q-21 0 -51 3t-62 10.5t-64 19.5t-57 30t-41 43t-16 57q0 22 7 40t19 31t29 20t37 7 q56 0 96 -32l24 -20t26.5 -18t30 -13t32.5 -5q49 0 80.5 19t50 53t26.5 80t10 102q-32 -30 -62 -45t-58 -22t-53 -8t-47 -1q-68 0 -125 23t-97 66t-62 104t-22 139zM258 666q0 -36 10 -65t28 -49.5t43 -32t57 -11.5t58 14t44 36t27.5 50t9.5 58t-9.5 59t-27.5 51t-44 35 t-58 13t-57.5 -13t-43.5 -35t-27.5 -51t-9.5 -59z" />
<glyph unicode=":" horiz-adv-x="426" d="M85 118q0 26 10 50t27.5 41t40.5 27t50 10q26 0 49.5 -10t41 -27t27.5 -41t10 -50t-10 -50t-27.5 -41t-40.5 -27t-50 -10q-26 0 -49.5 10t-41 27t-27.5 41t-10 50zM85 610q0 26 10 49.5t27.5 41t40.5 27.5t50 10q26 0 49.5 -10t41 -27.5t27.5 -41t10 -49.5t-10 -50 t-27.5 -41t-40.5 -27t-50 -10q-26 0 -49.5 10t-41 27t-27.5 41t-10 50z" />
<glyph unicode=";" horiz-adv-x="426" d="M78 117q0 26 10 49t27.5 40.5t40.5 27.5t49 10q36 0 63.5 -13.5t46.5 -37t28.5 -55.5t9.5 -70q0 -34 -4.5 -64t-13.5 -56t-23 -50t-34 -47q-11 -14 -27.5 -28.5t-35 -27t-38 -21t-37.5 -8.5q-15 0 -26.5 5t-19.5 12.5t-12 17.5t-4 21q0 12 5 21t12.5 17t17.5 15 q9 7 21 14q12 8 25 18.5t24 25t21 31.5q8 16 14 36q-12 -2 -26 -2q-27 0 -48.5 10t-35.5 26t-22 37.5t-8 45.5zM85 610q0 26 10 49.5t27.5 41t40.5 27.5t50 10q26 0 49.5 -10t41 -27.5t27.5 -41t10 -49.5t-10 -50t-27.5 -41t-40.5 -27t-50 -10q-26 0 -49.5 10t-41 27 t-27.5 41t-10 50z" />
<glyph unicode="&#x3c;" horiz-adv-x="897" d="M26 410q0 28 16 51t40 35l608 279q28 14 47 17.5t35 3.5q18 0 33 -6t26 -16t17 -25t6 -33q0 -13 -2 -25.5t-9 -24.5t-21 -24t-38 -22l-482 -210l482 -211q24 -10 38 -21t21 -22.5t9 -24.5t2 -25q0 -18 -6 -33t-17 -26t-26 -17t-33 -6q-16 0 -35 4t-47 18l-608 280 q-24 11 -40 33.5t-16 50.5z" />
<glyph unicode="=" horiz-adv-x="833" d="M36 257q0 42 26.5 66.5t74.5 24.5h559q48 0 74 -25t26 -66q0 -42 -26 -66.5t-74 -24.5h-559q-24 0 -42.5 8t-31.5 20.5t-20 29t-7 33.5zM36 534q0 42 26.5 66.5t74.5 24.5h559q48 0 74 -24.5t26 -66.5t-26 -67t-74 -25h-559q-24 0 -42.5 8t-31.5 21t-20 29t-7 34z" />
<glyph unicode="&#x3e;" horiz-adv-x="897" d="M42 106q0 13 2.5 25.5t10 24t21.5 22.5q12 11 36 21l482 211l-482 210q-24 10 -37 22t-20.5 24t-10 24t-2.5 26q0 18 6.5 33t17 25t25.5 16t33 6q16 0 36 -3.5t48 -17.5l608 -279q24 -11 40 -34q15 -24 15 -52t-15.5 -51t-39.5 -33l-608 -280q-28 -14 -48 -18t-36 -4 q-18 0 -33 6t-25.5 17t-17 26t-6.5 33z" />
<glyph unicode="?" horiz-adv-x="772" d="M50 755q0 36 12.5 69.5t35 63.5t53 55.5t67 44t77.5 28.5t84 10q45 0 89 -7.5t83.5 -23t73 -38.5t58.5 -56t38.5 -74t13.5 -93q0 -50 -17 -89.5t-43 -71t-57.5 -56.5t-59.5 -47q-24 -18 -42 -32t-28 -28q-7 -10 -11.5 -21t-8.5 -21q-6 -16 -12 -30t-17 -25.5t-28 -18 t-44 -6.5q-25 0 -44 9t-31 24t-18 34t-6 39q0 34 12 62t30.5 52t41.5 44q24 22 48 40q20 16 38.5 32t33 33t23.5 36t9 41q0 51 -31 79.5t-85 28.5q-32 0 -53 -8.5t-35 -22t-23 -30.5t-17 -33q-8 -18 -16 -34t-20 -29t-30 -20t-44 -7q-20 0 -38 6t-32 18t-22 30.5t-8 42.5z M249 106q0 26 9.5 48t26.5 39t39 27q22 9 48 9t48.5 -9.5t39 -26.5t26.5 -39t10 -48t-10 -48.5t-26.5 -39t-39 -26.5t-48.5 -10t-48 10t-39 26.5t-26.5 39t-9.5 48.5z" />
<glyph unicode="@" horiz-adv-x="1192" d="M74 516q0 76 19 144t54.5 126.5t85 106t109.5 80.5t129 51.5t143 18.5q66 0 129 -12.5t118 -37.5t101 -63.5t79 -90t51 -117.5q19 -64 19 -144q0 -71 -17.5 -125.5t-46 -95.5t-66 -69t-77 -45t-79 -25t-73.5 -8q-82 -2 -84 70h-2q-26 -30 -61 -48t-84 -18q-44 0 -81.5 21 t-65 56t-43 81t-15.5 98q0 72 22 131t59 100t85 64t100 23q32 0 57.5 -4.5t46.5 -14t38 -25.5q16 -14 30 -36l5 18q4 16 11.5 26t16.5 15.5t19 7t20 1.5q12 0 23.5 -4t20 -11t13.5 -19t5 -26q0 -6 -1.5 -16t-4.5 -24l-43 -242q-1 -4 -2.5 -11t-3 -14.5t-2.5 -14t-1 -10.5 q0 -13 6 -20.5t20 -7.5q19 0 41 12t40.5 38.5t30.5 67t12 96.5q0 84 -27.5 149t-77 109t-117.5 67t-148 23q-54 0 -103 -14.5t-92 -41t-78 -62.5t-60 -81t-39 -97q-14 -50 -14 -106q0 -93 30.5 -167t84 -125.5t126.5 -78.5t157 -27q52 0 92 6.5t69 17t50 22.5t37 22t28 17 t24 7q10 0 20 -5t17 -12t11.5 -17t4.5 -22q0 -19 -16.5 -38t-43.5 -37t-63 -33.5t-75 -27.5t-79 -19t-76 -7q-75 0 -144.5 17.5t-130.5 50t-111.5 79.5t-86 105t-55.5 126q-20 70 -20 146zM466 484q0 -30 9 -53t23.5 -39t35 -24t44.5 -8q30 0 55 12t42.5 33t27.5 50t10 62 q0 26 -7 48.5t-20.5 38.5t-33.5 25t-46 9q-30 0 -56 -13t-44 -34t-29 -49t-11 -58z" />
<glyph unicode="A" horiz-adv-x="920" d="M14 118q0 16 4 38t11 45.5t16 48.5t18 49l200 575q11 30 25 53.5t31 39t40 24t53 8.5h97q29 0 52 -8.5t40 -24t31 -39t25 -53.5l201 -575q8 -24 17 -49t16 -48.5t11 -45.5t4 -38q0 -27 -11.5 -49.5t-30.5 -39.5t-43.5 -26t-50.5 -9q-18 0 -38 4t-37 13t-31 24t-20 35 l-38 130h-292l-39 -130q-6 -21 -19.5 -35.5t-30.5 -23.5t-37 -13t-38 -4q-26 0 -50.5 9t-44 26t-30.5 40t-11 49zM366 380h188l-92 310h-4z" />
<glyph unicode="B" horiz-adv-x="973" d="M72 178v644q0 46 9 80t29 55t49 31t69 10h348q93 0 155.5 -20t100 -53t53.5 -77t16 -92q0 -37 -4.5 -69.5t-19.5 -60t-44 -49.5t-79 -37q56 -14 92 -39t58 -58t30 -73t8 -84q0 -60 -20.5 -112t-63 -90.5t-107.5 -61t-153 -22.5h-370q-80 0 -118 42t-38 136zM334 192h200 q33 0 60 8t46 23t29.5 38t10.5 53q0 28 -10.5 49t-29.5 35t-45.5 21t-60.5 7h-200v-234zM334 600h198q28 0 49 8t35.5 21t22 30.5t7.5 35.5q0 53 -27 82.5t-87 29.5h-198v-207z" />
<glyph unicode="C" horiz-adv-x="1004" d="M46 501q0 87 20 160t54 131t81.5 101t103.5 72t118.5 43t127.5 14q57 0 109.5 -10t98 -28.5t82.5 -44t64 -55.5t41 -63t14 -67q0 -25 -6 -46.5t-19 -37.5t-32 -25t-44 -9q-18 -1 -35.5 1.5t-34 11t-32 23.5t-29.5 39q-18 30 -39.5 50t-45.5 31.5t-51.5 16.5t-57.5 5 q-44 0 -84 -21t-70.5 -60.5t-48.5 -98t-18 -133.5q0 -70 15.5 -127.5t45.5 -98.5t74.5 -64t102.5 -23q26 0 48.5 5t44 18t44.5 37q22 24 50 62q19 28 44 43q24 15 54 15q27 0 50.5 -8.5t40.5 -24.5t27 -38t10 -49q0 -42 -19 -78t-50 -66t-73 -53t-88 -39t-93 -24.5t-90 -8.5 q-66 0 -128.5 13.5t-118.5 41.5t-103 70.5t-81.5 100.5t-54 132t-19.5 164z" />
<glyph unicode="D" horiz-adv-x="999" d="M70 174v652q0 91 39 132.5t119 41.5h272q79 0 143.5 -18t114.5 -50.5t87.5 -78t62 -101t36.5 -119.5q12 -63 12 -133t-12 -134t-36.5 -120t-62 -101t-87.5 -78t-115 -50.5t-143 -17.5h-272q-80 0 -119 41.5t-39 133.5zM332 210h97q77 0 126.5 19t78 56t40 91t11.5 124 q0 69 -11.5 122.5t-40 90.5t-78 56t-126.5 19h-97v-578z" />
<glyph unicode="E" horiz-adv-x="868" d="M71 174v650q0 92 38.5 133.5t117.5 41.5h510q29 0 50 -7t34 -19.5t19 -30.5t6 -40t-6 -39t-19 -30t-34 -20t-50 -7h-405v-200h332q29 0 49.5 -7t33.5 -20t19 -31t6 -39q0 -22 -6 -39.5t-19 -30.5t-33.5 -20t-49.5 -7h-332v-220h420q29 0 49.5 -7t33.5 -20t19 -31 q6 -16 6 -38t-6 -40t-19 -30.5t-33 -19.5t-50 -7h-525q-80 0 -118 41.5t-38 133.5z" />
<glyph unicode="F" horiz-adv-x="817" d="M72 132v696q0 46 9 78.5t28 53t49 30.5q28 10 68 10h460q37 0 60 -9t36.5 -23t18 -32.5t4.5 -38.5t-4.5 -38.5t-18 -33.5t-37 -24t-59.5 -9h-354v-192h320q22 0 38 -8t26.5 -22t15 -32t4.5 -37q0 -20 -4.5 -37.5t-15 -31.5t-26.5 -22q-16 -9 -38 -9h-320v-269 q0 -72 -34 -107.5t-96 -35.5t-96 36q-34 35 -34 107z" />
<glyph unicode="G" horiz-adv-x="1075" d="M47 502q0 94 20.5 169.5t56.5 134t83.5 99.5t101 68t110.5 39t111 12q76 0 135 -11t102 -30t72 -43t47 -49t25 -49t7 -42q0 -20 -8 -41t-24.5 -38.5t-40.5 -28.5q-23 -12 -55 -12q-14 0 -26 4.5t-22 11.5t-19 16.5t-19 19.5q-14 15 -28.5 29.5t-33.5 26.5t-43.5 19.5 t-56.5 7.5q-46 0 -87 -17.5t-71 -55.5t-47.5 -98.5t-17.5 -146.5q0 -73 11 -131t37.5 -98t72.5 -61t114 -21q76 0 129 46t78 132h-98q-14 0 -27.5 7t-25.5 19t-19.5 29t-7.5 37q0 22 7 41t19.5 32.5t29.5 21t37 7.5h197q30 0 53.5 -10t40 -28t25.5 -42q8 -22 8 -50v-336 q0 -20 -4 -40t-13.5 -36t-26.5 -26t-43 -10q-19 0 -34 6.5t-25.5 17t-16 24.5t-5.5 30v80q-28 -42 -67 -71.5t-81.5 -49t-86.5 -28.5t-83 -9q-54 0 -109 11t-107 35.5t-98 64t-80 97.5t-53.5 136t-19.5 178z" />
<glyph unicode="H" horiz-adv-x="1024" d="M71 122v753q0 67 35.5 101t95.5 34q62 0 97 -34t35 -101v-255h356v255q0 68 34 101.5t96 33.5t97.5 -34t35.5 -101v-753q0 -68 -35.5 -101t-97.5 -33t-96 33t-34 101v302h-356v-302q0 -68 -35 -101t-97 -33q-61 0 -96 34q-35 32 -35 100z" />
<glyph unicode="I" horiz-adv-x="426" d="M82 122v753q0 67 35 101t96 34q62 0 96.5 -34t34.5 -101v-753q0 -68 -35 -101t-96 -33t-96 34q-35 32 -35 100z" />
<glyph unicode="J" horiz-adv-x="764" d="M-7 260q0 32 7.5 58.5t22.5 44.5t39 27.5t56 9.5q21 0 40.5 -6t34 -18t23 -31t8.5 -45q0 -32 8 -55t22 -39t32 -24t40 -8q24 0 43 8t33 28t21 53t7 83v533q0 67 35 100.5t97 33.5t96.5 -33.5t34.5 -100.5v-595q0 -52 -14.5 -94t-39.5 -75t-59 -57t-74 -40t-84 -24t-88 -8 q-77 0 -139.5 22t-107.5 59t-69.5 87t-24.5 106z" />
<glyph unicode="K" horiz-adv-x="946" d="M72 132v738q0 36 9 62t26 44t41 27q26 9 56 9q61 0 95.5 -36t34.5 -106v-283l292 335q20 22 36 39t30 28.5t28 17t30 5.5q42 0 70 -18t38 -47q5 -15 5 -32q0 -15 -4 -33q-9 -36 -38 -70l-171 -202l249 -410q12 -20 19.5 -41t7.5 -43q0 -27 -11 -50.5t-30 -40t-43 -26 t-50 -9.5q-16 0 -30.5 2.5t-28 9.5t-26.5 19q-13 13 -24 31l-231 378l-118 -136v-162q0 -70 -35 -106t-95 -36q-61 0 -96 36q-36 36 -36 106z" />
<glyph unicode="L" horiz-adv-x="792" d="M71 166v708q0 69 34.5 103t97.5 34q62 0 96.5 -34t34.5 -103v-666h355q50 0 78.5 -27t28.5 -77t-28.5 -77t-78.5 -27h-461q-80 0 -118.5 39t-38.5 127z" />
<glyph unicode="M" horiz-adv-x="1241" d="M72 127v703q0 38 10 69t30.5 53t50.5 34.5t70 12.5h58q37 0 63 -7t45 -22.5t32 -40.5t25 -59l163 -482h3l164 482q11 33 24 57t31.5 40t45 24t63.5 8h58q40 0 70 -12.5t50.5 -34.5t31 -53t10.5 -69v-703q0 -70 -35 -101.5t-97 -31.5q-63 0 -97 31.5t-34 101.5v355l5 165 l-32 -160l-137 -407q-6 -25 -15.5 -41.5t-24.5 -26.5t-35 -14t-48 -4t-48 4t-34 14t-23.5 27t-16.5 41l-140 408l-30 157l6 -163v-355q0 -70 -34 -101.5t-98 -31.5q-31 0 -55.5 7.5t-41 24t-25 41.5t-8.5 60z" />
<glyph unicode="N" horiz-adv-x="1030" d="M72 132v732q0 70 40 108t118 38q50 0 87 -20t64 -65l315 -536v485q0 30 9 55t26 43t41 28t55 10q30 0 54.5 -10t41.5 -28t26 -43t9 -55v-751q0 -34 -12.5 -59.5t-34 -41.5t-50.5 -24t-61 -8q-28 0 -50 5t-42 17t-38 34t-39 56l-297 496v-466q0 -68 -34 -105t-97 -37 q-64 0 -97 36q-34 38 -34 106z" />
<glyph unicode="O" horiz-adv-x="1077" d="M20 500q0 70 14 136t42 124t70.5 106t100 83t129.5 54t160 19t161 -19t131 -54t101 -83.5t71.5 -107t42.5 -124.5q14 -64 14 -134t-14 -136.5t-42.5 -124t-71 -105t-100.5 -81.5t-131 -53q-74 -18 -162 -18t-160 19t-129.5 53t-100 81.5t-70.5 105t-42 123.5t-14 136z M278 500q0 -38 6.5 -76.5t20 -73t34 -64t49 -51t65.5 -34.5t83 -13q47 0 85 13t67.5 34.5t50 51t34 64t19.5 72.5q6 39 6 77t-6 76t-19.5 73t-34 65t-50 52t-67 34.5t-85.5 12.5q-46 0 -83 -12.5t-65.5 -34.5t-49 -52t-34 -65t-20 -73t-6.5 -76z" />
<glyph unicode="P" horiz-adv-x="921" d="M66 123v713q0 86 38 125t117 39h275q57 0 109.5 -6.5t97.5 -21t82 -38.5t63 -59t40 -82.5t14 -109.5t-14 -109.5t-40 -82.5t-63 -58.5t-82 -38t-97 -20.5t-110 -6h-172v-245q0 -68 -34 -101q-34 -34 -96 -34t-95 34t-33 101zM324 556h188q24 0 48 8t43 23t30.5 39 t11.5 56q0 62 -38.5 95t-108.5 33h-174v-254z" />
<glyph unicode="Q" horiz-adv-x="1077" d="M20 500q0 70 14 136t42 124t70.5 106t100 83t129.5 54t160 19t161 -19t131 -54t101 -83.5t71.5 -107t42.5 -124.5q14 -64 14 -134q0 -98 -26.5 -186t-82.5 -158l58 -46q17 -14 25.5 -31t10 -36t-5 -39t-19.5 -36q-14 -16 -31.5 -27t-36 -14t-37.5 2t-36 19l-98 80 q-51 -22 -111 -34q-61 -12 -131 -12q-88 0 -160 19t-129.5 53t-100 81.5t-70.5 105t-42 123.5t-14 136zM278 500q0 -38 6.5 -76.5t20 -73t34 -64t49 -51t65.5 -34.5t83 -13q22 0 44 4l-26 20q-16 14 -25 31t-10 36t5 38t20 36q13 16 30.5 26.5t35.5 13.5t37 -2t35 -18 l73 -59q22 41 32.5 88.5t10.5 97.5q0 38 -6 76t-19.5 73t-34 65t-50 52t-67 34.5t-85.5 12.5q-46 0 -83 -12.5t-65.5 -34.5t-49 -52t-34 -65t-20 -73t-6.5 -76z" />
<glyph unicode="R" horiz-adv-x="973" d="M74 136v692q0 45 10 77.5t30.5 53.5t52.5 31t77 10h352q84 0 145.5 -22t101.5 -59t59.5 -86t19.5 -103q0 -46 -9 -88t-31 -76t-59 -59t-91 -37q46 -6 78 -20t52 -35t30 -45t12 -50q4 -44 8 -80t7.5 -64t6 -50t2.5 -36q0 -24 -10 -43t-27 -32t-37.5 -20t-41.5 -7 q-30 0 -56 7t-46 21t-33 37t-16 55l-15 138q-4 38 -18 64t-35 41t-49.5 21.5t-61.5 6.5h-149v-243q0 -72 -33 -110q-32 -38 -96 -38q-63 0 -96.5 38t-33.5 110zM333 544h184q41 0 70.5 7.5t48 23t27.5 39.5t9 57q0 34 -9 58.5t-27.5 40t-48 23t-70.5 7.5h-184v-256z" />
<glyph unicode="S" horiz-adv-x="921" d="M46 710q0 40 9.5 79t29 74t49 64t71 50t95.5 33t120 12q44 0 92 -3.5t94 -12.5t87 -23.5t72 -36.5t49 -51.5t18 -68.5q0 -24 -8 -44t-22.5 -34t-35.5 -21t-47 -6q-30 2 -52.5 15.5t-42.5 31.5q-16 14 -33 28.5t-38 26t-49 18.5t-66 7q-26 0 -50 -5.5t-42 -17t-29 -29.5 q-11 -20 -11 -44t8 -41t25 -29.5t41 -22t54 -18.5l170 -47q60 -17 110 -40.5t86 -57.5t56 -80t20 -108q0 -58 -15.5 -105t-43 -83t-65.5 -63t-82 -44.5t-93.5 -26t-100.5 -8.5q-82 0 -145 11t-110 29t-80 41t-53 48t-29 50t-9 47q0 24 9 44t24 35t35.5 23t44.5 8 q16 0 29.5 -5t26 -13.5t24 -19t23.5 -22.5q16 -16 34 -33t40.5 -30.5t50.5 -22t65 -8.5q30 0 58 6.5t49 20t33 35t12 52.5q0 21 -7.5 37t-22 28.5t-34.5 21.5t-44 16l-218 65q-114 33 -175 100.5t-61 167.5z" />
<glyph unicode="T" horiz-adv-x="821" d="M6 897q0 22 6 41.5t19 32.5t34 21t51 8h588q30 0 51.5 -8t34 -21t18.5 -32t6 -42t-5 -42t-17 -32.5t-31 -21t-45 -7.5h-178v-671q0 -68 -35 -101.5t-97 -33.5t-96.5 34t-34.5 101v671h-170q-27 0 -46 7.5t-30.5 21t-17 32.5t-5.5 42z" />
<glyph unicode="U" horiz-adv-x="1036" d="M73 364v510q0 68 35.5 101.5t96.5 33.5q30 0 54.5 -8.5t41.5 -25.5t26 -42t9 -59v-507q0 -44 10.5 -80t32.5 -61.5t56.5 -39.5t82.5 -14t82 14t56 39.5t33 61.5t11 80v507q0 34 9 59t26 42t41 25q26 9 56 9t54 -8.5t41.5 -25.5t27 -42t9.5 -59v-510q0 -104 -34 -176.5 t-94 -117t-141 -64.5t-177 -20t-177.5 20t-141 64.5t-93 117t-33.5 176.5z" />
<glyph unicode="V" horiz-adv-x="938" d="M29 892q-1 34 12 60.5t41 43t72 18.5q18 1 37.5 -2.5t36 -14.5t30.5 -29t23 -45l192 -605l183 604q8 24 21.5 42t31 29t36.5 16.5t38 4.5q44 -2 72 -19t41.5 -43t12.5 -60t-13 -71l-250 -723q-12 -34 -27.5 -56t-36.5 -34.5t-48.5 -17t-64.5 -4.5q-36 0 -64 4.5t-49 17 t-36.5 34.5t-27.5 56l-249 722q-13 38 -14 72z" />
<glyph unicode="W" horiz-adv-x="1364" d="M34 883q-8 28 0 52t26 41.5t42 27.5q26 9 52 9q22 0 42.5 -6t37 -19t29.5 -33.5t19 -48.5l146 -562l121 543q8 34 17 58t23.5 39t37.5 22t57 7t57 -7t38 -22.5t24 -39.5t17 -58l121 -549l145 569q7 28 19.5 48.5t29.5 33.5t37 19t43 6q26 0 50.5 -11.5t41 -30t24 -43 t-0.5 -51.5l-204 -767q-7 -27 -19 -49.5t-28.5 -39.5t-38.5 -26t-51 -9h-48q-58 0 -90.5 33t-46.5 93l-120 520l-120 -520q-14 -61 -46.5 -93.5t-90.5 -32.5h-48q-28 0 -50.5 9t-39 26t-28 39.5t-18.5 49.5z" />
<glyph unicode="X" horiz-adv-x="893" d="M34 108q4 36 28 74l228 335l-208 303q-14 20 -20 38t-6 35q0 28 10.5 50.5t28 38.5t39.5 24t46 8q15 0 30.5 -3.5t29.5 -11t26 -17.5q12 -12 22 -26l158 -244l160 244q9 14 21.5 25t26.5 18.5t29 11t31 3.5q24 0 46 -8t39 -24t27.5 -39t10.5 -50q0 -16 -6 -34 q-5 -19 -19 -39l-210 -302l230 -336q24 -38 28 -74q1 -8 1 -16q-1 -26 -11 -48q-14 -28 -43 -45t-72 -17q-37 0 -67 20t-52 55l-170 259l-168 -260q-22 -36 -52.5 -55t-67.5 -19q-42 0 -71 17t-43 45q-11 22 -11 50q0 7 1 14z" />
<glyph unicode="Y" horiz-adv-x="912" d="M30 886q0 24 9 46.5t26 40t40 27.5t50 10q40 0 72 -20t52 -62l177 -347l176 347q20 42 52 62t72 20q27 0 50.5 -10t40.5 -27.5t26 -40t9 -46.5q0 -21 -9 -43t-27 -53l-258 -435v-228q0 -68 -36 -104q-34 -36 -96 -36q-30 0 -55 9.5t-42 27t-26 43.5t-9 60v228l-258 435 q-18 31 -27 53t-9 43z" />
<glyph unicode="Z" horiz-adv-x="901" d="M21 116q0 16 5 31t15.5 32t25.5 37l36 48l430 536h-364q-33 0 -56 7t-38 20t-22 31q-7 20 -7 42t7 40.5t22 31.5t38 20.5t56 7.5h575q32 0 54.5 -9t37.5 -25t22 -37t7 -45q0 -14 -3.5 -27t-10.5 -27t-18 -29t-26 -35l-457 -566h414q60 0 88 -25t28 -75q0 -49 -28 -74.5 t-88 -25.5h-611q-34 0 -59 9t-41.5 25t-24 37t-7.5 45z" />
<glyph unicode="[" horiz-adv-x="469" d="M73 -172v1096q0 44 11.5 71.5t30.5 43t44 21.5t51 6h152q24 0 44 -5t34.5 -17t22.5 -31t8 -45q0 -27 -8 -46t-22.5 -30.5t-34.5 -17t-44 -5.5h-57v-985h57q24 0 44 -6t34.5 -17.5t22.5 -30t8 -45.5t-8 -46t-22.5 -30.5t-34.5 -17t-44 -5.5h-152q-26 0 -51 6t-44 22 t-30.5 43t-11.5 71z" />
<glyph unicode="\" horiz-adv-x="600" d="M27 947q0 22 9 38.5t23.5 28.5t31.5 18.5t33 6.5q26 0 43.5 -7t29 -17.5t17.5 -22.5q6 -14 10 -24l336 -850q6 -13 9.5 -26t3.5 -27q0 -22 -9 -38.5t-23.5 -28.5t-31.5 -18t-33 -6q-27 0 -44.5 7t-28.5 17t-17 22.5t-10 22.5l-336 850q-5 13 -9 26t-4 28z" />
<glyph unicode="]" horiz-adv-x="469" d="M-2 -215q0 26 8 45t22 30.5t34.5 17.5t44.5 6h57v985h-57q-24 0 -44.5 5.5t-34.5 17t-22 30t-8 46.5q0 27 8 45.5t22 30.5t34.5 17t44.5 5h151q26 0 51 -6t44 -21.5t31 -43t12 -71.5v-1096q0 -44 -12 -71t-31 -43t-44 -22t-51 -6h-151q-24 0 -44.5 5.5t-34.5 17t-22 30.5 t-8 46z" />
<glyph unicode="^" horiz-adv-x="925" d="M84 408q0 16 4 32q6 16 16 35l258 467q11 20 22.5 33t23.5 20t26 10t28 3q15 0 28.5 -3t25.5 -10t24 -20t22 -33l257 -468q10 -20 14.5 -35t4.5 -31q0 -9 -3 -18.5t-11.5 -17.5t-23.5 -13.5t-39 -5.5q-18 0 -32.5 2.5t-27.5 9t-24 18t-21 31.5l-194 357l-196 -357 q-10 -19 -21 -30.5t-24 -18.5t-27 -9t-32 -2q-24 0 -39 5t-24 13t-12 18t-3 18z" />
<glyph unicode="_" horiz-adv-x="702" d="M0 -144q0 16 5 30.5t15 25t24 16.5t30 6h555q16 0 29.5 -6t23.5 -16.5t15 -25t5 -30.5t-5 -30.5t-15 -25t-23 -17t-30 -6.5h-555q-16 0 -30 6.5t-24 17t-15 25t-5 30.5z" />
<glyph unicode="`" horiz-adv-x="502" d="M106 1004q2 10 9 21t18 21t26 17t32 7t32 -7t27.5 -17t24 -23t21.5 -27l74 -98q6 -8 12 -18t10 -20t5 -21t-2 -23q-4 -15 -12 -25.5t-18 -17.5t-21.5 -11t-23.5 -4q-24 0 -43 13t-37 31l-100 109q-22 24 -30 47q-10 24 -4 46z" />
<glyph unicode="a" horiz-adv-x="778" d="M16 198q0 47 16 82.5t54.5 62.5t102.5 46t160 31q43 6 72.5 14t47.5 20t25.5 28t7.5 37q0 19 -9 33t-25 23t-38 13t-48 4q-24 0 -44.5 -5t-38.5 -13t-33.5 -18t-29.5 -21q-10 -8 -22.5 -15.5t-25 -13.5t-24.5 -8q-12 -4 -24 -2q-15 2 -26.5 10t-20 20t-13 27t-4.5 31 q0 37 24 67t66 51.5t99 32.5t125 11q34 0 73 -3t77.5 -11.5t74 -23t62.5 -36.5t43.5 -54t16.5 -74v-355q0 -30 3 -50.5t6.5 -35.5t6.5 -25q3 -12 3 -22q0 -21 -7.5 -34.5t-22 -22t-34.5 -12t-46 -3.5q-49 0 -75 21.5t-36 67.5q-28 -32 -64.5 -50.5t-75.5 -26.5t-76 -10 t-65 -2q-52 0 -96 12t-75.5 38t-49 66.5t-17.5 97.5zM252 190q0 -19 9 -33.5t24 -25.5t35 -16t41 -5q35 0 61.5 11t44 30.5t26.5 44t9 52.5v76q-17 -12 -33 -19.5t-31.5 -12t-30.5 -7.5t-29 -6q-23 -4 -45.5 -9.5t-40.5 -14.5t-29 -25t-11 -40z" />
<glyph unicode="b" horiz-adv-x="850" d="M50 98v794q0 66 31 96t87 30q28 0 51 -8t39 -23t25 -39t9 -56v-268q26 36 53 58.5t55.5 35t59.5 17.5t64 5q57 0 101.5 -19t78 -49t57 -69.5t37.5 -82t21 -84t7 -76.5q0 -88 -22 -159t-62 -121t-98 -77q-56 -27 -128 -27q-28 0 -61 5t-66.5 19t-65 39.5t-58.5 66.5 q0 -30 -7.5 -54t-21.5 -41t-34 -26t-45 -9q-54 0 -80.5 31t-26.5 91zM286 357q0 -47 8 -86t24 -67t43 -43t66 -15q46 0 75.5 18t47.5 47.5t25 66t7 72.5q0 38 -8 74.5t-27 65t-49.5 45.5t-76.5 17q-30 0 -54.5 -12.5t-42.5 -37t-28 -61t-10 -84.5z" />
<glyph unicode="c" horiz-adv-x="770" d="M28 367q0 99 30.5 171.5t83 120t123.5 70t153 22.5q70 0 128 -15.5t98.5 -41.5t63 -59t22.5 -68q0 -20 -7 -37t-17.5 -29.5t-25 -19.5t-31.5 -7q-19 0 -36 5t-35 21q-14 11 -28 24t-30.5 24.5t-35.5 18.5q-20 7 -44 7q-35 0 -60.5 -8t-44.5 -22t-31 -34t-18.5 -42 t-9 -46.5t-2.5 -48.5q0 -44 7 -83.5t24 -69.5t47 -48t76 -18q22 0 41 5t35 13.5t29 20t26 25.5q19 21 41 31.5t44 10.5q24 0 41 -9t27.5 -22.5t15.5 -30t5 -32.5q0 -14 -6.5 -33t-21.5 -39t-39.5 -40t-59.5 -36t-81.5 -26t-106.5 -10q-82 0 -153 23t-123.5 70t-83 119.5 t-30.5 172.5z" />
<glyph unicode="d" horiz-adv-x="850" d="M24 360q0 35 6.5 76.5t21 84t37.5 82t57 69.5t78 49t102 19q33 0 63.5 -5t59.5 -17.5t56 -35t53 -58.5v268q0 32 9 56t25 39t39 23t51 8q56 0 86 -30q31 -30 31 -96v-794q0 -60 -26 -91q-27 -31 -81 -31q-26 0 -45.5 9t-33 26t-21.5 41t-8 54q-26 -41 -58 -66.5 t-65 -39.5t-66 -19t-61 -5q-72 0 -129 27t-97 77t-62 121t-22 159zM268 350q0 -36 7 -72.5t25 -66t48 -47.5q28 -18 74 -18q39 0 66 15t43.5 43t24 67t7.5 86q0 48 -10 84.5t-27.5 61t-42.5 37t-55 12.5q-46 0 -76.5 -17t-49 -45.5t-26.5 -65t-8 -74.5z" />
<glyph unicode="e" horiz-adv-x="818" d="M34 362q0 100 29 172t80 119.5t120 70t149 22.5q75 0 133.5 -16.5t101.5 -44t72 -62.5t47 -71t26 -71t8 -62q0 -28 -6 -49.5t-19.5 -37.5t-34 -24t-48.5 -8h-421q6 -44 21.5 -74t39.5 -49t54 -27t64 -8q46 0 81 10t69 30q26 16 55 23t53 0q13 -4 23.5 -12.5t18.5 -19 t12 -23.5t4 -27q0 -27 -18 -53.5t-59 -47.5t-108 -33.5t-163 -12.5q-80 0 -150 23t-122 70t-82 120t-30 173zM271 434h309q-2 46 -15 77t-34 49.5t-48 26.5t-57 8q-28 0 -54 -7.5t-47 -26.5t-35.5 -50t-18.5 -77z" />
<glyph unicode="f" horiz-adv-x="471" d="M-10 661q0 34 19 50t53 16h26v62q0 112 60 167.5t170 55.5q56 0 91 -7t55 -19.5t28 -29t8 -34.5q0 -21 -6 -36.5t-20 -25.5t-38 -15t-58 -5q-20 0 -34 -12q-14 -14 -14 -38v-63h82q34 0 53 -16t19 -50t-18 -50q-20 -16 -54 -16h-82v-491q0 -64 -31.5 -92t-89.5 -28 t-89.5 28t-31.5 92v491h-26q-34 0 -53 16t-19 50z" />
<glyph unicode="g" horiz-adv-x="852" d="M32 375q0 74 20 142.5t58 120t93.5 82t128.5 30.5q29 0 62.5 -4t67.5 -18.5t66 -43t60 -76.5v18q0 56 26 85t78 29q54 0 81 -32t27 -96v-618q0 -88 -29 -148t-81 -98t-126 -55t-162 -17q-66 0 -116 8t-87 21t-62 30t-39.5 35t-21.5 36q-6 16 -6 30q0 18 6 35t16.5 29 t25.5 20q16 6 36 8q18 2 37 -3t39 -20q14 -10 30.5 -22t35 -22t39.5 -16.5t43 -6.5q52 0 87.5 11t57 35t30.5 60t9 86v72q-28 -34 -57 -54t-59 -30t-60 -13t-60 -3q-32 0 -66 9t-66.5 28t-62 48.5t-51.5 71t-35 95.5t-13 121zM280 372q0 -46 7 -84t24 -66t45 -44 q26 -15 68 -15t70 18t46 47.5t25.5 67t7.5 76.5t-7.5 74.5t-25.5 63.5t-46 44t-70 16t-69 -14t-44 -40t-24 -62t-7 -82z" />
<glyph unicode="h" horiz-adv-x="823" d="M52 108v786q0 33 9 56.5t25 38.5t38 22t48 7t49 -7t39 -22t25 -39t9 -56v-262q28 32 54 53t53 33t55.5 17t61.5 5q68 0 117 -22t80 -59t45 -88t14 -109v-354q0 -33 -9 -56.5t-25 -38.5t-38 -22t-49 -7q-26 0 -48.5 7t-38.5 22t-25 38t-9 57v282q0 37 -6 66t-19 48.5 t-35 29.5t-53 10q-32 0 -55.5 -12.5t-39 -35t-23 -54.5t-7.5 -72v-262q0 -33 -9 -56.5t-25 -38.5t-38 -22q-24 -7 -50 -7t-48 7t-38 22t-25 38t-9 57z" />
<glyph unicode="i" horiz-adv-x="364" d="M61 104v513q0 31 9 53.5t25 37t38.5 22t48.5 7.5t49 -7.5t39 -22t25 -37t9 -53.5v-513q0 -31 -9 -53.5t-25 -37.5t-38 -22q-24 -7 -50 -7t-48.5 7t-38.5 22t-25 37t-9 54zM64 899q0 24 9 46t25 37.5t38 25t46 9.5t46 -9.5t38 -25t25 -37t9 -46.5t-9 -46.5t-25 -37.5 t-38 -25q-22 -10 -46 -10q-25 0 -46.5 9.5t-37.5 25.5t-25 37.5t-9 46.5z" />
<glyph unicode="j" horiz-adv-x="383" d="M-50 -209q0 27 16 39t52 18q20 4 32 8t18 9.5t8 13t2 16.5v721q0 31 9 54t25 37.5t39 22t49 7.5t49 -7.5t39 -22t25 -37t9 -54.5v-716q0 -45 -14.5 -82.5t-44 -64.5t-73.5 -42t-103 -15q-28 0 -53.5 4t-43.5 15t-29 29t-11 47zM82 899q0 24 9 46t25 37.5t37.5 25 t46.5 9.5q24 0 46 -9.5t38 -25t25 -37t9 -46.5t-9 -46.5t-25 -37.5t-38 -25.5t-46 -9.5q-25 0 -46.5 9.5t-37.5 25.5t-25 37.5t-9 46.5z" />
<glyph unicode="k" horiz-adv-x="735" d="M51 114v775q0 34 8 58.5t23.5 39.5t38 22t51.5 7t51.5 -7t38 -22t23.5 -39t8 -59v-417l190 212q14 15 25.5 25.5t23 17.5t23 10t24.5 3q20 0 39.5 -8t35 -22t25 -34t9.5 -44q0 -10 -4 -22t-10 -25t-15 -24.5t-19 -21.5l-101 -103l157 -234q16 -24 27 -53t12 -57t-9.5 -52 t-35.5 -37q-21 -11 -43.5 -16t-45.5 1.5t-46 26t-46 57.5l-124 206l-92 -96v-68q0 -34 -8 -58.5t-23.5 -40t-38 -22.5t-51.5 -7t-51.5 7t-38 22.5t-23.5 40t-8 58.5z" />
<glyph unicode="l" horiz-adv-x="362" d="M60 104v794q0 31 9 53.5t25 37t38 21.5q24 8 50 8t48 -7.5t38 -22t25 -37.5t9 -53v-794q0 -31 -9 -53.5t-25 -37.5t-38 -22t-48 -7t-49 7t-39 22t-25 37t-9 54z" />
<glyph unicode="m" horiz-adv-x="1289" d="M51 110v514q0 60 28.5 91t88.5 31q52 0 80 -29.5t28 -97.5q48 68 112 97q64 30 142 30q30 0 62 -6t60 -21t50 -41.5t34 -68.5q27 46 56.5 72.5t60.5 41t63 19.5q34 4 68 4q68 0 116 -21t79 -58t45 -87t14 -108v-362q0 -32 -9 -55.5t-25 -38.5t-38 -22q-24 -7 -50 -7 t-48.5 7t-38.5 22t-25 38.5t-9 55.5v292q0 42 -7 70t-21.5 46t-35.5 26t-50 8q-22 0 -42.5 -11t-36.5 -32t-26 -50t-10 -66v-283q0 -32 -9 -55.5t-25 -38.5t-38 -22t-49 -7t-49 7t-38.5 22t-25.5 38.5t-9 55.5v292q0 42 -7 70t-21 46t-35.5 26t-49.5 8q-22 0 -43 -11 t-37 -32t-26 -50t-10 -66v-283q0 -32 -9 -55.5t-25 -38.5t-38 -22t-49 -7q-26 0 -48.5 7t-39 22t-25.5 38.5t-9 55.5z" />
<glyph unicode="n" horiz-adv-x="842" d="M51 108v520q0 57 28.5 86t88.5 29q54 0 81.5 -29.5t27.5 -94.5q51 65 115.5 94.5t140.5 29.5q69 0 118 -20t80 -55t45.5 -82.5t14.5 -101.5v-376q0 -31 -9 -53.5t-25 -37.5t-38.5 -22t-48.5 -7q-27 0 -49.5 7t-38.5 22t-25 38t-9 53v309q0 70 -32 106t-95 36 q-32 0 -55.5 -11.5t-39.5 -32.5t-24 -51t-8 -66v-290q0 -31 -9 -53.5t-25 -37.5t-38 -22t-50 -7q-27 0 -49 7t-38 22t-25 38t-9 53z" />
<glyph unicode="o" horiz-adv-x="823" d="M16 362q0 89 28 160.5t80 120.5t125 76t163 27q92 0 165.5 -27t125 -76t79 -120t27.5 -161t-28.5 -161t-80.5 -120t-125 -75t-163 -26t-163 26t-125 75t-80 120t-28 161zM258 362q0 -42 8.5 -80.5t27 -69t47.5 -48.5t71 -18t71 17t48.5 47t28.5 70q10 38 10 82 q0 42 -8 81t-27 69.5t-49 49t-74 18.5q-40 0 -69 -18.5t-48 -49t-28 -69.5t-9 -81z" />
<glyph unicode="p" horiz-adv-x="850" d="M50 -168v794q0 60 26 91t81 31q26 0 45.5 -9.5t33.5 -26t21.5 -40.5t7.5 -54q26 41 58 66.5t65.5 39.5t65.5 19q34 5 62 5q72 0 129 -27t97 -77t62 -121t22 -159q0 -35 -7 -76.5t-21 -84t-37.5 -82t-57 -69.5t-78 -49t-101.5 -19q-33 0 -64 4t-59.5 16t-56.5 34 q-26 22 -52 58v-264q0 -32 -9 -56t-25 -39t-39 -23t-51 -8q-56 0 -87 30t-31 96zM286 367q0 -48 10 -84.5t28 -61t43 -37t54 -12.5q46 0 76.5 17t49.5 45.5t27 65t8 74.5q0 36 -7 72.5t-25 66t-48 47.5t-75 18q-39 0 -66 -15t-43 -43t-24 -67t-8 -86z" />
<glyph unicode="q" horiz-adv-x="850" d="M24 364q0 88 22 159t62 121t97 77t129 27q28 0 61 -5t66 -19t65 -39.5t58 -66.5q0 30 8 54t21.5 40.5t33.5 25.5q19 10 45 10q54 0 80.5 -31t26.5 -91v-794q0 -66 -30.5 -96t-86.5 -30q-28 0 -51 8t-39 23t-25 39t-9 56v264q-26 -36 -53 -58t-56 -34t-60 -16t-63 -4 q-57 0 -101.5 19t-78.5 49t-57 69.5t-37.5 82t-21 84t-6.5 76.5zM268 374q0 -38 8 -74.5t26.5 -65t49 -45.5t76.5 -17q30 0 55 12.5t42.5 37t27.5 61t10 84.5q0 47 -7.5 86t-24 67t-43 43t-66.5 15q-46 0 -75 -18t-47 -47.5t-25 -66t-7 -72.5z" />
<glyph unicode="r" horiz-adv-x="561" d="M51 108v520q0 30 8.5 51.5t23.5 35t34 20t41 6.5t41 -5.5t33 -19.5t22 -37t8 -57v-31q22 41 43 70t44 46.5t49.5 25.5t59.5 8q26 0 47 -8t36 -22.5t23.5 -34.5t8.5 -44q0 -33 -8.5 -56.5t-24.5 -39t-37.5 -23t-47.5 -9.5l-33 -1q-66 -6 -98.5 -45.5t-32.5 -119.5v-230 q0 -30 -9 -52.5t-24.5 -37t-38 -21.5t-48.5 -7t-48.5 7t-38 21.5t-24.5 37t-9 52.5z" />
<glyph unicode="s" horiz-adv-x="739" d="M24 148q0 19 6 35.5t17.5 27.5t26 18t32.5 7q10 0 20 -4t20 -9.5t20 -13t20 -14.5q16 -12 33 -23.5t38 -20.5t46 -14.5t55 -5.5q54 0 80 17.5t26 45.5q0 12 -4 24t-15 22t-32 19t-54 17l-83 18q-70 16 -118.5 38t-78 49.5t-41.5 60.5q-13 32 -13 70q0 26 6.5 54t22.5 53 t42 47t64 38.5t89 26t119 9.5q40 0 79 -4t74.5 -11.5t66 -19t53.5 -28t36 -37.5q13 -20 13 -46q0 -16 -6 -31t-16 -27t-24 -19t-30 -7q-28 0 -50 6t-44 21q-15 10 -30.5 20.5t-35 19.5t-43 14.5t-51.5 5.5q-46 0 -72 -13.5t-26 -45.5q0 -14 4 -25t15 -20t31 -17t52 -15 l118 -27q54 -12 98 -30.5t75 -44t47 -58.5t16 -75q0 -30 -8 -60t-25 -57t-46 -50t-70 -40t-96 -26.5t-125 -9.5q-64 0 -123 10t-104 30.5t-71 51.5t-26 73z" />
<glyph unicode="t" horiz-adv-x="513" d="M-12 662q0 33 16 49.5t50 16.5h50v108q0 64 31.5 94t89.5 30t89.5 -30t31.5 -94v-108h83q34 0 49.5 -16t15.5 -50t-15 -49.5t-50 -15.5h-83v-366v-21q0 -26 14 -38t35 -12q35 0 58 -5t37 -15t19 -26t5 -36q0 -18 -7 -34t-27 -28.5t-55 -20t-91 -7.5q-111 0 -170.5 56 t-59.5 168v385h-50q-34 0 -50 16q-16 15 -16 49z" />
<glyph unicode="u" horiz-adv-x="844" d="M52 247v375q0 31 9 53.5t25 37.5t38 22.5t50 7.5q27 0 49 -7.5t38 -22.5t25 -37.5t9 -53.5v-308q0 -70 31.5 -106t95.5 -36q32 0 55.5 11t39 32t23.5 51t8 66v290q0 31 9 53.5t25.5 37.5t39 22.5t48.5 7.5q27 0 49.5 -7.5t38.5 -22.5t25 -37.5t9 -53.5v-519 q0 -57 -28 -86t-89 -29q-54 0 -81 30q-28 30 -28 94q-51 -65 -115.5 -94.5t-140.5 -29.5q-69 0 -118 20t-80 55t-45.5 82t-14.5 102z" />
<glyph unicode="v" horiz-adv-x="756" d="M26 638q0 23 9 41.5t24 31.5t35 20t44 7q26 0 44.5 -3.5t33 -15t25.5 -31.5t21 -50l119 -390l115 390q8 26 17 44t22.5 31t33 19t49.5 6q24 0 44 -7t35.5 -20t24 -31t8.5 -42q0 -13 -1 -24.5t-3.5 -23.5t-7 -26.5t-11.5 -33.5l-157 -440q-11 -30 -26.5 -49.5t-36.5 -31 t-48.5 -15.5t-61.5 -4q-32 0 -58.5 4t-47.5 15t-37 31t-26 50l-156 440q-7 20 -12 34.5t-8 27t-4.5 23.5t-1.5 23z" />
<glyph unicode="w" horiz-adv-x="1162" d="M28 637q0 20 7 38.5t22 33t35.5 23t47.5 8.5q24 0 43 -6t32 -17t21 -25.5t12 -31.5l103 -403l92 355q10 38 20.5 63t25.5 39t37 20t55 6q36 0 58 -6.5t36.5 -22t24.5 -39.5t20 -60l100 -355l94 403q4 18 12 33t21 25t31 16t44 6q27 0 48 -8.5t35.5 -23t22 -32.5t7.5 -39 q0 -13 -1.5 -26t-4.5 -28t-8 -33t-12 -40l-122 -395q-12 -36 -23.5 -60.5t-28.5 -38.5t-39.5 -20t-54.5 -6q-34 0 -62.5 4.5t-50 18t-37 38.5t-25.5 67l-84 355l-86 -355q-10 -42 -24.5 -67t-35 -38.5t-48.5 -18.5q-28 -4 -62 -4q-28 0 -50.5 4t-40.5 17.5t-32.5 38 t-26.5 65.5l-122 395q-7 22 -12.5 40t-8.5 33t-4 28t-1 26z" />
<glyph unicode="x" horiz-adv-x="720" d="M25 90q0 28 10.5 53t34.5 55l138 180l-136 176q-16 24 -25 43t-9 41q0 18 9 36t24 32t36.5 22.5t45.5 8.5q15 0 27 -3.5t24 -11.5t23 -21t25 -33l108 -155l108 159q12 18 24 31t23 20t24 10.5t27 3.5q24 0 45 -8.5t36.5 -22.5t24.5 -32t9 -36q0 -22 -8.5 -41t-24.5 -43 l-137 -176l139 -180q11 -16 19.5 -29.5t14.5 -26t8.5 -25.5t2.5 -27q0 -16 -6.5 -34t-19.5 -32.5t-34 -24t-49 -9.5q-18 0 -32.5 3t-28 11t-25 23t-23.5 37l-117 172l-117 -172q-14 -20 -26.5 -34t-24.5 -23t-26 -13t-32 -4q-29 0 -49.5 9.5t-33.5 24t-19.5 32.5t-6.5 34z " />
<glyph unicode="y" horiz-adv-x="798" d="M28 593q-4 19 -4 37q0 20 5 37q9 33 38 53t82 20q22 0 38.5 -6t29.5 -18t23.5 -30.5t20.5 -42.5l159 -388l114 359q14 41 27 66.5t30 39.5t36.5 18t44.5 0q36 -4 59 -17t33 -36t7 -58t-21 -82l-222 -617q-23 -64 -56 -105.5t-72.5 -66t-82.5 -34.5t-85 -10 q-79 0 -117.5 28t-38.5 78q0 22 7 36.5t19.5 23.5t30 13t39.5 4q32 0 57 4.5t43 12.5t29 18t15 22l16 46l-274 512q-22 42 -30 83z" />
<glyph unicode="z" horiz-adv-x="731" d="M28 90q0 15 3.5 28.5t10.5 27.5t18 28t26 32l312 352h-252q-42 0 -65 23t-23 61q0 18 5.5 34t17.5 27t31.5 18t48.5 7h433q30 0 50.5 -10t32 -26t15.5 -37t0 -44t-15 -45.5t-28 -41.5l-308 -354h275q42 0 64 -22q23 -20 23 -62q0 -38 -22.5 -62t-64.5 -24h-506 q-22 0 -37 8t-25 21t-15 29t-5 32z" />
<glyph unicode="{" horiz-adv-x="545" d="M10 376q0 16 5.5 32.5t16.5 29t28 20.5q16 8 40 8q10 0 20 2t17.5 10t12 23t4.5 41v311q0 110 52 161t156 51h108q18 0 34 -5.5t27 -16.5t17.5 -26.5t6.5 -36.5q0 -22 -6.5 -38.5t-17.5 -28t-27 -17.5t-34 -6h-36q-22 0 -35 -14t-13 -48v-304q0 -34 -7 -58.5t-19 -42 t-27 -29t-32 -18.5q16 -7 31.5 -18.5t27.5 -29.5t19 -42t7 -58v-304q0 -34 13 -48.5t35 -14.5h36q18 0 34 -6t27 -17.5t17.5 -27.5t6.5 -38q0 -21 -6.5 -37t-17.5 -26.5t-27 -16.5t-34 -6h-108q-104 0 -156 51t-52 161v312q0 26 -4.5 41t-12 23t-17.5 10t-20 2 q-24 0 -40.5 8t-27.5 21t-16.5 29t-5.5 32z" />
<glyph unicode="|" horiz-adv-x="348" d="M62 -198v1201q0 24 9 43.5t24 33.5t35 22t44 8q23 0 43.5 -8t35.5 -22t24 -34t9 -43v-1201q0 -24 -9 -43t-24 -33.5t-35.5 -22.5t-43.5 -8q-24 0 -44 8t-35 22.5t-24 33.5t-9 43z" />
<glyph unicode="}" horiz-adv-x="545" d="M-10 -228q0 22 6.5 38t18 27.5t27.5 17.5t34 6h35q22 0 35 14q14 15 14 49v304q0 33 7 57.5t18 42.5t27 29.5t32 18.5q-16 7 -32 18.5t-27 29t-18 42t-7 58.5v304q0 34 -13.5 48t-35.5 14h-35q-18 0 -34 6t-27.5 17.5t-18 28t-6.5 38.5q0 21 6.5 36.5t18 26.5t27.5 17 q16 5 34 5h106q104 0 156 -51t52 -161v-311q0 -26 5 -41t12.5 -23t17 -10t19.5 -2q24 0 41 -8t28 -20.5t16 -28.5q5 -17 5 -33q0 -17 -5 -32.5t-16 -28.5t-28 -21t-41 -8q-10 0 -19.5 -2t-17 -10t-12.5 -23t-5 -41v-312q0 -110 -52 -161t-156 -51h-106q-18 0 -34 6 t-27.5 16.5t-18 26.5t-6.5 37z" />
<glyph unicode="~" horiz-adv-x="833" d="M54 307q0 32 14.5 66t41 61.5t63.5 44.5t83 17q32 0 65 -11t67 -25t67 -28t64.5 -19t61.5 1q29 6 57 32q8 8 16 15t17 13t19 9q8 3 20 3q19 0 32.5 -7t21.5 -17.5t11 -24t3 -27.5q0 -32 -14 -65.5t-41 -61t-66 -45t-88 -17.5q-31 0 -63.5 11t-65 25.5t-64.5 28.5t-63 19 t-61 -1t-58 -32q-8 -8 -15.5 -15t-16 -13t-18.5 -9t-22 -3q-19 0 -31.5 7t-20.5 17t-12 24t-4 27z" />
<glyph unicode="&#xa2;" horiz-adv-x="817" d="M53 473q0 84 21.5 155t64.5 124.5t106 86.5t147 41v95q0 9 3 18t9 16t14 11t18 4q9 0 16.5 -4t13.5 -11t9 -16t3 -18v-91q60 -4 111 -23t88 -46t57.5 -60t20.5 -68q0 -23 -7.5 -40t-21.5 -28.5t-31.5 -17t-37.5 -5.5q-22 0 -36.5 7t-25.5 19t-20 26t-21.5 28t-30 24 t-45.5 16v-454q26 6 43.5 17t30 26t23 30t23 28t28.5 21t42 8q20 0 36 -6.5t27 -18t17 -25.5q7 -14 7 -30q0 -32 -16.5 -68t-51.5 -67t-87 -53t-122 -28v-102q0 -9 -3 -17.5t-9 -15.5t-14 -11t-16 -4q-10 0 -18 4t-14 11t-9 16t-3 17v102q-86 6 -150 36t-106 80t-62.5 116.5 t-20.5 144.5zM258 473q0 -42 9 -76.5t26 -61.5t42 -45t57 -26v448q-25 -7 -49.5 -23.5t-43 -45.5t-30 -71t-11.5 -99z" />
<glyph unicode="&#xa3;" horiz-adv-x="837" d="M4 488q0 38 20 60q22 22 62 22h6q-8 16 -15 35.5t-11.5 39t-7 39.5t-2.5 38q0 66 27.5 122t76 96t113.5 62t141 22q62 0 114 -10.5t93 -29t71.5 -42.5t51 -52t30.5 -58t10 -58q0 -27 -9 -47.5t-25 -34.5t-37.5 -21.5t-47.5 -7.5q-24 0 -40.5 6.5t-27.5 17.5t-18.5 25.5 t-14.5 30.5q-7 15 -15.5 30t-22 27t-35.5 20q-21 8 -55 8q-27 0 -52.5 -8t-44.5 -23t-30.5 -37t-11.5 -50q0 -15 3.5 -33.5t8.5 -37t12 -36.5t14 -33h137q50 0 76 -20t26 -62t-26 -62t-76 -20h-84q4 -30 -5 -61.5t-25 -61.5t-38 -57.5t-43 -48.5q24 10 49.5 16.5t59.5 6.5 q26 0 52 -4t51 -9t51 -9.5t52 -4.5q12 0 25 2.5t25.5 5.5t25 5t25.5 2q46 0 71.5 -25t25.5 -69q0 -36 -15.5 -59t-40 -37t-55.5 -20t-63 -6q-38 0 -76 8t-77 17.5t-79 17.5q-38 8 -80 8q-24 0 -46 -8t-43 -17.5t-43 -17.5q-20 -8 -44 -8q-26 0 -46 8.5t-33 23t-19 34.5 q-7 20 -7 44q0 29 13.5 54.5t33 50t40.5 48.5t35.5 50.5t19 55.5t-9.5 65h-60q-40 0 -65.5 20t-25.5 62z" />
<glyph unicode="&#xa5;" horiz-adv-x="926" d="M58 890q0 34 14 57t34 37t44 20t46 6q26 0 45 -9t32 -21t21 -24.5t12 -20.5l157 -301l157 300q4 8 12 21t21 25t32 21t45 9q21 0 45.5 -6t44.5 -20t34 -37t14 -57q0 -18 -7 -35t-15 -31l-154 -252h47q16 0 29 -6t23 -15.5t15.5 -23t5.5 -28.5q0 -16 -5.5 -29t-15.5 -23 t-23.5 -15.5t-28.5 -5.5h-133q-4 -7 -8 -12q-4 -6 -8 -13v-44h149q16 0 29 -5.5t23 -15.5t15.5 -23.5t5.5 -28.5q0 -16 -5.5 -29t-15.5 -23t-23.5 -15.5t-28.5 -5.5h-149v-95q0 -29 -8 -52.5t-25 -40.5t-40.5 -26t-53.5 -9t-53.5 9t-40.5 26t-25 40.5t-8 52.5v95h-149 q-16 0 -29.5 5.5t-23 15.5t-15 23t-5.5 29q0 15 5.5 28.5t15 23.5t23.5 15.5t29 5.5h149v44q-4 8 -7 12q-3 5 -9 13h-133q-16 0 -29.5 5.5t-23 15.5t-15 23.5t-5.5 28.5t5.5 28.5t15 23t23.5 15.5t29 6h47l-154 252q-8 14 -15 31t-7 35z" />
<glyph unicode="&#xa9;" horiz-adv-x="1108" d="M33 494q0 72 19 139t53.5 124t82 104t105.5 80.5t124.5 52t137.5 18.5t137 -18.5t124 -52t106 -80.5t82 -104t52.5 -124t18.5 -139q0 -74 -18.5 -142t-52.5 -125.5t-82 -104t-106 -79.5t-124 -50t-137 -17t-137.5 17t-124.5 50t-105.5 79.5t-82 104t-53.5 125t-19 142.5z M174 494q0 -86 28.5 -158.5t79 -126t120.5 -83.5t153 -30q80 0 149.5 30t121 83.5t81 126t29.5 158.5q0 57 -13.5 108t-38 94.5t-59 79t-77 60t-91.5 38t-102 13.5q-83 0 -153 -29.5t-120.5 -82t-79 -124t-28.5 -157.5zM278 490q0 64 19.5 119t56 95t88.5 63t117 23 q56 0 99.5 -15.5t73.5 -40t46 -54t16 -56.5q0 -18 -6 -31t-15 -21t-19 -11t-16 -3q-16 0 -26.5 3.5t-18 10t-12.5 14.5t-11 18q-6 12 -13.5 24t-20 21.5t-30.5 15.5t-47 6q-30 0 -54.5 -12.5t-42 -35.5t-26.5 -55q-10 -34 -10 -74t9.5 -73t27 -57t43 -38t56.5 -14q26 0 43 6 t29.5 16t21 22t15.5 24q6 10 12.5 19t14.5 16t19 11t25 4q26 0 42 -16q16 -14 16 -42q0 -13 -7 -31.5t-21 -38.5t-34 -39.5t-46.5 -35t-59 -25t-70.5 -9.5q-64 0 -116.5 23t-90 63.5t-57.5 94.5t-20 116z" />
<glyph unicode="&#xab;" horiz-adv-x="758" d="M46 389q0 32 14 61q14 28 40 46l136 100q26 18 49 19t40 -8.5t28 -28t11.5 -40t-10.5 -43t-37 -39.5l-99 -68l99 -68q24 -17 35.5 -38.5t11.5 -43.5t-10 -40t-27 -28t-41 -8t-50 21l-137 99q-26 18 -39.5 46.5t-13.5 60.5zM364 389q0 32 14 61q13 28 39 46l137 100 q26 18 48.5 19t40 -8.5t28.5 -28t11 -40t-11 -43t-37 -39.5l-99 -68l99 -68q24 -17 36 -38.5t11.5 -43.5t-10 -40t-27 -28t-41 -8t-50.5 21l-137 99q-26 18 -39 46.5t-13 60.5z" />
<glyph unicode="&#xad;" horiz-adv-x="676" d="M40 397q0 24 8 41.5t22 27.5t31 15t37 5h400q19 0 36.5 -5t31 -15t22 -27t8.5 -42t-8.5 -42t-22 -28t-31 -15.5t-36.5 -4.5h-400q-20 0 -37 4.5t-31 15.5t-22 28t-8 42z" />
<glyph unicode="&#xae;" horiz-adv-x="1108" d="M33 494q0 72 19 139t53.5 124t82 104t105.5 80.5t124.5 52t137.5 18.5t137 -18.5t124 -52t106 -80.5t82 -104t52.5 -124t18.5 -139q0 -74 -18.5 -142t-52.5 -125.5t-82 -104t-106 -79.5t-124 -50t-137 -17t-137.5 17t-124.5 50t-105.5 79.5t-82 104t-53.5 125t-19 142.5z M174 494q0 -86 28.5 -158.5t79 -126t120.5 -83.5t153 -30q80 0 149.5 30t121 83.5t81 126t29.5 158.5q0 57 -13.5 108t-38 94.5t-59 79t-77 60t-91.5 38t-102 13.5q-83 0 -153 -29.5t-120.5 -82t-79 -124t-28.5 -157.5zM350 275v425q0 18 6 32t16 23t23 13t26 4h172 q48 0 86.5 -8t64.5 -28.5t40.5 -55t14.5 -85.5q0 -38 -9.5 -66.5t-26 -49.5t-38 -33t-44.5 -16l79 -110q10 -13 14.5 -27t4 -28t-7.5 -26.5t-19 -20.5q-17 -12 -34 -14t-32.5 3t-28.5 16.5t-24 26.5l-121 177h-20v-152q0 -19 -6 -33t-15.5 -23t-22 -13.5t-27.5 -4.5 q-14 0 -27.5 4.5t-23 13.5t-15 23t-5.5 33zM492 546h94q13 0 24.5 2.5t20 8.5t13.5 16.5t5 26.5t-5 26t-13.5 16t-20.5 8t-24 2h-94v-106z" />
<glyph unicode="&#xbb;" horiz-adv-x="758" d="M76 538q0 22 11 40t28.5 28t40.5 8q22 -1 48 -19l137 -99q26 -18 39 -46q14 -30 14 -62t-14 -60q-12 -29 -38 -47l-137 -99q-27 -19 -50.5 -20.5t-41 8.5t-27 28t-10 39.5t11.5 43.5t36 39l99 68l-99 68q-26 17 -37 38.5t-11 43.5zM393.5 538q0.5 22 11.5 40t28 28 t40 8.5t49 -19.5l136 -99q26 -18 40 -46q14 -30 14 -62t-14 -60.5t-39 -46.5l-137 -99q-27 -19 -50.5 -20.5t-40.5 8.5t-27 28t-10 39.5t11 43.5t36 39l99 68l-99 68q-26 17 -37 38.5t-10.5 43.5z" />
<glyph unicode="&#xbc;" horiz-adv-x="1229" d="M54 808q0 17 4 27.5t12.5 17.5t22 11t33.5 7l32 5q16 3 27.5 9.5t20 14.5t14.5 18t11 19q6 10 12.5 20.5t14.5 18t19.5 12t28.5 4.5q16 0 29 -3t22 -10.5t14 -20t5 -32.5v-453q0 -18 -4 -34.5t-14 -27.5t-26 -18t-40 -7q-22 0 -38 7t-26 18t-15 27t-5 35v292 q-20 -10 -46 -13q-24 -4 -50 -4t-42 15t-16 45zM316 32q0 12 4 24.5t12 26.5l470 887q4 8 10 16t13.5 14t17 10t21.5 4q14 0 25.5 -5t20 -12.5t13.5 -18t5 -20.5q0 -12 -4 -24t-12 -26l-471 -889q-4 -8 -9.5 -15.5t-13.5 -13.5t-17.5 -10t-21.5 -4q-14 0 -25.5 5t-19.5 13 t-13 18t-5 20zM685 182q0 21 5 34q4 14 11 22l255 311q8 10 16.5 17.5t19 12.5t23.5 8t31 3t34 -5t27 -14t17 -23t6 -30v-278h24q27 0 42.5 -17.5t15.5 -45.5t-16 -45.5t-42 -17.5h-24v-62q0 -15 -3.5 -27.5t-13 -21.5t-24.5 -14t-37 -5q-23 0 -38.5 5t-24.5 14t-13 21 t-4 28v62h-209q-20 0 -34.5 6.5t-24.5 16t-14.5 21.5t-4.5 24zM844 240h128v162z" />
<glyph unicode="&#xbd;" horiz-adv-x="1229" d="M54 808q0 17 4 27.5t12.5 17.5t22 11t33.5 7l32 5q16 3 27.5 9.5t20 14.5t14.5 18t11 19q6 10 12.5 20.5t14.5 18t19.5 12t28.5 4.5q16 0 29 -3t22 -10.5t14 -20t5 -32.5v-453q0 -18 -4 -34.5t-14 -27.5t-26 -18t-40 -7q-22 0 -38 7t-26 18t-15 27t-5 35v292 q-20 -10 -46 -13q-24 -4 -50 -4t-42 15t-16 45zM271 32q0 12 4 24q3 13 11 27l472 887q4 8 9.5 16t13 14t17.5 10t22 4q14 0 25 -5t19.5 -12.5t13 -18t4.5 -20.5q0 -12 -4 -24t-12 -26l-470 -889q-4 -8 -10 -15.5t-13 -13.5t-17 -10t-22 -4q-14 0 -25 5t-20 13t-13.5 18 t-4.5 20zM713 80q0 23 10 44.5t33.5 45t62 50t95.5 60.5q32 18 54.5 32t37 27t20.5 28t6 34q0 13 -6 23.5t-17 18t-25 11.5t-30 4q-33 0 -58.5 -16t-37.5 -48q-4 -12 -9.5 -22t-13 -17t-17.5 -10.5t-26 -3.5t-29.5 3.5t-24 11.5t-16 20t-5.5 30q0 40 19.5 74t53 59t78.5 39 t96 14q56 0 99 -13t74 -36t47 -55t16 -68q0 -42 -9 -73t-26.5 -54.5t-44.5 -42.5q-28 -20 -64 -38q-34 -18 -56 -29t-37 -18t-24 -12t-17 -11h205q36 0 55.5 -17.5t19.5 -53.5q0 -40 -20 -55.5t-55 -15.5h-332q-22 0 -37.5 6.5t-25.5 17t-14.5 25.5t-4.5 31z" />
<glyph unicode="&#xbe;" horiz-adv-x="1229" d="M60 518q0 30 21 48.5t56 18.5q16 0 26 -3.5t17.5 -9t12.5 -13t11 -15.5q5 -8 10.5 -15.5t15 -14t24 -10.5t36.5 -4t39 5t28 14t16 20t5 23t-3 22t-10 17.5t-20 13t-33 7.5q-10 2 -24.5 4t-27.5 7.5t-22 16t-9 30.5q0 21 5.5 33.5t16.5 20t27.5 10.5t37.5 4 q26 2 37.5 15.5t11.5 34.5q0 11 -5.5 19.5t-15.5 14.5t-22.5 9t-26.5 3q-19 0 -32 -4t-22 -9.5t-16 -13t-12 -13.5q-6 -8 -11.5 -15t-13.5 -12t-18 -8t-24 -3q-15 0 -27.5 3t-22.5 10t-16 18t-6 28q0 26 10 48t28 39t41 29.5t48 20.5t51 12t50 4q63 0 106.5 -15t71 -38.5 t40 -54t12.5 -61.5q0 -38 -18 -65.5t-52 -47.5q44 -16 64 -49.5t20 -78.5q0 -51 -20 -88.5t-54.5 -62.5t-81 -38t-98.5 -13q-44 0 -78.5 8t-60 21t-43.5 29t-29 33t-16 33t-5 28zM382 32q0 12 4 24.5t11 26.5l471 887q4 8 10 16t13 14t17 10t22 4q14 0 25 -5t20 -12.5 t13.5 -18t4.5 -20.5q0 -12 -4.5 -24t-11.5 -26l-471 -889q-4 -8 -9.5 -15.5t-13 -13.5t-17.5 -10t-22 -4q-14 0 -25 5t-19.5 13t-13 18t-4.5 20zM685 182q0 21 5 34q4 14 11 22l255 311q8 10 16.5 17.5t19 12.5t23.5 8t31 3t34 -5t27 -14t17 -23t6 -30v-278h24 q27 0 42.5 -17.5t15.5 -45.5t-16 -45.5t-42 -17.5h-24v-62q0 -15 -3.5 -27.5t-13 -21.5t-24.5 -14t-37 -5q-23 0 -38.5 5t-24.5 14t-13 21t-4 28v62h-209q-20 0 -34.5 6.5t-24.5 16t-14.5 21.5t-4.5 24zM844 240h128v162z" />
<glyph unicode="&#xd7;" horiz-adv-x="807" d="M68 154q0 17 7.5 31.5t20.5 28.5l181 182l-181 182q-13 14 -20.5 28t-7.5 32q0 20 7.5 37.5t20 30t30.5 19t38 6.5q16 0 31 -8.5t26 -18.5l183 -182l182 182q12 11 26.5 19t30.5 8q20 0 37.5 -6.5t30.5 -19t20.5 -30t7.5 -37.5q0 -18 -7.5 -32t-20.5 -28l-181 -182 l181 -182q12 -12 20 -28t8 -32q0 -20 -7.5 -37.5t-20.5 -30t-30.5 -19.5t-37.5 -7q-16 0 -31 9q-14 9 -26 19l-182 182q-46 -46 -92 -91t-91 -91q-12 -11 -26.5 -19.5t-30.5 -8.5q-20 0 -38 7t-30.5 19.5t-20 30t-7.5 37.5z" />
<glyph unicode="&#xf7;" horiz-adv-x="833" d="M40 397q0 24 8 41.5t22 27.5t31 15t37 5h558q19 0 36.5 -5t30.5 -15t21.5 -27t8.5 -42t-8.5 -42t-21.5 -28t-31 -15.5t-36 -4.5h-558q-20 0 -37 4.5t-31 15.5t-22 28t-8 42zM301 110q0 24 9.5 46t25 38t36 26t44.5 10t45 -10t37 -26t25 -38t9 -46q0 -22 -9 -41.5t-25 -35 t-36.5 -24.5t-43.5 -9t-44.5 8.5t-37.5 23.5t-25.5 35t-9.5 43zM301 684q0 24 9.5 45t25 37t36 25.5t44.5 9.5t45 -9.5t37 -25.5t25 -37t9 -45q0 -23 -9 -43.5t-25 -36.5t-36.5 -25t-43.5 -9t-44.5 9t-37.5 25t-25.5 36.5t-9.5 43.5z" />
<glyph unicode="&#xe01;" horiz-adv-x="901" d="M8.5 584.5q-0.5 11.5 3.5 23.5t12 28q22 44 57 84t85 71t115 49t145 18q76 0 136 -13t107 -36t80 -55t54 -71t31 -82t10 -89v-403q0 -26 -10 -47.5t-27.5 -37.5t-40.5 -25q-22 -9 -48 -9t-49 9t-40 25t-27 38t-10 47v387q0 20 -3 39.5t-9.5 38t-18 35t-30.5 29t-45 19.5 t-60 7q-40 0 -68.5 -9t-47 -22t-28.5 -29t-16 -30q13 -12 22.5 -25t16 -28t10 -33t3.5 -42v-337q0 -26 -10 -47.5t-27 -37.5t-39 -25t-48 -9t-49 9t-39.5 25t-26 38t-9.5 47v343q0 21 -7.5 43.5t-28.5 42.5q-13 12 -19 23.5t-6.5 23z" />
<glyph unicode="&#xe02;" horiz-adv-x="768" d="M-10 756q0 18 6 33t16 26t25 18t32 7h193q18 0 31 -7t22.5 -18t16.5 -27q6 -14 10 -32l74 -382l74 380q6 25 21 44.5t35.5 31.5t45 16.5t49.5 -0.5q26 -5 45.5 -19t32.5 -34t17 -45q4 -24 -2 -52l-134 -543q-8 -34 -24 -63.5t-39 -51.5t-54 -35t-67 -13q-38 0 -68 13 t-53 35t-39 52t-24 63l-130 519h-33q-18 0 -32.5 6t-24.5 18t-16 27t-6 33z" />
<glyph unicode="&#xe03;" horiz-adv-x="817" d="M8 767q2 19 10.5 35t23.5 28q14 10 34 16q18 5 37 2.5t35 -11t28 -23t17 -33.5q4 -16 14.5 -24.5t24.5 -8.5t24 9t16 25q5 15 15 27.5t22.5 21.5t28 14t32.5 5q22 0 40.5 -8t32 -22t21.5 -33t8 -39q0 -52 -3 -92t-12 -72t-27 -60t-45 -55q-17 -17 -27 -38t-15 -43.5 t-7 -46t-2 -44.5q0 -63 20.5 -97t69.5 -34q23 0 39.5 6.5t26.5 21t15 37.5t5 55v448q0 26 10 47.5t27 36.5t39.5 23.5t48.5 8.5t48.5 -8.5t39.5 -23.5t27 -36.5t10 -47.5v-462q0 -50 -13 -91.5t-36.5 -74t-55.5 -56.5t-69.5 -40t-78.5 -23t-83 -7q-64 0 -125 18.5t-109.5 55 t-78 91.5t-29.5 127q0 50 4 91t17 75.5t37 64.5t64 60q10 7 20 15q8 7 18 14.5t19 15.5q-4 -2 -10.5 -3t-13.5 -2t-13 -2t-8 -1q-19 0 -46.5 4.5t-57 18.5t-56 39.5t-44.5 67.5q-6 18 -4 37z" />
<glyph unicode="&#xe04;" horiz-adv-x="930" d="M58 104v402q0 46 9 90t29.5 83t53 72t77.5 57t105 37t135 13q74 0 133.5 -13t104.5 -37t77 -57t52 -72t29 -83t9 -90v-402q0 -26 -10 -47t-27 -36t-40 -23t-48 -8q-26 0 -48.5 8t-39.5 23t-27 36t-10 47v408q0 29 -6 55.5t-23.5 46.5t-48 32t-77.5 12q-48 0 -79 -12 t-49.5 -32t-26 -46.5t-7.5 -55.5v-60q28 24 60.5 41t71.5 25q21 4 39 0.5t32 -13t23 -24.5t11 -33t-1 -35.5t-12.5 -32t-24 -24.5t-32.5 -14q-48 -8 -80 -27t-51.5 -48.5t-27.5 -68t-8 -86.5v-8q0 -26 -9.5 -47t-26.5 -36t-40 -23t-48 -8q-26 0 -48.5 8t-39 23t-26 36 t-9.5 47z" />
<glyph unicode="&#xe05;" horiz-adv-x="938" d="M58 104v416q0 50 10 96t33 87t61 74t94 56q10 4 24 8.5t30 6t34.5 -2t36.5 -15.5l88 -58l91 62q14 10 31 12t33 1t30 -5q14 -2 22 -6q56 -22 95 -56t63 -75t35 -88t11 -97v-416q0 -26 -10 -47t-27 -36t-39 -23t-48 -8t-49 8t-40 23t-26.5 36t-9.5 47v444q0 22 -3.5 48 t-13.5 47l-102 -65q-22 -14 -43 -14t-45 14l-102 63q-8 -24 -12 -48q-3 -25 -3 -45v-116q28 24 60.5 41t71.5 25q21 4 39 0.5t32 -13t23 -24.5t11 -33t-1 -35.5t-12.5 -32t-24 -24.5t-32.5 -14q-48 -8 -80 -28t-51.5 -48t-27.5 -62q-8 -36 -8 -72v-8q0 -26 -10 -47t-27 -36 t-39.5 -23t-48.5 -8t-48.5 8t-39.5 23t-26.5 36t-9.5 47z" />
<glyph unicode="&#xe06;" horiz-adv-x="907" d="M24.5 766.5q1.5 18.5 10.5 34.5t24 28q15 11 35 17q18 5 37.5 2.5t36 -11t29.5 -23t19 -33.5q4 -16 14 -24.5t24 -8.5t24 9t16 25q5 15 15.5 27.5t24 21.5t29 14t33.5 5q22 0 41 -8t33 -22t23 -33t9 -39v-74q0 -37 -7.5 -68t-21 -57.5t-32.5 -49.5t-43 -43 q-18 -14 -30 -26t-19 -25t-10 -30t-3 -43q0 -32 9 -59t29 -46t50 -30t74 -11q48 0 74 25.5t26 79.5v443q0 26 10 47t27 36.5t40 24t49 8.5t49 -8.5t40 -24t27 -36.5t10 -47v-433q0 -70 -17 -129t-56 -101.5t-101 -65.5t-151 -23q-38 0 -70.5 11t-59.5 28t-49 39t-39 43v-7 q0 -23 -8.5 -42.5t-24 -33.5t-36 -22t-42.5 -8q-23 0 -43.5 8t-35.5 22t-24 33.5t-9 42.5v209q0 33 2 58.5t7 46.5t14 38.5t23 34t34 33t47 35.5q14 10 23.5 18t17.5 14.5t14 13.5q4 7 10 13q-12 -4 -22 -4h-22t-29 2t-36 7t-39 13.5t-38 22t-34 33.5t-26 46 q-7 18 -5.5 36.5z" />
<glyph unicode="&#xe07;" horiz-adv-x="712" d="M41.5 431q2.5 23 13.5 41t29 32t42 21q23 8 46.5 7.5t43.5 -8.5t36 -24q18 -16 26 -40l101 -282q2 -8 6.5 -12t9 -4.5t7.5 4.5q4 4 4 16v488h-44q-18 0 -33 6.5t-27 18t-18 27.5q-7 14 -7 32t6.5 33.5t18.5 27t27 18.5t33 7h208q18 0 33.5 -7t27 -18.5t18.5 -27t7 -33.5 v-535q0 -46 -10 -81.5t-28 -61.5t-43 -45t-55.5 -30t-65 -16t-71.5 -5q-49 0 -89 11t-70.5 33t-52.5 52q-22 32 -36 70l-87 238q-9 24 -6.5 47z" />
<glyph unicode="&#xe08;" horiz-adv-x="827" d="M81 658.5q2 21.5 15 41.5q48 74 130.5 116t193.5 42q40 0 81.5 -6t81 -20.5t75.5 -38t62.5 -57t42 -79t15.5 -104.5q0 -42 -11 -89.5t-30.5 -103.5t-46.5 -120t-59 -136q-12 -26 -29.5 -48t-41 -37t-51 -23t-58.5 -8q-32 0 -60.5 7.5t-52 22.5t-41 36.5t-27.5 50.5 l-74 204h-10q-18 0 -33 6.5t-26 18.5t-17 27.5t-6 33.5t6 33.5t17 27.5t26 19t33 7h144q18 0 30.5 -6t21.5 -17t15.5 -25.5t11.5 -31.5l39 -120q12 34 25 74t24 76t17.5 64t7.5 40q5 59 -23.5 90.5t-84.5 31.5q-38 0 -66 -14q-29 -12 -47 -46q-10 -22 -28.5 -36t-40.5 -20 t-46 -4q-22 4 -42 14q-21 11 -36.5 27.5t-22 37t-4.5 42z" />
<glyph unicode="&#xe09;" horiz-adv-x="901" d="M56 293v66q0 26 9.5 48t26 38t39.5 25t49 9t49 -9t40 -25t26.5 -38t9.5 -48v-58q0 -27 9.5 -48t26.5 -35t41 -22t54 -8q51 0 81.5 14t47.5 39t22 59t5 72v144q0 28 -8 54.5t-26.5 47t-48.5 32.5q-29 12 -73 12q-53 0 -88 -13t-52 -35q-13 -20 -31.5 -33t-40.5 -18t-44 -2 t-43 16q-20 12 -34 31.5t-19.5 41.5t-2 44t18.5 40q50 60 135 92t201 32q76 0 136 -13t105.5 -36t77 -55.5t51.5 -71t29 -82.5t9 -90v-410q0 -26 -9.5 -46.5t-26 -35t-38.5 -22.5t-48 -8q-22 0 -42 6t-36 17.5t-27 28t-15 36.5q-27 -27 -54.5 -45t-55.5 -29t-58 -15.5 t-62 -4.5q-86 0 -146.5 22t-98 63t-54.5 98t-17 128z" />
<glyph unicode="&#xe0a;" horiz-adv-x="807" d="M22.5 758.5q1.5 16.5 8.5 30.5t19 24.5t28 15.5q21 7 41.5 11.5t37.5 7t31 3.5t23 1q52 0 96.5 -12t76 -37t48.5 -63q16 -36 10 -88v-5q36 11 58 37t30 70q4 24 15 43t28 31.5t40 18t51 1.5q24 -3 44 -14.5t33 -28.5t17.5 -40t-0.5 -49q-10 -48 -32 -84q-22 -34 -66 -62 q30 -18 47.5 -46t27 -57.5t12.5 -58t3 -50.5v-96q0 -50 -14 -90.5t-38.5 -72t-57.5 -54t-71 -37t-79.5 -21.5t-81.5 -7q-42 0 -85 7t-82 23t-73 39t-59 54t-39 71t-14 88v76q0 32 3.5 57t10.5 44t17 34.5t22.5 30t26.5 29.5t30 35q22 26 36 45t15 39q2 14 -6.5 22t-22.5 8 q-23 0 -60 -10q-16 -4 -32.5 -2t-30 9t-24 19t-15.5 28t-3.5 32.5zM305 274q1 -124 103 -124q23 0 40 5t28.5 18.5t17.5 35.5t6 55v94q0 68 -28.5 110.5t-88.5 51.5l-47 -66q-12 -16 -18 -28t-8.5 -24t-3 -25t-1.5 -29v-74z" />
<glyph unicode="&#xe0b;" horiz-adv-x="827" d="M8 763q2 19 11.5 36t25 29t36.5 18q20 5 39 2.5t35.5 -11.5t29.5 -24t18 -35q4 -16 14.5 -24t25.5 -8q14 0 24.5 8t16.5 25q6 16 15.5 28.5t23 22t29.5 15t34 5.5q22 0 42 -7.5t34 -21.5t22 -33.5t6 -44.5q-2 -26 -4.5 -47.5t-6.5 -41.5q32 12 51.5 36t27.5 64 q4 24 15 43t27 31.5t39 18t51 1.5q24 -3 43.5 -14.5t32 -28.5t17.5 -40t1 -49q-10 -45 -33 -79.5t-67 -62.5q21 -12 36.5 -29t25.5 -36t16.5 -40t10 -41t4.5 -38q1 -20 1 -34v-92q0 -50 -14 -91t-39 -73t-58 -54.5t-71.5 -37t-80 -21.5t-83.5 -7t-84 7t-81 22.5t-73 39 t-59 56t-39 74t-14 93.5q0 50 5 91t19 75.5t38.5 64.5t64.5 60q11 7 19 14q8 6 17 13.5t19 15.5q-4 -2 -10 -3t-13 -2t-12 -1h-8q-18 0 -46.5 4.5t-58.5 18t-58 38.5t-44 65q-8 18 -6 37zM334 297q0 -64 25 -97.5t73 -33.5q24 0 42 6.5t29.5 21t17 37.5t5.5 55v70 q0 30 -6 59t-18 51t-30 38q-18 14 -44 20q-10 -14 -20 -27.5t-23 -27.5q-16 -18 -25.5 -38.5t-15.5 -43.5t-8 -46t-2 -44z" />
<glyph unicode="&#xe0c;" horiz-adv-x="1333" d="M17 584.5q-1 11.5 3 23.5t12 28q22 44 56 84t82 71t110.5 49t139.5 18q74 0 132 -13t102 -36t75.5 -55t51.5 -71t29 -82t9 -89v-136q0 -40 4 -74.5t15.5 -59.5t33.5 -40q22 -14 56 -14q20 0 37 6t30.5 20t21 36t7.5 55v429q0 26 10 47t27 36.5t40 24t49 8.5t49 -8.5 t40 -24t27 -36.5t10 -47v-433q0 -76 -15 -135.5t-48 -100.5t-87 -62q-52 -21 -130 -21q-56 0 -103.5 24.5t-83.5 67.5q-4 -20 -14.5 -37t-26.5 -28t-36 -17.5t-43 -6.5q-26 0 -47.5 8t-38.5 22.5t-26 34.5t-9 46v418q0 28 -5.5 54.5t-21 47t-44.5 32.5t-77 12 q-32 0 -56.5 -7.5t-42 -19.5t-29.5 -27q-12 -14 -18 -30q13 -12 23 -24.5t16.5 -27t10.5 -31.5t4 -41v-270h14q19 0 35 -7t27.5 -19t18 -29t6.5 -36t-6.5 -35.5t-18 -29t-27 -19.5t-35.5 -7h-178q-19 0 -34.5 7t-27 19.5t-18 29t-6.5 35.5v361q0 21 -7 43.5t-29 42.5 q-13 12 -18.5 23.5t-6.5 23z" />
<glyph unicode="&#xe0d;" horiz-adv-x="1333" d="M17 584.5q-1 11.5 3 23.5t12 28q22 44 56 84t82 71t110.5 49t139.5 18q74 0 132 -13t102 -36t75.5 -55t51.5 -71t29 -82t9 -89v-142q0 -33 6 -55.5t17.5 -36.5t27.5 -20t38 -6q38 0 60.5 15.5t35 43t16.5 65.5q4 36 4 80v278q0 26 10 47t27 36.5t40 24t49 8.5t49 -8.5 t40 -24t27 -36.5t10 -47v-632q0 -85 -23 -156.5t-70 -123.5t-118 -81t-168 -29q-44 0 -87.5 9t-82.5 27t-72 46t-54 65q-14 24 -15.5 45.5t6.5 39.5t23 32t36 24q20 10 42 11t41.5 -6t36.5 -21t27 -34q8 -14 19 -22t24 -14t27.5 -8t28.5 -2q43 0 69 12t40 32.5t18 47t4 56.5 v81q-32 -32 -73 -49.5t-95 -17.5q-80 0 -136 21t-90.5 61.5t-50 100t-15.5 136.5v129q0 29 -6 55.5t-23 47.5t-45.5 33t-73.5 12q-34 0 -58.5 -8.5t-42 -21t-28.5 -27.5t-19 -29q13 -12 23.5 -24.5t17.5 -27t11 -31.5t4 -41v-270h14q19 0 35 -7t27.5 -19t18 -29t6.5 -36 t-6.5 -35.5t-18 -29t-27 -19.5t-35.5 -7h-178q-19 0 -34.5 7t-27 19.5t-18 29t-6.5 35.5v361q0 21 -7 43.5t-29 42.5q-13 12 -18.5 23.5t-6.5 23z" />
<glyph unicode="&#xe0e;" horiz-adv-x="934" d="M10 91q0 19 6 36t17.5 29t27 19t35.5 7h6v270q0 21 -7 43.5t-28 42.5q-13 12 -19 23.5t-7 23t3.5 23.5t12.5 28q22 44 57.5 84t85.5 71t114.5 49t144.5 18q76 0 136.5 -13t106.5 -36t79.5 -55t54.5 -71t31 -82t10 -89l-1 -672q0 -30 -11 -55t-30 -44t-45 -30 q-24 -11 -54 -11q-32 0 -58 12t-46 32q-24 25 -64 41.5t-96 16.5q-27 0 -50 -6t-44.5 -17t-43.5 -27t-48 -38q-12 -10 -27 -14t-30 -3t-29 8t-24 20q-10 12 -14 27t-2.5 29.5t8.5 28.5q8 14 18 26q24 26 55 49t67.5 40t78 27.5t85.5 10.5q46 0 86 -7q38 -8 66 -20v560 q0 29 -5 58.5t-22 54t-48 40t-83 15.5q-41 0 -70.5 -9t-49 -22.5t-31 -29t-16.5 -29.5q13 -12 23 -25t16 -28t9 -33t3 -42v-355q0 -19 -6.5 -35.5t-18 -29t-27.5 -19.5t-34 -7h-168q-19 0 -35 7t-27.5 19.5t-17.5 29t-6 35.5z" />
<glyph unicode="&#xe0f;" horiz-adv-x="934" d="M10 91q0 19 6 36t17.5 29t27 19t35.5 7h6v270q0 21 -7 43.5t-28 42.5q-13 12 -19 23.5t-7 23t3.5 23.5t12.5 28q22 44 57.5 84t85.5 71t114.5 49t144.5 18q76 0 136.5 -13t106.5 -36t79 -55t54 -71t31 -82t10 -89v-701q0 -26 -11 -47.5t-29.5 -37t-42.5 -24.5 q-23 -9 -49 -9q-14 0 -28 2.5t-27 7.5t-23.5 13t-16.5 19q-6 12 -13 23t-14.5 19.5t-16.5 13t-19 4.5q-18 0 -31 -12.5t-20 -30.5q-11 -26 -35 -42.5t-54 -16.5q-15 0 -28.5 4.5t-25 12.5t-20.5 20q-8 10 -14 24q-7 18 -18.5 30.5t-30.5 12.5q-20 0 -35 -13q-14 -14 -22 -32 q-8 -20 -22 -34t-31 -20t-35.5 -6t-36.5 8t-30.5 21t-18.5 30t-6 35.5t7 36.5q14 33 35 57.5t47.5 40.5t58.5 24q30 8 64 8q24 0 45.5 -5.5t40 -14.5t34.5 -22t28 -27q11 14 25.5 25.5t31 20.5t35 14t37.5 5q18 0 34.5 -4.5t28.5 -10.5v562q0 20 -2 39.5t-8 38t-17 35 t-29 29t-43 19.5t-60 7q-42 0 -70.5 -9t-48.5 -22.5t-31 -29t-16 -29.5q13 -12 23 -25t16 -28t9 -33t3 -42v-355q0 -19 -6.5 -35.5t-18 -29t-27.5 -19.5t-34 -7h-168q-19 0 -35 7t-27.5 19.5t-17.5 29t-6 35.5z" />
<glyph unicode="&#xe10;" horiz-adv-x="823" d="M80 -272q-2 14 1 28q7 32 19 55t27.5 39.5t33 27t35.5 15.5t35.5 7t32.5 2q33 -2 61.5 -15t45.5 -35q6 10 15.5 19t20.5 16t24 11t27 4q26 0 48 -13q20 -13 32 -33q0 18 8 35t21 30t31 20q16 7 36 7t38 -6.5t31 -18t20 -27.5t7 -34v-108q0 -18 -7 -34t-19.5 -27 t-29.5 -17.5t-37 -6.5q-16 0 -30 4.5t-26 12.5t-21 19t-14 24q-7 18 -19.5 28.5t-29.5 10.5q-21 0 -35 -16t-20 -40q-5 -18 -21 -30q-15 -13 -37 -13q-21 0 -37.5 13t-20.5 32q-6 25 -19 39.5t-33 14.5q-19 0 -31.5 -13t-18.5 -35q-4 -14 -13 -25t-21.5 -17.5t-27 -8.5 t-29.5 2t-26 12t-18 19.5t-9 25.5zM81 658.5q2 21.5 15 41.5q48 74 130.5 116t193.5 42q33 0 67.5 -4t69.5 -14q10 6 18 16q7 9 13 21q18 30 45.5 43.5t57 13.5t56.5 -13.5t43 -36t18 -53.5t-20 -67q-10 -16 -24 -27t-30 -19q21 -32 32.5 -73t11.5 -92q0 -42 -11 -88.5 t-31 -102t-47 -119.5q-27 -63 -58 -139q-12 -26 -29.5 -48t-41 -37t-51 -23t-58.5 -8q-32 0 -60.5 7.5t-52 22.5t-41 36.5t-27.5 50.5l-74 204h-10q-18 0 -33 6.5t-26 18.5t-17 27.5t-6 33.5t6 33.5t17 27.5t26 19t33 7h144q18 0 30.5 -6t21.5 -17t15.5 -25.5t11.5 -31.5 l39 -120q12 34 25 74t24 76t17.5 64t7.5 40q5 59 -23.5 90.5t-84.5 31.5q-38 0 -66 -14q-29 -12 -47 -46q-10 -22 -28.5 -36t-40.5 -20t-46 -4q-22 4 -42 14q-21 11 -36.5 27.5t-22 37t-4.5 42z" />
<glyph unicode="&#xe11;" horiz-adv-x="907" d="M20 765q2 19 11 35t24 28t36 18q19 5 38 2.5t35 -11.5t28 -23t17 -34q4 -16 14.5 -24.5t24.5 -8.5q13 0 23.5 8.5t16.5 24.5q6 15 16 27.5t24 22t30 15t34 5.5t34.5 -5.5t30 -15t22.5 -23.5t13 -32q34 24 63 40.5t51.5 27t40.5 14.5t33 4q47 0 79.5 -14t52.5 -40t29 -62 t9 -82v-557q0 -26 -10 -47.5t-27 -36.5t-40 -23t-49 -8t-49 8t-40 23t-27 36.5t-10 47.5v469q0 9 -0.5 17.5t-2.5 15.5t-5.5 11t-9.5 4q-17 0 -51.5 -29t-92.5 -87l-38.5 -42t-28 -34t-18.5 -30t-11 -29.5t-5 -34t-1 -41.5v-190q0 -26 -10 -47.5t-27 -36.5t-39.5 -23 t-48.5 -8t-48.5 8t-39.5 23t-27 36.5t-10 47.5v175q0 42 6.5 75t19 60t29.5 49.5t38.5 45t46.5 47.5q24 25 52 55q-4 -2 -12 -4t-16 -3t-15 -2t-9 -1q-18 0 -46 5t-56.5 19t-54.5 38q-25 26 -41 64q-8 18 -6 37z" />
<glyph unicode="&#xe12;" horiz-adv-x="1429" d="M58 114v406q0 50 14 96t41.5 87t69 74t97.5 56q10 4 24 8.5t30.5 6t35 -2t36.5 -15.5l88 -58l91 62q14 10 30.5 12t32.5 1t30 -5q14 -2 23 -6q56 -22 98 -56t70 -75t42.5 -88t14.5 -97v-148q0 -44 5 -78t18 -58t34 -36t51 -12q17 0 32.5 4t27.5 17.5t19 39t7 67.5v418 q0 26 10 47t27 36.5t40 24t49 8.5t49 -8.5t40 -24t27 -36.5t10 -47v-433q0 -76 -13.5 -135.5t-46 -100.5t-86.5 -62t-134 -21q-55 0 -97 24q-41 25 -77 68q-4 -20 -15 -37t-27 -28t-36 -17.5t-42 -6.5q-26 0 -48 8t-38.5 22.5t-25.5 34.5q-10 20 -10 46v422q0 34 -11 63 t-39 47l-88 -52q-20 -12 -43 -14t-47 14l-90 55q-28 -19 -39.5 -49t-11.5 -64v-242l101 103h-9q-14 0 -25.5 5t-20 13.5t-13.5 20.5t-5 26t5 25t13.5 20t20.5 14t25 5h168q16 0 29.5 -6t24.5 -17t17 -25t6 -30q0 -18 -6 -38t-20 -34l-304 -328q-20 -22 -48 -34t-60 -12 q-31 0 -58.5 9t-47.5 26t-31 41t-11 54z" />
<glyph unicode="&#xe13;" horiz-adv-x="1333" d="M17 584.5q-1 11.5 3 23.5t12 28q22 44 56 84t82 71t110.5 49t139.5 18q74 0 132 -13t102 -36t75.5 -55t51.5 -71t29 -82t9 -89v-226q0 -29 7.5 -47.5t20.5 -29.5t31 -16t40 -5q32 0 52.5 12.5t32.5 36t17 57.5q4 34 4 78v362q0 26 10 47t27 36.5t40 24t49 8.5t49 -8.5 t40 -24t27 -36.5t10 -47v-638q0 -26 -9.5 -46t-26 -34.5t-38.5 -22.5t-48 -8q-22 0 -42 6.5t-36 17.5t-27 28t-15 37q-36 -43 -81 -67.5t-101 -24.5q-80 0 -134.5 21t-88 62t-47.5 100.5t-14 135.5v215q0 28 -5.5 54.5t-21 47t-44.5 32.5t-77 12q-34 0 -58.5 -8.5t-42 -21 t-28.5 -27.5t-19 -29q13 -12 23.5 -24t17.5 -26t11 -31t4 -41v-272h14q19 0 35 -7t27.5 -19t18 -29t6.5 -36t-6.5 -35.5t-18 -29t-27 -19.5t-35.5 -7h-178q-19 0 -34.5 7t-27 19.5t-18 29t-6.5 35.5v361q0 21 -7 43.5t-29 42.5q-13 12 -18.5 23.5t-6.5 23z" />
<glyph unicode="&#xe14;" horiz-adv-x="983" d="M58 114v394q0 69 25 132.5t78 111.5t135 77q84 29 198 29q113 0 194.5 -29t134 -77t78 -111.5t25.5 -132.5v-402q0 -26 -10 -47.5t-27 -37t-40 -23.5t-49 -8t-48.5 8t-39 23.5t-26.5 37t-10 47.5v398q0 29 -9 56.5t-30 49.5t-56 35t-87 13q-53 0 -89 -13t-57.5 -35 t-31 -49.5t-9.5 -56.5v-230l107 105h-20q-14 0 -25 5t-20 13.5t-14 20.5t-5 26t5 25t14 20t20 14t25 5h180q16 0 30 -6t24.5 -17t16.5 -25t6 -30q0 -18 -5.5 -38t-19.5 -34l-312 -328q-20 -22 -48 -34t-60 -12q-31 0 -58.5 9t-47.5 26t-31 41t-11 54z" />
<glyph unicode="&#xe15;" horiz-adv-x="983" d="M58 114v406q0 50 14 96t41.5 87t69 74t97.5 56q10 4 24 8.5t30.5 6t35 -2t36.5 -15.5l88 -58l91 62q14 10 30.5 12t32.5 1t30 -5q14 -2 23 -6q56 -22 98 -56t70 -75t42.5 -88t14.5 -97v-414q0 -26 -10 -47.5t-27 -37t-40 -23.5t-49 -8t-48.5 8t-39 23.5t-26.5 37 t-10 47.5v410q0 17 -2 32.5t-7.5 30.5t-15 29t-25.5 26l-88 -58q-19 -12 -42.5 -14t-47.5 14l-90 60q-16 -12 -26 -26t-15.5 -29t-7.5 -31.5t-2 -33.5v-242l107 105h-20q-14 0 -25 5t-20 13.5t-14 20.5t-5 26t5 25t14 20t20 14t25 5h180q16 0 30 -6t24.5 -17t16.5 -25t6 -30 q0 -18 -5.5 -38t-19.5 -34l-312 -328q-20 -22 -48 -34t-60 -12q-31 0 -58.5 9t-47.5 26t-31 41t-11 54z" />
<glyph unicode="&#xe16;" horiz-adv-x="901" d="M8.5 584.5q-0.5 11.5 3.5 23.5t12 28q22 44 57 84t85 71t115 49t145 18q76 0 136 -13t107 -36t80 -55t54 -71t31 -82t10 -89v-406q0 -26 -10 -47.5t-27 -37t-40 -23.5t-49 -8t-49 8t-40 23.5t-27 37t-10 47.5v410q0 29 -6.5 55.5t-24.5 47.5t-50.5 33t-84.5 12 q-40 0 -68.5 -9t-47 -22.5t-28.5 -29t-16 -29.5q13 -12 22.5 -23.5t16 -25t10 -30.5t3.5 -41v-272h14q19 0 35 -7t27.5 -19t18 -29t6.5 -36t-6.5 -35.5t-18 -29t-27 -19.5t-35.5 -7h-176q-19 0 -34.5 7t-27.5 19.5t-18 29t-6 35.5v361q0 21 -7.5 43.5t-28.5 42.5 q-13 12 -19 23.5t-6.5 23z" />
<glyph unicode="&#xe17;" horiz-adv-x="901" d="M58 106v638q0 25 9 45.5t25.5 34.5t38.5 22t47 8q23 0 43.5 -6t36.5 -18.5t26 -30t14 -39.5q26 24 54 42.5t57 31t56.5 18.5t52.5 6q92 0 154 -22t100 -62t55 -97t17 -128v-443q0 -26 -10 -47.5t-26.5 -37t-39 -23.5t-48.5 -8t-49 8t-39.5 23.5t-26 37t-9.5 47.5v418 q0 64 -33 96t-104 32q-48 0 -78 -17t-46.5 -46.5t-22 -69t-5.5 -83.5v-330q0 -26 -9.5 -47.5t-26.5 -37t-40 -23.5t-49 -8t-49 8t-40 23.5t-26 37t-9 47.5z" />
<glyph unicode="&#xe18;" horiz-adv-x="856" d="M49 639q0 42 15.5 74.5t41.5 57t61 41t74.5 26.5t80.5 14q42 4 80 4q55 0 107 -8t97 -26t80.5 -47t57.5 -69q12 -22 13 -45t-7.5 -44t-25 -38t-40.5 -27q-23 -10 -46.5 -9t-45.5 9t-40 24t-28 38q-8 14 -20 25t-27 18.5t-31 11.5t-34 5q-22 2 -41 0.5t-34 -6t-23.5 -11.5 t-8.5 -18q0 -10 9 -18.5t23 -16.5t32 -16t36 -14t34.5 -11t27.5 -8q54 -15 100 -29t83.5 -31.5t67 -39t49 -49.5t30 -65.5t10.5 -86.5q0 -48 -15.5 -87t-42 -69t-63 -52t-78.5 -36t-88 -20t-92 -6q-47 0 -93 6t-87.5 18.5t-76.5 33t-61 49.5t-40 67t-14 86v71q0 26 9.5 47.5 t26 36.5t39.5 23t49 8t49 -8t40 -23t26.5 -36.5t9.5 -47.5v-41q0 -26 9.5 -43t26.5 -29t39 -17t48 -5q23 0 45.5 3t40 11.5t28.5 23t11 36.5q0 14 -0.5 26.5t-4.5 25t-14.5 24t-30 23t-50.5 23.5t-76 26q-42 11 -82.5 22.5t-77 25.5t-67.5 31t-53.5 40t-35 52t-12.5 66z" />
<glyph unicode="&#xe19;" horiz-adv-x="901" d="M58 291v443q0 26 9.5 47.5t26 37t39.5 23.5t49 8t48.5 -8t39 -23.5t26.5 -37t10 -47.5v-418q0 -64 33 -96t103 -32q48 0 78 17t47 46.5t22 69t5 83.5v330q0 26 10 47.5t27 37t40 23.5t49 8t49 -8t39.5 -23.5t26 -37t9.5 -47.5v-638q0 -25 -9.5 -45.5t-26 -34.5t-38 -22 t-46.5 -8q-23 0 -43.5 6t-36.5 18.5t-26.5 30t-13.5 39.5q-54 -52 -110 -75t-112 -23q-92 0 -154 22t-100 62t-54 97t-16 128z" />
<glyph unicode="&#xe1a;" horiz-adv-x="901" d="M58 334v400q0 26 9.5 47.5t26 37t39.5 23.5t49 8t48.5 -8t39 -23.5t26 -37t9.5 -47.5v-390q0 -30 4.5 -59t20.5 -52t44 -37t76 -14q47 0 75.5 14t43.5 37t20 52t5 59v390q0 26 10 47.5t27 37t40 23.5t49 8t49 -8t39.5 -23.5t26 -37t9.5 -47.5v-400q0 -46 -8.5 -90 t-27 -83t-49 -72t-74 -57t-101.5 -37q-60 -13 -134 -13q-75 0 -133.5 13t-102 37t-73.5 57t-48.5 72t-26.5 83t-8 90z" />
<glyph unicode="&#xe1b;" horiz-adv-x="901" d="M58 334v400q0 26 9.5 47.5t26 37t39.5 23.5t49 8t48.5 -8t39 -23.5t26 -37t9.5 -47.5v-390q0 -30 4.5 -59t20.5 -52t44 -37t76 -14q47 0 75.5 14t43.5 37t20 52t5 59v756q0 26 10 48t27 37t40 23t49 8t49 -8t39.5 -23t26 -37t9.5 -48v-766q0 -46 -8.5 -90t-27 -83 t-49 -72t-74 -57t-101.5 -37q-60 -13 -134 -13q-75 0 -133.5 13t-102 37t-73.5 57t-48.5 72t-26.5 83t-8 90z" />
<glyph unicode="&#xe1c;" horiz-adv-x="964" d="M58 236v486q0 24 9 46t25 37.5t37 25t45 9.5h162q20 0 37 -8t29 -21t18.5 -30t6.5 -37t-6.5 -38t-18.5 -31t-29 -20.5t-37 -7.5h-29v-369q0 -30 2 -48.5t6.5 -29t12.5 -14.5t18 -4q23 0 31 26t8 83v88q0 20 7.5 36.5t20.5 27.5t31 17t38 6t38 -6t31 -17t21 -27.5t8 -36.5 v-97q0 -32 2.5 -51t8 -30t13.5 -15t18 -4q8 0 15 4t11.5 14.5t7 29t2.5 48.5v456q0 26 10 47.5t27 37t40 23.5t49 8t48.5 -8t39 -23.5t26.5 -37t10 -47.5v-498q0 -68 -20 -116t-53.5 -79t-79 -45t-97.5 -14q-56 0 -101 18t-75 56q-28 -34 -71 -54t-99 -20q-53 0 -99.5 14 t-81 45t-54 79t-19.5 116z" />
<glyph unicode="&#xe1d;" horiz-adv-x="964" d="M58 236v486q0 24 9 46t25 37.5t37 25t45 9.5h162q20 0 37 -8t29 -21t18.5 -30t6.5 -37t-6.5 -38t-18.5 -31t-29 -20.5t-37 -7.5h-29v-369q0 -30 2 -48.5t6.5 -29t12.5 -14.5t18 -4q23 0 31 26t8 83v88q0 20 7.5 36.5t20.5 27.5t31 17t38 6t38 -6t31 -17t21 -27.5t8 -36.5 v-97q0 -32 2.5 -51t8 -30t13.5 -15t18 -4q8 0 15 4t11.5 14.5t7 29t2.5 48.5v822q0 26 10 48t27 37t40 23t49 8t48.5 -8t39 -23t26.5 -37t10 -48v-864q0 -68 -20 -116t-53.5 -79t-79 -45t-97.5 -14q-56 0 -101 18t-75 56q-28 -34 -71 -54t-99 -20q-53 0 -99.5 14t-81 45 t-54 79t-19.5 116z" />
<glyph unicode="&#xe1e;" horiz-adv-x="1124" d="M33 753.5q4 24.5 17 43.5t33.5 32t46.5 17q26 5 51 1.5t46 -15.5t36 -31t21 -44l76 -349l109 372q4 15 13.5 28t21.5 22t27 14.5t31 5.5t31.5 -5.5t28 -15t21.5 -22.5t13 -27l108 -370l76 347q6 26 21 44.5t36 30.5t46.5 15.5t51.5 -1.5q26 -4 46.5 -17t33.5 -32t17 -43 t-4 -54l-170 -634q-4 -18 -15 -32t-26.5 -24t-35 -15t-41.5 -5q-46 0 -76.5 21t-40.5 56l-121 412l-121 -413q-5 -18 -16 -32t-27 -24t-35 -15t-39 -5q-44 0 -76 20q-32 21 -42 57l-169 633q-8 29 -4 53.5z" />
<glyph unicode="&#xe1f;" horiz-adv-x="1124" d="M33 753.5q4 24.5 17 43.5t33.5 32t46.5 17q26 5 51 1.5t46 -15.5t36 -31t21 -44l76 -349l109 372q4 15 13.5 28t21.5 22t27 14.5t31 5.5t31.5 -5.5t28 -15t21.5 -22.5t13 -27l108 -370l172 717q6 26 21 44.5t36 30.5t46 15.5t51 -1.5q26 -4 46.5 -17t33.5 -32t16.5 -43 t-3.5 -54l-265 -1004q-4 -18 -15 -32t-26.5 -24t-35 -15t-41.5 -5q-46 0 -76.5 21t-40.5 56l-121 412l-121 -413q-5 -18 -16 -32t-27 -24t-35 -15t-39 -5q-44 0 -76 20q-32 21 -42 57l-169 633q-8 29 -4 53.5z" />
<glyph unicode="&#xe20;" horiz-adv-x="934" d="M10 91q0 19 6 36t17.5 29t27 19t35.5 7h6v270q0 21 -7 43.5t-28 42.5q-13 12 -19 23.5t-7 23t3.5 23.5t12.5 28q22 44 57.5 84t85.5 71t114.5 49t144.5 18q76 0 136.5 -13t106.5 -36t79 -55t54 -71t31 -82t10 -89v-406q0 -26 -10 -47.5t-27 -37t-40 -23.5t-49 -8t-49 8 t-40 23.5t-27 37t-10 47.5v390q0 29 -6 58.5t-24 54t-50.5 40t-84.5 15.5q-41 0 -69 -9t-46.5 -22t-29 -29t-15.5 -30q13 -12 23 -25t16 -28t9 -33t3 -42v-355q0 -19 -6.5 -35.5t-18 -29t-27.5 -19.5t-34 -7h-168q-19 0 -35 7t-27.5 19.5t-17.5 29t-6 35.5z" />
<glyph unicode="&#xe21;" horiz-adv-x="901" d="M58 96v638q0 26 9 47.5t26 37t40 23.5t49 8t49 -8t40 -23.5t26.5 -37t9.5 -47.5v-330q0 -44 5.5 -83.5t22 -69t46 -46.5t78.5 -17q71 0 104 32t33 96v418q0 26 9.5 47.5t26 37t39.5 23.5t49 8t48.5 -8t39 -23.5t26.5 -37t10 -47.5v-443q0 -70 -16 -127.5t-54 -97.5 t-100 -62t-154 -22q-56 0 -112 22q-56 24 -110 76q-3 -22 -13.5 -39.5t-26.5 -30t-36.5 -18.5t-43.5 -6q-25 0 -47 8t-38.5 22t-25.5 35t-9 45z" />
<glyph unicode="&#xe22;" horiz-adv-x="878" d="M43 270q0 62 19.5 109t64.5 73q-21 17 -37 37.5t-26 42.5t-16 44q-5 22 -5 44q0 44 12.5 77t32.5 57.5t47 41t56 26t59 14t57 4.5h79q18 0 34 -7t28 -19t18.5 -28t6.5 -34t-6.5 -33.5t-18.5 -27.5t-28 -18.5t-34 -6.5h-22q-19 0 -32.5 -5.5t-22.5 -14t-13.5 -19 t-4.5 -21.5q0 -31 20.5 -50.5t60.5 -23.5h22q16 0 30.5 -6t25 -17t17 -25t6.5 -30t-6.5 -31t-17 -25t-25 -16.5t-30.5 -6.5h-13q-17 -1 -32.5 -6t-27.5 -16.5t-19 -30t-7 -46.5q0 -30 10.5 -49t29.5 -31t45 -17t56 -5q34 0 60 7.5t43 25.5t26 47.5t9 73.5v409q0 26 9.5 46.5 t26 35.5t39.5 23.5t48 8.5q26 0 48.5 -8.5t39.5 -23.5t26.5 -36t9.5 -46v-446q0 -52 -14.5 -96t-40.5 -78.5t-62 -60.5t-79 -43t-91 -25t-98 -8q-46 0 -93.5 7t-91 22t-81.5 38t-66 55t-44.5 74t-16.5 94z" />
<glyph unicode="&#xe23;" horiz-adv-x="762" d="M41 614q0 44 13.5 80t37.5 62.5t56 45.5t68 31t74 17.5t74 5.5q53 0 103.5 -8t92.5 -27t75 -50t53 -77q10 -23 8 -46.5t-13 -44.5t-30 -37t-42 -23q-24 -8 -46 -5.5t-41.5 13t-36 28t-27.5 40.5q-13 24 -35.5 34.5t-52.5 10.5q-34 0 -54.5 -14t-20.5 -36q0 -14 5.5 -25 t19.5 -22t40 -23t68 -26q86 -31 145 -61.5t95 -63.5t52 -69t16 -78q0 -48 -13.5 -87t-37.5 -68t-57 -49.5t-72.5 -33t-84.5 -18.5t-92 -6q-52 0 -102.5 10t-94.5 32t-78 55t-56 81q-10 23 -8.5 47.5t12.5 45.5t30 37t43 24q52 17 90 -4q39 -22 65 -74q16 -30 44 -44t74 -14 q16 0 31 3.5t27 11t20 19.5t8 30t-6.5 32t-22 26t-41.5 24t-66 28q-40 15 -79 30.5t-73 32.5t-63 36t-50 43t-32.5 53t-11.5 65z" />
<glyph unicode="&#xe24;" horiz-adv-x="901" d="M8.5 584.5q-0.5 11.5 3.5 23.5t12 28q22 44 57 84t85 71t115 49t145 18q76 0 136 -13t107 -36t80 -55t54 -71t31 -82t10 -89v-678q0 -26 -10 -47.5t-27 -37t-40 -23.5t-49 -8t-49 8t-40 23.5t-27 37t-10 47.5v682q0 29 -6.5 55.5t-24.5 47.5t-50.5 33t-84.5 12 q-40 0 -68.5 -9t-47 -22.5t-28.5 -29t-16 -29.5q13 -12 22.5 -23.5t16 -25t10 -30.5t3.5 -41v-272h14q19 0 35 -7t27.5 -19t18 -29t6.5 -36t-6.5 -35.5t-18 -29t-27 -19.5t-35.5 -7h-176q-19 0 -34.5 7t-27.5 19.5t-18 29t-6 35.5v361q0 21 -7.5 43.5t-28.5 42.5 q-13 12 -19 23.5t-6.5 23z" />
<glyph unicode="&#xe25;" horiz-adv-x="880" d="M33 232q0 44 13.5 78t39 61t61.5 46t80.5 34t96.5 27t110 22q30 6 56 13t45 18t30 25t11 34q0 22 -10 35t-26 20.5t-38 10t-48 2.5q-20 0 -38 -2t-33.5 -7.5t-28 -15t-20.5 -24.5q-10 -24 -27 -42t-38.5 -28.5t-46.5 -12.5q-26 0 -54 8q-26 8 -45 25.5t-29.5 41t-11 49.5 t11.5 48q26 46 66 77t89 49.5t104.5 26t111.5 7.5q40 0 82 -5t81.5 -16t75.5 -30.5t62 -48t42 -68.5t16 -92v-494q0 -26 -10 -47t-27 -36t-39 -23t-48 -8t-49 8t-39.5 23t-26 36t-9.5 47v260q-17 -10 -31.5 -18t-27.5 -13t-26 -9t-28 -6q-10 -2 -27 -5t-37 -7.5t-40.5 -11 t-37.5 -16t-28 -22.5q-11 -12 -11 -30q0 -22 9 -35t23.5 -20t34 -9t40.5 -2h19.5t21.5 2q18 3 35 0t30 -11.5t23 -22.5q8 -13 12 -31q3 -18 0 -34t-11.5 -29.5t-22.5 -23.5t-30 -14q-29 -6 -55.5 -9t-54.5 -3q-41 0 -80.5 5.5t-75.5 18t-67 31.5t-53 47t-34.5 64t-12.5 82z " />
<glyph unicode="&#xe26;" horiz-adv-x="934" d="M10 91q0 19 6 36t17.5 29t27 19t35.5 7h6v270q0 21 -7 43.5t-28 42.5q-13 12 -19 23.5t-7 23t3.5 23.5t12.5 28q22 44 57.5 84t85.5 71t114.5 49t144.5 18q76 0 136.5 -13t106.5 -36t79 -55t54 -71t31 -82t10 -89v-678q0 -26 -10 -48t-27 -37t-40 -23t-49 -8t-49 8 t-40 23t-27 37t-10 48v662q0 29 -6 58.5t-24 54t-50.5 40t-84.5 15.5q-41 0 -69 -9t-46.5 -22t-29 -29t-15.5 -30q13 -12 23 -25t16 -28t9 -33t3 -42v-355q0 -19 -6.5 -35.5t-18 -29t-27.5 -19.5t-34 -7h-168q-19 0 -35 7t-27.5 19.5t-17.5 29t-6 35.5z" />
<glyph unicode="&#xe27;" horiz-adv-x="803" d="M61 208.5q1 24.5 12 46t29 38.5t42 27q24 8 48.5 6.5t45.5 -11.5t37.5 -27.5t24.5 -41.5q14 -34 37 -49t52 -15q32 0 55.5 12t39.5 40t24 73.5t8 112.5q0 66 -8 112t-23.5 74t-39.5 41t-56 13q-29 0 -52 -15t-37 -49q-8 -24 -24 -41.5t-37 -27.5t-45.5 -11.5t-48.5 6.5 q-24 9 -42.5 26.5t-29 39t-11.5 45.5q-2 25 10 47q22 44 55 77t74 56t88.5 35t99.5 12q94 0 165.5 -32t120.5 -89.5t74 -138.5t25 -180t-25 -180t-74 -138.5t-121 -88.5t-165 -31q-52 0 -99.5 12t-88.5 35t-74 56.5t-55 76.5q-12 22 -11 46.5z" />
<glyph unicode="&#xe28;" horiz-adv-x="930" d="M58 104v402q0 46 9 90t29.5 83t53 72t77.5 57t105 37t135 13q44 0 81.5 -5t71.5 -13q11 6 19.5 16t15.5 24q12 24 34.5 39.5t48.5 20.5t52 -2q27 -6 48 -28q16 -17 24.5 -38.5t8.5 -43.5t-8.5 -43t-25.5 -37q-13 -14 -31 -24q36 -46 51 -102t15 -116v-402q0 -26 -10 -47 t-27 -36t-40 -23t-48 -8q-26 0 -48.5 8t-39.5 23t-27 36t-10 47v408q0 29 -6 55.5t-23.5 46.5t-48 32t-77.5 12q-48 0 -79 -12t-49.5 -32t-26 -46.5t-7.5 -55.5v-60q28 24 60.5 41t71.5 25q21 4 39 0.5t32 -13t23 -24.5t11 -33t-1 -35.5t-12.5 -32t-24 -24.5t-32.5 -14 q-48 -8 -80 -27t-51.5 -48.5t-27.5 -68t-8 -86.5v-8q0 -26 -9.5 -47t-26.5 -36t-40 -23t-48 -8q-26 0 -48.5 8t-39 23t-26 36t-9.5 47z" />
<glyph unicode="&#xe29;" horiz-adv-x="934" d="M58 344v390q0 26 9.5 47.5t26 36.5t39.5 23.5t49 8.5t49 -8.5t40 -23.5t26.5 -36.5t9.5 -47.5v-384q0 -30 5.5 -60t22.5 -54t49 -39t83 -15q52 0 82.5 15t46.5 39t21 54t5 60v29h-154q-19 0 -35.5 6.5t-29 18t-19.5 27t-7 35.5v66q0 19 7 34.5t19.5 27t29 18t35.5 6.5 q18 0 35 -6t29 -17t20 -27t8 -34h62v200q0 26 10 47.5t27.5 36.5t40 23.5t48.5 8.5t49 -8.5t40 -23.5t27 -36.5t10 -47.5v-200h11q16 0 29.5 -6t23.5 -16.5t15 -25t5 -30.5t-5 -30t-15 -24.5t-23.5 -16.5t-29.5 -6h-11v-35q0 -46 -9 -91t-28.5 -85t-51 -74t-77 -59 t-105.5 -39t-136 -14q-78 0 -138.5 14t-106 39t-77 59t-51 74t-28 85t-8.5 91z" />
<glyph unicode="&#xe2a;" horiz-adv-x="880" d="M33 232q0 44 13.5 78t39 61t61.5 46t80.5 34t96.5 27t110 22q30 6 56 13t45 18t30 25t11 34q0 22 -10 35t-26 20.5t-38 10t-48 2.5q-20 0 -38 -2t-33.5 -7.5t-28 -15t-20.5 -24.5q-10 -24 -27 -42t-38.5 -28.5t-46.5 -12.5q-26 0 -54 8q-26 8 -45 25.5t-29.5 41t-11 49.5 t11.5 48q26 46 66 77t89 49.5t104.5 26t111.5 7.5q34 0 69.5 -3t69.5 -12q9 6 16.5 15.5t13.5 21.5q12 24 34.5 39.5t48.5 20.5t53 -2q26 -6 48 -28q16 -17 24 -38.5t8 -43.5t-8 -43t-26 -37q-6 -6 -12.5 -12t-13.5 -10q16 -26 25 -57.5t9 -70.5v-494q0 -26 -10 -47t-27 -36 t-39 -23t-48 -8t-49 8t-39.5 23t-26 36t-9.5 47v260q-17 -10 -31.5 -18t-27.5 -13t-26 -9t-28 -6q-10 -2 -27 -5t-37 -7.5t-40.5 -11t-37.5 -16t-28 -22.5q-11 -12 -11 -30q0 -22 9 -35t23.5 -20t34 -9t40.5 -2h19.5t21.5 2q18 3 35 0t30 -11.5t23 -22.5q8 -13 12 -31 q3 -18 0 -34t-11.5 -29.5t-22.5 -23.5t-30 -14q-29 -6 -55.5 -9t-54.5 -3q-41 0 -80.5 5.5t-75.5 18t-67 31.5t-53 47t-34.5 64t-12.5 82z" />
<glyph unicode="&#xe2b;" horiz-adv-x="882" d="M58 104v631q0 26 10 47t26.5 36t39 23.5t48.5 8.5t48.5 -8.5t39.5 -23.5t26.5 -36.5t9.5 -46.5v-135l380 234q17 11 36.5 13.5t39 -2.5t36.5 -16.5t28 -28.5t14.5 -37.5t-0.5 -41.5t-15 -38.5t-27 -28.5l-50 -32q23 -19 38.5 -41t25 -49t13.5 -59.5t4 -70.5v-298 q0 -26 -9.5 -47t-26.5 -36t-40 -23t-49 -8t-48 8t-39 23t-27 37q-10 20 -10 46v296q0 30 -5.5 56t-20.5 43l-248 -157v-238q0 -26 -9.5 -47t-26.5 -36t-39.5 -23t-48.5 -8t-48.5 8t-39 23t-26.5 37q-10 20 -10 46z" />
<glyph unicode="&#xe2c;" horiz-adv-x="1097" d="M33 753.5q5 24.5 18.5 43.5t34.5 32q20 13 46 17q26 5 51.5 1.5t46.5 -15t35.5 -30.5t19.5 -45l63 -345l86 230q7 18 18.5 34.5t26.5 28t33 18.5t39 7t39.5 -7t34 -19t26.5 -28t19 -34l92 -251l36 162q6 28 10 49.5t2 38.5t-11 28t-30 17q-13 4 -24 11t-19.5 18t-13 24 t-4.5 27q0 16 5 30t14.5 25t22 18t27.5 10q36 6 60.5 22t38.5 43q6 12 13.5 22t18.5 18q19 15 40.5 20.5t42.5 2.5t41 -13t36 -28t22 -39.5t3.5 -43t-13.5 -42.5t-31 -35q-12 -8 -23.5 -15t-21.5 -11q17 -17 29 -39.5t18.5 -47.5t6.5 -52t-8 -52l-147 -497 q-10 -33 -39.5 -52.5t-69.5 -19.5q-42 0 -70 20t-40 52l-133 362l-128 -362q-12 -33 -40.5 -52.5t-68.5 -19.5q-42 0 -72 19t-38 53l-168 638q-8 29 -3 53.5z" />
<glyph unicode="&#xe2d;" horiz-adv-x="868" d="M29 392q0 18 6 33t16.5 27t25.5 18.5t32 6.5h257q18 0 32.5 -6.5t25 -18.5t16.5 -27t6 -33t-6 -33t-16.5 -27t-25 -18.5t-32.5 -6.5h-77q17 -65 54 -95t93 -30q76 0 116 57t40 179q0 63 -10.5 107.5t-31 73.5t-51 43t-70.5 14q-19 0 -39 -4t-38 -10t-33 -16t-24 -22 q-16 -22 -31 -38t-32.5 -24.5t-39.5 -9.5t-48 7q-24 8 -42.5 25t-28 39.5t-9.5 47.5t13 47q24 40 60.5 70t82.5 50.5t99 31t110 10.5q108 0 186.5 -34t129.5 -93.5t76 -140t25 -174.5q0 -58 -11 -113t-33 -104t-56 -89t-79 -69t-103 -45t-128 -16q-68 0 -124.5 14.5 t-101 41.5t-77.5 64.5t-55.5 83.5t-34.5 98t-14 108z" />
<glyph unicode="&#xe2e;" horiz-adv-x="864" d="M29 392q0 18 6 33t16.5 27t25.5 18.5t32 6.5h257q18 0 32.5 -6.5t25 -18.5t16.5 -27t6 -33t-6 -33t-16.5 -27t-25 -18.5t-32.5 -6.5h-77q17 -65 54 -95t93 -30q76 0 116 57t40 179q0 63 -10.5 107.5t-31 73.5t-51 43t-70.5 14q-19 0 -39 -4t-38 -10t-33 -16t-24 -22 q-16 -22 -31 -38t-32.5 -24.5t-39.5 -9.5t-48 7q-24 8 -42.5 25t-28 39.5t-9.5 47.5t13 47q24 40 60.5 70t82.5 50.5t99 31t110 10.5q42 0 79 -6q38 -6 72 -16v2q12 6 21 16.5t16 23.5q12 24 34.5 39.5t48.5 20.5t52 -2q27 -6 48 -28q16 -17 24.5 -38.5t8.5 -43.5t-8.5 -43 t-25.5 -37q-7 -7 -19 -15.5t-26 -11.5q46 -59 69 -136t23 -167q0 -58 -11 -113t-33 -104t-56 -89t-79 -69t-103 -45t-128 -16q-68 0 -124.5 14.5t-101 41.5t-77.5 64.5t-55.5 83.5t-34.5 98t-14 108z" />
<glyph unicode="&#xe2f;" horiz-adv-x="905" d="M60 588q0 48 13.5 85t37 65t54.5 47t65 31t70 18t70 6h60q20 0 36.5 -8t29 -21t19 -30.5t6.5 -37.5t-6.5 -37.5t-19 -30.5t-29 -20.5t-36.5 -7.5h-34q-21 0 -36.5 -6t-25.5 -16t-15 -22.5t-5 -26.5q0 -18 5 -34t19 -27t36 -17t56 -6q80 0 125 34t45 102v108q0 26 10 46.5 t26.5 35.5t39 23.5t48.5 8.5t48.5 -8.5t39 -23.5t26.5 -36q10 -20 10 -46v-632q0 -26 -10 -47t-26.5 -36t-39 -23t-48.5 -8t-48.5 8t-39 23t-26.5 36t-10 47v242q-19 -10 -37.5 -18t-38 -13.5t-41 -8.5t-47.5 -3q-88 0 -158 20.5t-118.5 57.5t-74 90t-25.5 117z" />
<glyph unicode="&#xe30;" horiz-adv-x="522" d="M59 190v80q0 20 7.5 37t20.5 29t30.5 19t37.5 7t37.5 -7t30.5 -19t21 -29t8 -37h159q18 0 32.5 -6.5t25.5 -18t17 -27.5t6 -34t-6 -33t-17 -27t-25.5 -19t-32.5 -7h-256q-20 0 -37.5 7t-30.5 19t-20.5 29t-7.5 37zM59 608v80q0 20 7.5 37t20.5 29t30.5 19t37.5 7t37.5 -7 t30.5 -19t21 -29t8 -37h159q18 0 32.5 -7t25.5 -18.5t17 -27t6 -33.5t-6 -33.5t-17 -27t-25.5 -18.5t-32.5 -7h-256q-20 0 -37.5 7t-30.5 19t-20.5 29t-7.5 37z" />
<glyph unicode="&#xe31;" d="M-572 1034v84q0 21 8 38.5t22 30.5t32 20t39 7t39 -7t32 -20t22 -30.5t8 -38.5h354q18 0 33.5 -7t27 -19t17.5 -28q6 -18 6 -36q0 -19 -6 -35t-17.5 -28.5t-27 -19.5t-33.5 -7h-455q-21 0 -39 7t-32 20t-22 30.5t-8 38.5z" />
<glyph unicode="&#xe32;" horiz-adv-x="730" d="M34 642q-1 24 9 46q19 44 50 75.5t70 53t84 31.5t90 10q44 0 86.5 -8t79.5 -23.5t68.5 -39t54 -56t34.5 -73.5q13 -40 13 -90v-464q0 -26 -10 -47t-27 -36t-40 -23q-22 -8 -48 -8t-49 8t-40 23t-26.5 36t-9.5 47v436q0 63 -21.5 90.5t-64.5 27.5q-25 0 -44 -12t-31 -38 q-8 -23 -24 -40t-37 -26.5t-44 -11.5t-47 7q-22 8 -39 24.5t-26.5 37t-10.5 43.5z" />
<glyph unicode="&#xe33;" horiz-adv-x="730" d="M-377 1112q0 40 14.5 75t40.5 60.5t60 40t74 14.5q38 0 72 -14.5t60 -40t42 -60.5t16 -75q0 -39 -16 -73.5t-42 -60t-60 -40.5q-34 -14 -72 -14q-39 0 -73.5 14.5t-60.5 40t-40.5 60t-14.5 73.5zM-252 1112q0 -12 5 -23.5t14 -20.5t21 -14.5t24 -5.5q13 0 24.5 5.5 t20.5 14.5t14.5 20.5t5.5 23.5q0 13 -5.5 25t-14.5 21t-21 14.5t-24 5.5t-24 -5.5t-21 -14.5t-14 -21t-5 -25zM34 642.5q1 -23.5 10.5 -44t26.5 -37t39 -24.5q23 -8 46.5 -6.5t44.5 11t37 26.5t24 40q12 26 31 38t44 12q43 0 64.5 -27t21.5 -91v-436q0 -26 9.5 -47t26.5 -36 t40 -23t49 -8t48.5 8t39.5 23t27 36t10 47v464q0 50 -12.5 90.5t-35 73t-54 56t-68.5 39t-79 23.5t-87 8q-46 0 -90.5 -10t-83.5 -31.5t-70 -53.5q-31 -31 -50 -75q-10 -22 -9 -45.5z" />
<glyph unicode="&#xe34;" d="M-855 1028q0 18 6.5 35t17.5 29t27 19t34 7h638q18 0 34 -7t27 -19t17 -29t6 -35t-6 -35t-17 -29t-27 -19t-34 -7h-638q-18 0 -34 7t-27 19t-17.5 29t-6.5 35z" />
<glyph unicode="&#xe35;" d="M-855 1028q0 18 6.5 35t17.5 29t27 19t34 7h494v40q0 22 8 40.5t23 31.5t35 20t43 7q22 0 42.5 -7t35.5 -20t23 -31.5t8 -40.5v-130q0 -18 -6 -35t-17 -29t-27 -19t-34 -7h-628q-18 0 -34 7t-27 19t-17.5 29t-6.5 35z" />
<glyph unicode="&#xe36;" d="M-855 1028q0 18 6.5 35t17.5 29t27 19t34 7h416v6q0 32 12 61t34 50t52 33t64 12q38 0 68 -14t51 -37.5t32 -54t11 -62.5q0 -37 -14 -68.5t-37.5 -55t-55 -37t-66.5 -13.5h-567q-18 0 -34 7t-27 19t-17.5 29t-6.5 35zM-248 1114q0 -10 4.5 -20t12 -17t17.5 -11.5t22 -4.5 t21.5 4.5t17 11.5t12 17t4.5 20q0 12 -4.5 22t-12 17.5t-17.5 12.5q-9 4 -21 4t-22 -4.5t-17.5 -12t-12 -17.5t-4.5 -22z" />
<glyph unicode="&#xe37;" d="M-855 1028q0 18 6.5 35t17.5 29t27 19t34 7h320v67q0 17 6 30.5t17 23t26 14t33 4.5q17 0 31.5 -4.5t25.5 -14t18 -23t7 -30.5v-67h65v67q0 17 6.5 30.5t17.5 23t26 14t31 4.5q17 0 32.5 -4.5t26.5 -14t17 -23t6 -30.5v-157q0 -18 -6 -35t-17 -29t-27 -19t-34 -7h-628 q-18 0 -34 7t-27 19t-17.5 29t-6.5 35z" />
<glyph unicode="&#xe38;" d="M-406 -191q0 18 6 34.5t17.5 29.5t27 20t34.5 7h178q18 0 34 -7t27.5 -20t17.5 -29t6 -35v-211q0 -24 -9 -43.5t-25 -33t-36.5 -21t-44.5 -7.5t-45.5 7.5t-37 21t-24.5 33t-9 43.5v120h-32q-19 0 -34.5 7.5t-27 20t-17.5 28.5t-6 35z" />
<glyph unicode="&#xe39;" d="M-690 -185q0 18 6 33t16 26.5t25 18.5t33 7h166q18 0 32.5 -7t25 -18.5t16.5 -27t6 -32.5v-67q0 -32 9 -49t33 -17t34 17t10 49v61q0 23 8.5 41.5t23.5 31.5t35 20.5t43 7.5t43 -7.5t35 -20.5t23.5 -31.5t8.5 -41.5v-69q0 -47 -14.5 -88.5t-46 -73t-81.5 -50.5 q-52 -18 -122 -18q-66 0 -113.5 18t-80 48t-49.5 70t-21 84h-24q-18 0 -33 7t-25 18t-16 27t-6 33z" />
<glyph unicode="&#xe3a;" d="M-332 -215q0 30 12 58t33 48.5t48.5 32.5t58.5 12q30 0 57 -12t47.5 -32.5t33 -48t12.5 -58.5q0 -30 -12.5 -57t-33 -47.5t-47.5 -32.5t-57 -12q-31 0 -58.5 12t-48.5 32.5t-33 47.5t-12 57z" />
<glyph unicode="&#xe3e;" />
<glyph unicode="&#xe3f;" horiz-adv-x="973" d="M72 178v644q0 46 9 80t29 55t49 31t69 10h208v92q0 12 4.5 23t11.5 20t16.5 14t21.5 5q11 0 21 -5t17 -14t11.5 -20t4.5 -23v-92h32q93 0 155.5 -20t100 -53t53.5 -77t16 -92q0 -37 -4.5 -69t-21 -59.5t-47.5 -49.5q-32 -22 -84 -38q58 -15 96.5 -40t61 -57.5t31.5 -72.5 t9 -84q0 -60 -20.5 -112t-63 -91t-107.5 -61t-153 -22h-54v-102q0 -12 -4.5 -23t-11.5 -19t-17 -13t-21 -5q-12 0 -21.5 5t-16.5 13t-11.5 19t-4.5 23v102h-208q-80 0 -118 42t-38 136zM334 192h102v244h-102v-244zM334 575h102v232h-102v-232zM544 192q31 1 56 9.5 t42.5 23.5t27.5 37t10 52t-10 52.5t-27.5 37.5t-43 22.5t-55.5 9.5v-244zM544 576q24 2 43 12t32 26t20 36t7 40q0 26 -6 46.5t-18.5 35.5t-31.5 24q-20 8 -46 10v-230z" />
<glyph unicode="&#xe40;" horiz-adv-x="383" d="M66 104v632q0 26 10 46.5t27 35.5t40 23.5t48 8.5q26 0 48.5 -8.5t40 -23.5t28.5 -36q10 -20 10 -46v-632q0 -26 -10.5 -47t-28 -36t-40.5 -23t-48 -8q-26 0 -48.5 8t-39.5 23t-27 36t-10 47z" />
<glyph unicode="&#xe41;" horiz-adv-x="712" d="M58 104v632q0 26 10 46.5t27 35.5t40 23.5t48 8.5q26 0 48.5 -8.5t40 -23.5t28.5 -36q10 -20 10 -46v-632q0 -26 -10.5 -47t-28 -36t-40.5 -23t-48 -8q-26 0 -48.5 8t-39.5 23t-27 36t-10 47zM404 104v632q0 26 10 46.5t27 35.5t40 23.5t48 8.5q26 0 48.5 -8.5t40 -23.5 t28.5 -36q10 -20 10 -46v-632q0 -26 -10.5 -47t-28 -36t-40.5 -23t-48 -8q-26 0 -48.5 8t-39.5 23t-27 36t-10 47z" />
<glyph unicode="&#xe42;" horiz-adv-x="426" d="M-16 1148q0 20 8 38.5t21 32t31 21t38 7.5h360q21 0 39.5 -6.5t31.5 -18.5t20 -29.5t7 -38.5t-7 -38.5t-20 -29.5t-31 -18.5t-40 -6.5h-182q13 -9 25.5 -23t22.5 -30t16 -33t6 -33v-752h14q19 0 34.5 -7.5t26.5 -21t17 -30.5t6 -36t-6 -36t-17 -30t-26 -21t-35 -8h-180 q-19 0 -34.5 7t-26.5 19.5t-17 29t-6 35.5v873q0 14 -2 28.5t-6 27t-12 22.5q-6 10 -18 17q-24 14 -41 36.5t-17 52.5z" />
<glyph unicode="&#xe43;" horiz-adv-x="426" d="M-60 1061q-2 17 3 34q14 48 39.5 83t59 58.5t73 34.5t79.5 11q30 0 60 -4.5t58 -14t53 -24.5t43 -35t28 -47t10 -59q0 -17 -4 -32.5t-11 -29.5t-16 -27t-19 -26q-12 -16 -23.5 -31.5t-21 -33t-15.5 -38t-6 -44.5v-646h14q19 0 34.5 -7.5t26.5 -21t17 -30.5t6 -36t-6 -36 t-17 -30t-26 -21t-35 -8h-180q-19 0 -34.5 7t-26.5 19.5t-17 29t-6 35.5v745q0 27 11 50.5t27 45t34 40t32 36.5q20 24 34 44t14 38q0 4 -2 10.5t-6 12t-12 9.5t-22 4q-29 0 -50.5 -22t-31.5 -57q-5 -18 -15.5 -30.5t-25 -20.5t-31.5 -10q-16 -3 -34 2q-17 5 -30.5 15.5 t-21.5 25.5t-10 32z" />
<glyph unicode="&#xe44;" horiz-adv-x="426" d="M-126 1154q0 21 7 38.5t20.5 29.5t31.5 18.5t39 6.5h366q20 0 38 -7.5t31 -21t21 -31.5q8 -19 8 -39q0 -30 -17 -52t-41 -37q-24 -14 -36 -39.5t-12 -55.5v-774h14q19 0 34.5 -7.5t26.5 -21t17 -30.5t6 -36t-6 -36t-17 -30t-26 -21t-35 -8h-180q-19 0 -34.5 7t-26.5 19.5 t-17 29t-6 35.5v851q0 16 7 33t17.5 33t24 30t25.5 23h-182q-21 0 -39 6.5t-31.5 18.5t-20.5 29.5t-7 38.5z" />
<glyph unicode="&#xe45;" horiz-adv-x="730" d="M34 642q-1 24 9 46q19 44 50 75.5t70 53t84 31.5t90 10q44 0 86.5 -8t79.5 -23.5t68.5 -39t54 -56t34.5 -73.5q13 -40 13 -90v-736q0 -26 -10 -47t-27 -36t-40 -23q-22 -8 -48 -8t-49 8t-40 23t-26.5 36t-9.5 47v708q0 63 -21.5 90.5t-64.5 27.5q-25 0 -44 -12t-31 -38 q-8 -23 -24 -40t-37 -26.5t-44 -11.5t-47 7q-22 8 -39 24.5t-26.5 37t-10.5 43.5z" />
<glyph unicode="&#xe46;" horiz-adv-x="863" d="M49 510q-4 52 5.5 100.5t34.5 90t65.5 74.5t98.5 57q9 4 24 8t33 6t35 -1t29 -15l54 -54l55 50q12 12 29.5 16.5t35.5 3t34.5 -5.5t25.5 -7q63 -22 101.5 -56.5t60.5 -77.5t29 -93t7 -102v-672q0 -26 -10 -47t-27 -36t-40 -23t-49 -8t-48.5 8t-39.5 23t-27 36t-10 47v676 v38t-1.5 43t-5.5 39q-6 18 -14 25l-63 -57q-21 -18 -44 -18.5t-44 18.5l-74 70q-9 -8 -16 -24t-11 -34t-6 -37t0 -37q0 -12 3 -24t9 -21t14.5 -14.5t20.5 -5.5q20 0 36 -7.5t27.5 -20.5t18 -30t6.5 -37t-7.5 -37t-20.5 -29.5t-31 -19.5q-16 -8 -36 -8q-46 0 -91 12t-83 39 t-63 71t-30 108z" />
<glyph unicode="&#xe47;" d="M-729 1164q0 38 10.5 69t28.5 56t42.5 44t52.5 31t58 18t60 6h375q16 0 29.5 -6t23 -17t15 -25t5.5 -30t-5.5 -31t-15 -25t-23 -16.5t-29.5 -6.5h-361q-28 0 -43.5 -7.5t-23.5 -18t-10 -22t-2 -19.5q0 -6 1 -15t5.5 -18t12.5 -16t21 -7q15 0 26 9t15 25q6 24 24.5 35 t42.5 11t43 -11t25 -35q4 -15 13 -24.5t22 -9.5q26 0 32 28q3 14 12 24t21 16t27 8t28 2q16 -1 31.5 -6.5t26.5 -16t17 -26.5t4 -37q-6 -38 -23.5 -66t-42 -47t-53.5 -28t-57 -9q-20 0 -39 5.5t-34 14t-28 20.5t-22 24q-10 -13 -24.5 -24.5t-31.5 -20.5t-36 -14t-39 -5 q-39 0 -69.5 9.5t-53.5 25.5t-39 37.5t-26 45t-14.5 48t-4.5 48.5z" />
<glyph unicode="&#xe48;" d="M-272 1414v127q0 22 8 40.5t23 31t34 19t42 6.5q22 0 41.5 -6.5t34.5 -19t23 -30.5t8 -41v-127q0 -22 -8 -40t-23 -31t-34 -20t-42 -7q-22 0 -41.5 7t-34.5 20t-23 31t-8 40z" />
<glyph unicode="&#xe49;" d="M-524 1532q0 14 4.5 26t13 21.5t19.5 15t25 5.5h138q14 0 25 -5.5t19.5 -15t13 -21.5t4.5 -26v-58q29 2 52.5 10t42 19t31 26t20.5 32q7 16 19.5 26.5t26.5 16.5t30 5t32 -7q15 -7 26 -19.5t16.5 -27.5t5.5 -31t-8 -32q-16 -34 -45 -64t-69 -52t-92 -34.5t-115 -12.5h-81 q-14 0 -26 5.5t-20 14.5t-12 21t-4 26v68h-30q-14 0 -25 5.5t-19.5 15t-13 21.5t-4.5 26z" />
<glyph unicode="&#xe4a;" d="M-474 1382q0 48 12.5 83t33 58.5t46.5 35t54 11.5t52 -14t42 -36q18 22 42.5 36t55.5 14q18 0 36 -6t33.5 -17t27 -26t17.5 -35q9 12 17 29.5t13 38.5q4 14 13.5 25t22 18t26.5 9t29 -1q16 -4 27.5 -12.5t17.5 -20.5t7 -26t-3 -29q-10 -34 -26.5 -65.5t-38 -57.5 t-47.5 -44t-54 -22h-56q-19 0 -32 12q-12 12 -14 31q-1 13 -3.5 25t-7.5 21.5t-12 15t-17 5.5q-12 0 -19 -9t-9 -23q-3 -19 -14.5 -29.5t-29.5 -10.5q-19 0 -30.5 10.5t-13.5 29.5q-2 13 -9 22.5t-22 9.5q-18 0 -27 -16t-10 -40q-1 -32 -19.5 -48t-46.5 -16q-15 0 -26.5 5 t-20 13.5t-13 20t-4.5 25.5z" />
<glyph unicode="&#xe4b;" d="M-396 1508q0 15 5 28.5t14 23.5t21.5 15.5t27.5 5.5h68v30q0 20 7.5 36.5t20 28t30.5 18.5q16 6 36 6t37 -6.5t30 -18t20 -28.5t7 -36v-30h68q15 0 27.5 -5.5t21.5 -15.5t14 -23.5t5 -28.5t-5 -28.5t-14 -23t-21 -15t-28 -5.5h-68v-30q0 -20 -7 -36.5t-20 -28t-30 -18.5 t-37 -7t-37 7t-30 18.5t-20 28t-7 36.5v30h-68q-15 0 -27.5 5.5t-21.5 15t-14 23.5t-5 28z" />
<glyph unicode="&#xe4c;" d="M-378 1330q2 20 10 38q16 33 39 60.5t55 48.5t73 34t91 17q34 2 58 -13t29 -46q3 -15 0 -30t-11 -27t-20 -20t-28 -10q-25 -2 -43.5 -10t-31.5 -19t-21 -26t-13 -31q-6 -20 -18.5 -33t-29.5 -19.5t-37 -7t-39 5.5q-20 7 -34.5 20.5t-21.5 31t-7 36.5z" />
<glyph unicode="&#xe4d;" d="M-377 1112q0 40 14.5 75t40.5 60.5t60 40t74 14.5q38 0 72 -14.5t60 -40t42 -60.5t16 -75q0 -39 -16 -73.5t-42 -60t-60 -40.5q-34 -14 -72 -14q-39 0 -73.5 14.5t-60.5 40t-40.5 60t-14.5 73.5zM-252 1112q0 -12 5 -23.5t14 -20.5t21 -14.5t24 -5.5q13 0 24.5 5.5 t20.5 14.5t14.5 20.5t5.5 23.5q0 13 -5.5 25t-14.5 21t-21 14.5t-24 5.5t-24 -5.5t-21 -14.5t-14 -21t-5 -25z" />
<glyph unicode="&#xe4e;" d="M-441 1021.5q-3 17.5 0 35.5q12 59 50.5 95.5t100.5 51.5q7 25 24.5 48.5t43.5 41.5t60 29t74 11q36 0 59 -16t28 -48q2 -16 -1.5 -31t-11.5 -27.5t-21 -20t-29 -7.5q-19 0 -30.5 -5t-18 -14t-8.5 -21t-2 -28q0 -22 -12.5 -34.5t-40.5 -12.5q-34 0 -52 -15.5t-24 -43.5 q-5 -18 -16.5 -31t-27.5 -21t-35 -10t-39 2t-35 14.5t-24 25t-12 32z" />
<glyph unicode="&#xe4f;" horiz-adv-x="1072" d="M66 448q0 65 17 124.5t47.5 111.5t74 95t95.5 73.5t113 47t127 16.5q64 0 123.5 -16.5t111.5 -47t94.5 -73.5t73 -95t47 -112t16.5 -124q0 -65 -16.5 -125.5t-47 -112.5t-73 -95t-94.5 -73.5t-111.5 -47t-123.5 -16.5q-66 0 -127 16.5t-113 47t-95.5 73.5t-74 95 t-47.5 112.5t-17 125.5zM214 452q0 -44 12 -86t33 -78t50 -66t65 -51.5t78 -33t88 -11.5q44 0 84.5 11.5t76 33t65 51.5t51 66t32.5 78t11 86t-11.5 85t-32.5 76.5t-50.5 65t-65 50.5t-76.5 32q-40 11 -84 11q-46 0 -88 -11t-78 -32t-65 -50.5t-50 -65t-33 -76.5t-12 -85z M288 452q0 34 9 65t26 58t40 50t50.5 39t59.5 25q33 9 67 9q50 0 94 -19.5t78 -53t53 -78.5t19 -95q0 -52 -19 -97.5t-53 -79t-78 -53.5t-94 -20q-34 0 -66.5 9t-60 25t-50.5 39t-40 51t-26 60t-9 66zM422 452q0 -24 9 -46t24.5 -38t37 -25t47.5 -9q23 0 43 9t35.5 25 t23.5 38q9 22 9 46q0 23 -8.5 43.5t-24 35.5t-36 24.5t-42.5 9.5q-26 0 -47.5 -9.5t-37 -24.5t-24.5 -35.5t-9 -43.5z" />
<glyph unicode="&#xe50;" horiz-adv-x="964" d="M58 377q0 80 31 147.5t87 116.5t134 76q80 27 174 27t171.5 -27t133.5 -76t87.5 -116.5t31.5 -147.5q0 -76 -16 -135.5t-45 -103.5t-68.5 -74t-87 -48t-100.5 -26t-107 -8q-56 0 -109.5 8t-101 26.5t-87 49t-68 74.5t-44.5 102.5t-16 134.5zM299 358q0 -39 13.5 -72.5 t37.5 -57.5t58 -38t76 -14t75 14t57 38t37 57.5t13 72.5q0 52 -15 88t-40 59t-58 33.5t-69 10.5q-37 0 -70.5 -10.5t-59 -33.5t-40.5 -59t-15 -88z" />
<glyph unicode="&#xe51;" horiz-adv-x="952" d="M43.5 128q-2.5 16 1 32t13.5 30t24 23t29.5 12t32 0t30.5 -13q28 -19 59 -29.5t64 -15.5t65 -6t62 -1q53 0 94 14t69.5 42t43 70.5t14.5 98.5q0 84 -43.5 127t-134.5 43q-39 0 -72 -5.5t-57 -16.5t-38 -28t-14 -41q0 -19 7.5 -33.5t23.5 -25t41.5 -16t61.5 -5.5 q22 2 38 -3t27 -14.5t17 -23t7 -29.5q2 -30 -10.5 -49t-33.5 -29t-45 -14q-26 -3 -48 -3q-40 0 -79 7.5t-73.5 22.5t-64 35.5t-50.5 47t-33 57.5t-12 67q0 52 16.5 94t45.5 74t68.5 55t84.5 38t93.5 22t96.5 7q56 0 110.5 -9t102 -27.5t87.5 -47t69 -68.5t45 -91.5 t16 -115.5q0 -90 -33.5 -164.5t-95.5 -127.5t-148 -82t-190 -29q-39 0 -80.5 2t-86 11.5t-90.5 27.5q-45 18 -93 49q-14 10 -23 24t-11.5 30z" />
<glyph unicode="&#xe52;" horiz-adv-x="1104" d="M-10.5 735q1.5 17 6.5 33q6 20 19.5 34.5t31 23t37.5 10.5t40 -1q40 -8 73 -25.5t57 -45.5t37.5 -66t13.5 -86v-282q0 -32 18.5 -60.5t53 -50t86 -34.5t117.5 -13q62 0 104.5 11.5t69 30.5t39 43.5t12.5 49.5v199q0 16 -4.5 29t-14.5 22l-105 -90l-107 86q-4 -8 -8 -18.5 t-4 -22.5v-30q0 -16 0.5 -28.5t3 -21.5t8.5 -14q8 -4 20 -4q38 0 55 -21.5t17 -57.5q0 -18 -8 -33.5t-20 -27t-28 -18t-34 -6.5h-17q-52 0 -87.5 12.5t-59.5 33t-37 47.5t-19 55t-6.5 56t0.5 50q2 41 16 77.5t38 65.5t59.5 51t81.5 36q5 2 13 3t18 -1t22 -7t26 -15l57 -46 l55 46q12 10 24 15t22 6.5t18 1t13 -2.5q48 -12 91 -33t75 -50t50.5 -65t18.5 -76v-190q0 -58 -15.5 -105t-44 -84t-66.5 -64t-84 -44.5t-96.5 -26t-102.5 -8.5h-111q-104 0 -189.5 25t-147 70t-95.5 109t-34 142v254q0 27 -7 44.5t-24 25.5q-16 7 -25.5 19t-13.5 26.5 t-2.5 31.5z" />
<glyph unicode="&#xe53;" horiz-adv-x="962" d="M58 336v51q0 76 19 134.5t54 100.5t85 69t111 41q8 2 20.5 3.5t26.5 1t28.5 -5.5t27.5 -16l56 -47l58 47q14 12 30 16.5t29.5 5.5t26 -1t20.5 -4q62 -13 110 -39.5t81 -63.5t50 -81q17 -46 17 -94v-351q0 -26 -10 -46.5t-26.5 -35.5t-39 -23t-48.5 -8t-48 8t-38.5 23 t-26 36t-9.5 46v362q0 16 -4 30.5t-10.5 27.5t-15.5 22q-10 9 -20 14l-130 -105l-118 101q-12 -6 -23 -17.5t-20.5 -30.5t-15.5 -45t-6 -62v-62q0 -44 1.5 -76.5t10 -54t25.5 -31.5q18 -11 48 -10q19 0 34.5 -6t26.5 -18t17 -27t6 -33q0 -16 -6 -30t-16 -25t-23 -19t-29 -10 q-70 -10 -122 -1.5t-89 31t-61.5 56t-39 74t-19.5 86.5t-5 92z" />
<glyph unicode="&#xe54;" horiz-adv-x="962" d="M58 324v78q0 84 31.5 146t88 103t134.5 60.5t172 19.5h176q27 0 40.5 13.5t20.5 35.5q6 21 21.5 36.5t36.5 23.5t44 9t47 -7q20 -7 35.5 -21.5t25 -34t11.5 -40.5q0 -22 -6 -43q-12 -34 -32 -65t-52 -54.5t-78 -37.5t-108 -14h-197q-84 0 -125 -33t-41 -89v-80 q0 -32 6 -57.5t21.5 -43t42.5 -27.5t69 -10q-19 18 -26.5 42t-7.5 52q0 12 2 27t9 33t19.5 35t34 31.5t52.5 24.5q31 11 75 13q17 1 33.5 -2.5t29.5 -11.5t22 -22t13 -34q3 -18 -1 -34t-13.5 -28.5t-23.5 -21.5t-32 -13q-14 -4 -19 -12.5t-5 -20.5q0 -30 21 -44t55 -14h144 q20 0 36 -7t27 -20.5t17 -31t6 -37.5t-6 -37.5t-17 -30.5t-27 -20.5t-36 -7.5h-394q-70 0 -124.5 14t-96 39t-70.5 57t-47 68t-26 73t-8 73z" />
<glyph unicode="&#xe55;" horiz-adv-x="962" d="M58 324v78q0 64 19 116t53.5 90.5t83.5 65.5q50 26 110 40v9q0 33 13 63t36.5 52t54.5 36q32 13 66 13q36 0 66.5 -12.5t53.5 -34t36.5 -50t15.5 -59.5q24 2 36 15q12 12 19 34q6 21 21.5 36.5t36.5 23.5t44 9t47 -7q20 -7 35.5 -21.5t25 -34t11.5 -40.5q0 -22 -6 -43 q-12 -34 -32 -64.5t-52 -53.5t-78 -37t-108 -16h-197q-85 -2 -125 -34q-41 -30 -41 -88v-80q0 -32 6 -57.5t21.5 -43t42.5 -27.5t69 -10q-19 18 -26.5 42t-7.5 52q0 12 2 27t9 33t19.5 35t34 31.5t52.5 24.5q31 11 75 13q17 1 33.5 -2.5t29.5 -11.5t22 -22t13 -34 q3 -18 -1 -34t-13.5 -28.5t-23.5 -21.5t-32 -13q-14 -4 -19 -12.5t-5 -20.5q0 -30 21 -44t55 -14h144q20 0 36 -7t27 -20.5t17 -31t6 -37.5t-6 -37.5t-17 -30.5t-27 -20.5t-36 -7.5h-394q-70 0 -124.5 14t-96 39t-70.5 57t-47 68t-26 73t-8 73zM438 725q0 -10 4.5 -20 t12 -17.5t17.5 -11.5t22 -4t22 4t17 11.5t11.5 17t4.5 20.5q0 12 -4.5 21.5t-11.5 17.5t-17 12t-22 4t-22 -4t-17.5 -12t-12 -17.5t-4.5 -21.5z" />
<glyph unicode="&#xe56;" horiz-adv-x="979" d="M53.5 686.5q-3.5 18.5 0 36t14 33.5t26.5 26t34 13.5t36 0t33.5 -13.5t26.5 -27l44 -67q50 25 111 37.5t131 16.5q75 2 135 -10t106 -35t78.5 -56t53 -72.5t30 -85t9.5 -94.5v-51q0 -76 -29.5 -141t-85 -112t-136.5 -72.5t-183 -22.5q-77 2 -143.5 19.5t-116 50t-77.5 79 t-28 107.5q0 60 22 101t60.5 66t90.5 35.5t112 10.5q17 0 31.5 -6.5t26 -17.5t18 -26t6.5 -32t-5.5 -32t-16 -26t-24.5 -17.5t-30 -6.5q-17 0 -28.5 -4t-17.5 -11.5t-9 -17.5q-3 -8 -3 -20q0 -16 10.5 -27.5t30 -19t46.5 -11t61 -4.5q38 -1 69.5 8t53.5 31.5t35 58.5 q12 36 12 92q0 48 -13 83.5t-34 58t-49 33t-60 10.5q-30 0 -60.5 -1.5t-61 -6.5t-63 -14t-65.5 -23q-18 -10 -37 -12t-36 2t-31 14q-16 10 -26 26l-71 112q-10 16 -13.5 34.5z" />
<glyph unicode="&#xe57;" horiz-adv-x="1161" d="M58 334v55q0 72 18 129t52 99.5t83 71.5t109 45q6 2 16 4t22.5 1t26 -7t29.5 -18l49 -42l59 45q12 10 23 14.5t20.5 5.5t17 0t11.5 -3q69 -14 114.5 -44t72.5 -73t37.5 -99t10.5 -122v-60q0 -20 -2.5 -42t-8.5 -44t-15 -44q-9 -20 -22 -40q22 8 42.5 26t35.5 42.5t24 54 t9 61.5v264q0 43 11 81t32.5 67.5t51 48.5t67.5 25q20 3 38 0.5t34 -10.5t27.5 -21.5t17.5 -32.5q4 -16 4.5 -32t-3.5 -30t-13 -26t-23 -20q-18 -8 -24 -27t-6 -47v-215q0 -84 -34.5 -152.5t-94 -118.5t-141.5 -79t-176 -31q-22 -1 -41 6.5t-33 20.5t-22 31t-8 36 q0 26 13 48q15 24 23 50t12 52t4 50v46v74q0 56 -11 89t-27 52l-111 -90l-111 92q-18 -18 -31.5 -54.5t-13.5 -92.5v-66q0 -44 3.5 -76.5t13.5 -54t26 -32t40 -9.5q19 1 34 -5.5t25.5 -18.5t16.5 -27t6 -33q0 -16 -6 -30t-16 -25t-23 -19t-29 -10q-70 -10 -122 -2t-89 30 t-61.5 56t-39 74.5t-19.5 86t-5 91.5z" />
<glyph unicode="&#xe58;" horiz-adv-x="942" d="M58 276v124q0 78 27 139t77.5 104t124 65.5t165.5 22.5h179q26 0 40.5 14t20.5 38q6 21 21 36t35 23.5t42.5 9t45.5 -6.5q20 -7 36.5 -21t26.5 -32.5t13 -39.5q2 -22 -5 -42q-10 -34 -30 -66.5t-52.5 -58t-78.5 -41.5t-109 -16h-199q-38 0 -64 -7.5t-42 -21.5 t-22.5 -33.5t-6.5 -43.5v-146q0 -16 4.5 -30t12.5 -27t18 -23t20 -16l119 100l127 -102q20 6 34 23.5t14 48.5q0 10 -2 18t-7 14.5t-13.5 11t-22.5 6.5q-20 3 -33.5 12t-20.5 20.5t-9 25.5t-1 26q3 40 29 63t72 23q70 0 116 -18t73 -49t37 -71.5t10 -83.5q0 -113 -62 -178 q-62 -64 -184 -76q-8 -1 -18.5 -2.5t-23 0t-26.5 7t-29 17.5l-58 48l-56 -50q-12 -10 -25.5 -15t-25.5 -6t-23 0t-19 3q-64 12 -114 39t-85.5 64t-54.5 83q-18 44 -18 94z" />
<glyph unicode="&#xe59;" horiz-adv-x="973" d="M47 326v59q0 175 78.5 266t240.5 91q14 0 32 -0.5t35 -2t34 -5t31 -9.5q18 -8 33 -19.5t28 -25.5l37 41q6 6 17 13.5t28 7.5h61q52 0 62 49q4 20 16.5 34t30 21.5t38 7.5t41.5 -7q18 -6 33 -18.5t24 -28.5t11.5 -35t-3.5 -39q-9 -31 -27 -57.5t-48 -46t-74 -30 t-106 -10.5q-4 0 -11 -2q-7 0 -9 -2l-24 -25l201 -410q10 -20 11 -41.5t-5.5 -40.5t-20.5 -35t-34 -25q-20 -10 -41 -10.5t-40 6.5t-35 20.5t-26 33.5l-210 428q-10 20 -20 36t-20 27t-23 17t-29 6t-29 -8.5t-22 -28t-14 -53t-6 -84.5v-53q0 -44 4.5 -77t16 -54.5t31 -31 t49.5 -4.5q21 3 36.5 -3t26 -18t16 -29t5.5 -34q0 -16 -6 -31t-16 -27t-23 -20.5t-29 -10.5q-70 -10 -123 -2t-93 29t-67 53t-43 72t-23.5 85t-7.5 91z" />
<glyph unicode="&#xe5a;" horiz-adv-x="1237" d="M60 588q0 48 13.5 85t37 65t54.5 47t65 31t70 18t70 6h60q20 0 36.5 -8t29 -21t19 -30.5t6.5 -37.5t-6.5 -37.5t-19 -30.5t-29 -20.5t-36.5 -7.5h-34q-21 0 -36.5 -6t-25.5 -16t-15 -22.5t-5 -26.5q0 -18 5 -34t19 -27t36 -17t56 -6q80 0 125 34t45 102v108q0 26 10 46.5 t26.5 35.5t39 23.5t48.5 8.5t48.5 -8.5t39 -23.5t26.5 -36q10 -20 10 -46v-632q0 -26 -10 -47t-26.5 -36t-39 -23t-48.5 -8t-48.5 8t-39 23t-26.5 36t-10 47v242q-19 -10 -37.5 -18t-38 -13.5t-41 -8.5t-47.5 -3q-88 0 -158 20.5t-118.5 57.5t-74 90t-25.5 117zM932 104v632 q0 26 9.5 46.5t26 35.5t39.5 23.5t49 8.5t48 -8.5t39 -23.5t27 -36q10 -20 10 -46v-632q0 -26 -10 -47t-27 -36t-39 -23t-48 -8t-49 8t-39.5 23t-26 36t-9.5 47z" />
<glyph unicode="&#xe5b;" horiz-adv-x="1949" d="M62 434q0 55 10 108.5t31 101.5t53 89t75 70.5t98 46t121 16.5q81 0 140 -23t98.5 -62t61.5 -92t30 -111q2 -20 -2 -38.5t-16 -34t-30 -25.5t-43 -12q-20 -2 -39.5 3.5t-35.5 16.5t-27 26.5t-15 35.5q-4 28 -11 50t-20 36.5t-30 23t-42 10.5q-40 -1 -70 -21t-49.5 -53.5 t-28.5 -77.5t-9 -94q0 -49 15.5 -94.5t44 -79.5t70.5 -55q40 -21 92 -21t96 16.5t78.5 46t61 70.5t44.5 90t29 104t13 113q0 20 7.5 38t20.5 31t30.5 21t37.5 8q22 0 42 -9t33 -25q34 -39 62.5 -75.5t48.5 -68.5q17 26 37.5 56t40.5 60q22 30 48 31t46 -29q24 -34 45 -64 q21 -32 33 -54l28 40q14 18 26 34h318q20 0 38.5 -7.5t32 -21t21.5 -31.5t8 -39q0 -20 -8 -38.5t-21.5 -32t-32 -21t-38.5 -7.5h-242q-18 -26 -43 -64t-57 -96q-8 -14 -18 -20.5t-20 -5.5t-19 8q-9 6 -15 18q-24 46 -44 82t-38 66q-19 -33 -42 -80q-24 -48 -48 -110 q-8 -17 -18 -24.5t-20.5 -7.5t-19.5 8q-10 8 -16 22q-24 58 -45 100t-37 71q-12 -60 -38 -112.5t-62 -97.5t-81 -81t-96.5 -61t-108 -38t-114.5 -13q-77 0 -141 16.5t-114.5 47t-88.5 72.5t-63 93.5t-37 110t-12 120.5z" />
<glyph unicode="&#x2000;" horiz-adv-x="855" />
<glyph unicode="&#x2001;" horiz-adv-x="1710" />
<glyph unicode="&#x2002;" horiz-adv-x="855" />
<glyph unicode="&#x2003;" horiz-adv-x="1710" />
<glyph unicode="&#x2004;" horiz-adv-x="570" />
<glyph unicode="&#x2005;" horiz-adv-x="427" />
<glyph unicode="&#x2006;" horiz-adv-x="285" />
<glyph unicode="&#x2007;" horiz-adv-x="285" />
<glyph unicode="&#x2008;" horiz-adv-x="213" />
<glyph unicode="&#x2009;" horiz-adv-x="342" />
<glyph unicode="&#x200a;" horiz-adv-x="95" />
<glyph unicode="&#x200b;" />
<glyph unicode="&#x2010;" horiz-adv-x="676" d="M40 397q0 24 8 41.5t22 27.5t31 15t37 5h400q19 0 36.5 -5t31 -15t22 -27t8.5 -42t-8.5 -42t-22 -28t-31 -15.5t-36.5 -4.5h-400q-20 0 -37 4.5t-31 15.5t-22 28t-8 42z" />
<glyph unicode="&#x2011;" horiz-adv-x="676" d="M40 397q0 24 8 41.5t22 27.5t31 15t37 5h400q19 0 36.5 -5t31 -15t22 -27t8.5 -42t-8.5 -42t-22 -28t-31 -15.5t-36.5 -4.5h-400q-20 0 -37 4.5t-31 15.5t-22 28t-8 42z" />
<glyph unicode="&#x2012;" horiz-adv-x="676" d="M40 397q0 24 8 41.5t22 27.5t31 15t37 5h400q19 0 36.5 -5t31 -15t22 -27t8.5 -42t-8.5 -42t-22 -28t-31 -15.5t-36.5 -4.5h-400q-20 0 -37 4.5t-31 15.5t-22 28t-8 42z" />
<glyph unicode="&#x2013;" horiz-adv-x="866" d="M0 396q0 24 7.5 41.5t21 28.5t31.5 16t38 5h670q20 0 38 -5t32 -16t21.5 -28.5t7.5 -41.5t-7.5 -41.5t-21.5 -28t-32 -15.5t-38 -5h-670q-20 0 -38 5t-31.5 15.5t-21 28t-7.5 41.5z" />
<glyph unicode="&#x2014;" horiz-adv-x="1597" d="M0 396q0 24 7.5 41.5t21 28.5t31.5 16t38 5h1402q20 0 38 -5t31 -16t21 -28.5t8 -41.5t-8 -41.5t-21 -28t-31 -15.5t-38 -5h-1402q-20 0 -38 5t-31.5 15.5t-21 28t-7.5 41.5z" />
<glyph unicode="&#x2018;" horiz-adv-x="426" d="M78 760q0 34 4.5 64t14 56t23.5 50t32 48q11 14 27.5 28t35.5 27t39 21t37 8q15 0 26 -4.5t19 -12t12 -17.5t4 -22t-4 -21t-12 -17t-18 -14t-22 -14t-24 -19t-24 -25t-21 -31t-15 -37q12 3 28 3q27 0 47.5 -10t35.5 -26.5t22 -37.5t7 -45q0 -26 -10 -49t-27 -40.5 t-40 -27.5t-49 -10q-36 0 -63.5 13.5t-46 36.5t-28.5 55t-10 70z" />
<glyph unicode="&#x2019;" horiz-adv-x="426" d="M78 636q0 12 4.5 21t12 17t17.5 14t22 14t24.5 19t24 25t20.5 31t15 37q-13 -3 -27 -3q-27 0 -48 10t-35.5 26.5t-22 37.5t-7.5 45q0 26 10 49t27 40.5t40 27.5t49 10q36 0 64 -13.5t46.5 -36.5t27.5 -55q10 -32 10 -70q0 -34 -4 -64t-13.5 -56t-23.5 -50t-33 -48 q-11 -14 -27.5 -28t-35.5 -27t-39 -21q-18 -8 -36 -8q-15 0 -26.5 4.5t-19.5 12t-12 17.5t-4 22z" />
<glyph unicode="&#x201c;" horiz-adv-x="719" d="M66 770q0 34 4 64t13.5 56t23.5 50t33 47q11 14 27.5 28.5t35.5 27t39 21.5q18 8 36 8q15 0 26.5 -5t19.5 -12.5t12 -17.5t4 -21q0 -12 -4.5 -21t-12 -17t-18 -15t-21.5 -14q-12 -8 -24.5 -18.5t-24 -25t-21.5 -31.5q-9 -16 -14 -36q12 2 27 2q27 0 48 -10t35.5 -26 t22 -37.5t7.5 -45.5q0 -26 -10 -49t-27 -40.5t-40 -27.5t-49 -10q-36 0 -64 13.5t-46.5 37t-28 55.5t-9.5 70zM372 770q0 34 4 64t13.5 56t23.5 50t33 47q11 14 27.5 28.5t35.5 27t39 21.5q18 8 36 8q15 0 26.5 -5t19.5 -12.5t12 -17.5t4 -21q0 -12 -4.5 -21t-12 -17 t-18 -15t-21.5 -14q-12 -8 -24.5 -18.5t-24 -25t-21.5 -31.5q-9 -16 -14 -36q12 2 27 2q27 0 48 -10t35.5 -26t22 -37.5t7.5 -45.5q0 -26 -10 -49t-27 -40.5t-40 -27.5t-49 -10q-36 0 -64 13.5t-46.5 37t-28 55.5t-9.5 70z" />
<glyph unicode="&#x201d;" horiz-adv-x="719" d="M73 636q0 12 4.5 21t12.5 17t18 14t21 14q12 8 24.5 19t24 25t21 31t14.5 37q-13 -3 -27 -3q-27 0 -48 10t-35.5 26.5t-22 37.5t-7.5 45q0 26 10 49t27.5 40.5t40.5 27.5t49 10q36 0 63 -13.5t46 -36.5t29 -55t10 -70q0 -34 -5 -64t-14 -56t-23 -50t-33 -48 q-11 -14 -27.5 -28t-35 -27t-38.5 -21t-38 -8q-15 0 -26 4.5t-19 12t-12 17.5t-4 22zM379 636q0 12 4.5 21t12.5 17t18 14t21 14q12 8 24.5 19t24 25t21 31t14.5 37q-13 -3 -27 -3q-27 0 -48 10t-35.5 26.5t-22 37.5t-7.5 45q0 26 10 49t27.5 40.5t40.5 27.5t49 10 q36 0 63 -13.5t46 -36.5t29 -55t10 -70q0 -34 -5 -64t-14 -56t-23 -50t-33 -48q-11 -14 -27.5 -28t-35 -27t-38.5 -21t-38 -8q-15 0 -26 4.5t-19 12t-12 17.5t-4 22z" />
<glyph unicode="&#x2022;" horiz-adv-x="585" d="M37 430q0 32 9.5 63t25.5 58t39.5 49.5t52 39t60.5 25.5t67 9q53 0 100 -20t82 -54t55.5 -78t20.5 -92q0 -52 -20.5 -97t-55.5 -78t-82 -53t-100 -20q-35 0 -67 9t-60.5 25t-52 39t-39.5 50t-25.5 59t-9.5 66z" />
<glyph unicode="&#x202f;" horiz-adv-x="342" />
<glyph unicode="&#x205f;" horiz-adv-x="427" />
<glyph unicode="&#x20ac;" horiz-adv-x="1119" d="M52 616q0 26 8 41t21.5 22.5t30.5 10t35 2.5h45q28 81 76 141.5t111 101t136 61t150 20.5q57 0 109.5 -11t98 -29t82.5 -43.5t64 -55t41 -63.5t14 -68q0 -25 -6 -46t-19 -36.5t-32 -24.5t-44 -11q-18 -1 -35.5 2.5t-34 11.5t-32 23t-29.5 39q-18 30 -39.5 50t-45.5 32 t-51.5 16t-57.5 4q-53 0 -99.5 -29t-76.5 -85h110q18 0 36 -2t31 -9t21 -21.5t8 -40.5t-7 -41.5t-20 -23.5t-31 -10.5t-38 -2.5h-153q-2 -21 -2 -40t1 -38h154q19 0 36.5 -1.5t30.5 -9.5t21 -22t8 -40t-7 -41t-20 -23.5t-31 -11t-38 -2.5h-120q29 -62 79.5 -96t123.5 -34 q26 0 48.5 4t44 17.5t44 37t50.5 61.5q19 28 44 44q24 16 54 16q27 0 50.5 -9t40.5 -25t27 -38t10 -49q0 -42 -19 -78t-50 -65.5t-73 -53t-88 -40t-93 -24.5t-90 -8q-80 0 -155.5 20t-139.5 62t-112 106t-74 152h-36q-18 0 -35 2t-30 10t-21 23t-8 39q0 26 8 42t21 23.5 t30 9.5t35 2h13q-1 20 -0.5 39.5t1.5 38.5h-17q-18 0 -34.5 2.5t-29.5 10t-21 22.5t-8 40z" />
<glyph unicode="&#x2122;" horiz-adv-x="1376" d="M88 936q0 10 3 22t11 21t21 15t31 6h330q18 0 31 -6t21 -15t11 -21t3 -22t-3 -21t-11 -20t-20 -15q-14 -6 -32 -6h-85v-322q0 -26 -9 -43t-21.5 -26t-26.5 -13t-22 -4q-9 0 -23 4t-26.5 13t-22 26t-9.5 43v322h-85q-18 0 -31 6t-21 15t-11 20t-3 21zM612 552v339 q0 34 10 56.5t26.5 35.5t35 18t35.5 5q50 0 82.5 -23t52.5 -73l66 -172l68 172q20 50 52 73t82 23q16 0 35 -5t35 -18t27 -35t11 -57v-339q0 -26 -9.5 -43t-22 -26t-26.5 -13t-23 -4t-23 4t-26.5 13t-21.5 26t-9 43v184l-69 -202q-12 -34 -32 -51t-48 -17t-47 17t-32 51 l-69 202v-184q0 -26 -9 -43t-22 -26t-26.5 -13t-22.5 -4t-22.5 4t-26.5 13t-22 26t-9 43z" />
<glyph unicode="&#x25cc;" horiz-adv-x="934" d="M217 404l80 38q-3 -18 -4 -38t4 -40zM284 228l34 79q11 -17 23.5 -31t28.5 -24zM299 580l82 -29q-22 -11 -37 -23q-14 -12 -24 -28zM426 572l41 80l37 -78q-20 4 -41 3t-37 -5zM430 228q18 -5 34 -5q16 1 38 7l-35 -78zM559 553l90 27l-35 -82q-11 17 -25.5 30.5 t-29.5 24.5zM561 250q17 10 30 23t23 28l23 -75zM639 366q6 17 6.5 35.5t-4.5 38.5l76 -38z" />
<glyph unicode="&#x25fc;" horiz-adv-x="737" d="M0 0v738h738v-738h-738z" />
<glyph unicode="&#xf700;" horiz-adv-x="823" d="M81 658.5q2 21.5 15 41.5q48 74 130.5 116t193.5 42q33 0 67.5 -4t69.5 -14q10 6 18 16q7 9 13 21q18 30 45.5 43.5t57 13.5t56.5 -13.5t43 -36t18 -53.5t-20 -67q-10 -16 -24 -27t-30 -19q21 -32 32.5 -73t11.5 -92q0 -42 -11 -88.5t-31 -102t-47 -119.5 q-27 -63 -58 -139q-12 -26 -29.5 -48t-41 -37t-51 -23t-58.5 -8q-32 0 -60.5 7.5t-52 22.5t-41 36.5t-27.5 50.5l-74 204h-10q-18 0 -33 6.5t-26 18.5t-17 27.5t-6 33.5t6 33.5t17 27.5t26 19t33 7h144q18 0 30.5 -6t21.5 -17t15.5 -25.5t11.5 -31.5l39 -120q12 34 25 74 t24 76t17.5 64t7.5 40q5 59 -23.5 90.5t-84.5 31.5q-38 0 -66 -14q-29 -12 -47 -46q-10 -22 -28.5 -36t-40.5 -20t-46 -4q-22 4 -42 14q-21 11 -36.5 27.5t-22 37t-4.5 42z" />
<glyph unicode="&#xf701;" d="M-942 1028q0 18 6.5 35t18 29t27.5 19t34 7h424q18 0 34 -7t27.5 -19t18 -29t6.5 -35t-6.5 -35t-18 -29t-27.5 -19t-34 -7h-424q-18 0 -34 7t-27.5 19t-18 29t-6.5 35z" />
<glyph unicode="&#xf702;" d="M-942 1028q0 18 6.5 35t18 29t27.5 19t34 7h274v40q0 22 9 40.5t24 31.5t35 20t42 7t42 -7t35 -20t24 -31.5t9 -40.5v-130q0 -18 -6.5 -35t-18 -29t-27.5 -19t-34 -7h-408q-18 0 -34 7t-27.5 19t-18 29t-6.5 35z" />
<glyph unicode="&#xf703;" d="M-942 1028q0 18 6.5 35t18 29t27.5 19t34 7h190v6q0 32 12.5 61t34 50t51.5 33t64 12q42 0 72 -14t50 -37.5t30 -54t10 -62.5q0 -37 -12 -68.5t-35 -55t-54.5 -37t-70.5 -13.5h-342q-18 0 -34 7t-27.5 19t-18 29t-6.5 35zM-559 1114q0 -10 4.5 -20t11.5 -17t17 -11.5 t22 -4.5t22 4.5t17.5 11.5t12 17t4.5 20q0 12 -4.5 22t-12 17.5t-17.5 12t-22 4.5t-22 -4.5t-17 -12t-11.5 -17.5t-4.5 -22z" />
<glyph unicode="&#xf704;" d="M-942 1028q0 18 6.5 35t18 29t27.5 19t34 7h108v67q0 17 6 30.5t17 23t25 14t32 4.5q17 0 31.5 -4.5t25.5 -14t17 -23t6 -30.5v-67h66v67q0 17 6 30.5t17 23t25 14t32 4.5q17 0 31.5 -4.5t25.5 -14t17 -23t6 -30.5v-157q0 -18 -6.5 -35t-18 -29t-27.5 -19t-34 -7h-408 q-18 0 -34 7t-27.5 19t-18 29t-6.5 35z" />
<glyph unicode="&#xf705;" d="M-599 1042v148q0 24 8.5 42t22.5 30t33 17t41 5t41 -5t33.5 -17t23 -30t8.5 -42v-148q0 -25 -8.5 -42.5t-23 -29.5t-33.5 -17t-41 -5t-41 5t-33 17t-22.5 30t-8.5 42z" />
<glyph unicode="&#xf706;" d="M-830 1164q0 14 5 26t13 21.5t19 15t23 5.5h110q12 0 23 -5.5t18 -15t11 -21.5t4 -26v-59q26 2 47.5 9.5t38.5 19.5t29.5 27.5t18.5 32.5q6 16 18 26t27 14t31 3t29 -7q14 -7 22.5 -18.5t11.5 -25.5t1 -30t-8 -32q-14 -34 -39.5 -64.5t-60.5 -52t-80.5 -34.5t-101.5 -13 h-77q-13 0 -23 5.5t-17 15t-11 21.5t-4 26v68h-18q-12 0 -23 5.5t-19 14.5t-13 21.5t-5 26.5z" />
<glyph unicode="&#xf707;" d="M-870 1019q0 44 11.5 77.5t30 56.5t41.5 35.5t47 12.5t44 -11.5t36 -33.5q14 20 35 32.5t47 12.5q16 0 31 -5.5t28 -15.5t23 -24.5t15 -32.5q8 12 14.5 28t10.5 35q4 13 12 23.5t18 16.5t22 7.5t24 -1.5q14 -3 25 -10.5t17 -18.5t8.5 -24t-0.5 -26q-6 -30 -19 -61.5 t-31.5 -58.5t-41 -46t-48.5 -24h-56q-15 0 -26.5 10.5t-11.5 28.5q-1 12 -3 23t-5.5 19.5t-9 13.5t-13.5 5q-12 0 -17.5 -8t-7.5 -22q-2 -18 -12.5 -27.5t-26.5 -9.5t-26 10q-11 10 -13 27q-2 14 -8 22t-18 8q-15 0 -21.5 -14.5t-8.5 -36.5q0 -14 -5 -25.5t-13 -19 t-18 -10.5t-21 -3q-13 0 -24 5t-19 13.5t-12 20.5t-4 26z" />
<glyph unicode="&#xf708;" d="M-792 1134q0 15 5 28t14 22.5t21 15t27 5.5h65v29q0 20 7.5 36t20 27t29.5 18t37 7q19 0 35.5 -7t29 -18t20 -27t7.5 -36v-29h64q14 0 26.5 -5.5t21 -15.5t13.5 -23t5 -27t-5 -27t-13.5 -23t-21 -15t-26.5 -5h-64v-31q0 -19 -7.5 -35t-20 -28t-29.5 -18t-37 -6 q-19 0 -35.5 6t-29 18t-20 28t-7.5 35v31h-65q-14 0 -26.5 5t-21.5 15t-14 23t-5 27z" />
<glyph unicode="&#xf709;" d="M-700 1045q0 19 6 39q12 34 36 61.5t59.5 48t79 32.5t93.5 16q34 2 58 -13t30 -47q3 -14 -0.5 -28.5t-11.5 -26.5t-20 -20.5t-28 -9.5q-25 -3 -42.5 -10t-30.5 -18t-21 -26t-13 -31q-6 -21 -20.5 -34.5t-33.5 -19.5t-39 -6q-22 0 -40 6q-20 6 -34 20t-21 31t-7 36z" />
<glyph unicode="&#xf70a;" d="M-299 1052v146q0 25 9.5 45t26 33.5t38.5 20.5t47 7t47 -7t38.5 -20.5t25.5 -33t9 -45.5v-146q0 -25 -9 -45t-25.5 -33.5t-38.5 -20.5t-47 -7t-47 7t-38.5 20.5t-26 33t-9.5 45.5z" />
<glyph unicode="&#xf70b;" d="M-621 1179q0 15 4.5 28.5t12.5 23t20 15.5t26 6h142q14 0 26 -6t20 -15.5t13 -23t5 -28.5v-55q58 3 92.5 27t49.5 60q7 16 19.5 28t27.5 17.5t32 5.5t33 -8q15 -8 25.5 -21t16 -29t5 -33.5t-7.5 -34.5q-16 -38 -44.5 -70t-68.5 -55t-92 -37t-116 -14h-90q-14 0 -26 6 t-20 16t-12 23t-4 28v73h-26q-14 0 -26 6t-20 16t-12.5 23t-4.5 28z" />
<glyph unicode="&#xf70c;" d="M-745 1020q0 46 16 82t41.5 60.5t56.5 37t62 12.5q34 0 60.5 -12t48.5 -35q21 21 49 34t63 13q22 0 42 -5t38 -16t31 -26t21 -34q10 12 19 29t15 38q4 14 15 24t25 17t30.5 9t32.5 -2q20 -4 34 -12t22.5 -19t11.5 -25t-1 -28q-8 -32 -26 -65t-42.5 -62t-55.5 -49 q-32 -22 -66 -26h-76q-22 0 -36 12t-16 30q-1 12 -3.5 24t-7.5 21t-13 14t-19 5q-16 0 -24.5 -9t-10.5 -25q-2 -18 -15 -30t-35 -12t-35 12t-16 30q-2 16 -10.5 25t-26.5 9q-20 0 -29.5 -15t-10.5 -39q0 -16 -7 -27t-18 -19t-25 -12t-28 -4q-18 0 -33 5.5t-25.5 15 t-16.5 21.5q-6 14 -6 28z" />
<glyph unicode="&#xf70d;" d="M-436 1150q0 17 6 32.5t17 26.5t26 17t33 6h60v24q0 22 9 41t24.5 32t37 21t45.5 8t44 -8t35.5 -21t24.5 -32t9 -41v-24h59q18 0 33 -6t26 -17.5t17 -27t6 -32.5t-6 -32t-17 -26t-26 -17.5t-33 -6.5h-59v-25q0 -22 -9 -41t-24.5 -32t-37 -21t-45.5 -8t-44.5 8t-35.5 21 t-24 32t-9 41v25h-60q-18 0 -33 6.5t-26 18t-17 26.5q-6 14 -6 32z" />
<glyph unicode="&#xf70e;" d="M-389.5 1046q-0.5 22 6.5 42q13 38 41 69t67 53.5t87.5 37t103.5 18.5q38 2 64 -16q28 -17 34 -51q3 -16 -0.5 -32.5t-12.5 -29.5t-23 -22t-30 -11q-28 -3 -48 -11.5t-34 -20.5t-23 -28.5t-15 -35.5q-7 -23 -23 -37.5t-36.5 -21.5t-43.5 -7t-45 8t-37.5 22t-23.5 33 t-8.5 41z" />
<glyph unicode="&#xf70f;" horiz-adv-x="1333" d="M17 584.5q-1 11.5 3 23.5t12 28q22 44 56 84t82 71t110.5 49t139.5 18q74 0 132 -13t102 -36t75.5 -55t51.5 -71t29 -82t9 -89v-205q0 -64 27.5 -96.5t77.5 -32.5q48 0 74 31t26 98v427q0 26 10 47t27 36.5t40 24t49 8.5t49 -8.5t40 -24t27 -36.5t10 -47v-460 q0 -76 -29 -131.5t-77.5 -92t-112 -53.5t-133.5 -17q-72 0 -137 17t-114 53t-77 92t-28 132v242q0 28 -5.5 54t-21 46t-44.5 32t-77 12q-32 0 -56 -8t-42 -20.5t-30 -27t-20 -28.5q13 -12 23.5 -25t17.5 -27.5t11 -32t4 -41.5v-268h14q19 0 35 -7t27.5 -19t18 -29t6.5 -36 t-6.5 -35.5t-18 -29t-27 -19.5t-35.5 -7h-178q-19 0 -34.5 7t-27 19.5t-18 29t-6.5 35.5v361q0 21 -7 43.5t-29 42.5q-13 12 -18.5 23.5t-6.5 23z" />
<glyph unicode="&#xf710;" d="M-640 1034v84q0 21 7.5 38.5t21 30.5t32 20t39.5 7t39.5 -7t31.5 -20t21 -30.5t8 -38.5h475q18 0 33.5 -7t27 -19t18.5 -28q6 -18 6 -36q0 -19 -6.5 -35t-18 -28.5t-26.5 -19.5t-34 -7h-575q-21 0 -39.5 7t-32 20t-21 30.5t-7.5 38.5z" />
<glyph unicode="&#xf711;" d="M-723 1112q0 40 14.5 75t40.5 60.5t60 40t74 14.5q38 0 72 -14.5t60 -40t42 -60.5t16 -75q0 -39 -16 -73.5t-42 -60t-60 -40.5q-34 -14 -72 -14q-39 0 -73.5 14.5t-60.5 40t-40.5 60t-14.5 73.5zM-598 1112q0 -12 5 -23.5t14 -20.5t21 -14q12 -6 24 -6q13 0 24.5 5.5 t20.5 14.5t14.5 20.5t5.5 23.5q0 13 -5.5 25t-14.5 21t-21 14.5t-24 5.5t-24 -5.5t-21 -14.5t-14 -21t-5 -25z" />
<glyph unicode="&#xf712;" d="M-954 1180q0 36 10 66.5t27 54t40.5 41.5t50 30t55.5 18t58 6h357q16 0 29 -6t22 -16.5t14.5 -24t5.5 -29.5t-5.5 -29.5t-14.5 -23.5t-22 -16t-29 -6h-344q-26 0 -41 -7t-23 -17.5t-10 -21.5t-2 -19q0 -6 1.5 -14t6 -17t11.5 -15t20 -6q14 0 24.5 8t14.5 24q6 22 24 33 t40 11q24 0 42 -10q16 -10 22 -34q4 -14 13 -23t21 -9q25 0 31 26q2 14 11 23t20.5 15t25.5 8t27 2q16 -1 30.5 -6t25 -15.5t16 -25.5t3.5 -35q-6 -36 -22.5 -63t-40 -45t-50.5 -26.5t-55 -8.5q-20 0 -37 5t-32 13.5t-27 19.5t-21 23q-10 -12 -23.5 -23.5t-29.5 -20 t-34.5 -13t-37.5 -4.5q-38 0 -67 9t-51 24.5t-37 35.5t-25 42.5t-14 46t-4 45.5z" />
<glyph unicode="&#xf713;" d="M-577 1414v127q0 22 8.5 40.5t23 31t34 19t41.5 6.5t42 -6.5t34.5 -19t23 -30.5t8.5 -41v-127q0 -22 -8.5 -40t-23 -31t-34.5 -20t-42 -7t-41.5 7t-34 20t-23 31t-8.5 40z" />
<glyph unicode="&#xf714;" d="M-748 1532q0 14 5 26t13 21.5t19.5 15t25.5 5.5h137q14 0 25.5 -5.5t20 -15t12.5 -21.5t4 -26v-58q29 2 52.5 10t42.5 19t31.5 26t20.5 32q7 16 19 26.5t26.5 16.5t30.5 5q15 -1 31 -7q15 -7 26.5 -19.5t16.5 -27.5t5 -31t-8 -32q-16 -34 -44.5 -64t-68.5 -52t-92 -34 q-51 -13 -115 -13h-82q-14 0 -26 5.5t-20 14.5t-12 21t-4 26v68h-29q-14 0 -25.5 5.5t-19.5 15t-13 21.5t-5 26z" />
<glyph unicode="&#xf715;" d="M-788 1382q0 48 12.5 83t33 58t46.5 34.5t54 11.5t52 -13q24 -14 42 -36q18 22 42.5 35.5t55.5 13.5q18 0 36 -5.5t33.5 -16.5t27 -26.5t17.5 -35.5q9 12 17 30t13 39q4 14 13.5 25t22 18t26.5 9t29 -2q16 -4 27.5 -12.5t17.5 -20.5t7 -26q1 -15 -3 -29 q-10 -34 -26.5 -65t-38 -57t-47.5 -44t-54 -23h-56q-19 0 -32 13q-12 12 -14 30q-1 13 -3.5 25.5t-7.5 21.5t-12 15t-17 6q-12 0 -19 -9t-9 -23q-3 -19 -14.5 -30t-29.5 -11q-19 0 -30.5 10.5t-13.5 30.5q-2 13 -9 22.5t-22 9.5q-18 0 -27 -16t-10 -40q-1 -32 -19.5 -48.5 t-46.5 -16.5q-15 0 -26.5 5t-20 13.5t-13 20.5t-4.5 26z" />
<glyph unicode="&#xf716;" d="M-688 1508q0 15 5 28.5t14 23.5t21 15.5t28 5.5h68v30q0 20 7 36.5t20 28t30 18t37 6.5t37 -6.5t29.5 -18t20 -28.5t7.5 -36v-30h68q15 0 27.5 -5.5t21.5 -15.5t14 -23.5t5 -28.5t-5 -28.5t-14 -23t-21.5 -15t-27.5 -5.5h-68v-30q0 -20 -7.5 -36.5t-20 -28t-30.5 -18.5 q-16 -7 -36 -7t-37 7t-30 18.5t-20 28t-7 36.5v30h-68q-15 0 -27.5 5.5t-21.5 15t-14 23.5t-5 28z" />
<glyph unicode="&#xf717;" d="M-550 1330q2 20 10 38q16 33 39 60.5t55 48.5t73 34t91 17q34 2 58 -13t29 -46q3 -15 0 -30t-11 -27t-20 -20t-28 -10q-25 -2 -43.5 -10t-31.5 -19t-21 -26t-13 -31q-6 -20 -18.5 -33t-29.5 -19.5t-37 -7t-39 5.5q-20 7 -34.5 20.5t-21.5 31t-7 36.5z" />
<glyph unicode="&#xf718;" d="M-406 -453q0 18 6 34.5t17.5 29.5t27 20t34.5 7h178q18 0 34 -7t27.5 -20t17.5 -29t6 -35v-191q0 -24 -9 -43.5t-25 -33t-36.5 -21t-44.5 -7.5t-45.5 7.5t-37 21t-24.5 33t-9 43.5v100h-32q-19 0 -34.5 7.5t-27 20t-17.5 28.5t-6 35z" />
<glyph unicode="&#xf719;" d="M-690 -446q0 18 6 33t16 26t25 18t33 7h166q18 0 32.5 -7t25 -18t16.5 -27q6 -14 6 -32v-68q0 -32 9 -48.5t33 -16.5t34 16.5t10 48.5v62q0 23 8.5 41.5t23.5 31.5t35 20t43 7t43 -7t35 -20t23.5 -32t8.5 -41v-70q0 -47 -14.5 -88.5t-46 -72.5t-81.5 -49 q-52 -19 -122 -19q-66 0 -113.5 17.5t-80 48t-49.5 70t-21 83.5h-24q-18 0 -33 7t-25 18.5t-16 27t-6 33.5z" />
<glyph unicode="&#xf71a;" d="M-336 -504q0 30 12 58t33 48.5t49 33.5q28 12 58 12t57 -12.5t47.5 -33t32.5 -48.5t12 -58t-12 -57t-32.5 -47.5t-47.5 -33t-57 -12.5t-58 12.5t-49 33t-33 47.5t-12 57z" />
<glyph unicode="&#xf71d;" horiz-adv-x="1097" d="M33 753.5q5 24.5 18.5 43.5t34.5 32q20 13 46 17q26 5 51.5 1.5t46.5 -15t35.5 -30.5t19.5 -45l63 -345l86 230q7 18 18.5 34.5t26.5 28t33 18.5t39 7t39.5 -7t34 -19t26.5 -28t19 -34l92 -251l36 162q6 28 10 49.5t2 38.5t-11 28t-30 17q-13 4 -24 11t-19.5 18t-13 24 t-4.5 27q0 16 5 30t14.5 25t22 18t27.5 10q36 6 60.5 22t38.5 43q6 12 13.5 22t18.5 18q19 15 40.5 20.5t42.5 2.5t41 -13t36 -28t22 -39.5t3.5 -43t-13.5 -42.5t-31 -35q-12 -8 -23.5 -15t-21.5 -11q17 -17 29 -39.5t18.5 -47.5t6.5 -52t-8 -52l-147 -497 q-10 -33 -39.5 -52.5t-69.5 -19.5q-42 0 -70 20t-40 52l-133 362l-128 -362q-12 -33 -40.5 -52.5t-68.5 -19.5q-42 0 -72 19t-38 53l-168 638q-8 29 -3 53.5z" />
<glyph unicode="&#xf881;" horiz-adv-x="1364" d="M8.5 584.5q-0.5 11.5 3.5 23.5t12 28q22 44 57 84t85 71t115 49t145 18q101 0 174.5 -23t123.5 -61q24 19 51 34.5t56 26.5t59 17t60 6q44 0 88 -8t84 -23.5t73.5 -39t58 -56t38.5 -73.5q14 -40 14 -90v-734q0 -26 -9.5 -47.5t-26.5 -37t-39.5 -23.5t-48.5 -8t-49 8 t-40 23.5t-26.5 37t-9.5 47.5v698q0 36 -8.5 60t-22.5 39t-34 21t-42 6q-18 0 -37 -6t-34 -20t-25 -36t-11 -54q0 -2 0.5 -5t0.5 -13v-29v-53v-84.5v-124v-172v-227.5q0 -26 -10 -47.5t-27 -37t-40 -23.5t-49 -8t-49 8t-40 23.5t-27 37t-10 47.5v682q0 29 -6.5 55.5 t-24.5 47.5t-50.5 33t-84.5 12q-40 0 -68.5 -9t-47 -22.5t-28.5 -29t-16 -29.5q13 -12 22.5 -23.5t16 -25t10 -30.5t3.5 -41v-272h14q19 0 35 -7t27.5 -19t18 -29t6.5 -36t-6.5 -35.5t-18 -29t-27 -19.5t-35.5 -7h-176q-19 0 -34.5 7t-27.5 19.5t-18 29t-6 35.5v361 q0 21 -7.5 43.5t-28.5 42.5q-13 12 -19 23.5t-6.5 23z" />
<glyph unicode="&#xf882;" horiz-adv-x="1353" d="M10 91q0 19 6 36t17.5 29t27 19t35.5 7h6v270q0 21 -7 43.5t-28 42.5q-13 12 -19 23.5t-7 23t3.5 23.5t12.5 28q22 44 57.5 84t85.5 71t114.5 49t144.5 18q94 0 163.5 -19.5t119.5 -53.5q45 36 101.5 54.5t116.5 18.5q44 0 87 -8t80 -23.5t68 -39t54 -56t35 -73.5 q12 -40 12 -90v-734q0 -26 -9.5 -48t-26.5 -37t-40 -23t-49 -8t-48.5 8t-39.5 23t-27 37t-10 48v706q0 63 -21 90.5t-65 27.5q-35 0 -57.5 -23t-28.5 -73q2 -25 2 -50v-678q0 -26 -10 -48t-27 -37t-40 -23t-49 -8t-49 8t-40 23t-27 37t-10 48v662q0 29 -6 58.5t-24 54 t-50.5 40t-84.5 15.5q-41 0 -69 -9t-46.5 -22t-29 -29t-15.5 -30q13 -12 23 -25t16 -28t9 -33t3 -42v-355q0 -19 -6.5 -35.5t-18 -29t-27.5 -19.5t-34 -7h-168q-19 0 -35 7t-27.5 19.5t-17.5 29t-6 35.5z" />
<glyph d="M-770 1022q-4 17 0 35q12 59 51 95.5t101 51.5q7 25 24.5 48.5t43.5 41.5t59.5 29t73.5 11q36 0 59.5 -16t27.5 -48q2 -16 -1 -31t-11.5 -27.5t-21 -20t-28.5 -7.5q-19 0 -30.5 -5t-18.5 -14t-9 -21t-2 -28q0 -22 -12 -34.5t-41 -12.5q-34 0 -51.5 -15.5t-23.5 -43.5 q-5 -18 -16.5 -31t-27.5 -21t-35 -10t-39 2t-35 14.5t-24 25t-13 32.5z" />
<glyph horiz-adv-x="730" d="M-723 1112q0 40 14.5 75t40.5 60.5t60 40t74 14.5q38 0 72 -14.5t60 -40t42 -60.5t16 -75q0 -39 -16 -73.5t-42 -60t-60 -40.5q-34 -14 -72 -14q-39 0 -73.5 14.5t-60.5 40t-40.5 60t-14.5 73.5zM-598 1112q0 -12 5 -23.5t14 -20.5t21 -14q12 -6 24 -6q13 0 24.5 5.5 t20.5 14.5t14.5 20.5t5.5 23.5q0 13 -5.5 25t-14.5 21t-21 14.5t-24 5.5t-24 -5.5t-21 -14.5t-14 -21t-5 -25zM34 642.5q1 -23.5 10.5 -44t26.5 -37t39 -24.5q23 -8 46.5 -6.5t44.5 11t37 26.5t24 40q12 26 31 38t44 12q43 0 64.5 -27t21.5 -91v-436q0 -26 9.5 -47t26.5 -36 t40 -23t49 -8t48.5 8t39.5 23t27 36t10 47v464q0 50 -12.5 90.5t-35 73t-54 56t-68.5 39t-79 23.5t-87 8q-46 0 -90.5 -10t-83.5 -31.5t-70 -53.5q-31 -31 -50 -75q-10 -22 -9 -45.5z" />
<glyph horiz-adv-x="730" d="M-723 1112q0 40 14.5 75t40.5 60.5t60 40t74 14.5q38 0 72 -14.5t60 -40t42 -60.5t16 -75q0 -39 -16 -73.5t-42 -60t-60 -40.5q-34 -14 -72 -14q-39 0 -73.5 14.5t-60.5 40t-40.5 60t-14.5 73.5zM-598 1112q0 -12 5 -23.5t14 -20.5t21 -14q12 -6 24 -6q13 0 24.5 5.5 t20.5 14.5t14.5 20.5t5.5 23.5q0 13 -5.5 25t-14.5 21t-21 14.5t-24 5.5t-24 -5.5t-21 -14.5t-14 -21t-5 -25zM34 642.5q1 -23.5 10.5 -44t26.5 -37t39 -24.5q23 -8 46.5 -6.5t44.5 11t37 26.5t24 40q12 26 31 38t44 12q43 0 64.5 -27t21.5 -91v-436q0 -26 9.5 -47t26.5 -36 t40 -23t49 -8t48.5 8t39.5 23t27 36t10 47v464q0 50 -12.5 90.5t-35 73t-54 56t-68.5 39t-79 23.5t-87 8q-46 0 -90.5 -10t-83.5 -31.5t-70 -53.5q-31 -31 -50 -75q-10 -22 -9 -45.5z" />
<glyph d="M-719 1028q0 18 6.5 35t17.5 29t27 19t34 7h506q18 0 34 -7t27.5 -19t18 -29t6.5 -35t-6.5 -35t-18 -29t-27.5 -19t-34 -7h-506q-18 0 -34 7t-27 19t-17.5 29t-6.5 35z" />
<glyph d="M-719 1028q0 18 6.5 35t17.5 29t27 19t34 7h358v40q0 22 8 40.5t23 31.5t35 20t43 7q22 0 42.5 -7t35.5 -20t23 -31.5t8 -40.5v-130q0 -18 -6 -35t-17 -29t-27 -19t-34 -7h-492q-18 0 -34 7t-27 19t-17.5 29t-6.5 35z" />
<glyph d="M-719 1028q0 18 6.5 35t17.5 29t27 19t34 7h278v6q0 32 12 61t34 50t52 33t64 12q38 0 68 -14t51 -37.5t31.5 -54t10.5 -62.5q0 -37 -13.5 -68.5t-37 -55t-55 -37t-66.5 -13.5h-429q-18 0 -34 7t-27 19t-17.5 29t-6.5 35zM-250 1114q0 -10 4 -20t12 -17t18 -11.5t22 -4.5 t21.5 4.5t17 11.5t11.5 17t4 20q0 12 -4 22t-11.5 17.5t-17.5 12.5q-9 4 -21 4t-22 -4.5t-18 -12t-12 -17.5t-4 -22z" />
<glyph d="M-719 1028q0 18 6.5 35t17.5 29t27 19t34 7h184v67q0 17 6 30.5t17 23t26 14t33 4.5q17 0 31.5 -4.5t25.5 -14t18 -23t7 -30.5v-67h65v67q0 17 6.5 30.5t17.5 23t26 14t31 4.5q17 0 32.5 -4.5t26.5 -14t17 -23t6 -30.5v-157q0 -18 -6 -35t-17 -29t-27 -19t-34 -7h-492 q-18 0 -34 7t-27 19t-17.5 29t-6.5 35z" />
<glyph d="M-1084 1028q0 18 6 35t17 29t27 19t34 7h582q18 0 34 -7t27.5 -19t18 -29t6.5 -35t-6.5 -35t-18 -29t-27.5 -19t-34 -7h-582q-18 0 -34 7t-27 19t-17 29t-6 35z" />
<glyph d="M-1084 1028q0 18 6 35t17 29t27 19t34 7h434v40q0 22 8 40.5t23 31.5t35 20t43 7q22 0 42.5 -7t35.5 -20t23 -31.5t8 -40.5v-130q0 -18 -6 -35t-17 -29t-27 -19t-34 -7h-568q-18 0 -34 7t-27 19t-17 29t-6 35z" />
<glyph d="M-1084 1028q0 18 6 35t17 29t27 19t34 7h340v6q0 32 12.5 61t34 50t51.5 33t64 12q38 0 68.5 -14t51 -37.5t31.5 -54t11 -62.5q0 -37 -13.5 -68.5t-37 -55t-54.5 -37t-67 -13.5h-492q-18 0 -34 7t-27 19t-17 29t-6 35zM-553 1114q0 -10 4.5 -20t11.5 -17t17 -11 q10 -5 22 -5t22 4.5t17.5 11.5t12 17t4.5 20q0 12 -4.5 22t-12 17.5t-17.5 12t-22 4.5t-22 -4.5t-17 -12t-11.5 -17.5t-4.5 -22z" />
<glyph d="M-1084 1028q0 18 6 35t17 29t27 19t34 7h260v67q0 17 6 30.5t17 23t26 14t33 4.5q17 0 31.5 -4.5t25.5 -14t18 -23t7 -30.5v-67h65v67q0 17 6.5 30.5t17.5 23t26 14t31 4.5q17 0 32.5 -4.5t26.5 -14t17 -23t6 -30.5v-157q0 -18 -6 -35t-17 -29t-27 -19t-34 -7h-568 q-18 0 -34 7t-27 19t-17 29t-6 35z" />
<glyph d="M-563 1414v127q0 22 8.5 40.5t23 31t34 19t41.5 6.5t42 -6.5t34.5 -19t23 -30.5t8.5 -41v-127q0 -22 -8.5 -40t-23 -31t-34.5 -20t-42 -7t-41.5 7t-34 20t-23 31t-8.5 40z" />
<glyph d="M-737 1532q0 14 4.5 26t12.5 21.5t20 15t26 5.5h136q14 0 26 -5.5t20 -15t12.5 -21.5t4.5 -26v-58q29 2 52.5 10t42 19t31.5 26t21 32q7 16 18.5 26.5t26.5 16.5t31 5t31 -7q15 -7 26 -19.5t16 -27.5t5 -31t-8 -32q-16 -34 -44 -64t-68 -52t-92 -34.5t-116 -12.5h-81 q-14 0 -26 5.5t-20 14.5t-12.5 21t-4.5 26v68h-28q-14 0 -26 5.5t-20 15t-12.5 21.5t-4.5 26z" />
<glyph d="M-778 1382q0 48 12 83t33 58.5t47 35t53 11.5q28 0 51.5 -14t42.5 -36q18 22 42.5 36t56.5 14q18 0 36 -6t33 -17t27 -26t18 -35q9 12 17 29.5t13 38.5q4 14 13 25t21.5 18t27 9t28.5 -1q16 -4 28 -12.5t18 -20.5t7 -26t-3 -29q-10 -34 -27 -65.5t-38.5 -57.5t-47 -44 t-53.5 -22h-57q-19 0 -32 12t-14 31q-1 13 -3.5 25t-7 21.5t-11.5 15t-17 5.5q-12 0 -19 -9t-10 -23q-3 -19 -14 -29.5t-30 -10.5t-30.5 10.5t-13.5 29.5q-2 13 -8.5 22.5t-22.5 9.5q-18 0 -27 -16t-9 -40q-1 -32 -20 -48t-46 -16q-15 0 -27 5t-20.5 13.5t-12.5 20t-4 25.5z " />
<glyph d="M-674 1508q0 15 5 28.5t14 23.5t21 15.5t28 5.5h68v30q0 20 7 36.5t20 28t30 18t37 6.5t37 -6.5t29.5 -18t20 -28.5t7.5 -36v-30h68q15 0 27.5 -5.5t21.5 -15.5t14 -23.5t5 -28.5t-5 -28.5t-14 -23t-21.5 -15t-27.5 -5.5h-68v-30q0 -20 -7.5 -36.5t-20 -28t-30.5 -18.5 q-16 -7 -36 -7t-37 7t-30 18.5t-20 28t-7 36.5v30h-68q-15 0 -27.5 5.5t-21.5 15t-14 23.5t-5 28z" />
<glyph d="M-1086 1028q0 18 6.5 35t18 29t27.5 19t34 7h872q18 0 34 -7t27.5 -19t18 -29t6.5 -35t-6.5 -35t-18 -29t-27.5 -19t-34 -7h-872q-18 0 -34 7t-27.5 19t-18 29t-6.5 35z" />
<glyph d="M-1086 1028q0 18 6.5 35t18 29t27.5 19t34 7h724v40q0 22 8 40.5t23 31.5t35 20t43 7q22 0 42.5 -7t35.5 -20t23 -31.5t8 -40.5v-130q0 -18 -6 -35t-17 -29t-27 -19t-34 -7h-858q-18 0 -34 7t-27.5 19t-18 29t-6.5 35z" />
<glyph d="M-1086 1028q0 18 6.5 35t18 29t27.5 19t34 7h640v6q0 32 12 61t34 50t52 33t64 12q38 0 68 -14t50.5 -37.5t31.5 -54t11 -62.5q0 -37 -13.5 -68.5t-37 -55t-55 -37t-66.5 -13.5h-791q-18 0 -34 7t-27.5 19t-18 29t-6.5 35zM-254 1114q0 -10 4 -20t12 -17t18 -11.5 t22 -4.5t21.5 4.5t17 11.5t11.5 17t4 20q0 12 -4 22t-11.5 17.5t-17.5 12.5q-9 4 -21 4t-22 -4.5t-18 -12t-12 -17.5t-4 -22z" />
<glyph d="M-1086 1028q0 18 6.5 35t18 29t27.5 19t34 7h550v67q0 17 6 30.5t17 23t26 14t33 4.5q17 0 31.5 -4.5t25.5 -14t18 -23t7 -30.5v-67h65v67q0 17 6.5 30.5t17.5 23t26 14t31 4.5q17 0 32.5 -4.5t26.5 -14t17 -23t6 -30.5v-157q0 -18 -6 -35t-17 -29t-27 -19t-34 -7h-858 q-18 0 -34 7t-27.5 19t-18 29t-6.5 35z" />
<glyph d="M-272 1334v127q0 22 8 40.5t23 31t34 19t42 6.5q22 0 41.5 -6.5t34.5 -19t23 -30.5t8 -41v-127q0 -22 -8 -40t-23 -31t-34 -20t-42 -7q-22 0 -41.5 7t-34.5 20t-23 31t-8 40z" />
<glyph d="M-524 1454q0 14 4.5 26.5t13 22t19.5 14.5t25 5h138q14 0 25 -5t19.5 -14.5t13 -22t4.5 -26.5v-62q29 2 52.5 9.5t42 19t31 26t20.5 31.5q7 16 19.5 27t26.5 16.5t30 5t32 -7.5q15 -7 26 -19t16.5 -27t5.5 -31t-8 -32q-16 -34 -45 -64.5t-69 -52t-92 -34.5t-115 -13h-81 q-14 0 -26 5.5t-20 15t-12 21.5t-4 26v73h-30q-14 0 -25 5.5t-19.5 14.5t-13 21t-4.5 26z" />
<glyph d="M-575 1300q0 48 12.5 83t33 58t47 34.5t52.5 11.5q28 0 52 -13.5t42 -35.5q18 22 43 35.5t56 13.5q18 0 36 -5.5t33.5 -16.5t27.5 -26.5t18 -35.5q9 12 17 30t13 39q4 14 13 25t21 18t27 9t29 -2q16 -4 27.5 -12.5t18 -20.5t7.5 -26q1 -15 -3 -29q-10 -34 -27 -65 t-39 -57t-48 -44q-24 -18 -52 -23h-58q-19 0 -31.5 12.5t-14.5 30.5q-1 13 -3.5 25.5t-6.5 21.5t-11 15t-18 6q-12 0 -19 -9q-8 -9 -10 -23q-3 -19 -13.5 -30t-30.5 -11q-19 0 -30.5 10.5t-13.5 30.5q-2 13 -8 22.5t-22 9.5q-18 0 -27 -16t-10 -40q-1 -32 -20 -48.5 t-45 -16.5q-15 0 -27.5 5t-20.5 13.5t-12.5 20.5t-4.5 26z" />
<glyph d="M-406 1426q0 15 5 28.5t14 23.5t21.5 15.5t27.5 5.5h68v30q0 20 7.5 36.5t20 28t30.5 18.5q16 6 36 6t37 -6.5t30 -18t20 -28.5t7 -36v-30h68q15 0 27.5 -5.5t21.5 -15.5t14 -23.5t5 -28.5t-5 -28.5t-14 -23t-21 -15t-28 -5.5h-68v-30q0 -20 -7 -36.5t-20 -28t-30 -18.5 t-37 -7t-37 7t-30 18.5t-20 28t-7 36.5v30h-68q-15 0 -27.5 5.5t-21.5 15t-14 23.5t-5 28z" />
<glyph d="M-574 1334v127q0 22 9 40.5t23 31t34 19t42 6.5t42 -6.5t34 -19t23 -30.5t9 -41v-127q0 -22 -9 -40t-23 -31t-34 -20t-42 -7t-42 7t-34 20t-23 31t-9 40z" />
<glyph d="M-748 1454q0 14 4.5 26.5t13 22t19.5 14.5t25 5h138q14 0 25 -5t19.5 -14.5t13 -22t4.5 -26.5v-62q29 2 52.5 9.5t42 19t31 26t20.5 31.5q7 16 19.5 27t26.5 16.5t30 5t32 -7.5q15 -7 26 -19t16.5 -27t5.5 -31t-8 -32q-16 -34 -45 -64.5t-69 -52t-92 -34.5t-115 -13h-81 q-14 0 -26 5.5t-20 15t-12 21.5t-4 26v73h-30q-14 0 -25 5.5t-19.5 14.5t-13 21t-4.5 26z" />
<glyph d="M-790 1300q0 48 13 83t33 58t46.5 34.5t53.5 11.5q28 0 52 -13.5t42 -35.5q18 22 43 35.5t55 13.5q18 0 36 -5.5t34 -16.5t27.5 -26.5t17.5 -35.5q9 12 17 30t13 39q4 14 13.5 25t21.5 18t26 9q16 2 30 -2q16 -4 27 -12.5t17.5 -20.5t7.5 -26q1 -15 -3 -29 q-10 -34 -26.5 -65t-38.5 -57t-48 -44t-53 -23h-57q-19 0 -31.5 12.5t-14.5 30.5q-1 13 -3.5 25.5t-7 21.5t-11.5 15q-8 6 -18 6q-12 0 -19 -9t-9 -23q-3 -19 -14 -30t-30 -11t-30.5 10.5t-13.5 30.5q-2 13 -8 22q-6 10 -22 10q-18 0 -27 -16t-11 -40q-1 -32 -19.5 -48.5 t-45.5 -16.5q-15 0 -27 5t-20 13.5t-13 20.5t-5 26z" />
<glyph d="M-684 1426q0 15 5 28.5t14 23.5t21 15.5t28 5.5h68v30q0 20 7 36.5t20 28t30 18t37 6.5t37 -6.5t29.5 -18t20 -28.5t7.5 -36v-30h68q15 0 27.5 -5.5t21.5 -15.5t14 -23.5t5 -28.5t-5 -28.5t-14 -23t-21.5 -15t-27.5 -5.5h-68v-30q0 -20 -7.5 -36.5t-20 -28t-30.5 -18.5 q-16 -7 -36 -7t-37 7t-30 18.5t-20 28t-7 36.5v30h-68q-15 0 -27.5 5.5t-21.5 15t-14 23.5t-5 28z" />
<glyph d="M-553 -191q0 18 6.5 34.5t17.5 29.5t26.5 20t34.5 7h178q18 0 34 -7t27 -20t17.5 -29t6.5 -35v-211q0 -24 -9 -43.5t-24.5 -33t-36.5 -21t-45 -7.5t-45 7.5t-37 21t-25 33t-9 43.5v120h-32q-19 0 -34.5 7.5t-26.5 20t-17.5 28.5t-6.5 35z" />
<glyph d="M-723 -185q0 18 5.5 33t16.5 26.5t25 18.5t32 7h167q18 0 32.5 -7t25 -18.5t16 -27t5.5 -32.5v-67q0 -32 9 -49t35 -17q24 0 33 17t9 49v61q0 23 9 41.5t24 31.5t35 20.5t43 7.5t43 -7.5t35 -20.5t24 -31.5t9 -41.5v-69q0 -47 -15 -88.5t-47 -73t-82 -50t-120 -18.5 q-66 0 -114 18t-80 48t-50 70q-16 40 -20 84h-26q-18 0 -32 7t-25 18t-16.5 27t-5.5 33z" />
<glyph d="M-488 -215q0 30 12.5 58t33 48.5t48 32.5t58.5 12q30 0 57 -12t48 -32.5t33 -48t12 -58.5q0 -30 -12 -57t-33 -47.5t-48 -32.5t-57 -12q-31 0 -58.5 12t-48 32.5t-33 47.5t-12.5 57z" />
<glyph d="M-528 -191q0 18 6 34.5t17.5 29.5t27 20t34.5 7h178q18 0 34 -7t27.5 -20t17.5 -29t6 -35v-211q0 -24 -9 -43.5t-25 -33t-36.5 -21t-44.5 -7.5t-45.5 7.5t-37 21t-24.5 33t-9 43.5v120h-32q-19 0 -34.5 7.5t-27 20t-17.5 28.5t-6 35z" />
<glyph d="M-850 -185q0 18 6 33t16.5 26.5t25 18.5t32.5 7h166q18 0 33 -7t25 -18.5t16 -27t6 -32.5v-67q0 -32 9 -49t34 -17q24 0 33.5 17t9.5 49v61q0 23 9 41.5t24 31.5t35 20.5t42 7.5q23 0 43.5 -7.5t35.5 -20.5t23.5 -31.5t8.5 -41.5v-69q0 -47 -14.5 -88.5t-46.5 -73 t-82 -50t-121 -18.5q-66 0 -113.5 18t-80 48t-50 70t-20.5 84h-25q-18 0 -32.5 7t-25 18t-16.5 27t-6 33z" />
<glyph d="M-488 -215q0 30 12.5 58t33 48.5t48 32.5t58.5 12q30 0 57 -12t48 -32.5t33 -48t12 -58.5q0 -30 -12 -57t-33 -47.5t-48 -32.5t-57 -12q-31 0 -58.5 12t-48 32.5t-33 47.5t-12.5 57z" />
<glyph d="M-641 1034v84q0 21 7.5 38.5t21.5 30t32 20t40 7.5q21 0 39 -7.5t31.5 -20t21.5 -30.5t8 -38h578q18 0 33.5 -7t27 -19.5t17.5 -29t6 -34.5q0 -19 -6 -35.5t-17.5 -28.5t-27 -19t-33.5 -7h-678q-21 0 -39.5 7t-32.5 20t-21.5 30t-7.5 39z" />
<glyph d="M-522 1414v127q0 22 8.5 40.5t23 31t34.5 19.5q20 6 42 6t41.5 -6.5t34 -19t23 -30.5t8.5 -41v-127q0 -22 -8.5 -40t-23 -31t-34 -20t-41.5 -7t-42 7t-34.5 20t-23 31t-8.5 40z" />
<glyph d="M-732 1532q0 14 4 26t12.5 21.5t20 15t25.5 5.5h137q14 0 25.5 -5.5t19.5 -15t13 -21.5t5 -26v-58q29 2 52.5 10t41.5 19t31 26t21 32q7 16 19 26.5t26.5 16.5t30.5 5t32 -7q15 -7 25.5 -19.5t16 -27.5t5 -31t-7.5 -32q-16 -34 -44.5 -64t-68.5 -52t-92 -34.5t-116 -12.5 h-80q-14 0 -26 5.5t-20 14.5t-12.5 21t-4.5 26v68h-29q-14 0 -25.5 5.5t-20 15t-12.5 21.5t-4 26z" />
<glyph d="M-675 1382q0 48 12.5 83t33 58.5t47 35t52.5 11.5q28 0 52 -14t42 -36q18 22 43 36t56 14q18 0 36 -6t33.5 -17t27.5 -26t18 -35q9 12 17 29.5t13 38.5q4 14 13 25t21 18t27 9t29 -1q16 -4 27.5 -12.5t18 -20.5t7.5 -26t-3 -29q-10 -34 -27 -65.5t-39 -57.5t-48 -44 q-24 -18 -52 -22h-58q-19 0 -31.5 12t-14.5 31q-1 13 -3.5 25t-6.5 21.5t-11 15t-18 5.5q-12 0 -19 -9q-8 -9 -10 -23q-3 -19 -13.5 -29.5t-30.5 -10.5q-19 0 -30.5 10.5t-13.5 29.5q-2 13 -8 22.5t-22 9.5q-18 0 -27 -16t-10 -40q-1 -32 -20 -48t-45 -16q-15 0 -27.5 5 t-20.5 13.5t-12.5 20t-4.5 25.5z" />
<glyph d="M-634 1508q0 15 5 28.5t14 23.5t22 15.5t27 5.5h68v30q0 20 8 36.5t20.5 28t30 18t36.5 6.5q20 0 36.5 -6.5t29.5 -18t20.5 -28.5t7.5 -36v-30h68q15 0 27.5 -5.5t21.5 -15.5t14 -23.5t5 -28.5t-5 -28.5t-14 -23t-21.5 -15t-27.5 -5.5h-68v-30q0 -20 -7.5 -36.5 t-20.5 -28t-30 -18.5t-37 -7t-37 7t-29.5 18.5t-20 28t-7.5 36.5v30h-68q-15 0 -27.5 5.5t-21.5 15t-14 23.5t-5 28z" />
<glyph d="M-640 1034v84q0 21 7.5 38.5t21 30.5t32 20t39.5 7t39.5 -7t31.5 -20t21 -30.5t8 -38.5h475q18 0 33.5 -7t27 -19t18.5 -28q6 -18 6 -36q0 -19 -6.5 -35t-18 -28.5t-26.5 -19.5t-34 -7h-575q-21 0 -39.5 7t-32 20t-21 30.5t-7.5 38.5z" />
<glyph d="M-618 1517q0 14 5 26.5t13 21.5t19.5 14t25.5 5h137q14 0 25.5 -5t20 -14t12.5 -21.5t4 -26.5v-57q29 2 52.5 9t42.5 19t31.5 26.5t20.5 31.5q7 16 19 27t26.5 16t30.5 5q15 0 31 -8q15 -7 26.5 -19t16.5 -26.5t5 -31.5t-8 -32q-16 -34 -44.5 -64.5t-68.5 -52t-92 -34.5 q-51 -12 -115 -12h-82q-14 0 -26 5t-20 14.5t-12 22t-4 26.5v68h-29q-14 0 -25.5 5t-19.5 14t-13 21.5t-5 26.5z" />
<glyph d="M-608 1366q0 48 12.5 83.5t33 59t46.5 34.5t54 11t53 -15t41 -37q18 22 42.5 37t55.5 15q18 0 36 -6t33.5 -16.5t27 -26t17.5 -35.5q9 12 17 29.5t13 38.5q4 14 13.5 25.5t22 18t26.5 8.5q14 4 29 0q16 -4 27.5 -13t17.5 -21t7 -26t-3 -28q-10 -34 -26.5 -66t-38 -58 t-47.5 -43.5t-54 -22.5h-56q-19 0 -32 12q-12 12 -14 32q-1 13 -3.5 24.5t-7.5 21.5t-12 15t-17 5q-12 0 -19 -8q-7 -10 -9 -24q-3 -19 -14.5 -29.5t-29.5 -10.5q-19 0 -30.5 11t-13.5 29q-2 13 -9 22.5t-22 9.5q-18 0 -27 -16t-10 -40q-1 -32 -19.5 -48t-46.5 -16 q-15 0 -26.5 5t-20 14t-13.5 21q-4 10 -4 24z" />
<glyph d="M-790 1028q0 18 6 35t17.5 29t27 19t34.5 7h573q18 0 34 -7t27 -19t17 -29t6 -35t-6 -35t-17 -29t-27 -19t-34 -7h-573q-18 0 -34 7t-27.5 19t-17.5 29t-6 35z" />
<glyph d="M-795 1028q0 18 6.5 35t17.5 29t27 19t34 7h434v40q0 22 8 40.5t23 31.5t35 20t43 7q22 0 42.5 -7t35.5 -20t23 -31.5t8 -40.5v-130q0 -18 -6 -35t-17 -29t-27 -19t-34 -7h-568q-18 0 -34 7t-27 19t-17.5 29t-6.5 35z" />
<glyph d="M-795 1028q0 18 6.5 35t17.5 29t27 19t34 7h356v6q0 32 12 61t34 50t52 33t64 12q38 0 68 -14t51 -37.5t32 -54t11 -62.5q0 -37 -14 -68.5t-37.5 -55t-55 -37t-66.5 -13.5h-507q-18 0 -34 7t-27 19t-17.5 29t-6.5 35zM-248 1114q0 -10 4.5 -20t12 -17t17.5 -11.5t22 -4.5 t21.5 4.5t17 11.5t12 17t4.5 20q0 12 -4.5 22t-12 17.5t-17.5 12.5q-9 4 -21 4t-22 -4.5t-17.5 -12t-12 -17.5t-4.5 -22z" />
<glyph d="M-795 1028q0 18 6.5 35t17.5 29t27 19t34 7h260v67q0 17 6 30.5t17 23t26 14t33 4.5q17 0 31.5 -4.5t25.5 -14t18 -23t7 -30.5v-67h65v67q0 17 6.5 30.5t17.5 23t26 14t31 4.5q17 0 32.5 -4.5t26.5 -14t17 -23t6 -30.5v-157q0 -18 -6 -35t-17 -29t-27 -19t-34 -7h-568 q-18 0 -34 7t-27 19t-17.5 29t-6.5 35z" />
<glyph d="M-627 1424v127q0 22 8.5 40.5t23 31t34 19t41.5 6.5t42 -6.5t34.5 -19t23 -30.5t8.5 -41v-127q0 -22 -8.5 -40t-23 -31t-34.5 -20t-42 -7t-41.5 7t-34 20t-23 31t-8.5 40z" />
<glyph d="M-748 1518q0 15 5 28.5t14 23.5t21 15.5t28 5.5h68v30q0 20 7 36.5t20 28t30 18t37 6.5t37 -6.5t29.5 -18t20 -28.5t7.5 -36v-30h68q15 0 27.5 -5.5t21.5 -15.5t14 -23.5t5 -28.5t-5 -28.5t-14 -23t-21.5 -15t-27.5 -5.5h-68v-30q0 -20 -7.5 -36.5t-20 -28t-30.5 -18.5 q-16 -7 -36 -7t-37 7t-30 18.5t-20 28t-7 36.5v30h-68q-15 0 -27.5 5.5t-21.5 15t-14 23.5t-5 28z" />
</font>
</defs>
</svg>
