<?xml version="1.0" standalone="no"?>
<!DOCTYPE svg PUBLIC "-//W3C//DTD SVG 1.1//EN" "http://www.w3.org/Graphics/SVG/1.1/DTD/svg11.dtd" >
<svg xmlns="http://www.w3.org/2000/svg" xmlns:xlink="http://www.w3.org/1999/xlink" version="1.1">
<metadata></metadata>
<defs>
<font id="db_helvethaicamon_x77_bdcond" horiz-adv-x="0" >
<font-face units-per-em="2048" ascent="1638" descent="-410" />
<missing-glyph horiz-adv-x="366" />
<glyph unicode="&#x2b;&#x2d;" horiz-adv-x="774" d="M52 71q0 14 5 27.5t14 22.5t22 15t29 6h529q16 0 29 -6t22.5 -15.5t14.5 -22.5q5 -14 5 -28t-5 -27t-14 -22.5t-22 -15t-30 -5.5h-529q-16 0 -29 5.5t-22 15t-14 22.5t-5 28zM52 481q0 14 5 27.5t14 22.5t22 15t29 6h191v163q0 16 5.5 29.5t15.5 23.5t24 16q12 5 28 5 t29.5 -5.5t23.5 -15.5t15.5 -23t5.5 -30v-163h191q16 0 29 -6t22.5 -15.5t14.5 -22.5q5 -14 5 -28t-5 -27t-14 -22.5t-22 -15t-30 -5.5h-191v-164q0 -16 -5.5 -30t-15.5 -23.5t-23.5 -15t-28.5 -5.5q-16 0 -29.5 5.5t-23.5 15t-15.5 23.5t-5.5 30v164h-191q-16 0 -29 5.5 t-22 15t-14 22.5t-5 28z" />
<glyph unicode="&#x2e;&#x2e;&#x2e;" horiz-adv-x="1466" d="M143 91q0 22 8 40.5t21.5 32.5t32 22t39.5 8q22 0 40 -8t32 -22t22 -33t8 -40t-8 -39.5t-22 -32t-32 -21.5t-40 -8q-21 0 -39.5 8t-32 21.5t-21.5 32t-8 39.5zM632 91q0 22 8 40.5t21.5 32.5t32 22t39.5 8q22 0 40.5 -8t32.5 -22t22 -33t8 -40t-8 -39.5t-22 -32 t-33 -21.5t-40 -8t-39.5 8t-32 21.5t-21.5 32t-8 39.5zM1120 91q0 22 8 40.5t21.5 32.5t32 22t39.5 8q22 0 40.5 -8t32.5 -22t22 -33t8 -40t-8 -39.5t-22 -32t-33 -21.5t-40 -8t-39.5 8t-32 21.5t-21.5 32t-8 39.5z" />
<glyph unicode="&#x3c;&#x3d;" horiz-adv-x="821" d="M72 71q0 14 5 27.5t14.5 22.5t22.5 15q14 6 30 6h533q16 0 29 -6t22.5 -15.5t14.5 -22.5q5 -14 5 -28t-5 -27t-14 -22.5t-22 -15t-30 -5.5h-533q-16 0 -29 5.5t-23 15t-15 22.5t-5 28zM72 570q0 26 13 47t34 31l531 260q12 6 25.5 7t26 -3t22.5 -12t17 -20 q6 -12 7.5 -25.5t-2.5 -26t-12 -22.5t-21 -17l-446 -219l446 -218q12 -6 20.5 -17t12.5 -23t3 -25.5t-8 -25.5q-6 -12 -16.5 -20.5t-23 -12.5t-26 -3t-25.5 7l-530 260q-22 10 -35 31t-13 47z" />
<glyph unicode="&#x3e;&#x3d;" horiz-adv-x="821" d="M73 70q0 14 5 27.5t14.5 23t22.5 15.5t29 6h534q16 0 29 -6t22 -15t14 -22t5 -28q0 -14 -5 -27.5t-14 -23t-22 -15t-29 -5.5h-534q-16 0 -29 5.5t-22.5 15t-14.5 22.5t-5 27zM73 286.5q-1 13.5 2.5 25.5t12.5 22q8 12 20 18l446 218l-446 219q-12 6 -20.5 16.5t-12 23 t-2.5 26t7 25.5t16.5 20t23 12t25.5 3t25 -7l532 -260q21 -11 34 -31.5t13 -46.5t-13 -46q-12 -22 -34 -32l-532 -260q-12 -6 -25 -7t-25.5 3t-23 12t-16.5 21q-6 12 -7 25.5z" />
<glyph unicode="&#xe4f;&#x22;" horiz-adv-x="1044" d="M62 452q0 64 16 123t46 110.5t72 93.5t93 72t110 46.5t123 16.5t123 -16.5t110 -46.5t93 -72t72 -93.5t46.5 -110.5t16.5 -123t-16.5 -123t-46.5 -110t-72 -93t-93 -72t-110 -46t-123 -16t-123 16t-110 46t-93 72t-72 93t-46 110t-16 123zM194 454q0 -45 12 -86.5 t33.5 -78t51 -66t66.5 -51.5t78.5 -33.5t86.5 -11.5t87 11.5t78.5 33.5t66.5 51.5t51 66t33 78.5t12 86q0 45 -12 87.5t-33 78.5t-51 66t-66.5 51.5t-78.5 33t-87 11.5t-86.5 -11.5t-78.5 -33t-66.5 -51.5t-51 -66t-33.5 -78.5t-12 -87.5zM291 454q0 48 18.5 90t49.5 74 t73 50t90 18t90 -18t73.5 -50t50 -74t18.5 -90t-18.5 -90t-50 -73t-73.5 -49.5t-90 -18.5t-90 18.5t-73 49.5t-49.5 73t-18.5 90zM332 1206q0 14 5 25t13 19.5t20 13t25 4.5t24.5 -4.5t20 -13t13.5 -19.5t5 -25l-5 -140q0 -27 -15.5 -44t-42.5 -17t-43 17t-16 44zM408 454 q0 -24 9 -44.5t24 -36t36 -24.5t45 -9t45 9t36.5 24.5t24.5 36t9 44.5t-9 45t-24.5 37t-36.5 25t-45 9t-45 -9t-36 -25t-24 -37t-9 -45zM563 1206q0 14 5 25t13.5 19.5t20.5 13.5q10 4 24 4q13 0 24.5 -4.5t20.5 -13t14 -19.5t5 -25l-6 -140q0 -27 -16 -44t-42 -17 q-27 0 -42.5 17t-15.5 44z" />
<glyph unicode="&#xe0e;&#xe3a;" horiz-adv-x="790" d="M6 74q0 16 5.5 29t15 23t22.5 16t29 6h10v431q0 18 -6 36.5t-20 32.5q-10 9 -14 16.5t-5 15.5t2 15t9 17q60 94 147 137.5t190 43.5q39 0 78 -6.5t74 -20.5t66 -34t53.5 -47.5t35 -61t12.5 -74.5v-849q0 -20 -7 -38t-20 -31t-31 -20t-38 -7q-23 0 -42.5 10t-34.5 26 q-23 24 -55 36q-32 13 -78 13q-21 0 -40.5 -6.5t-38.5 -17.5t-37 -24l-32 -26q-12 -10 -27 -12.5t-29 0.5t-27 12t-21 23q-8 13 -10 26.5t1 27t11 26t20 22.5q15 14 39.5 31t55 31.5t64 24t67.5 9.5q41 0 72.5 -7t55.5 -20v713q0 54 -37.5 86t-105.5 32q-50 0 -87.5 -15 t-59.5 -39q14 -16 22 -37.5t8 -52.5v-522q0 -16 -5.5 -29t-15 -23t-22.5 -16t-29 -6h-118q-16 0 -29 6t-22.5 16t-15 23t-5.5 29zM514 -461q0 22 8 41.5t21.5 34t32 23t38.5 8.5q22 0 42 -8.5t34 -23t22.5 -33.5t8.5 -42q0 -20 -8.5 -38.5t-22.5 -32t-34 -21.5t-42 -8 q-21 0 -39 8t-31.5 21.5t-21.5 32t-8 38.5z" />
<glyph unicode="&#xe0f;&#xe3a;" horiz-adv-x="790" d="M6 74q0 16 5.5 29t15 23t22.5 16t29 6h10v431q0 18 -6 36.5t-20 32.5q-10 9 -14 16.5t-5 15.5t2 15t9 17q60 94 147 137.5t190 43.5q39 0 78 -6.5t74 -20.5t66 -34t53.5 -47.5t35 -61t12.5 -74.5v-853q0 -19 -7 -36t-19.5 -29.5t-29 -19.5t-36.5 -7q-28 0 -50 14 q-20 14 -32 38q-8 16 -20 26.5t-28 10.5q-15 0 -26.5 -10.5t-16.5 -27.5q-4 -12 -11.5 -21.5t-17.5 -16.5t-22 -10.5t-24 -3.5q-14 0 -26 4.5t-22.5 11.5t-18 18t-9.5 23q-4 16 -14.5 26.5t-27.5 10.5q-14 0 -25 -10.5t-15 -28.5q-4 -16 -13 -28t-23 -18.5t-31 -8t-33 4.5 q-16 4 -28 15t-19 25t-9 31q0 17 4 33q9 34 26.5 58t41.5 39.5t52 23t58 7.5q38 0 72 -15.5t54 -43.5q23 28 46.5 40.5t54.5 12.5q20 0 35.5 -5t27.5 -13v706q0 54 -37.5 86t-105.5 32q-50 0 -87.5 -15t-59.5 -39q14 -16 22 -37.5t8 -52.5v-522q0 -16 -5.5 -29t-15 -23 t-22.5 -16t-29 -6h-118q-16 0 -29 6t-22.5 16t-15 23t-5.5 29zM514 -461q0 22 8 41.5t21.5 34t32 23t38.5 8.5q22 0 42 -8.5t34 -23t22.5 -33.5t8.5 -42q0 -20 -8.5 -38.5t-22.5 -32t-34 -21.5t-42 -8q-21 0 -39 8t-31.5 21.5t-21.5 32t-8 38.5z" />
<glyph unicode="&#xe0e;&#xe38;" horiz-adv-x="790" d="M6 74q0 16 5.5 29t15 23t22.5 16t29 6h10v431q0 18 -6 36.5t-20 32.5q-10 9 -14 16.5t-5 15.5t2 15t9 17q60 94 147 137.5t190 43.5q39 0 78 -6.5t74 -20.5t66 -34t53.5 -47.5t35 -61t12.5 -74.5v-849q0 -20 -7 -38t-20 -31t-31 -20t-38 -7q-23 0 -42.5 10t-34.5 26 q-23 24 -55 36q-32 13 -78 13q-21 0 -40.5 -6.5t-38.5 -17.5t-37 -24l-32 -26q-12 -10 -27 -12.5t-29 0.5t-27 12t-21 23q-8 13 -10 26.5t1 27t11 26t20 22.5q15 14 39.5 31t55 31.5t64 24t67.5 9.5q41 0 72.5 -7t55.5 -20v713q0 54 -37.5 86t-105.5 32q-50 0 -87.5 -15 t-59.5 -39q14 -16 22 -37.5t8 -52.5v-522q0 -16 -5.5 -29t-15 -23t-22.5 -16t-29 -6h-118q-16 0 -29 6t-22.5 16t-15 23t-5.5 29zM468 -432q0 14 5 26t14 21t21 14t27 5h107q15 0 27.5 -5t21 -14t13.5 -21q4 -12 4 -26v-190q0 -18 -6 -32.5t-17 -25t-25 -16.5t-31 -6 q-16 0 -30.5 6t-25.5 16t-17.5 25t-6.5 33v123h-14q-15 0 -27 5.5t-21 14.5t-14 21t-5 26z" />
<glyph unicode="&#xe0f;&#xe38;" horiz-adv-x="790" d="M6 74q0 16 5.5 29t15 23t22.5 16t29 6h10v431q0 18 -6 36.5t-20 32.5q-10 9 -14 16.5t-5 15.5t2 15t9 17q60 94 147 137.5t190 43.5q39 0 78 -6.5t74 -20.5t66 -34t53.5 -47.5t35 -61t12.5 -74.5v-853q0 -19 -7 -36t-19.5 -29.5t-29 -19.5t-36.5 -7q-28 0 -50 14 q-20 14 -32 38q-8 16 -20 26.5t-28 10.5q-15 0 -26.5 -10.5t-16.5 -27.5q-4 -12 -11.5 -21.5t-17.5 -16.5t-22 -10.5t-24 -3.5q-14 0 -26 4.5t-22.5 11.5t-18 18t-9.5 23q-4 16 -14.5 26.5t-27.5 10.5q-14 0 -25 -10.5t-15 -28.5q-4 -16 -13 -28t-23 -18.5t-31 -8t-33 4.5 q-16 4 -28 15t-19 25t-9 31q0 17 4 33q9 34 26.5 58t41.5 39.5t52 23t58 7.5q38 0 72 -15.5t54 -43.5q23 28 46.5 40.5t54.5 12.5q20 0 35.5 -5t27.5 -13v706q0 54 -37.5 86t-105.5 32q-50 0 -87.5 -15t-59.5 -39q14 -16 22 -37.5t8 -52.5v-522q0 -16 -5.5 -29t-15 -23 t-22.5 -16t-29 -6h-118q-16 0 -29 6t-22.5 16t-15 23t-5.5 29zM468 -432q0 14 5 26t14 21t21 14t27 5h107q15 0 27.5 -5t21 -14t13.5 -21q4 -12 4 -26v-190q0 -18 -6 -32.5t-17 -25t-25 -16.5t-31 -6q-16 0 -30.5 6t-25.5 16t-17.5 25t-6.5 33v123h-14q-15 0 -27 5.5 t-21 14.5t-14 21t-5 26z" />
<glyph unicode="&#xe0e;&#xe39;" horiz-adv-x="790" d="M6 74q0 16 5.5 29t15 23t22.5 16t29 6h10v431q0 18 -6 36.5t-20 32.5q-10 9 -14 16.5t-5 15.5t2 15t9 17q60 94 147 137.5t190 43.5q39 0 78 -6.5t74 -20.5t66 -34t53.5 -47.5t35 -61t12.5 -74.5v-849q0 -20 -7 -38t-20 -31t-31 -20t-38 -7q-23 0 -42.5 10t-34.5 26 q-23 24 -55 36q-32 13 -78 13q-21 0 -40.5 -6.5t-38.5 -17.5t-37 -24l-32 -26q-12 -10 -27 -12.5t-29 0.5t-27 12t-21 23q-8 13 -10 26.5t1 27t11 26t20 22.5q15 14 39.5 31t55 31.5t64 24t67.5 9.5q41 0 72.5 -7t55.5 -20v713q0 54 -37.5 86t-105.5 32q-50 0 -87.5 -15 t-59.5 -39q14 -16 22 -37.5t8 -52.5v-522q0 -16 -5.5 -29t-15 -23t-22.5 -16t-29 -6h-118q-16 0 -29 6t-22.5 16t-15 23t-5.5 29zM210 -432q0 14 5 26t14 21t21 14t27 5h107q15 0 27.5 -5t21 -14t13.5 -21q4 -12 4 -26v-84q0 -64 52 -64q51 0 51 64v83q0 17 6.5 31 t16.5 24.5t24.5 16t30.5 5.5t30.5 -5t24.5 -15.5t16 -25t6 -31.5v-83q-1 -40 -11.5 -76t-35 -63t-63.5 -43t-96 -16t-96.5 16t-63.5 43t-35 63t-12 76v17h-18q-15 0 -27 5.5t-21 14.5t-14 21t-5 26z" />
<glyph unicode="&#xe0f;&#xe39;" horiz-adv-x="790" d="M6 74q0 16 5.5 29t15 23t22.5 16t29 6h10v431q0 18 -6 36.5t-20 32.5q-10 9 -14 16.5t-5 15.5t2 15t9 17q60 94 147 137.5t190 43.5q39 0 78 -6.5t74 -20.5t66 -34t53.5 -47.5t35 -61t12.5 -74.5v-853q0 -19 -7 -36t-19.5 -29.5t-29 -19.5t-36.5 -7q-28 0 -50 14 q-20 14 -32 38q-8 16 -20 26.5t-28 10.5q-15 0 -26.5 -10.5t-16.5 -27.5q-4 -12 -11.5 -21.5t-17.5 -16.5t-22 -10.5t-24 -3.5q-14 0 -26 4.5t-22.5 11.5t-18 18t-9.5 23q-4 16 -14.5 26.5t-27.5 10.5q-14 0 -25 -10.5t-15 -28.5q-4 -16 -13 -28t-23 -18.5t-31 -8t-33 4.5 q-16 4 -28 15t-19 25t-9 31q0 17 4 33q9 34 26.5 58t41.5 39.5t52 23t58 7.5q38 0 72 -15.5t54 -43.5q23 28 46.5 40.5t54.5 12.5q20 0 35.5 -5t27.5 -13v706q0 54 -37.5 86t-105.5 32q-50 0 -87.5 -15t-59.5 -39q14 -16 22 -37.5t8 -52.5v-522q0 -16 -5.5 -29t-15 -23 t-22.5 -16t-29 -6h-118q-16 0 -29 6t-22.5 16t-15 23t-5.5 29zM210 -432q0 14 5 26t14 21t21 14t27 5h107q15 0 27.5 -5t21 -14t13.5 -21q4 -12 4 -26v-84q0 -64 52 -64q51 0 51 64v83q0 17 6.5 31t16.5 24.5t24.5 16t30.5 5.5t30.5 -5t24.5 -15.5t16 -25t6 -31.5v-83 q-1 -40 -11.5 -76t-35 -63t-63.5 -43t-96 -16t-96.5 16t-63.5 43t-35 63t-12 76v17h-18q-15 0 -27 5.5t-21 14.5t-14 21t-5 26z" />
<glyph unicode="&#xd;" horiz-adv-x="415" />
<glyph unicode=" "  horiz-adv-x="366" />
<glyph unicode="&#x09;" horiz-adv-x="366" />
<glyph unicode="&#xa0;" horiz-adv-x="366" />
<glyph unicode="!" horiz-adv-x="489" d="M144 96q0 21 8 39.5t21.5 32.5t32 22t39.5 8t39.5 -8t32 -22t21.5 -32.5t8 -39.5t-8 -39.5t-21.5 -32.5t-32 -21.5t-39.5 -7.5t-39.5 7.5t-32 21.5t-21.5 32.5t-8 39.5zM146 708v247q0 24 7.5 42.5t21 31t31.5 19t38 6.5t39 -7t32 -20t21 -31t8 -41v-247l-34 -414 q-2 -16 -12 -27t-24 -16t-30 -5.5t-30 5t-24 15.5q-10 12 -12 28z" />
<glyph unicode="&#x22;" horiz-adv-x="409" d="M52 770v222q0 27 16 44.5t43 17.5q26 0 42 -17.5t16 -44.5v-222q0 -27 -15.5 -44t-42.5 -17t-43 17t-16 44zM240 770v222q0 27 16 44.5t42 17.5t42 -17.5t16 -44.5v-222q0 -27 -16 -44t-42 -17q-27 0 -42.5 17t-15.5 44z" />
<glyph unicode="#" horiz-adv-x="860" d="M46 400q0 13 5 24.5t14 20t20.5 13.5t24.5 5h113l35 115h-72q-13 0 -24.5 5t-20.5 13t-14 20t-5 25t5 24.5t14 20t20.5 13.5t24.5 5h117l98 304q4 12 11.5 21t18.5 15t23 7t24 -3t21 -12t15 -18.5t7 -23t-3 -24.5l-86 -266h110l100 304q4 12 12 21t18.5 15t22.5 7t24 -3 t21.5 -12t15 -18.5t7 -23t-2.5 -24.5l-86 -266h78q13 0 24.5 -5t20 -13.5t13.5 -20t5 -24.5t-5 -25t-13.5 -20t-20.5 -13t-24 -5h-121l-35 -115h80q13 0 24.5 -5t20 -13.5t13.5 -20.5t5 -24q0 -13 -5 -25t-13.5 -20.5t-20.5 -13.5t-24 -5h-121l-100 -303q-4 -12 -12 -21.5 t-18.5 -15t-22.5 -7t-24 2.5t-21 12t-15 19t-7 23t3 24l84 266h-110l-98 -303q-4 -12 -12 -21.5t-18.5 -15t-22.5 -7t-24 2.5t-21.5 12t-15.5 18.5t-7 23t3 24.5l86 266h-72q-13 0 -24.5 5t-20.5 13.5t-14 20t-5 25.5zM358 463h107l35 115h-109z" />
<glyph unicode="$" horiz-adv-x="731" d="M30 270q-1 20 4.5 37.5t16.5 31.5t26 23t34 11q18 2 35 -4t30.5 -17.5t21.5 -27.5t10 -36q2 -28 10 -51t21 -40t32 -28t47 -16v311q-40 14 -76 27.5t-64 27.5q-40 20 -67 44.5t-43 53.5t-23 64t-7 77q0 63 21 115t58 90.5t88 62.5q51 22 113 28v62q0 22 14 36 q14 15 36 15t37 -14.5t15 -36.5v-64q52 -7 94.5 -25.5t75 -48.5t52.5 -72t28 -94q2 -19 -2.5 -37t-15 -32.5t-25 -24.5t-32.5 -12q-18 -3 -34.5 1.5t-30.5 15.5t-23 26t-11 35q-6 33 -24.5 57.5t-51.5 36.5v-278l36 -12q71 -26 118.5 -55t76.5 -64t42 -75t13 -86 q0 -71 -19 -128.5t-56 -99.5t-90 -67t-121 -31v-82q0 -22 -15 -37t-37 -15t-36 15t-14 37v82q-133 12 -206.5 84t-81.5 204zM214 752q0 -20 6.5 -37t17 -30.5t25.5 -23.5t32 -16l23 -8v250q-29 -4 -49 -16.5t-32 -31t-17.5 -41t-5.5 -46.5zM420 154q24 6 44 16t34.5 27 t23 38.5t8.5 49.5q0 34 -8 57t-23 38.5t-35 26.5t-44 20v-273z" />
<glyph unicode="%" horiz-adv-x="1159" d="M72 740q0 50 10 96t34.5 81.5t65.5 57t104 21.5q41 0 72.5 -11t54.5 -29t38 -43t24 -54.5t13 -61.5t4 -64q0 -74 -14 -125.5t-41 -83.5t-68 -45.5t-97 -9.5q-48 3 -85.5 17t-63 45.5t-38.5 82t-13 126.5zM219 717q0 -18 1.5 -39.5t8 -39.5t19 -30t34.5 -12t34 12t18.5 30 t8 39t1.5 40v28.5t-2 33t-6 32t-11 28.5t-19 20t-28 7q-15 0 -25 -7t-16.5 -20t-10 -28.5t-5 -32t-2 -32.5t-0.5 -29zM310 43q0 13 6 25l414 917q5 12 13.5 20t19 12.5t22 4.5t23.5 -5t20 -13.5t13 -19t4.5 -22.5t-5.5 -24l-410 -920q-6 -12 -14 -20.5t-19 -13t-23.5 -4.5 t-24.5 5t-21 14t-13.5 20t-4.5 24zM666 278q0 50 10 96.5t34.5 81.5t66 55.5t105.5 20.5q62 0 102 -22t63 -58t32 -83t9 -95q0 -76 -16.5 -127t-46 -83t-70.5 -45.5t-91 -12.5q-38 0 -74 14t-63.5 46t-44 84t-16.5 128zM813 252q0 -17 1.5 -37.5t8.5 -38t20 -29.5t35 -12 q21 0 33.5 12t18.5 29.5t8 38t2 37.5v30.5t-2 33t-6 32.5t-11 28t-18 20t-27 8t-26.5 -8t-17.5 -20t-11 -28t-5.5 -32.5t-2 -33t-0.5 -30.5z" />
<glyph unicode="&#x26;" horiz-adv-x="977" d="M88 299q0 58 15 102t43 78.5t66.5 62.5t84.5 54q-19 24 -35 47t-27 48t-17.5 52.5t-6.5 61.5q0 46 16 88t45.5 73.5t72.5 50.5t95 19q56 0 103 -15t81 -44t53 -71t19 -93q0 -42 -14 -77.5t-38 -66.5t-55 -57t-65 -49l156 -197q6 21 11 44.5t7 47.5q2 18 11 32t22 22.5 t29 12t32 1.5t30 -11t23 -22t13 -29t2 -32q-7 -60 -22.5 -114.5t-41.5 -100.5l76 -93q10 -14 14.5 -30t2.5 -32t-10 -31t-22 -25t-29.5 -15t-31.5 -2.5t-31 10t-26 21.5l-49 58q-51 -48 -115.5 -72t-140.5 -24q-78 0 -142 22t-109 63t-70 100t-25 132zM270 297 q0 -36 14 -65.5t37.5 -49.5t56 -31t70.5 -11q40 0 77 18.5t65 46.5l-205 270q-27 -19 -48 -37t-36 -38t-23 -45t-8 -58zM379 817q0 -18 5 -35.5t13 -34t18.5 -32t20.5 -31.5q18 13 33 26.5t26.5 28.5t18 33t6.5 41q0 14 -4.5 28.5t-13.5 26t-22.5 18.5t-31.5 7 q-16 0 -29 -6.5t-22 -17.5t-13.5 -24.5t-4.5 -27.5z" />
<glyph unicode="'" horiz-adv-x="366" d="M125 770v222q0 27 15.5 44.5t43.5 17.5q26 0 42 -17.5t16 -44.5v-222q0 -27 -16 -44t-42 -17q-27 0 -43 17t-16 44z" />
<glyph unicode="(" horiz-adv-x="489" d="M76 362q0 102 14.5 190t43 170t70.5 163t98 167q8 12 19 21t23.5 13t26 3t25.5 -8t21 -18t12 -24t2 -27t-7 -26q-34 -66 -62 -133t-49 -141t-33 -160t-12 -190t12 -189.5t33 -160t49 -140.5t62 -133q6 -13 7 -27t-2 -26.5t-12 -23.5t-21 -18t-25.5 -8t-26 3t-23.5 12.5 t-19 20.5q-56 87 -98 167.5t-70.5 163t-43 170t-14.5 189.5z" />
<glyph unicode=")" horiz-adv-x="489" d="M58.5 -288q1.5 14 7.5 27q34 66 62 132.5t49 141t32.5 160t11.5 189.5t-11.5 190t-32.5 160t-49 141t-62 133q-6 12 -7.5 26t2 27t11.5 24t22 18q12 6 25 7.5t26 -2.5t24 -12q11 -10 19 -22q56 -87 98 -167.5t70 -162.5t43 -170t15 -190t-15 -189.5t-43 -170t-70 -162.5 t-98 -168q-8 -12 -19 -20.5t-24 -12.5t-26 -3t-25 8q-13 7 -21.5 18t-12 23.5t-2 26.5z" />
<glyph unicode="*" horiz-adv-x="731" d="M111.5 885q-2.5 15 3 29.5t17.5 24.5t29 13.5t37 -2.5l111 -38v118q0 31 15.5 47.5t43.5 16.5t44 -17t16 -47v-118l102 37q22 8 40 4.5t30 -13.5t17 -25t3 -30t-13 -28t-31 -19q-29 -8 -58.5 -17t-57.5 -17l79 -104q14 -18 15 -35t-5.5 -31t-19.5 -23t-28 -12t-30.5 2 t-26.5 22q-18 28 -38 57q-20 28 -38 56q-19 -28 -37.5 -56t-37.5 -57q-10 -15 -25 -20t-30.5 -3t-28.5 11t-20 23t-6 31t15 35l80 104l-116 34q-24 7 -36 19.5t-14.5 27.5z" />
<glyph unicode="+" horiz-adv-x="815" d="M72 354q0 14 5 27t14.5 22.5t22.5 14.5q14 6 30 6h190v188q0 16 6 30t16 24t23 15t29 5t29 -5t23 -15t16 -24t6 -30v-188h190q16 0 29 -5.5t22.5 -15t14.5 -22.5t5 -28q0 -14 -5 -27.5t-14.5 -22.5t-22.5 -15t-29 -6h-190v-188q0 -16 -6 -30t-16 -24t-23 -15t-29 -5 t-29 5t-23 15t-16 24t-6 30v188h-190q-16 0 -29 6t-23 15.5t-15 22.5q-5 14 -5 28z" />
<glyph unicode="," horiz-adv-x="366" d="M76 88q0 22 8 41t21.5 34t31.5 23q19 8 39 8q30 0 51.5 -10t36 -29.5t22.5 -46.5t8 -60q0 -34 -5 -63t-14 -53t-21 -44t-26 -36q-10 -12 -23 -24t-27.5 -22.5t-30 -17t-29.5 -6.5q-20 0 -31 11t-11 27q0 14 8.5 23t21.5 18.5t28.5 20t29.5 26t25 37.5q11 23 15 55 q-8 -6 -18 -9t-22 -3q-21 0 -37.5 8t-27.5 22t-17 32t-6 38z" />
<glyph unicode="-" horiz-adv-x="585" d="M72 354q0 14 5 27t14 22.5t22 15t30 5.5h300q16 0 29 -5.5t22.5 -15t14.5 -22.5t5 -28q0 -14 -5 -27.5t-14 -22.5t-22 -15t-30 -6h-300q-16 0 -29 6t-22.5 15.5t-14.5 22.5q-5 14 -5 28z" />
<glyph unicode="." horiz-adv-x="366" d="M83 91q0 22 8 40.5t21.5 32.5t32 22t39.5 8q22 0 40 -8t32 -22t22 -33t8 -40t-8 -39.5t-22 -32t-32 -21.5t-40 -8q-21 0 -39.5 8t-32 21.5t-21.5 32t-8 39.5z" />
<glyph unicode="/" horiz-adv-x="465" d="M-5 -4q-1 14 3 29l333 1002q4 14 13.5 24.5t22 17t27 8t28.5 -3.5t24.5 -14.5t17 -22t7.5 -26.5t-4 -28l-333 -1002q-4 -14 -14 -25t-22 -17t-26 -8q-14 0 -28 4q-14 5 -25 14.5t-17 21.5t-7 26z" />
<glyph unicode="0" horiz-adv-x="694" d="M35 496q0 36 0.5 77t3.5 84t11 87t22.5 83.5t37 74t55.5 60t78 40t105 14.5t105 -14.5t78 -40t55 -60t36.5 -74t22 -83.5t11 -87t4.5 -85v-76q0 -42 -1.5 -87t-6 -89t-13.5 -86t-24 -79.5t-38 -69t-55 -54t-75 -35t-99 -12.5q-74 0 -126 22t-87 60t-55 88.5t-30 107.5 t-12.5 116.5t-2.5 117.5zM221 512q0 -40 0.5 -82t4 -82t11 -75t21.5 -62t36 -42t54 -15t53.5 15t35 42t21.5 62t11 75t3.5 82t0.5 82q0 36 -0.5 75t-4.5 76t-11.5 70.5t-21.5 59t-35.5 40.5t-51.5 15q-32 0 -54.5 -16t-37 -43.5t-21.5 -63t-10 -73t-3.5 -74t-0.5 -66.5z" />
<glyph unicode="1" horiz-adv-x="694" d="M58 746q-2 16 2.5 31t14 27t23.5 20t30 9q68 6 111 34q43 29 63 85q9 26 31.5 43t52.5 17q18 0 34 -7t28.5 -19.5t19.5 -29t7 -34.5v-838q0 -22 -7.5 -39t-20.5 -29.5t-30 -19t-37 -6.5t-37 6.5t-29.5 19t-20 29.5t-7.5 39v626q-34 -16 -69 -24t-73 -10q-16 -1 -31 4 t-26.5 14.5t-19 22.5t-9.5 29z" />
<glyph unicode="2" horiz-adv-x="694" d="M38 105q4 34 11 67.5t22 65.5t37 62t56 58l200 170q22 20 38.5 41.5t27.5 45t16.5 49.5t5.5 59q0 27 -6 49.5t-19.5 39t-35 25.5t-53.5 9q-28 0 -47.5 -10t-32 -27t-19.5 -39t-8 -48q-2 -20 -10.5 -36.5t-22.5 -28t-32 -17.5t-38 -4t-36 10.5t-28 22.5t-18 32 q-6 17 -4 37q2 58 24.5 109t61.5 89t93.5 60t120.5 22q74 0 130 -22t94 -61t56.5 -94t18.5 -122q0 -56 -11.5 -101.5t-34 -84.5t-55 -74t-73.5 -70l-187 -153q-10 -8 -18 -16t-14 -16t-11 -17t-7 -19h348q18 0 33 -6.5t26 -18t18 -26.5t7 -33t-7 -33t-18 -26.5t-27 -18.5 q-14 -6 -32 -6h-446q-20 0 -38.5 8.5t-31.5 23t-20 33.5q-6 19 -4 40z" />
<glyph unicode="3" horiz-adv-x="694" d="M29 241q-2 19 3.5 36.5t15.5 32t26 24.5q16 9 34 12q18 2 36.5 -2t33 -14t24.5 -26t10 -36q1 -50 32.5 -79t93.5 -29q33 0 57 9t39.5 25.5t23.5 39.5q7 22 7 50q0 42 -7.5 72t-25 50t-45 31t-67.5 14q-16 1 -30 7t-24 16t-16 24q-6 12 -6 28t6 30t16 24t24 15.5t30 6.5 q23 1 44 8t37 22t25.5 39.5t9.5 61.5q0 24 -5 45t-17.5 36t-32.5 23.5t-49 8.5q-26 0 -45 -7t-32 -19t-20 -29t-7 -37q-1 -18 -10.5 -33.5t-23.5 -26t-32 -14.5t-36 -2q-18 3 -33 12t-25 23t-15 31.5t-5 35.5q3 50 24 94t57.5 76t87.5 50t117 18t120 -19t91.5 -54.5 t58.5 -85.5q20 -49 20 -111q0 -32 -4.5 -61.5t-14.5 -56t-25.5 -49.5t-37.5 -41q28 -18 49 -41t34.5 -52t20 -61t6.5 -66q0 -74 -18 -135.5t-57 -106t-100 -68.5t-147 -24q-73 0 -127.5 19t-91.5 52.5t-57 80.5t-25 103z" />
<glyph unicode="4" horiz-adv-x="694" d="M18 336q0 16 4 30t12 26l364 576q13 20 34.5 32t47.5 12q20 0 38 -7.5t31 -20.5t21 -31q8 -17 8 -39v-514h14q18 0 34 -7t27 -18.5t17.5 -27t6.5 -33.5t-6 -33t-17.5 -26.5t-27 -18t-34.5 -6.5h-14v-146q0 -22 -7.5 -39t-20 -29.5t-29.5 -19t-37 -6.5t-37 6.5t-29 19 t-19 29.5t-7 39v146h-268q-25 0 -45 8t-33.5 22.5t-20.5 34t-7 41.5zM230 398h162v188l4 86l-29 -60z" />
<glyph unicode="5" horiz-adv-x="694" d="M42 198q-3 19 0.5 37.5t12.5 33.5t24 26.5t33 16.5q18 4 37 2t34.5 -11t26.5 -24q10 -15 14 -36q7 -44 33.5 -65.5t76.5 -21.5q34 0 59 16t41 42t23.5 60t7.5 70q0 33 -5.5 66.5t-21 60.5t-42 44t-66.5 17q-34 0 -63 -13t-53 -45q-14 -19 -35 -29.5t-46 -7.5 q-18 2 -33.5 10t-25.5 20.5t-15 28.5t-3 34l54 472h430q18 0 33 -7t26.5 -18.5t18 -27t6.5 -33.5t-6.5 -33t-18 -26.5t-27.5 -18.5q-14 -6 -32 -6h-270l-16 -117q-2 -8 -4 -16.5t-4 -16.5t-4 -18q24 14 53 23t59 9q79 0 135.5 -28t92.5 -75t53 -107q17 -62 17 -126 q0 -45 -7.5 -90.5t-23 -86.5t-40.5 -77.5t-60 -63t-81 -41.5t-104 -15q-62 0 -112 14t-88 41.5t-62 67t-32 89.5z" />
<glyph unicode="6" horiz-adv-x="694" d="M35 456q0 61 1.5 126.5t10.5 127.5t29 117t56 97t92 66t138 24q45 0 85.5 -10.5t72.5 -31t56 -51t38 -69.5q7 -20 6.5 -38t-7.5 -34t-20 -28t-31 -20q-18 -7 -36 -7.5t-34 5.5t-29 19.5t-19 33.5q-6 18 -16 30.5t-23 20.5t-28 11t-31 3q-24 0 -42 -11t-32 -30t-24 -44.5 t-16 -54t-9 -57.5t-4 -57q32 34 70.5 52t78.5 18q76 0 132 -26t93 -70t55 -101.5t18 -120.5q0 -82 -23.5 -149t-64 -114t-96.5 -72t-122 -25q-76 0 -129 20t-89 55.5t-57.5 82t-32.5 99t-14 107.5q-3 54 -3 106zM228 348q-2 -54 7 -90.5t26.5 -59t42.5 -32.5q24 -10 54 -10 q24 0 42 8t31 22t22 33t14 39.5t7.5 41.5t2.5 40q0 32 -6.5 61.5t-21 53t-39 37.5t-60.5 14q-37 0 -60.5 -15t-37.5 -38t-19 -51t-5 -54z" />
<glyph unicode="7" horiz-adv-x="694" d="M23 918q0 18 6.5 33t18.5 26t27 18t33 7h472q21 0 38.5 -7.5t29.5 -20t19 -29.5t7 -37q0 -16 -5 -30t-15 -26q-66 -84 -119 -176t-93 -190t-67 -202t-39 -212q-2 -20 -13 -36.5t-26.5 -27t-35 -15.5t-39.5 -1q-21 3 -37.5 13.5t-27.5 25.5t-15 34t0 39q36 201 112 388 q74 186 188 342h-334q-18 0 -33 6t-27 17.5t-18.5 27t-6.5 33.5z" />
<glyph unicode="8" horiz-adv-x="694" d="M39 305q0 46 9.5 81.5t25.5 64t38 49.5q22 20 48 36q-26 16 -43 38t-28 49t-15 58t-4 65q0 32 6 64.5t21 62.5t37.5 56t55 45.5t74.5 30.5t96 11q60 0 110 -17.5t85 -52t54 -86.5q19 -50 19 -118q0 -28 -5.5 -56t-16 -54t-26.5 -49t-38 -41q30 -18 52.5 -42t36 -52.5 t20.5 -61t7 -66.5q0 -68 -17 -130t-53 -108t-94 -73t-140 -27q-78 0 -137 21.5t-98.5 63t-59.5 102t-20 136.5zM228 309q0 -32 6 -60.5t20.5 -50.5t39.5 -35q24 -13 62 -13q51 0 81 41t30 118q0 28 -6.5 55.5t-20.5 48.5t-36.5 33.5t-55.5 12.5t-56 -13t-37.5 -34.5 t-20.5 -48t-6 -54.5zM258 738q0 -27 6 -51.5t18 -42t30 -28t42 -10.5t40.5 11t27 29.5t14.5 41.5t4 47q0 22 -4 43.5t-15 37.5t-27 26q-18 10 -42 10q-26 0 -44 -9t-29 -24t-16 -36t-5 -45z" />
<glyph unicode="9" horiz-adv-x="694" d="M35 654q0 82 23.5 148.5t64 113.5t96 72.5t121.5 25.5q76 0 129.5 -20.5t89.5 -56t57.5 -82t32.5 -99t14 -107.5t3 -106q0 -61 -2 -126t-11 -127t-28.5 -117t-56 -97t-92.5 -66t-138 -24q-45 0 -85 10t-72.5 31t-56.5 51t-38 69q-7 20 -6.5 38.5t8 34t20 28t30.5 20.5 q18 7 36 7.5t34.5 -6t29 -20t19.5 -33.5q6 -18 16 -30.5t23 -20t27.5 -10.5t30.5 -3q24 0 42.5 11t32 30t23.5 44t16.5 53.5t9.5 57.5q4 30 4 58q-32 -34 -71 -52t-79 -18q-76 0 -132 26t-93 70t-54.5 101t-17.5 121zM224 660q0 -32 6 -62t21 -53t39 -37t60 -14t60 14.5 t38 38t20 51.5q5 28 5 54q2 54 -7 90t-26.5 59t-43 33t-54.5 10q-24 0 -42 -8.5t-31 -22.5t-22 -32.5t-14 -39.5t-7 -41.5t-2 -39.5z" />
<glyph unicode=":" horiz-adv-x="366" d="M83 91q0 22 8 40.5t21.5 32.5t32 22t39.5 8q22 0 40 -8t32 -22t22 -33t8 -40t-8 -39.5t-22 -32t-32 -21.5t-40 -8q-21 0 -39.5 8t-32 21.5t-21.5 32t-8 39.5zM83 682q0 22 8 40t21.5 32t32 22t39.5 8q22 0 40 -8t32 -22t22 -32t8 -40q0 -21 -8 -39.5t-22 -32t-32 -21.5 t-40 -8q-21 0 -39.5 8t-32 21.5t-21.5 32t-8 39.5z" />
<glyph unicode=";" horiz-adv-x="366" d="M76 88q0 22 8 41t21.5 34t31.5 23q19 8 39 8q30 0 51.5 -10t36 -29.5t22.5 -46.5t8 -60q0 -34 -5 -63t-14 -53t-21 -44t-26 -36q-10 -12 -23 -24t-27.5 -22.5t-30 -17t-29.5 -6.5q-20 0 -31 11t-11 27q0 14 8.5 23t21.5 18.5t28.5 20t29.5 26t25 37.5q11 23 15 55 q-8 -6 -18 -9t-22 -3q-21 0 -37.5 8t-27.5 22t-17 32t-6 38zM83 682q0 22 8 40t21.5 32t32 22t39.5 8q22 0 40 -8t32 -22t22 -32t8 -40q0 -21 -8 -39.5t-22 -32t-32 -21.5t-40 -8q-21 0 -39.5 8t-32 21.5t-21.5 32t-8 39.5z" />
<glyph unicode="&#x3c;" horiz-adv-x="823" d="M72 388q0 26 13 46.5t34 31.5l531 280q12 6 25.5 7t26 -3t22.5 -12t17 -21q6 -12 7.5 -25.5t-2.5 -25.5t-12 -22q-8 -12 -21 -18l-446 -238l446 -234q12 -6 20.5 -17t12.5 -23t3 -25t-8 -25q-6 -12 -16.5 -21t-23 -12.5t-26 -2.5t-25.5 7l-530 275q-22 10 -35 31t-13 47z " />
<glyph unicode="=" horiz-adv-x="772" d="M72 222q0 14 5 27t14 23t22 15t30 5h487q16 0 29 -5t23 -15t15 -23t5 -27t-5 -27.5t-14.5 -23t-22.5 -15.5q-14 -5 -30 -5h-487q-16 0 -29 5.5t-22.5 15.5t-14.5 23t-5 27zM72 486q0 14 5 27.5t14 23t22 15t30 5.5h487q16 0 29 -5.5t23 -15.5t15 -23t5 -27t-5 -27 t-14.5 -23t-22.5 -15q-14 -5 -30 -5h-487q-16 0 -29 5t-22.5 15t-14.5 23t-5 27z" />
<glyph unicode="&#x3e;" horiz-adv-x="823" d="M75 691.5q1 13.5 8 25.5q6 12 16.5 20.5t23 12.5t26 3t25.5 -7l531 -280q21 -11 34 -31.5t13 -46.5t-13 -47t-35 -31l-530 -275q-12 -6 -25.5 -7t-26 2.5t-22.5 11.5q-10 10 -17 22q-6 12 -7.5 25t2.5 25t12 23t21 17l446 234l-446 238q-12 6 -20.5 17t-12.5 23t-3 25.5z " />
<glyph unicode="?" horiz-adv-x="731" d="M70 800q8 54 30 100t60 80t92 53t125 19q73 0 133 -19t103 -56t66 -88t23 -115q0 -52 -12 -92t-32.5 -74t-48 -64.5t-58.5 -64.5q-22 -24 -39 -40.5t-29 -32t-19 -33t-9 -43.5q-2 -22 -11 -39t-23.5 -28t-33 -16t-38.5 -3t-36.5 11.5t-27.5 24t-17 32.5t-5 38q2 34 9 58 t21.5 46t36.5 46t53 57q22 22 43.5 45.5t39 49.5t28 54t10.5 60q0 24 -6 47t-19 42t-33 30.5t-50 11.5q-35 0 -60 -9.5t-41.5 -26.5t-25.5 -40t-11 -51q-2 -20 -12 -35t-25 -26t-34 -15.5t-39 -1.5t-35 13.5t-26 24.5t-15 32q-5 18 -2 38zM256 96q0 21 8 39.5t21.5 32.5 t32 22t39.5 8t39.5 -8t32 -22t21.5 -32.5t8 -39.5t-8 -39.5t-21.5 -32.5t-32 -21.5t-39.5 -7.5t-39.5 7.5t-32 21.5t-21.5 32.5t-8 39.5z" />
<glyph unicode="@" horiz-adv-x="1206" d="M102 518q0 75 18.5 144t51.5 128.5t79.5 107.5t104 82.5t123 53t137.5 18.5q64 0 125 -14t114 -41t97 -66t75 -89.5t49 -111t18 -130.5q0 -75 -27 -138t-73.5 -111t-107.5 -79q-62 -30 -132 -42q-20 -2 -38 -1t-34 6t-28 15q-12 8 -19 24q-16 -14 -32 -23t-32.5 -14 t-33.5 -6t-35 -1q-44 0 -78 16.5t-58 45.5t-36 67.5t-12 82.5t8.5 88t25.5 84t42.5 75t58.5 60t74 39.5t89 14.5q37 0 70.5 -12.5t59.5 -42.5l2 7q4 12 11 21.5t17 14.5t22 7t24 -2t21 -11t15 -17.5t7 -22t-2 -23.5l-101 -316q-3 -9 -7 -19.5t-4.5 -19t4.5 -14t19 -5.5 q30 0 56 11t47 30.5t37.5 45t27.5 53.5t16.5 57.5t5.5 56.5q0 76 -27 134t-74 98t-111 61t-136 21q-53 0 -102 -15t-92 -42t-78 -63.5t-60 -81t-38.5 -94.5t-13.5 -102q0 -53 13 -103t38 -93.5t60 -79.5t77.5 -62t92 -40.5t103.5 -14.5q41 0 85.5 7.5t87.5 24.5t80 43t65 63 q8 11 20 17t24.5 7t25 -3t23.5 -12q10 -9 16 -20.5t7.5 -24.5t-2.5 -25q-4 -14 -12 -24q-39 -48 -88 -83t-103.5 -58.5t-112.5 -35t-116 -11.5q-74 0 -140.5 18t-123.5 52t-103.5 81t-78.5 106t-50 127t-18 144zM447.5 428q1.5 -22 9 -40t22.5 -29t39 -11q28 0 50 14t40 36 t30 50q14 28 22 56q5 14 10.5 33t8.5 39t3 40t-6 36t-19.5 26t-36.5 12q-31 2 -55.5 -9t-44.5 -31t-34 -47t-23 -56q-4 -13 -8.5 -33t-6.5 -42t-0.5 -44z" />
<glyph unicode="A" horiz-adv-x="793" d="M6.5 75q-2.5 19 3.5 38l264 871q10 34 36 47t62 13h46q16 0 33 -2t31 -10t25 -22t19 -37l257 -860q6 -19 3.5 -38t-11.5 -35t-24 -28t-33 -18q-19 -6 -38.5 -4t-35.5 11t-28 24t-18 33l-70 220h-268l-64 -220q-6 -19 -18 -33.5t-29 -23.5t-36 -11t-37 4q-19 6 -34 18 t-24 28t-11.5 35zM310 448h174l-88 334z" />
<glyph unicode="B" horiz-adv-x="813" d="M86 99v847q0 20 8 38t21 31t31 21t39 8h249h15q70 0 123 -17q58 -19 95 -55.5t55 -87t18 -112.5q0 -36 -4 -67t-15 -57.5t-29 -49t-47 -39.5q30 -17 53 -42t38 -55t22 -66q8 -34 8 -72v-7q0 -161 -88 -242q-82 -76 -239 -76q-15 0 -31 1h-223q-20 0 -38.5 8t-31.5 21 t-21 31t-8 39zM274 162h162q76 0 109 37t33 115q0 36 -8 61t-22 42t-33 26t-41 13.5t-46 5.5t-49 1h-105v-301zM274 622h86q46 0 82 5t60 19t37 41q12 25 12 65v6q0 36 -8.5 60t-30.5 38t-59 20q-27 4 -66 5q-14 0 -29 -1h-84v-258z" />
<glyph unicode="C" horiz-adv-x="815" d="M51 534q0 44 2.5 90.5t9.5 92t19 89.5t31.5 82.5t47.5 71t66.5 55.5t88 36.5t112.5 13.5q70 0 127 -21.5t100 -59.5t69 -89t33 -109q2 -20 -2.5 -38.5t-14.5 -33t-26 -24.5q-14 -10 -34 -14t-39 0t-34 15t-25 26.5t-12 35.5q-3 30 -13.5 56.5t-29.5 45.5t-46 30.5 t-63 11.5q-43 0 -73 -18.5t-49.5 -48.5t-31 -68.5t-17 -78.5t-6.5 -78.5t-1 -68.5q0 -35 0.5 -76.5t5.5 -84t15.5 -82.5t30.5 -71t51 -49.5t75 -18.5q42 0 71 16t48 45t27 67q10 38 10 80q0 20 9 36t24.5 27t35 15t40.5 -1q20 -4 34.5 -14.5t24.5 -25t15 -32.5t4 -38 q-4 -70 -26.5 -132.5t-63.5 -109.5t-102 -75t-141 -28q-68 0 -121 13t-92 37.5t-66.5 58t-46 73.5t-28.5 85t-15 92.5t-6.5 96t-1.5 94.5z" />
<glyph unicode="D" horiz-adv-x="893" d="M86 99v847q0 20 8 38t21 31t31 21t39 8h239q91 0 156.5 -20t110.5 -56t72 -85t41 -106.5t19 -122t5 -130.5q0 -64 -6.5 -127.5t-23 -122t-44 -108.5t-70 -87t-102.5 -58t-140 -21h-257q-20 0 -38.5 8t-31.5 21t-21 31t-8 39zM274 162h162q56 0 95 22t63 68t34.5 118 t10.5 172q0 36 -1.5 75t-7.5 76t-19 70t-35 59t-56 42q-35 14 -84 16h-162v-718z" />
<glyph unicode="E" horiz-adv-x="737" d="M86 99v847q0 20 8 38t21 31t31 21t39 8h441q18 0 34 -6t26.5 -17t16 -26t5.5 -33q0 -17 -5.5 -31.5t-16 -25.5t-26.5 -18t-34 -7h-352v-258h328q18 0 33.5 -6t26 -17t16.5 -26t6 -32t-6 -32t-16.5 -26t-26 -17.5t-33.5 -6.5h-328v-295h356q18 0 33 -6.5t26 -17.5t17 -26 t6 -32t-6 -32t-17 -26t-26 -17.5t-33 -6.5h-445q-20 0 -38.5 8t-31.5 21t-21 31t-8 39z" />
<glyph unicode="F" horiz-adv-x="674" d="M86 84v862q0 20 8 38t21 31t31 21t39 8h405q18 0 34 -6t26.5 -17t16 -26t5.5 -33q0 -17 -5.5 -31.5t-16 -25.5t-26.5 -18t-34 -7h-316v-258h290q18 0 33.5 -6t26 -17t16.5 -26t6 -32t-6 -32t-16.5 -26t-26 -17.5t-33.5 -6.5h-290v-375q0 -22 -7 -39t-20 -29.5t-30 -19 t-37 -6.5t-37 6.5t-30 19t-20 29.5t-7 39z" />
<glyph unicode="G" horiz-adv-x="899" d="M51 528q0 61 5.5 124.5t20.5 122.5t42 111t71 91t106 61.5t146 22.5q71 0 131.5 -19.5t105.5 -55t73.5 -85t37.5 -109.5q3 -20 -1.5 -38t-14.5 -33t-26 -25t-35 -13q-20 -4 -38 0.5t-33 14.5t-25.5 26t-12.5 36q-4 30 -16.5 54t-32 41.5t-46.5 27t-61 10.5h-6 q-46 0 -78 -15q-34 -16 -57.5 -44t-37 -65t-20 -78.5t-8 -84t-1.5 -82.5q0 -34 0.5 -74t5 -81t15 -79t30 -68t49.5 -49q32 -19 76 -19h16q32 0 58 6q31 8 53.5 25t36.5 41t23 53t13 61t4 64h-98q-18 0 -34 6t-26.5 17t-16 26t-5.5 33q0 17 5.5 31.5t16 25.5t25.5 18t35 7 h205q17 0 32 -7t26 -18t17.5 -26t6.5 -31v-415q0 -16 -6.5 -31t-17.5 -26t-26 -17.5t-31 -6.5t-31 6t-26 16.5t-17.5 25t-6.5 30.5q-40 -42 -94.5 -63t-120.5 -21q-88 0 -150.5 23t-105 64t-67.5 94.5t-38 114t-16.5 124.5t-3.5 124z" />
<glyph unicode="H" horiz-adv-x="901" d="M86 84v876q0 21 7 38.5t20 30t30 19t37 6.5t37 -6.5t30 -19t20 -29.5t7 -39v-323h352v323q0 22 8 39t20.5 29.5t30 19t36.5 6.5q20 0 36.5 -6.5t29.5 -19t20.5 -29.5t7.5 -39v-876q0 -21 -7.5 -38.5t-20.5 -30t-30 -19t-36 -6.5q-20 0 -37 6.5t-29.5 19t-20.5 29.5t-8 39 v387h-352v-387q0 -22 -7 -39t-20 -29.5t-30 -19t-37 -6.5t-37 6.5t-30 19t-20 29.5t-7 39z" />
<glyph unicode="I" horiz-adv-x="407" d="M110 84v876q0 22 7 39t20 29.5t30 19t37 6.5t37 -6.5t29.5 -19t20 -29.5t7.5 -39v-876q0 -21 -7.5 -38.5t-20 -30t-29.5 -19t-37 -6.5t-37 6.5t-30 19t-20 29.5t-7 39z" />
<glyph unicode="J" horiz-adv-x="653" d="M4 282q0 22 7.5 39t20 30t30.5 19q16 7 36 7t37 -6.5t30 -19.5t20 -30t7 -39q0 -26 2 -50.5t11 -43.5t27 -30.5t50 -11.5q33 0 52.5 11.5t29.5 30.5t12.5 43.5t2.5 50.5v678q0 22 7.5 39t20.5 29.5t30 19t37 6.5t36.5 -6.5t29 -19t20.5 -29.5t8 -39v-688 q0 -87 -21 -143.5t-59 -89.5t-91 -46t-117 -13q-75 0 -127.5 19.5t-85.5 58t-48 94.5t-15 130z" />
<glyph unicode="K" horiz-adv-x="796" d="M86 84v876q0 21 7 38.5t20 30t30 19t37 6.5t37 -6.5t30 -19t20 -29.5t7 -39v-342l330 404q12 14 28 22.5t33 10t34 -3.5t31 -16q14 -12 23 -27.5t10.5 -33t-3.5 -34.5q-4 -18 -16 -32l-258 -312l280 -466q10 -16 12 -34t-2 -35t-15 -32t-27 -25t-34.5 -12.5t-35.5 1.5 t-31.5 14.5t-24.5 26.5l-254 412l-80 -90v-272q0 -22 -7 -39t-20 -29.5t-30 -19t-37 -6.5t-37 6.5t-30 19t-20 29.5t-7 39z" />
<glyph unicode="L" horiz-adv-x="727" d="M86 99v861q0 21 7 38.5t20 30t30 19t37 6.5t37 -6.5t30 -19t20 -29.5t7 -39v-796h362q17 0 32 -6.5t26 -17.5t17.5 -26t6.5 -32t-6.5 -32t-17.5 -26t-26 -17.5t-32 -6.5h-451q-20 0 -38.5 8t-31.5 21t-21 31t-8 39z" />
<glyph unicode="M" horiz-adv-x="1157" d="M86 84v850q0 34 11 55.5t29 34t40 16.5t46 4h49q28 0 48.5 -5t36.5 -17t27 -31t19 -48l184 -638h4l188 638q8 28 19.5 47.5t27 31.5t36.5 17t48 5h45q24 0 47 -4t40.5 -16.5t28.5 -34t11 -55.5l-1 -850q0 -22 -7 -39t-20 -29.5t-30 -19t-37 -6.5t-37 6.5t-30 19t-20 29.5 t-7 39v654l-205 -671q-12 -40 -37.5 -58.5t-61.5 -18.5t-61 17.5t-37 59.5l-206 689v-672q0 -22 -7 -39t-20 -29.5t-30 -19t-37 -6.5t-37 6.5t-30 19t-20 29.5t-7 39z" />
<glyph unicode="N" horiz-adv-x="905" d="M88 84v848q0 35 8 57.5t25 36t43 19t60 5.5q17 0 33.5 -3.5t30.5 -11t26 -18.5t19 -28l295 -661v632q0 21 7.5 38.5t20 30t30.5 19.5q16 6 36 6t37 -6.5t30 -19t20.5 -29.5t7.5 -39v-850q0 -33 -7.5 -56t-22.5 -37t-39.5 -20.5t-58.5 -6.5q-26 0 -44.5 3t-32.5 10t-24 18 t-18 29l-294 650v-616q0 -22 -7 -39t-20 -29.5t-30 -19t-37 -6.5t-37 6.5t-30 19t-20 29.5t-7 39z" />
<glyph unicode="O" horiz-adv-x="899" d="M62 542q0 60 4.5 122t19 120t40.5 109.5t69.5 89.5t106.5 60q62 22 150 22q86 0 147.5 -22t104 -60t68.5 -89.5t40 -109.5t19 -120t5 -122q0 -72 -5.5 -142t-20 -133t-40.5 -116t-69 -92t-105 -61t-148 -22t-148 22t-104.5 61t-69 92t-40.5 116t-19 133t-5 142zM250 540 q0 -98 7 -172.5t29 -125t61 -75.5t101 -25q63 0 102.5 25t60.5 75.5t28.5 125t7.5 172.5q0 76 -8 141t-30.5 114t-62.5 77q-40 27 -100 27q-58 0 -96 -27.5t-61 -76.5t-32 -114q-8 -58 -7 -125v-16z" />
<glyph unicode="P" horiz-adv-x="811" d="M86 84v862q0 20 8 38t21 31t31 21t39 8h255q72 0 135 -16t109 -52t73 -94t27 -142q0 -69 -13 -120t-38.5 -86.5t-62 -58t-82.5 -35.5t-101 -18.5t-117 -5.5h-96v-332q0 -22 -7 -39t-20 -29.5t-30 -19t-37 -6.5t-37 6.5t-30 19t-20 29.5t-7 39zM274 578h90q53 0 96.5 5 t74.5 22t47 48t16 85q0 46 -18 75t-49 44t-72 20q-29 4 -62 4q-13 0 -27 -1h-96v-302z" />
<glyph unicode="Q" horiz-adv-x="895" d="M62 542q0 60 4.5 122t19 120t40.5 109.5t69.5 89.5t106.5 60q62 22 150 22q86 0 147.5 -22t104 -60t68.5 -89.5t40 -109.5t19 -120t5 -122q-1 -54 -4 -107t-10 -103t-19.5 -96t-32.5 -86l68 -54q12 -10 19 -23t8 -27t-3 -28t-13 -26q-10 -12 -22.5 -18.5t-27 -8 t-28.5 2.5t-26 14l-71 55q-42 -30 -97 -45.5t-129 -15.5q-86 0 -148 22t-104.5 61t-69 92t-40.5 116t-19 133t-5 142zM250 540q0 -98 7.5 -172.5t29 -125t60.5 -75.5t101 -25q42 0 76 12l-46 36q-12 10 -19 23t-9 27t2 28t14 26t23 19t27 8t28 -3t26 -14l48 -38 q17 50 23 118t6 156q0 76 -8 141t-30.5 114t-62.5 77q-40 27 -100 27q-58 0 -96 -27.5t-61 -76.5t-31 -114q-8 -58 -8 -125v-16z" />
<glyph unicode="R" horiz-adv-x="881" d="M86 84v822q0 39 8 65.5t23 42.5t36 23t47 7h323q58 0 102 -12t76.5 -33t54.5 -49t35 -60t19 -66t6 -68q0 -42 -10 -80.5t-29 -70t-46 -54t-62 -32.5q37 -6 61 -30t37 -59q13 -34 18 -78q4 -36 4 -75v-15.5v-14.5q0 -29 3 -50q4 -27 10 -47t10.5 -36t4.5 -32 q0 -24 -7.5 -41t-21 -28.5t-31 -17t-36.5 -5.5q-26 0 -44.5 8.5t-31 22t-19.5 30t-10.5 33.5t-3.5 32q-1 16 -1 26q0 70 -6.5 123t-22.5 90t-43 56t-67 19h-198v-346q0 -22 -7 -39t-20 -29.5t-30 -19t-37 -6.5t-37 6.5t-30 19t-20 29.5t-7 39zM276 594h204q28 0 54 4t47 17 t33.5 39t12.5 69q0 42 -10 71t-28.5 47.5t-44.5 27t-58 8.5h-210v-283z" />
<glyph unicode="S" horiz-adv-x="815" d="M48 274q-1 20 5 37.5t17.5 32t28.5 23.5t36 11q20 2 38 -4t32.5 -18t23.5 -28t11 -36q4 -35 14 -61.5t31 -44t52 -26t77 -8.5q36 0 66.5 8t53.5 25t36.5 43t13.5 61q0 36 -10 59.5t-27 39.5t-41 27t-52 21q-34 12 -67.5 23t-65.5 22t-61 22t-53 21q-43 20 -72 44.5 t-46 54t-24 64.5t-7 77q0 68 25 124t70 95t107 60.5t136 21.5q70 0 128 -15.5t101.5 -46.5t71 -77t37.5 -108q3 -19 -2.5 -36.5t-16.5 -32.5t-27 -25q-14 -9 -34 -12q-19 -3 -37.5 1.5t-32.5 15.5t-24 27t-13 34q-4 24 -15.5 44t-30.5 34t-47 21.5t-65 7.5 q-40 0 -67.5 -11.5t-44.5 -30.5t-24 -44t-7 -53q0 -20 7 -37t18 -30.5t27 -23t34 -15.5l172 -58q76 -26 127 -55.5t82.5 -64.5t45 -75.5t13.5 -86.5q0 -78 -24 -139t-70 -104t-112 -65t-152 -22q-170 0 -263.5 73t-102.5 219z" />
<glyph unicode="T" horiz-adv-x="731" d="M10 962q0 17 5.5 32.5t16 26.5t26.5 17t34 6h548q18 0 33.5 -6t26 -17t16.5 -26t6 -33q0 -17 -6 -31.5t-16.5 -25.5t-26 -18t-33.5 -7h-178v-796q0 -21 -7.5 -38.5t-20 -30t-29.5 -19t-37 -6.5t-37 6.5t-30 19t-20 29.5t-7 39v796h-182q-19 0 -34.5 7t-26 18t-16 26 t-5.5 31z" />
<glyph unicode="U" horiz-adv-x="897" d="M86 278v682q0 21 7 38.5t20 30t30 19t37 6.5t37 -6.5t30 -19t20 -29.5t7 -39v-661q0 -16 2 -33.5t9 -34.5t18.5 -32t31 -26.5t47.5 -18t66 -6.5q40 0 68 6.5t47.5 18t31 26.5t17.5 32t8 34.5t2 33.5v661q0 22 8 39t20.5 29.5t30 19t36.5 6.5q20 0 36.5 -6.5t29.5 -19 t20.5 -29.5t7.5 -39v-682q0 -74 -26.5 -129t-74.5 -92t-114 -55q-68 -18 -148 -18t-147 18t-114.5 55t-74 92t-26.5 129z" />
<glyph unicode="V" horiz-adv-x="779" d="M9 973.5q3 18.5 12 34.5t24 27.5t35 16.5q19 5 37 3.5t33.5 -9.5t27.5 -24t18 -38l191 -708l193 707q6 22 18 37.5t28 24.5t34.5 10t37.5 -3q20 -5 35 -17.5t25 -28.5t12.5 -35t-3.5 -38l-255 -852q-8 -26 -20 -43.5t-27.5 -28t-35 -15t-41.5 -4.5t-41 5t-34 16t-27 28 t-20 42l-254 855q-6 19 -3 37.5z" />
<glyph unicode="W" horiz-adv-x="1202" d="M9.5 972q3.5 20 14 36t26.5 28t36 16t40 2t36 -12t28 -26t16 -38l136 -616l140 602q6 24 17 41.5t27 28t35 15.5t41 5t41.5 -4t35.5 -14.5t27.5 -28t17.5 -43.5l130 -610l146 625q5 22 16.5 38t27.5 25.5t35 11.5t39 -2t36 -15.5t26 -28t13 -35.5t-1 -39l-220 -854 q-6 -24 -18 -41t-28 -28t-35 -16t-41 -5t-42 4t-36 15t-28 28q-10 17 -16 43l-128 584l-140 -584q-6 -26 -18 -43t-28 -27.5t-35.5 -15t-41.5 -4.5t-41.5 5t-35.5 16t-27 28t-17 41l-205 852q-5 20 -1.5 40z" />
<glyph unicode="X" horiz-adv-x="744" d="M12 94q2 18 12 34l244 408l-234 377q-10 16 -13 34.5t2 36.5t16 33t27 25t35 12.5t36 -1.5t33 -15q16 -12 26 -30l179 -308l173 304q10 18 26 29.5t33 15.5t36 1.5t35 -12.5t27 -25t16 -33t3 -36q-4 -18 -14 -35l-228 -369l237 -406q10 -17 12 -36t-2.5 -36.5 t-16.5 -33.5q-12 -14 -29 -24q-18 -10 -36.5 -13t-36.5 2t-33 16.5t-25 29.5l-181 331l-185 -333q-10 -18 -24.5 -29t-31.5 -15.5t-36 -2.5q-18 2 -34 12t-28 24.5t-17 32t-3 35.5z" />
<glyph unicode="Y" horiz-adv-x="744" d="M11 959.5q-1 18.5 5 35t18 30t30 21.5q17 8 35.5 9t34.5 -5t30 -18t22 -30l186 -410l186 410q8 18 22 30t30.5 18t34.5 5q17 -1 35 -9t30 -21.5t18 -30t6 -34.5q-2 -18 -10 -36l-258 -520v-320q0 -21 -7 -38.5t-20 -30t-30 -19t-37 -6.5t-37 6.5t-29.5 19t-20 29.5 t-7.5 39v320l-258 520q-8 17 -9 35.5z" />
<glyph unicode="Z" horiz-adv-x="794" d="M29 92q1 26 15 48l480 738h-399q-19 0 -34 7t-26 18t-16.5 26t-5.5 33q0 17 5.5 32t16.5 26.5t26 17.5t34 6h543q20 0 35.5 -7t27 -19t18.5 -29t7 -37q0 -28 -15 -50l-481 -738h422q18 0 33 -6.5t26 -17.5t17 -26t6 -32t-6 -32t-17 -26t-26 -17.5t-33 -6.5h-565 q-20 0 -35.5 7t-27.5 19.5t-18.5 29t-6.5 36.5z" />
<glyph unicode="[" horiz-adv-x="489" d="M112 -250v1252q0 16 6 29.5t16 23.5t24 16t30 6h186q16 0 29.5 -6t23.5 -16t16 -23.5t6 -29.5t-6 -29t-16 -23.5t-23.5 -16t-29.5 -5.5h-79v-1104h79q16 0 29.5 -6t23.5 -16t16 -24q6 -12 6 -28t-6 -30t-16 -24t-23.5 -16t-29.5 -6h-186q-16 0 -30 6t-24 16t-16 24t-6 30 z" />
<glyph unicode="\" horiz-adv-x="465" d="M-5 1010q1 14 7 26.5t16 21.5q12 10 26 15q14 4 28 3t26 -7.5t22 -17t14 -24.5l333 -1002q4 -14 3.5 -28.5t-7 -26.5t-17 -22t-24.5 -14t-28.5 -3t-27 7t-21.5 16q-9 12 -14 26l-333 1002q-4 14 -3 28z" />
<glyph unicode="]" horiz-adv-x="489" d="M40 -250q0 16 6 29t16 23t24 16t30 6h78v1104h-78q-16 0 -30 5.5t-24 16t-16 23.5t-6 29t6 29.5t16 23.5t24 16t30 6h186q16 0 29.5 -6t23.5 -16t16 -23.5t6 -29.5v-1252q0 -16 -6 -30t-16 -24t-23.5 -16t-29.5 -6h-186q-16 0 -30 6t-24 16t-16 24t-6 30z" />
<glyph unicode="^" horiz-adv-x="731" d="M90 490q0 12 4 24l203 520q8 21 26.5 34t42.5 13t42 -13q20 -12 28 -34l204 -520q4 -12 3.5 -24t-5 -23t-13.5 -20t-21 -14q-12 -4 -25 -3.5t-24 5t-20 13.5t-13 21l-156 393l-155 -393q-4 -12 -13 -21t-20.5 -13.5t-23.5 -5.5t-24 4q-12 4 -21 13.5t-14 20.5t-5 23z" />
<glyph unicode="_" horiz-adv-x="731" d="M0 -144q0 12 5 23t13 19t18 13q12 5 24 5h612q12 0 23 -5t19 -13t12 -18q5 -12 5 -24t-4.5 -23t-12.5 -19t-19 -12.5t-23 -4.5h-612q-12 0 -23 4.5t-19 12.5t-13 19t-5 23z" />
<glyph unicode="`" horiz-adv-x="489" d="M110 1034q-2 16 4 32t23 32q18 16 35.5 19t35 -3t34.5 -20q16 -14 31 -34l85 -112q18 -24 22 -46t-1.5 -38.5t-19.5 -27t-32.5 -12t-40.5 8t-44 33.5l-99 108q-13 14 -22 29t-11 31z" />
<glyph unicode="a" horiz-adv-x="649" d="M26 201q0 66 18 110.5t49 72.5t73 42t88 22q52 8 80 14.5t41.5 16t16 24.5t2.5 38q0 46 -16 69.5t-57 23.5q-30 0 -49 -9t-31.5 -22.5t-21.5 -29.5t-20 -29.5t-26 -22.5t-41 -9q-16 0 -29 6.5t-23 18t-16 25.5q-6 16 -6 32q0 32 17.5 66t51 62t83 46.5t112.5 18.5 q58 0 105.5 -12.5t81 -39.5t51.5 -69q17 -40 17 -98v-375q0 -22 3.5 -37.5t9 -26t12 -18t12.5 -14t10 -14t5 -19.5q2 -20 -4 -35t-16.5 -25t-24.5 -16t-29 -6q-31 -1 -55 7.5t-40.5 24.5t-25.5 40t-10 53q-24 -34 -47 -58t-48 -38.5t-54 -21.5t-65 -7q-34 0 -67.5 15.5 t-59 44t-41.5 68.5t-16 91zM189 212q0 -18 6.5 -34.5t18.5 -28.5t28.5 -19t37.5 -7q30 0 51 13t35 34.5t21 49.5t7 58v84q-7 -8 -15.5 -14t-20.5 -11t-27.5 -10t-36.5 -11q-25 -7 -44.5 -14.5t-33 -19.5t-20.5 -29t-7 -41z" />
<glyph unicode="b" horiz-adv-x="729" d="M92 70v892q0 22 7 39t20 29t29.5 18t35.5 6t36 -6t29.5 -18t19.5 -29t7 -39v-252q26 39 63 60.5t77 21.5q50 0 88 -13.5t67 -38.5t49 -59.5t32.5 -77t18 -91t5.5 -100.5t-3.5 -104.5t-13 -100t-27.5 -87.5t-46 -69.5t-68.5 -46t-95.5 -16.5q-50 0 -89 24t-65 66v-8 q0 -20 -7 -35.5t-19 -27t-28 -17.5t-34 -6t-34 6t-28 17.5t-19 27t-7 35.5zM270 372q0 -23 1 -48.5t5 -51.5t11 -49.5t19.5 -41.5t31 -28.5t43.5 -10.5q56 0 81.5 66t25.5 196q0 21 -1.5 46.5t-6 52.5t-11.5 52t-19 44.5t-29.5 31.5t-41.5 12q-28 0 -46.5 -13.5t-30.5 -35.5 t-18.5 -50t-9.5 -58t-3.5 -60t-0.5 -54z" />
<glyph unicode="c" horiz-adv-x="649" d="M47 377q0 48 3.5 96.5t14.5 94.5t31.5 85.5t53 69t79.5 46.5t111 17q51 0 93.5 -16t74.5 -43t53 -64t31 -79q4 -18 1 -35t-11 -31t-21 -25t-31 -16q-17 -4 -33.5 -2t-31 10t-25 21.5t-16.5 30.5q-6 21 -13.5 40t-18 33t-24.5 22.5t-34 8.5q-24 0 -41 -12.5t-28.5 -34 t-18 -50t-9.5 -60t-3 -64.5v-64q0 -42 4 -81t15 -70.5t31 -50.5t52 -19q24 0 40 10.5t27 27.5t17 40t10 49q2 18 13 31.5t25 22t32 11.5t35 -1q18 -4 31.5 -14t22 -24.5t12 -31.5t-0.5 -35q-8 -48 -26 -90.5t-49 -75t-74.5 -51t-100.5 -18.5q-65 0 -112.5 15t-81.5 41.5 t-55 63t-33 80.5t-16.5 92t-4.5 99z" />
<glyph unicode="d" horiz-adv-x="729" d="M53 412q0 52 5.5 100.5t17.5 91t32 77t49 59.5t68 38.5t89 13.5q40 0 76 -21t62 -61v252q0 22 7.5 39t20 29t29.5 18t36 6t36 -6t29 -18t19.5 -29t7.5 -39v-892q0 -20 -6.5 -35.5t-18.5 -27t-28 -17.5t-35 -6q-18 0 -34.5 6t-28.5 17.5t-19 27t-7 35.5v8q-26 -42 -65 -66 t-88 -24q-55 0 -95.5 16.5t-69 46t-45.5 69.5t-27 87.5t-13.5 99t-3.5 105.5zM242 404q0 -129 25 -195.5t81 -66.5q26 0 44 10.5t30 28.5t19.5 41.5t11 49.5t4.5 51.5t1 48.5v54t-3 60t-9 58t-18.5 50t-31 35.5t-46.5 13.5q-24 0 -41 -12t-29.5 -31.5t-20 -44.5t-11.5 -52 t-5 -53t-1 -46z" />
<glyph unicode="e" horiz-adv-x="649" d="M47 383q0 46 3.5 93.5t14.5 92.5t30.5 84t50.5 68t75 46q45 17 105 17q54 0 94 -13.5t69 -38t49 -56.5t32 -70t18 -79.5t8 -83.5q1 -20 -6.5 -36.5t-20.5 -29.5t-30 -20t-37 -7h-268v-45t3 -48t9 -46t17 -39t27 -27t40 -10t39 8.5t25 21.5t15 30t7 33q2 19 13 33.5 t26 22.5t33 10q16 3 34 -1t32 -14.5t23 -24.5t12 -31t-1 -35q-8 -38 -26 -74t-49 -65t-77 -46t-108 -17t-113.5 19t-89 65t-58 122t-20.5 191zM236 479h178q0 28 -3 57t-12.5 52.5t-26.5 39.5q-16 15 -44 15q-26 0 -44 -16t-28 -40.5t-15 -53.5t-5 -54z" />
<glyph unicode="f" horiz-adv-x="407" d="M6 699q0 16 6 29.5t16 23.5t24 16q12 6 28 6h18v50q0 119 54 174q50 50 150 50q11 0 23 -1q16 -1 29.5 -6.5t24.5 -15t18 -22.5t7 -29t-4 -29.5t-14 -24.5t-24 -18q-14 -6 -30 -6q-28 0 -37 -13t-9 -41v-68h39q16 0 29.5 -6t23.5 -16t16 -24t6 -29q0 -16 -6 -29.5 t-16 -23.5t-24 -16t-29 -6h-39v-542q0 -22 -7 -39t-20 -29t-29.5 -18t-35.5 -6t-35.5 6t-29.5 18t-20 29t-7 39v542h-22q-16 0 -29 6t-23 16t-16 24t-6 29z" />
<glyph unicode="g" horiz-adv-x="731" d="M53 391q0 41 4 86t15 89t29.5 83.5t48.5 69.5t72 47q42 18 98 18q44 0 79.5 -20t60.5 -56q2 18 10 32t20 24.5t27 16t32 5.5q18 0 34.5 -7t29 -19t19.5 -29t7 -37v-634q0 -73 -15 -137t-49 -111.5t-89.5 -75t-135.5 -27.5q-36 0 -72 7.5t-67 21.5t-57 37t-42 53 q-8 16 -9.5 32.5t3 32t14.5 29.5t26 22t33.5 9.5t33 -3t28.5 -15t21 -26.5q14 -30 36.5 -43.5t49.5 -13.5q26 0 44.5 9t30.5 24t18.5 34t9.5 40t4 41.5t1 38.5q-14 -14 -28 -24.5t-29.5 -17.5t-33 -10t-37.5 -3q-60 0 -110.5 20t-87 67t-57 125t-20.5 195zM238 385 q0 -58 5 -104.5t17 -79.5t31 -50.5t49 -17.5q28 0 48 12.5t33.5 34.5t21 49.5t11.5 57.5t4.5 60.5t0.5 56.5q0 47 -5.5 89.5t-18.5 74.5t-34.5 51.5t-54.5 19.5q-25 0 -42.5 -12.5t-29.5 -33.5t-19.5 -48t-11 -55t-4.5 -55.5t-1 -49.5z" />
<glyph unicode="h" horiz-adv-x="735" d="M92 82v880q0 22 7 39t20 29t29.5 18t35.5 6t36 -6t29.5 -18t19.5 -29t7 -39v-276q31 46 74.5 73t93.5 27q98 0 150.5 -56t52.5 -165v-483q0 -22 -7.5 -39t-19.5 -29t-29 -18t-36 -6t-36 6t-29 18t-19.5 29t-7.5 39v452q0 23 -5 42.5t-15.5 34t-25.5 22.5t-36 8 q-22 0 -40.5 -6.5t-32.5 -20.5t-23 -35t-9 -51v-446q0 -22 -7 -39t-20 -29t-29.5 -18t-35.5 -6t-35.5 6t-29.5 18t-20 29t-7 39z" />
<glyph unicode="i" horiz-adv-x="368" d="M87 950q0 20 7.5 38t20.5 31t31 20.5t38 7.5t37.5 -7.5t30.5 -20.5t20.5 -31t7.5 -38t-7.5 -37.5t-20.5 -31t-30.5 -20.5t-37.5 -7t-38 7t-31 20.5t-20.5 31t-7.5 37.5zM92 82v610q0 22 7 39t20 29t29.5 18t35.5 6t35.5 -6t29.5 -18t20 -30q7 -16 7 -38v-610 q0 -22 -7 -39t-20 -29t-29.5 -18t-35.5 -6t-35.5 6t-29.5 18t-20 29t-7 39z" />
<glyph unicode="j" horiz-adv-x="368" d="M1 -216q-2 16 1.5 31t12.5 27t22 20t29 10q10 2 15.5 10.5t8 21t2.5 25.5v22v741q0 22 7.5 39t20 29t29.5 18t35 6q19 0 36 -6t29.5 -18t19.5 -30q7 -16 7 -38v-731q0 -62 -10 -106.5t-32.5 -74t-58 -45t-87.5 -17.5q-16 -1 -30.5 3t-26.5 12.5t-20 21.5t-10 29zM88 950 q0 20 7 38t20.5 31t31 20.5t37.5 7.5t38 -7.5t31 -20.5t20.5 -31t7.5 -38t-7.5 -37.5t-20.5 -31t-31 -20.5t-38 -7t-37.5 7t-31 20.5t-20.5 31t-7 37.5z" />
<glyph unicode="k" horiz-adv-x="649" d="M92 82v880q0 22 7 39t20 29t29.5 18t35.5 6t36 -6t29.5 -18t19.5 -29t7 -39v-450l203 244q10 12 24 19t29 8t29.5 -3t26.5 -14t19 -24.5t8 -29.5t-3 -29.5t-15 -26.5l-161 -191l191 -353q8 -15 9.5 -31t-3 -31.5t-14.5 -28.5t-25 -21t-31.5 -10t-31.5 3t-28 15t-22 24 l-165 294l-40 -48v-196q0 -22 -7 -39t-20 -29t-29.5 -18t-35.5 -6t-35.5 6t-29.5 18t-20 29t-7 39z" />
<glyph unicode="l" horiz-adv-x="368" d="M92 82v880q0 22 7 39t20 29t29.5 18t35.5 6t35.5 -6t29.5 -18t20 -29t7 -39v-880q0 -22 -7 -39t-20 -29t-29.5 -18t-35.5 -6t-35.5 6t-29.5 18t-20 29t-7 39z" />
<glyph unicode="m" horiz-adv-x="1163" d="M90 82v615q0 18 7 33.5t19 27.5t27.5 19t33.5 7t33.5 -6.5t27.5 -18t19 -27.5t7 -34q17 22 37 38t41.5 27t43.5 16t44 5q66 0 114 -27t82 -75q21 23 44 42t49.5 32.5t56.5 20.5t64 7q53 0 96 -13t73.5 -41.5t47 -74t16.5 -108.5v-465q0 -22 -6.5 -39t-18.5 -29t-28.5 -18 t-35.5 -6t-35.5 6t-28.5 18t-18.5 29t-6.5 39v465q0 22 -4.5 38.5t-15.5 28.5t-28.5 18.5t-43.5 6.5q-62 0 -96 -34.5t-34 -104.5v-418q0 -22 -6.5 -39t-18.5 -29t-28.5 -18t-35.5 -6t-35.5 6t-28.5 18t-19 29t-7 39v465q0 20 -4.5 37.5t-15 29.5t-27.5 18.5t-41 6.5 q-32 0 -57 -11t-43 -31.5t-28 -48.5t-10 -62v-404q0 -22 -6.5 -39t-18.5 -29t-28.5 -18t-34.5 -6q-19 0 -35.5 6t-28.5 18t-19 29t-7 39z" />
<glyph unicode="n" horiz-adv-x="737" d="M92 82v612q0 21 7 37.5t19 28.5t28.5 18t35.5 6q18 0 35 -6t29 -18t19 -29t7 -37v-8q16 23 35 41.5t41 31.5t46 20t50 7q98 0 150.5 -56t52.5 -165v-482q0 -22 -7 -39t-19.5 -29t-29 -18.5t-35.5 -6.5t-35.5 6.5t-29 18.5t-19.5 29t-7 39v451q0 23 -5.5 42.5t-16 34 t-26 22.5t-36.5 8q-22 0 -41.5 -6.5t-34 -20.5t-23.5 -35q-10 -21 -10 -51v-446q0 -22 -7 -39t-19 -29t-28 -18t-36 -6q-19 0 -35.5 6t-28.5 18t-19 29t-7 39z" />
<glyph unicode="o" horiz-adv-x="731" d="M58 385q0 94 18 168.5t55 126.5t95 79t140 27q80 0 138 -27.5t96 -80t55.5 -126.5t17.5 -167q0 -108 -22 -183.5t-62.5 -123.5t-97.5 -70t-125 -22t-124.5 21.5t-97 69.5t-63.5 124t-23 184zM245 385q0 -59 7.5 -105.5t22.5 -78.5t37.5 -49t53.5 -17q30 0 53 16.5 t38 48.5t22 78.5t7 106.5q0 62 -6.5 110t-21.5 80.5t-38.5 49t-55.5 16.5q-62 0 -90.5 -65t-28.5 -191z" />
<glyph unicode="p" horiz-adv-x="729" d="M92 -188v892q0 20 7 36t19 27t28 17t34 6t34 -6t28 -17t19 -27t7 -36v-8q26 42 65 66.5t89 24.5q55 0 95.5 -16.5t68.5 -46.5t46 -70t27.5 -87t13 -99t3.5 -105q0 -52 -5.5 -100.5t-18 -91t-32.5 -77.5t-49 -59.5t-67 -38.5t-88 -14q-40 0 -76 22q-38 21 -64 60v-252 q0 -22 -7 -39t-19.5 -29t-29.5 -18t-36 -6t-35.5 6t-29.5 18t-20 29t-7 39zM270 402q0 -24 0.5 -53.5t3.5 -59.5t9.5 -58.5t18.5 -50.5t31 -35t46 -13q24 0 41.5 12t29.5 31t19 44.5t11.5 52t6 52.5t1.5 47q0 129 -25 195.5t-82 66.5q-26 0 -44 -10.5t-30.5 -28.5t-19.5 -42 t-11 -49.5t-5 -51.5t-1 -49z" />
<glyph unicode="q" horiz-adv-x="729" d="M52 363q0 52 4 104.5t13.5 99.5t27 87t45.5 70t68 46q40 17 96 17q50 0 89 -24.5t65 -66.5v8q0 20 7 36t19 27t28 17t34 6t34.5 -6t28.5 -17t18.5 -27t6.5 -36v-892q0 -22 -7 -39t-19.5 -29t-29 -18t-36.5 -6q-19 0 -35.5 6t-29.5 18t-20 30q-7 16 -7 38v252 q-26 -39 -62.5 -60.5t-76.5 -21.5q-50 0 -88.5 14t-67.5 39t-49 59.5t-32 77t-18 90.5t-6 101zM241 371q0 -21 1.5 -47t5.5 -52.5t11 -52t19.5 -44.5t30 -31t41.5 -12q28 0 46 13t30.5 35t19 50.5t9.5 58.5t3 59.5v53.5q0 23 -1 49t-5 51.5t-11 49.5t-19 42t-30 28 q-18 11 -44 11q-56 0 -81.5 -66.5t-25.5 -195.5z" />
<glyph unicode="r" horiz-adv-x="485" d="M84 82v610q0 22 7 39t19 29t29 18t36 6q18 0 34.5 -6t28.5 -17t20 -27q7 -18 8 -38q14 18 29 33.5t32 26.5t37 17t44 6q34 0 59 -19.5t29 -56.5q2 -17 -4 -32t-16 -27t-24.5 -19.5t-31.5 -8.5q-38 -2 -66.5 -15.5t-47.5 -36t-28 -52.5q-10 -30 -10 -64v-366q0 -22 -7 -39 t-20 -29t-29.5 -18t-35.5 -6t-35.5 6t-29.5 18t-20 29t-7 39z" />
<glyph unicode="s" horiz-adv-x="649" d="M40 176q-4 18 0 36t12.5 32t23 24.5t32.5 14.5t35.5 1.5t32 -11.5t24.5 -24t14 -33q8 -38 33 -59.5t67 -21.5q48 0 74 22.5t26 65.5q0 22 -9 37t-25 26.5t-36 19.5q-21 10 -45 18q-28 10 -57.5 21t-57 25.5t-52 32t-42.5 41.5t-28.5 53.5t-10.5 67.5q0 52 18 93.5 t51 69.5t79 43t102 15q52 0 95 -10t76.5 -31t55.5 -53t33 -75q4 -18 1 -35.5t-12 -32t-23.5 -25t-32.5 -14.5t-36 -1t-32.5 12t-25 23t-13.5 33q-6 34 -24.5 49t-50.5 15q-16 0 -30.5 -4.5t-25 -13.5t-16.5 -23q-6 -12 -6 -30q0 -20 7.5 -34t21 -25t31.5 -19t38 -15 q28 -10 58.5 -20.5t60 -24.5t55.5 -32t46 -41.5t32 -53t12 -67.5q0 -58 -19 -105t-55 -80t-88 -50t-120 -17q-57 0 -103.5 10.5t-80.5 33.5t-57 59t-33 87z" />
<glyph unicode="t" horiz-adv-x="401" d="M4 700q0 16 5 29t15 23t23 16t31 6h22v128q0 22 7.5 39t20 29t29.5 18.5t35 6.5q19 0 36 -6.5t29.5 -18.5t19.5 -29t7 -39v-128h40q17 0 30.5 -6t23.5 -16t15 -23t5 -29t-5 -29t-14.5 -23t-23 -16t-31.5 -6h-40v-446q0 -10 1.5 -15.5t6.5 -9t14.5 -4.5t26.5 -1t30 -6 t22 -16t14 -24t5 -30t-5.5 -29t-15 -23t-23.5 -16t-32 -6h-80q-31 0 -57.5 5t-46.5 20t-32 45t-12 80v476h-22q-18 0 -31.5 6t-23 16t-14.5 23t-5 29z" />
<glyph unicode="u" horiz-adv-x="737" d="M91 210v482q0 22 7 39t19.5 29t29 18t35.5 6t35.5 -6t29 -18t19.5 -30q7 -16 7 -38v-452q0 -23 5.5 -42.5t16 -33.5t26 -22t36.5 -8q22 0 41.5 6.5t34 20t23 35t10.5 50.5v446q0 22 7 39t19 29t28 18t36 6q19 0 35.5 -6t28.5 -18t19 -29t7 -39v-612v1q0 -21 -7 -38 t-19 -28.5t-29 -18t-35 -6.5q-19 0 -35.5 6.5t-28.5 18t-19 28.5t-7 38v7q-16 -23 -35 -41.5t-41 -31.5t-46 -20t-50 -7q-98 0 -150.5 56t-52.5 166z" />
<glyph unicode="v" horiz-adv-x="593" d="M11.5 711q2.5 17 11.5 31t23 25t31 15q18 4 34.5 2t30.5 -9.5t25 -22t15 -34.5l106 -442l8 -48l8 48l106 442q5 21 15.5 35t24.5 21.5t31 9.5t35 -2t31.5 -15t22.5 -25t11.5 -31t-2.5 -35l-179 -608q-13 -44 -40 -61q-26 -17 -64 -17q-37 0 -65 18t-40 60l-177 608 q-5 18 -2.5 35z" />
<glyph unicode="w" horiz-adv-x="939" d="M11.5 710q2.5 17 11.5 31.5t23 24.5q14 12 31 16q18 4 35 1.5t31.5 -11t25.5 -22.5t15 -32l101 -434l97 436q4 18 12 30t19.5 19.5t25.5 10.5q13 4 29 4t30 -3t25.5 -11t20 -20t12.5 -30l100 -436l100 434q4 18 14.5 32t25 22.5t32.5 11.5q16 2 34 -2t32 -15t22.5 -25.5 t11 -32t-1.5 -34.5l-166 -609q-12 -41 -37 -57t-61 -16q-35 0 -61 16.5t-36 56.5l-97 397l-91 -401q-4 -20 -13.5 -34t-22.5 -22.5t-29 -12t-33 -3.5q-35 0 -61 17t-36 55l-168 613q-5 18 -2.5 35z" />
<glyph unicode="x" horiz-adv-x="588" d="M8 84q2 16 12 31l178 278l-174 267q-8 14 -10 30.5t1.5 32t13 28.5t23.5 21t30 11t31 -1t28.5 -13t22.5 -25l130 -220l132 220q9 15 22 24.5t28 13.5t31 2q17 -4 31 -12q14 -9 23.5 -22t13 -28.5t1.5 -31.5t-11 -30l-175 -269l178 -276q9 -14 11.5 -30.5t-1 -31.5 t-13 -28.5t-23.5 -22.5q-14 -8 -30.5 -11t-32 1t-28.5 14t-23 24l-134 220l-134 -220q-9 -15 -22.5 -24.5t-28.5 -13.5t-31 -1t-31 11q-14 9 -23.5 22.5t-13.5 28.5t-2 31z" />
<glyph unicode="y" horiz-adv-x="625" d="M-6 -185q3 16 11.5 28t20.5 20.5t26 11.5t30 1q10 -2 18 -3.5t14 -1.5q24 0 39 6.5t25 16.5t16 24q6 15 12 31l25 65l-217 656q-6 17 -4.5 34.5t9 32.5t20.5 26t30 17t34.5 4t32.5 -9.5t26.5 -20.5t15.5 -30l130 -446l138 446q5 17 16.5 30t26 20.5t32 9.5t34.5 -4 t30 -17t20.5 -26t9 -32t-4.5 -35l-203 -617q-15 -48 -31 -91q-6 -18 -14 -37t-14.5 -36t-13 -31.5t-11.5 -23.5q-22 -38 -50.5 -62t-62.5 -36t-73 -13h-11q-34 0 -70 5q-16 2 -28.5 10.5t-21 20t-11.5 26.5t-1 30z" />
<glyph unicode="z" horiz-adv-x="620" d="M20 75q0 12 3 23.5t10 21.5l346 511h-269q-17 0 -30 5.5t-22.5 15.5t-14 23t-4.5 27q0 15 5 28.5t14.5 23t22.5 15t29 5.5h410q18 0 32.5 -6t24.5 -17t15.5 -25t5.5 -30q0 -28 -14 -48l-344 -502h288q16 0 30 -6t23 -16t14 -23t5 -29q0 -15 -5 -28t-14 -22.5t-22 -15.5 t-31 -6h-432q-18 0 -32 6t-24 16t-15 23.5t-5 29.5z" />
<glyph unicode="{" horiz-adv-x="401" d="M-3 462.5q1 7.5 7 12.5t14 7q19 2 35 9.5t27.5 21t18.5 33.5t7 46v272q0 55 15 93.5t42 62.5t65 36t84 16q20 2 34 -3t21 -13t8 -18.5t-4 -20t-15.5 -16.5t-26.5 -10q-14 -2 -22 -11.5t-12 -22.5t-5 -28t-1 -31v-270q0 -56 -19.5 -100t-62.5 -72q23 -16 39 -36t25 -44 t13.5 -52t4.5 -58v-256q0 -15 1 -30.5t5 -28.5t12 -22.5t22 -11.5q16 -2 26.5 -9.5t15.5 -17t4 -20t-8 -18.5t-21 -13t-34 -3q-46 4 -84 16t-65 36t-42 62t-15 94v270q0 52 -21 81t-69 43q-12 4 -16 10.5t-3 14z" />
<glyph unicode="|" horiz-adv-x="366" d="M116 57v931q0 15 5.5 27t14.5 20.5t21 13.5t26 5t26.5 -5t21.5 -13.5t14 -21t5 -26.5v-931q0 -15 -5 -27t-14 -21t-21.5 -14t-26.5 -5t-26 5t-21 14t-14.5 21t-5.5 27z" />
<glyph unicode="}" horiz-adv-x="401" d="M26.5 -129.5q-0.5 10.5 4 20t15 16.5t26.5 10q14 2 22 11.5t12 22.5t5 28t1 31v256q0 30 4.5 58t14 52t25.5 44t38 36q-43 28 -62 72q-20 44 -20 100v270q0 15 -1 30.5t-5 28.5t-12 22.5t-22 11.5q-16 2 -26.5 9.5t-15 17t-4 20t8 18.5t20.5 13t34 3q46 -4 84.5 -16 t65.5 -36t41.5 -62t14.5 -94v-272q0 -26 7 -46t18.5 -33.5t28 -21t35.5 -9.5q8 -1 14 -6.5t7 -13t-3.5 -14t-16.5 -10.5q-48 -14 -69 -44q-21 -28 -21 -80v-270q0 -55 -14.5 -93.5t-41.5 -62.5t-65 -36t-85 -16q-20 -2 -33.5 3t-21 13t-8 18.5z" />
<glyph unicode="~" horiz-adv-x="731" d="M46 316q0 29 12 59.5t35 55t55.5 40t72.5 15.5q26 0 52.5 -6t52.5 -16t50 -21t46 -21t41.5 -16.5t35.5 -6.5q17 0 30 5.5t24 14.5t21 19t19 18.5t20 14t24 5.5q15 0 25 -5t16 -14t9 -20.5t3 -22.5q0 -29 -12.5 -58.5t-36 -54.5t-57.5 -41t-76 -16q-24 0 -50 7t-50.5 16.5 t-48 21t-45.5 21t-41.5 16t-35.5 6.5q-17 0 -30 -6t-24 -14t-21 -18l-19 -19t-20 -14.5t-24 -5.5q-15 0 -25 5.5t-16 14.5t-9 20t-3 21z" />
<glyph unicode="&#xa2;" horiz-adv-x="731" d="M64 512q0 43 3.5 87.5t13.5 86.5t27.5 80t44.5 68.5t65 52t89 31.5v73q0 12 4.5 22.5t12.5 18.5t19 13t23 5t22.5 -5t18.5 -13t12.5 -18.5t4.5 -22.5v-67q44 -6 79 -24t61.5 -46t44 -64t24.5 -77q3 -16 -0.5 -30.5t-12 -26.5t-20.5 -20.5t-28 -11.5t-31 0.5t-27 11.5 t-20 20t-10 28q-2 18 -6.5 35t-12 31t-17.5 24t-24 14v-530q17 7 29 20.5t19.5 30.5t11.5 38t5 43q0 16 8.5 28t21.5 20t28 11.5t31 0.5t28 -11.5t20 -20.5t11.5 -27t1.5 -30q-7 -46 -22 -87.5t-41 -73.5t-64 -54t-88 -30v-62q0 -12 -4.5 -23t-12.5 -19t-18.5 -12.5 t-22.5 -4.5t-23 4.5t-19 12.5t-12.5 19t-4.5 23v67q-49 8 -86 27.5t-64 48.5t-45 64.5t-29 76t-15 85t-4 89.5zM226 492q0 -28 3 -61t12.5 -65t25 -58t40.5 -40v502q-18 -13 -31 -33.5t-22 -44.5t-14.5 -51.5t-8.5 -54t-4 -51t-1 -43.5z" />
<glyph unicode="&#xa3;" horiz-adv-x="776" d="M29 500q0 12 4.5 23.5t12 20t19 13t24.5 4.5h34q-22 45 -35 91q-14 46 -14 98q0 73 26 128t71 92t107 55.5t134 18.5q66 0 122.5 -18t99 -52t67.5 -85t29 -115q0 -19 -6 -36.5t-17 -31.5t-27 -23q-14 -9 -34 -11q-19 -2 -37 4t-31.5 17t-22.5 27t-11 36q-4 58 -41 91 t-101 33q-36 0 -62 -10t-43.5 -29t-26.5 -45q-8 -26 -8 -58q0 -21 5 -43.5t14 -44.5t20 -45t23 -44h192q14 0 25 -4.5t19 -13t12 -19.5q4 -12 4 -24t-4 -23t-12 -19t-19 -13t-25 -5h-137q4 -16 6 -32.5t2 -30.5q0 -58 -18.5 -104.5t-52.5 -88.5q23 2 46.5 1.5t45.5 -5.5 q37 -8 66 -17t46 -11q25 -7 52 -2.5t56 18.5q15 8 31.5 9t31.5 -4t27.5 -15t20.5 -26q8 -15 9 -31.5t-3.5 -31.5t-15.5 -27.5t-26 -20.5q-21 -12 -39 -19t-37 -11.5t-38.5 -5.5t-43.5 -1q-31 0 -61.5 7.5t-61 17t-62.5 17t-65 7.5q-30 0 -57 -6.5t-54 -23.5 q-15 -10 -31.5 -12.5t-32.5 0.5t-30 12t-24 25q-10 15 -13 30.5t1 31.5t13 30.5t22 26.5q26 23 47.5 46.5t37.5 49t24.5 52.5t8.5 57q0 23 -3.5 43.5t-15.5 44.5h-99q-14 0 -25 5t-18.5 13t-12 19t-4.5 23z" />
<glyph unicode="&#xa5;" horiz-adv-x="768" d="M23 959.5q-1 18.5 5 35t18 30t30 21.5q17 8 35 9t34.5 -5t30.5 -18t22 -30l186 -410l186 410q8 18 22 30t30 18t34 5t36 -9t30 -21.5t18 -30t5 -34.5t-9 -36l-169 -340h61q14 0 26 -5t21 -14t13.5 -21t4.5 -25q0 -14 -4.5 -25.5t-12.5 -20.5t-20 -14t-28 -5h-125l-25 -50 v-38h150q14 0 26 -5t21 -13.5t13.5 -20t4.5 -25.5t-4.5 -25.5t-12.5 -20t-20 -13.5t-28 -5h-150v-154q0 -21 -7.5 -38.5t-20 -30t-29.5 -19t-37 -6.5t-37 6.5t-30 19t-20 29.5t-7 39v154h-150q-15 0 -27.5 5t-20.5 13.5t-12.5 20t-4.5 25.5t4.5 25.5t13.5 20t21 13.5t26 5 h150v38l-26 50h-124q-15 0 -27.5 5t-20.5 14t-12.5 21t-4.5 25q0 14 4.5 25.5t13.5 20.5t21 14t26 5h60l-168 340q-8 17 -9 35.5z" />
<glyph unicode="&#xa9;" horiz-adv-x="1112" d="M51 496q0 69 18.5 133t51 120t79 102.5t102.5 79t120 51t133 18.5t133 -18.5t120 -51t102.5 -79t79 -102.5t51 -120.5t18.5 -132.5q0 -69 -18.5 -133.5t-51 -120.5t-79 -102t-102.5 -79t-120 -51t-133 -18t-133 18t-120 51t-102.5 79t-79 102t-51 120.5t-18.5 133.5z M174 496q0 -52 13.5 -101t38 -92t59.5 -77.5t77.5 -59t91 -38.5t101.5 -14q52 0 101 14t91.5 38.5t77.5 59t59.5 77.5t38 91t13.5 102q0 52 -13.5 101t-38 91t-59.5 77t-77.5 60t-91 38t-101.5 13q-52 0 -101 -13t-91.5 -38t-77.5 -60t-59.5 -77t-38 -91t-13.5 -101z M316 496q0 59 16 110t46 89t74.5 59.5t100.5 21.5q32 0 63.5 -11t57.5 -31.5t46.5 -51t31.5 -68.5q3 -11 2 -22.5t-5.5 -21t-12.5 -17t-20 -11.5q-11 -4 -21.5 -3t-20.5 5.5t-17.5 13t-11.5 18.5q-12 42 -36.5 65t-55.5 23q-30 0 -53 -14t-38.5 -37t-23.5 -53t-8 -64 q0 -33 8 -64.5t24 -55.5t40 -38t55 -14q30 0 55 22q24 22 37 64q4 11 11.5 19.5t17.5 13t21 5t21 -2.5q11 -4 19.5 -11.5t13 -17.5t5.5 -21t-2 -21q-11 -39 -31.5 -69.5t-46.5 -51.5t-57.5 -31.5t-63.5 -10.5q-56 0 -100.5 22t-76 60.5t-48 90.5t-16.5 112z" />
<glyph unicode="&#xab;" horiz-adv-x="731" d="M91 434q0 22 8 40q9 18 23 32l148 140q10 10 22 14.5t24 4t24 -5.5t21 -14q10 -10 14.5 -22t3.5 -24.5t-6 -24.5t-14 -21l-125 -121l125 -121q10 -10 14.5 -21.5t5.5 -24t-4 -24.5t-14 -22t-21 -14.5t-24 -5t-24 4.5q-12 4 -22 14l-151 146q-13 13 -21 31q-7 19 -7 39z M353 434q0 22 8 40q9 18 23 32l148 140q10 10 22 14.5t24 4t24 -5.5t21 -14q10 -10 14.5 -22t3.5 -24.5t-6 -24.5t-14 -21l-125 -121l125 -121q10 -10 14.5 -21.5t5.5 -24t-4 -24.5t-14 -22t-21 -14.5t-24 -5t-24 4.5q-12 4 -22 14l-151 146q-13 13 -21 31q-7 19 -7 39z" />
<glyph unicode="&#xad;" horiz-adv-x="585" d="M72 354q0 14 5 27t14 22.5t22 15t30 5.5h300q16 0 29 -5.5t22.5 -15t14.5 -22.5t5 -28q0 -14 -5 -27.5t-14 -22.5t-22 -15t-30 -6h-300q-16 0 -29 6t-22.5 15.5t-14.5 22.5q-5 14 -5 28z" />
<glyph unicode="&#xae;" horiz-adv-x="1110" d="M51 496q0 69 18.5 133t51 120t79 102.5t102.5 79t120 51t133 18.5t133 -18.5t120 -51t102.5 -79t79 -102.5t51 -120.5t18.5 -132.5q0 -69 -18.5 -133.5t-51 -120.5t-79 -102t-102.5 -79t-120 -51t-133 -18t-133 18t-120 51t-102.5 79t-79 102t-51 120.5t-18.5 133.5z M174 496q0 -52 13.5 -101t38 -92t59.5 -77.5t77.5 -59t91 -38.5t101.5 -14q52 0 101 14t91.5 38.5t77.5 59t59.5 77.5t38 91t13.5 102q0 52 -13.5 101t-38 91t-59.5 77t-77.5 60t-91 38t-101.5 13q-52 0 -101 -13t-91.5 -38t-77.5 -60t-59.5 -77t-38 -91t-13.5 -101z M375 270v439q0 13 4.5 23.5t12.5 18t18 11.5t22 4h164q35 0 67.5 -9t57.5 -27.5t40 -48.5q15 -31 15 -73q0 -34 -9 -60t-24 -45t-36 -32t-43 -19l86 -153q6 -10 7 -21.5t-2 -22.5t-10 -20t-18 -15q-10 -6 -21.5 -7t-22.5 2t-20 11t-15 18l-112 202h-46v-176q0 -14 -5 -24 t-13 -17.5t-18 -11.5t-22 -4t-22 4t-18 11.5t-12.5 18t-4.5 23.5zM490 551h61q19 0 39 0.5t36 6t27 18t11 34.5q0 18 -7 28.5t-19 16t-26 7.5t-30 2h-92v-113z" />
<glyph unicode="&#xbb;" horiz-adv-x="731" d="M91 265.5q1 12.5 6 24.5t14 21l125 121l-125 121q-10 10 -14.5 21.5t-5.5 24t4 24.5t14 22t21 14.5t24 5t24 -4t22 -14.5l148 -140q14 -14 22 -32q9 -18 9 -40q0 -20 -7.5 -38t-20.5 -32l-151 -146q-10 -10 -22 -14.5t-24 -4t-24 5t-21 14.5q-10 10 -14.5 22t-3.5 24.5z M353 265.5q1 12.5 6 24.5t14 21l125 121l-125 121q-10 10 -14.5 21.5t-5.5 24t4 24.5t14 22t21 14.5t24 5t24 -4t22 -14.5l148 -140q14 -14 22 -32q9 -18 9 -40q0 -20 -7.5 -38t-20.5 -32l-151 -146q-10 -10 -22 -14.5t-24 -4t-24 5t-21 14.5q-10 10 -14.5 22t-3.5 24.5z " />
<glyph unicode="&#xbc;" horiz-adv-x="1153" d="M92 840q-1 10 1.5 20t9 18t15 13t19.5 5q44 4 71.5 22t40.5 55q6 17 20.5 28t33.5 11q12 0 22.5 -5t18.5 -13t12 -18t4 -22v-516q0 -14 -4.5 -25t-13 -19t-19.5 -12t-23 -4t-23.5 4t-20 12t-13 19t-4.5 25v379q-43 -19 -91 -21q-10 -1 -20 1.5t-17.5 8.5t-12.5 15 q-4 9 -6 19zM274 58.5q2 11.5 8 21.5l574 905q6 10 16 16.5t21 8.5t22 0t21 -8t17 -16t9 -21t0 -23t-8 -22l-573 -904q-6 -10 -15.5 -16.5t-20.5 -9t-22.5 -0.5t-21.5 9q-10 6 -16.5 16t-9.5 21t-1 22.5zM689 204q1 20 11 36l235 360q8 12 21.5 19.5t30.5 7.5q13 0 24 -4.5 t20 -12.5t14 -19t5 -25v-322h10q12 0 22 -4t17 -11t11 -16.5t4 -20.5t-4 -20.5t-11 -17t-17 -12t-22 -4.5h-10v-90q0 -14 -5 -25t-13 -18.5t-19 -12t-23 -4.5q-26 0 -43 16t-17 44v90h-172q-16 0 -29 5.5t-22 14.5t-13 21q-5 11 -5 25zM826 244h104v117l2 53l-18 -36z" />
<glyph unicode="&#xbd;" horiz-adv-x="1147" d="M92 840q-1 10 1.5 20t9 18t15 13t19.5 5q44 4 71.5 22t40.5 55q6 17 20.5 28t33.5 11q12 0 22.5 -5t18.5 -13t12 -18t4 -22v-516q0 -14 -4.5 -25t-13 -19t-19.5 -12t-23 -4t-23.5 4t-20 12t-13 19t-4.5 25v379q-43 -19 -91 -21q-10 -1 -20 1.5t-17.5 8.5t-12.5 15 q-4 9 -6 19zM242 36q-2 11 0 22q2 12 8 22l573 905q6 10 15.5 16.5t20.5 8.5t22.5 0t21.5 -8t16.5 -16t9.5 -21t1 -23t-8 -22l-574 -904q-6 -10 -16 -16.5t-21 -9t-22 -0.5t-21 9q-10 6 -17 16t-9 21zM712 62q2 20 7 40t14 39t23.5 37t35.5 34l126 102q29 23 42.5 49.5 t13.5 66.5q0 16 -4 29t-12 23t-22 15t-34 5q-18 0 -30 -5.5t-20 -16t-12 -23.5t-6 -29q-1 -12 -6.5 -21.5t-14.5 -16.5t-20 -10.5t-24 -2.5q-12 1 -22.5 6t-17.5 14t-11 19t-4 22q2 34 16 65t39 53t59 35t77 13q47 0 82.5 -13t59 -36t35.5 -56t12 -72q0 -33 -7 -60 t-21.5 -50.5t-35.5 -44.5q-20 -22 -47 -42l-117 -90q-13 -10 -20.5 -19t-11.5 -21h220q11 0 20.5 -4t16.5 -11t11.5 -16t4.5 -19t-4.5 -19t-11.5 -16t-16.5 -11t-20.5 -4h-283q-13 0 -24 5t-19.5 14t-13 20t-2.5 23z" />
<glyph unicode="&#xbe;" horiz-adv-x="1147" d="M68 526q-1 12 2.5 23t10 20t16 15t21.5 7q12 2 24 -0.5t22 -9.5t16 -16t6 -22q1 -30 21.5 -47.5t60.5 -17.5q44 0 63.5 21t19.5 54q0 26 -5 44.5t-16.5 30.5t-29.5 18t-44 8q-10 0 -19 4.5t-15.5 10.5t-10.5 14.5t-4 17.5q0 10 4 18t10.5 14.5t15.5 10.5t19 4 q15 0 28.5 4t24.5 13.5t17 25t6 37.5q0 14 -3.5 27t-11.5 22t-21 14t-32 5q-33 0 -49.5 -16t-18.5 -40q0 -11 -6 -20.5t-15.5 -15.5t-21 -9t-23.5 -1t-22 7.5t-16 14t-10 18.5q-3 10 -2 22q2 30 15.5 57t37 46.5t57.5 30.5q34 12 76 12t77 -12t60 -34t38 -52t13 -68 q0 -39 -12 -71.5t-41 -54.5q37 -21 54 -57.5t17 -78.5q0 -44 -12 -82t-37 -65t-65 -42t-96 -15q-48 0 -83 12t-59 32t-37 49t-15 63zM296.5 58.5q1.5 11.5 8.5 21.5l573 905q6 10 16 16.5t21 8.5t22 0t21 -8t17 -16t9.5 -21t1.5 -23q-2 -12 -9 -22l-573 -904 q-6 -10 -16 -16.5t-21 -9t-22 -0.5t-21 9q-10 6 -17 16t-9.5 21t-1 22.5zM689 204q1 20 11 36l235 360q8 12 21.5 19.5t30.5 7.5q13 0 24 -4.5t20 -12.5t14 -19t5 -25v-322h10q12 0 22 -4t17 -11t11 -16.5t4 -20.5t-4 -20.5t-11 -17t-17 -12t-22 -4.5h-10v-90q0 -14 -5 -25 t-13 -18.5t-19 -12t-23 -4.5q-26 0 -43 16t-17 44v90h-172q-16 0 -29 5.5t-22 14.5t-13 21q-5 11 -5 25zM826 244h104v117l2 53l-18 -36z" />
<glyph unicode="&#xd7;" horiz-adv-x="807" d="M87 68.5q-1 13.5 3 26.5t14 24l208 233l-208 234q-10 11 -14 24t-3 26.5t7 25.5t16 22q11 10 24.5 14t26.5 3t25 -7t22 -16l196 -222l194 222q10 10 22 16t25.5 7t26.5 -3t24 -14q10 -10 16 -22t7 -25.5t-3 -26.5t-14 -24l-206 -234l206 -233q10 -11 14 -24t3 -26.5 t-7 -26t-16 -21.5q-11 -10 -24 -14t-26.5 -3.5t-25.5 6.5t-22 17l-194 221l-196 -221q-10 -10 -22 -16.5t-25 -7t-26 4t-25 13.5q-10 10 -16 22t-7 25.5z" />
<glyph unicode="&#xf7;" horiz-adv-x="794" d="M72 354q0 14 5 27t14 22.5t22 15t30 5.5h508q16 0 29 -5.5t22.5 -15t14.5 -22.5t5 -28q0 -14 -5 -27.5t-14 -22.5t-22 -15t-30 -6h-508q-16 0 -29 6t-22.5 15.5t-14.5 22.5q-5 14 -5 28zM309 72q0 18 6.5 33t18.5 27t28 19t34 7t33 -7t27 -19t19 -27t7 -33t-7 -34 t-19 -27.5t-28 -18.5q-14 -6 -32 -6t-34 6.5t-28 18t-18.5 27.5t-6.5 34zM309 635q0 18 6.5 33.5t18.5 27.5t28 18.5t34 6.5t33 -6.5t27 -18.5t19 -28t7 -33q0 -18 -7 -33.5t-19 -27.5t-28 -18q-14 -7 -32 -7t-34 6.5t-28 18.5t-18.5 27.5t-6.5 33.5z" />
<glyph unicode="&#xe01;" horiz-adv-x="772" d="M35 677.5q-1 7.5 2 15t9 15.5q60 94 146 140.5t189 46.5q59 0 115 -16.5t99.5 -49t70 -80t26.5 -108.5v-560q0 -20 -7 -37t-19 -29t-29 -18.5t-36 -6.5q-20 0 -36.5 6.5t-28.5 18.5t-19 28.5t-7 37.5v543q0 54 -32 86t-97 32q-50 0 -88 -16q-37 -16 -59 -38 q12 -14 20 -33t8 -49v-525q0 -20 -7 -37t-19 -29t-29 -18.5t-36 -6.5q-20 0 -36.5 6.5t-28.5 18.5t-19 28.5t-7 37.5v497q0 18 -6 36t-20 32q-10 9 -14 16.5t-5 15z" />
<glyph unicode="&#xe02;" horiz-adv-x="676" d="M4 808q0 16 6 30t16.5 24t24.5 16t30 6h129q32 0 50 -19.5t24 -51.5l55 -295l21 -187l22 185l58 304q4 20 15 36t26.5 25t34 12t36.5 -1t33 -13t24 -23.5t12 -33t-1 -38.5l-147 -704q-4 -22 -14.5 -39t-25.5 -28t-33 -17t-39 -6q-20 0 -38.5 6t-33.5 17.5t-25 28 t-15 38.5l-139 651h-29q-16 0 -30 6t-24.5 16.5t-16.5 24.5t-6 30z" />
<glyph unicode="&#xe03;" horiz-adv-x="717" d="M18.5 824q1.5 16 9 30t20 24t30.5 14q16 4 32 2.5t30 -9t24 -19.5q10 -14 15 -30q4 -14 12.5 -21.5t21.5 -7.5t21 8.5t14 21.5q9 26 31.5 42.5t51.5 16.5q18 0 34.5 -7t28.5 -19t19 -28t7 -35v-84q0 -32 -9.5 -57t-24 -46.5t-32.5 -41.5t-34 -41t-29 -45t-17 -54v-180 q0 -54 24 -85q22 -31 66 -31t68 30t24 86v546q0 20 7 37t19 29t29 18t36 6q20 0 36.5 -6t28.5 -18t18.5 -29t6.5 -37v-568q0 -41 -11 -75.5t-30.5 -62t-45.5 -48.5t-56.5 -34.5t-63.5 -20.5q-34 -7 -66 -7q-50 0 -98 15.5t-86.5 46.5t-62 77.5t-23.5 108.5v172q0 36 4 63 t12 48t19.5 38t27 34.5t34.5 37t41 45.5q-11 -2 -19.5 -2.5t-18.5 -0.5q-18 0 -42 4.5t-49 17.5t-47 36.5t-34 62.5q-5 16 -3.5 32z" />
<glyph unicode="&#xe04;" horiz-adv-x="778" d="M80 81v560q0 60 23 107.5t64 80t98 49.5t124 17t123.5 -17t98 -49.5t64.5 -79.5t23 -108v-560q0 -20 -7 -37t-19 -29t-28 -18.5t-36 -6.5t-36 6.5t-28 18.5t-19 28.5t-7 37.5v533q0 28 -6.5 51t-22 40t-40 27t-60.5 10t-60.5 -9.5t-39.5 -26t-21 -40.5t-6 -52v-126 q22 20 46.5 32.5t55.5 18.5q18 4 34.5 0.5t29 -11.5t20.5 -22q9 -14 13 -30q4 -18 0.5 -34t-12.5 -30t-23 -23.5t-30 -11.5q-32 -4 -57 -16.5t-42 -32t-26 -45t-9 -55.5v-147q0 -20 -7 -37t-19 -29t-29 -18.5t-36 -6.5q-20 0 -36.5 6.5t-28.5 18.5t-19 28.5t-7 37.5z" />
<glyph unicode="&#xe05;" horiz-adv-x="792" d="M80 80v564q0 46 14.5 85t41.5 70.5t66 53.5q39 21 88 33q4 0 9 2t10.5 1t12 -4t13.5 -10l61 -65l55 66q6 8 13 10t13.5 2.5t12.5 -1t10 -1.5q50 -12 89 -34t66.5 -53t42 -70t14.5 -85v-564q0 -20 -6.5 -37t-19 -29t-28.5 -18t-36 -6t-37 6t-29 18t-19 29t-7 37v554 q0 29 -3 48.5t-19 35.5l-80 -90q-5 -6 -13.5 -9.5t-17.5 -4t-19 2.5t-16 11l-80 90q-14 -16 -17 -36t-3 -48v-146q22 20 46 32.5t56 18.5q18 4 34.5 0.5t29 -11.5t21.5 -22t13 -30q4 -18 0.5 -35t-13 -30.5t-23.5 -23t-30 -11.5q-66 -8 -100 -48q-34 -38 -34 -100v-148 q0 -20 -7 -37t-19 -29t-29 -18t-36 -6q-20 0 -36.5 6t-28.5 18t-19 29t-7 37z" />
<glyph unicode="&#xe06;" horiz-adv-x="778" d="M31.5 823.5q1.5 16.5 9 30.5t20.5 24t31 14q16 4 32 2.5t30 -9t24 -20.5q12 -13 16 -29q4 -14 12 -22q10 -8 22 -8q14 0 22 8t14 22q9 26 31.5 43t51.5 17q19 0 35 -7t28 -19t19 -29t7 -35v-83q0 -28 -7 -51.5t-19 -44.5t-29 -40t-37 -38q-30 -30 -42.5 -55.5 t-12.5 -53.5v-100q0 -32 7.5 -66.5t23.5 -63t42 -46.5t64 -18q28 0 45 6t27 19t14 32t4 45v556q0 20 7 37t19 29t29 18t37 6t36 -6t28.5 -18t19 -29t6.5 -37v-578q0 -61 -17 -105.5t-48 -72.5t-75 -42t-97 -14q-30 0 -55.5 8t-47.5 21.5t-42 31t-38 35.5v-13 q0 -20 -6.5 -35.5t-18 -26.5t-27.5 -17t-34 -6t-33 6t-27 17t-19 27t-7 35v333q0 30 1 51.5t5 38t9.5 30.5t15.5 27.5t24 28.5q13 14 33 34q14 14 25.5 26t24.5 28q-10 -2 -18 -3t-17 -1q-18 0 -42.5 4.5t-49.5 18t-47.5 37.5t-34.5 63q-5 16 -3.5 32.5z" />
<glyph unicode="&#xe07;" horiz-adv-x="624" d="M43 472q1 18 9 34t21 28t31 18t36 5t34 -9t28 -21t18 -31l110 -334q2 -8 6 -12t12 -4t11 5t3 15v565h-23q-16 0 -30 6t-24.5 16.5t-16.5 24.5t-6 30t6 30t16.5 24t24.5 16t30 6h129q16 0 30 -6t24.5 -16t16.5 -24t6 -30v-622q0 -40 -15.5 -76t-42.5 -62.5t-63 -42 t-76 -15.5q-36 0 -66.5 9t-55 25.5t-42.5 39.5q-16 24 -26 52l-110 320q-6 18 -5 36z" />
<glyph unicode="&#xe08;" horiz-adv-x="674" d="M60 460q0 15 5 28.5t15 23t23 15t28 5.5h107q32 0 49 -17t25 -49l56 -218q17 54 28.5 94.5t20 75t14.5 66.5q5 32 11 69q4 36 1.5 70t-14 60.5t-32.5 42.5t-51 16q-40 0 -66.5 -21.5t-40.5 -62.5q-6 -18 -18 -30t-27.5 -19t-33.5 -7t-36 6q-17 6 -29.5 18.5t-19 28 t-7.5 33.5q0 16 6 34q16 39 41 71t59.5 54.5t78 35t95.5 12.5q36 0 71 -6.5t68 -22.5t60.5 -41t46.5 -61t28 -85q8 -49 4 -111q-6 -71 -39 -189.5t-90 -288.5q-6 -22 -17.5 -40t-26.5 -31.5t-36 -21t-46 -7.5t-45 8t-36 21t-27 31t-17 40l-88 299h-27q-15 0 -28 5.5 t-23 15.5t-15 23t-5 27z" />
<glyph unicode="&#xe09;" horiz-adv-x="753" d="M80 226v219q0 20 6.5 37t18.5 29t28.5 18.5t36.5 6.5t36 -6.5t28 -18.5t19 -28.5t7 -37.5v-197q0 -26 4 -45t15 -32t29 -19t46 -6q38 0 64 17.5t42 45.5t24 62.5t9 68.5v286q0 56 -28 85t-93 29q-25 0 -43.5 -6t-32.5 -17t-24 -24.5t-15 -28.5q-6 -18 -19 -30.5 t-28.5 -19.5t-33.5 -8q-18 0 -34 6q-18 7 -31 19.5t-21 27.5t-9 33t7 35q17 41 46 72t66.5 52t81.5 31.5t90 10.5q59 0 113.5 -14.5t96.5 -44t67 -74.5q25 -44 25 -106v-579q0 -20 -7 -35.5t-19 -26.5t-27 -17t-33 -6t-34 6t-27.5 17t-18 27t-6.5 35v13q-42 -44 -86 -70 t-97 -26t-97 14t-76 42t-49 72t-17 106z" />
<glyph unicode="&#xe0a;" horiz-adv-x="710" d="M24 794q-2 16 1.5 30.5t12 26t20.5 19.5t28 10q40 6 68 7.5t40 1.5q86 0 131 -43.5t45 -122.5v-15q21 4 36.5 12.5t26.5 22t18 31.5t9 42q2 19 10 38.5t22 34t35 21t49 0.5q26 -6 41 -18t21 -29t6.5 -36t-2.5 -39q-4 -24 -10 -44t-16 -37t-24.5 -32.5t-34.5 -29.5 q28 -16 43.5 -36.5t22 -42.5t7.5 -44.5t1 -42.5v-243q0 -41 -11 -75.5t-30.5 -61.5t-45.5 -47t-56 -33t-63 -20t-67 -7t-67 7t-64 20t-57 33t-45 47t-30 61t-11 76v194q0 44 3 73.5t11 52.5t23 43.5t39 45.5q10 11 19 21t16 19.5t11.5 17.5t4.5 14q0 14 -9.5 19.5t-23.5 5.5 t-32 -3t-36 -7q-16 -2 -30.5 1.5t-26 12t-19.5 20.5t-10 28zM266 258q0 -54 25 -83t67 -29t67 28t25 84v219q0 33 -9 54.5t-27 34.5t-42 18.5t-54 7.5l-34 -47q-12 -22 -15 -43q-3 -22 -3 -48v-196z" />
<glyph unicode="&#xe0b;" horiz-adv-x="751" d="M35 826q1 16 8.5 29t20 23t28.5 14q15 4 31 3t29.5 -8t24.5 -19t15 -30q3 -13 12 -20q8 -8 20 -8q13 0 22 8q10 6 14 20q8 27 30 42.5t50 15.5q18 0 34 -7t27.5 -18.5t18 -27t6.5 -33.5v-64q0 -12 -3 -26t-7 -30q40 12 59 43t25 85q2 19 10 38t22.5 33.5t35 20.5t48.5 0 q26 -6 41 -18t22 -29t6.5 -36.5t-3.5 -38.5q-4 -26 -10 -49t-16.5 -43t-25.5 -38t-36 -32q30 -16 46 -36t23 -43t8 -45.5t1 -42.5v-223q0 -41 -11.5 -75.5t-31 -61.5t-46 -47.5t-57 -34t-64.5 -20.5t-66 -7q-50 0 -99 15t-87 46t-61.5 77t-23.5 108v172q0 30 1 51t3.5 37.5 t7.5 30t13 26.5t19 27t27 34q10 12 17 21t12 16t8 14t7 15q-10 -2 -17.5 -3t-15.5 -1q-16 0 -40.5 4.5t-49 17t-46 35.5t-33.5 61q-4 16 -3 32zM305 258q0 -54 24.5 -84t66.5 -30q43 0 68.5 29t25.5 85v198q0 34 -9 57t-25 36t-40 19t-54 8q-14 -22 -24.5 -40.5t-17.5 -34.5 t-10.5 -30.5t-4.5 -30.5v-182z" />
<glyph unicode="&#xe0c;" horiz-adv-x="1179" d="M37 679q-1 7 2 14.5t9 16.5q60 94 146 138.5t189 44.5q63 0 120 -16.5t100.5 -47.5t69 -76t25.5 -104v-295q0 -21 2.5 -44t8.5 -45.5t16.5 -43t25.5 -36t37 -24.5t50 -9q24 0 39 8.5t24 24t13 36.5t4 45v538q0 20 7 37t19 29t29 18t36 6q20 0 36.5 -6t28.5 -18t19 -29 t7 -37v-572q0 -61 -18.5 -105.5t-50 -72.5t-72.5 -42t-89 -14q-51 0 -92 23q-42 23 -80 65v-12q0 -20 -7 -35t-19 -26t-29 -17t-36 -6t-35.5 6t-29 17t-19.5 27q-7 14 -7 34v548q0 60 -36 89t-97 29q-48 0 -85 -15q-36 -15 -60 -39q17 -17 21.5 -36.5t4.5 -49.5v-452h27 q16 0 29.5 -6t23.5 -16t16 -24q5 -12 5 -28t-5.5 -29t-15.5 -23t-24 -16t-29 -6h-135q-16 0 -29 6t-23 16t-16 23t-6 29v505q0 18 -6 36.5t-20 32.5q-10 9 -14 16.5t-5 14.5z" />
<glyph unicode="&#xe0d;" horiz-adv-x="1186" d="M37 679q-1 7 2 14.5t9 16.5q60 94 147 138.5t189 44.5q63 0 120.5 -16.5t100.5 -47.5t69 -76t26 -104v-383q0 -24 6 -45t18.5 -36.5t31 -24t42.5 -8.5q30 0 54 12t40 32.5t24 46.5t8 54v507q0 20 7 37t19 29t29 18t36 6q20 0 36.5 -6t28.5 -18t19 -29t7 -37v-774 q0 -69 -15.5 -129.5t-51 -106.5t-93.5 -72.5t-143 -26.5q-38 0 -75.5 8t-70.5 24.5t-60 40.5t-47 58q-9 16 -10.5 33t2.5 33t15 30t27 22q16 9 33 11.5t34 -2t30 -15t21 -26.5t18.5 -28t23.5 -20t27.5 -12t29.5 -4q38 0 63 13t39.5 32t20.5 43t6 48v67q-31 -26 -68.5 -39.5 t-83.5 -13.5q-30 0 -60.5 6t-59.5 18.5t-54.5 31.5t-44.5 45t-30 59q-11 34 -11 74v390q0 62 -36 91t-97 29q-48 0 -86 -15q-37 -15 -61 -39q14 -16 20 -37t6 -49v-454h27q16 0 29.5 -6t23.5 -16t16 -24q5 -12 5 -28t-5.5 -29t-15.5 -23t-24 -16t-29 -6h-135q-16 0 -29 6 t-23 16t-16 23t-6 29v505q0 18 -6 36.5t-20 32.5q-10 9 -14 16.5t-5 14.5z" />
<glyph unicode="&#xe0e;" horiz-adv-x="790" d="M6 74q0 16 5.5 29t15 23t22.5 16t29 6h10v431q0 18 -6 36.5t-20 32.5q-10 9 -14 16.5t-5 15.5t2 15t9 17q60 94 147 137.5t190 43.5q39 0 78 -6.5t74 -20.5t66 -34t53.5 -47.5t35 -61t12.5 -74.5v-849q0 -20 -7 -38t-20 -31t-31 -20t-38 -7q-23 0 -42.5 10t-34.5 26 q-23 24 -55 36q-32 13 -78 13q-21 0 -40.5 -6.5t-38.5 -17.5t-37 -24l-32 -26q-12 -10 -27 -12.5t-29 0.5t-27 12t-21 23q-8 13 -10 26.5t1 27t11 26t20 22.5q15 14 39.5 31t55 31.5t64 24t67.5 9.5q41 0 72.5 -7t55.5 -20v713q0 54 -37.5 86t-105.5 32q-50 0 -87.5 -15 t-59.5 -39q14 -16 22 -37.5t8 -52.5v-522q0 -16 -5.5 -29t-15 -23t-22.5 -16t-29 -6h-118q-16 0 -29 6t-22.5 16t-15 23t-5.5 29z" />
<glyph unicode="&#xe0f;" horiz-adv-x="790" d="M6 74q0 16 5.5 29t15 23t22.5 16t29 6h10v431q0 18 -6 36.5t-20 32.5q-10 9 -14 16.5t-5 15.5t2 15t9 17q60 94 147 137.5t190 43.5q39 0 78 -6.5t74 -20.5t66 -34t53.5 -47.5t35 -61t12.5 -74.5v-853q0 -19 -7 -36t-19.5 -29.5t-29 -19.5t-36.5 -7q-28 0 -50 14 q-20 14 -32 38q-8 16 -20 26.5t-28 10.5q-15 0 -26.5 -10.5t-16.5 -27.5q-4 -12 -11.5 -21.5t-17.5 -16.5t-22 -10.5t-24 -3.5q-14 0 -26 4.5t-22.5 11.5t-18 18t-9.5 23q-4 16 -14.5 26.5t-27.5 10.5q-14 0 -25 -10.5t-15 -28.5q-4 -16 -13 -28t-23 -18.5t-31 -8t-33 4.5 q-16 4 -28 15t-19 25t-9 31q0 17 4 33q9 34 26.5 58t41.5 39.5t52 23t58 7.5q38 0 72 -15.5t54 -43.5q23 28 46.5 40.5t54.5 12.5q20 0 35.5 -5t27.5 -13v706q0 54 -37.5 86t-105.5 32q-50 0 -87.5 -15t-59.5 -39q14 -16 22 -37.5t8 -52.5v-522q0 -16 -5.5 -29t-15 -23 t-22.5 -16t-29 -6h-118q-16 0 -29 6t-22.5 16t-15 23t-5.5 29z" />
<glyph unicode="&#xe10;" horiz-adv-x="702" d="M60 460q0 15 5 28.5t15 23t23 15t28 5.5h107q32 0 49 -17t25 -49l56 -218q17 54 28.5 94.5t20 75t14.5 66.5q5 32 11 69q4 36 1.5 70t-14 60.5t-32.5 42.5t-51 16q-40 0 -66.5 -21.5t-40.5 -62.5q-6 -18 -18 -30t-27.5 -19t-33.5 -7t-36 6q-17 6 -29.5 18.5t-19 28 t-7.5 33.5q0 16 6 34q16 39 41 71t59.5 54.5t78 35t95.5 12.5q24 0 48 -3q22 -4 46 -10q10 7 17 16.5t13 19.5q10 16 25 26t32 13t34 0t33 -14q15 -10 24.5 -25.5t13 -32.5t0 -34t-15.5 -33q-16 -21 -36 -35q25 -38 38 -91q12 -52 6 -124q-6 -71 -39 -189.5t-90 -288.5 q-6 -22 -17.5 -40t-26.5 -31.5t-36 -21t-46 -7.5t-45 8t-36 21t-27 31t-17 40l-88 299h-27q-15 0 -28 5.5t-23 15.5t-15 23t-5 27zM64 -267.5q-2 13.5 1 28.5q6 38 22.5 63.5t37.5 39.5t43 20t38 6q31 0 51.5 -13t34.5 -33q16 23 33 34.5t36 11.5q21 0 37 -11t26 -25v24 q0 16 6 29.5t16.5 23t24.5 15.5t30 6t30 -6t24.5 -15.5t16.5 -23t6 -29.5v-124q0 -17 -6.5 -31.5t-17.5 -25.5t-26 -18t-32 -7q-27 0 -47.5 15t-28.5 39q-5 12 -12.5 18t-15.5 6q-12 0 -19 -9t-9 -24q-3 -20 -19 -32.5t-37 -12.5q-10 0 -19 3.5t-17 9.5t-13 14.5t-6 17.5 q-2 14 -9 23.5t-18 9.5q-10 0 -17 -6.5t-10 -19.5q-3 -14 -12 -25t-21 -17.5t-26 -8.5t-27 2q-14 4 -24 12.5t-16.5 20t-8.5 25z" />
<glyph unicode="&#xe11;" horiz-adv-x="809" d="M35.5 824.5q1.5 15.5 9 29.5t19.5 24t30 14q15 4 31 3t30 -8t24.5 -20t14.5 -30q3 -14 12.5 -21.5t21.5 -7.5q13 0 22 8t13 22q8 28 30.5 43t52.5 15q32 0 54 -18q24 -16 30 -48q38 34 78 50.5t86 16.5q32 0 57 -8.5t42.5 -29t26.5 -53t9 -81.5v-644q0 -20 -6.5 -37 t-19 -29t-29 -18.5t-36.5 -6.5t-36.5 6.5t-29 18.5t-19 28.5t-6.5 37.5v631q0 6 -4.5 12.5t-10.5 6.5q-14 0 -31.5 -15.5t-38 -40t-41.5 -56t-40 -62.5t-34 -60t-25 -49q-8 -18 -12 -33t-6 -29t-2 -27v-25v-253q0 -20 -7 -37t-19 -29t-29 -18.5t-36 -6.5q-20 0 -36.5 6.5 t-28.5 18.5t-19 28.5t-7 37.5v233q0 38 4 74t22 75q7 18 19 41.5t29 51.5t37.5 60t44.5 68q-7 -4 -15.5 -6.5t-18 -4.5t-18 -2.5t-14.5 -0.5q-17 0 -41.5 4.5t-49.5 18t-47 37.5t-34 63q-4 16 -2.5 31.5z" />
<glyph unicode="&#xe12;" horiz-adv-x="1247" d="M80 87v562q0 44 16 82.5t45 69t68 52.5t85 34q5 2 11.5 3.5t14.5 0.5t18 -4t20 -12l70 -60l70 60q10 8 20 11.5t18 4.5t14.5 -1t11.5 -3q46 -12 86 -34t69 -52.5t45 -68.5t16 -83v-295q0 -38 6 -66t14 -52q6 -13 17 -28.5t26 -28.5t33 -21t36 -8q23 0 37.5 8.5t22.5 24 t11.5 36.5t3.5 47v538q0 20 6.5 37t19 29t29 18t36.5 6t36.5 -6t29 -18t19.5 -29t7 -37v-572q0 -61 -17 -105.5t-47 -73.5t-70.5 -43t-87.5 -14q-51 0 -92.5 24t-79.5 66v-12q0 -20 -7 -35t-19 -26t-28 -17t-36 -6q-19 0 -34.5 6t-27.5 17t-19 27q-7 14 -7 34v548 q0 30 -9 54t-26 39l-96 -84q-15 -14 -36 -14.5t-38 14.5l-96 81q-18 -17 -25.5 -39.5t-7.5 -50.5v-358l104 140h-16q-14 0 -26.5 5t-22 14t-14.5 21.5t-5 26.5t5 26.5t14.5 21.5t22 14t26.5 5h142q16 0 30 -6t24 -16t16 -24t6 -30q0 -26 -15 -46l-283 -383q-14 -20 -36 -31 q-24 -12 -50 -12q-22 0 -41 7t-33 20t-22 30.5t-8 39.5z" />
<glyph unicode="&#xe13;" horiz-adv-x="1177" d="M24 664q30 59 69.5 102t86 71.5t98.5 42t107 13.5q63 0 121 -16.5t102 -48t70 -77t26 -104.5v-381q0 -24 4 -45.5t14 -37t26 -24.5t40 -9q16 0 32 7.5t30.5 19.5t25.5 27q12 16 19 30q10 23 15.5 52.5t5.5 67.5v450q0 20 6.5 37t19 29t28.5 18t36 6t37 -6t29 -18t19 -29 t7 -37v-727q0 -18 -7 -34.5t-19 -28t-28 -18.5q-16 -6 -36 -6t-36.5 6.5t-28.5 18t-18.5 27.5t-6.5 35v9q-40 -44 -81 -67t-87 -23q-48 0 -90 14t-72.5 43t-48 73t-17.5 106v396q0 27 -11 48t-30 35t-45 21.5t-57 7.5q-48 0 -85.5 -15t-59.5 -39q12 -17 21 -36.5t9 -47.5 v-454h27q16 0 29.5 -6t23.5 -16t16 -24q5 -12 5 -28t-5.5 -29t-15.5 -23t-24 -16t-29 -6h-135q-16 0 -29 6t-23 16t-16 23t-6 29v512q0 12 -3 23.5t-10 22t-18 18.5q-11 10 -27 14z" />
<glyph unicode="&#xe14;" horiz-adv-x="849" d="M80 87v531q0 62 27.5 113t74 88t108.5 56.5t132 19.5t133 -19.5t110.5 -56.5t76 -88t28.5 -113v-537q0 -20 -7 -37t-19 -29t-29 -18.5t-37 -6.5t-36 6.5t-28.5 18.5t-19 28.5t-6.5 37.5v529q0 28 -11.5 52t-33 41.5t-52.5 28t-69 10.5t-68 -10t-50.5 -27.5t-31.5 -41.5 q-10 -25 -10 -53v-348l104 142h-16q-14 0 -26.5 5t-22 14t-14.5 21.5t-5 26.5t5 26.5t14.5 21.5t22 14t26.5 5h142q16 0 30 -6t24 -16t16 -24t6 -30q0 -26 -15 -46l-283 -383q-14 -20 -36 -31q-24 -12 -50 -12q-22 0 -41 7t-33 20t-22 30.5t-8 39.5z" />
<glyph unicode="&#xe15;" horiz-adv-x="849" d="M80 87v562q0 44 15.5 82.5t43 69t66 52.5t84.5 34q5 2 11.5 3.5t15 0.5t17.5 -4t19 -12l71 -60l71 60q10 8 19 11.5t17.5 4.5t15 -0.5t11.5 -3.5q46 -12 85.5 -34t67.5 -52.5t44 -68.5t16 -83v-568q0 -20 -7 -37t-19.5 -29t-29 -18.5t-36.5 -6.5t-36.5 6.5t-29 18.5 t-19.5 28.5t-7 37.5v554q0 58 -36 92l-94 -84q-20 -18 -35 -17.5t-33 17.5l-90 82q-20 -17 -28.5 -40t-8.5 -50v-373l106 142h-17q-14 0 -26 5t-21.5 14t-15 21.5t-5.5 26.5t5.5 26.5t15 21.5t21.5 14t26 5h140q16 0 30 -6t24.5 -16t16.5 -24t6 -30q0 -26 -15 -46l-284 -383 q-14 -20 -36 -31.5t-48 -11.5q-22 0 -41 7t-33 20t-22 30.5t-8 39.5z" />
<glyph unicode="&#xe16;" horiz-adv-x="772" d="M33 677.5q-1 7.5 2 15t9 15.5q60 94 146 140.5t189 46.5q59 0 115 -16.5t100 -49t71 -80t27 -108.5v-560q0 -20 -7 -37t-19 -29t-29 -18.5t-36 -6.5q-20 0 -36.5 6.5t-28.5 18.5t-19 28.5t-7 37.5v541q0 27 -10 49.5t-28 37.5t-44 24t-58 9q-50 0 -86 -16 q-34 -16 -56 -38q16 -14 24 -35t8 -47v-458h27q16 0 29.5 -6t23.5 -16t16 -24q5 -12 5 -28t-5.5 -29t-15.5 -23t-24 -16t-29 -6h-135q-16 0 -29 6t-23 16t-16 23t-6 29v510q0 18 -6 33t-20 29q-10 9 -14 16.5t-5 15z" />
<glyph unicode="&#xe17;" horiz-adv-x="772" d="M80 81v725q0 20 7 36.5t19 28t29 18.5t35 7t35 -7t29 -18.5t19 -28t7 -36.5v-18q37 52 87 79.5t112 27.5q52 0 95 -14t73.5 -43t47.5 -73.5t17 -104.5v-579q0 -20 -7 -37t-19 -29t-29 -18.5t-36 -6.5q-20 0 -36.5 6.5t-28.5 18.5t-19 28.5t-7 37.5v539q0 24 -5 46.5 t-18 39t-36 26.5t-58 10q-34 0 -58.5 -13t-40.5 -35.5t-24 -54t-8 -69.5v-489q0 -20 -7 -37t-19 -29t-29 -18.5t-36 -6.5q-20 0 -36.5 6.5t-28.5 18.5t-19 28.5t-7 37.5z" />
<glyph unicode="&#xe18;" horiz-adv-x="737" d="M76 676q0 48 19 88t54 69t85.5 45.5t113.5 16.5q52 0 96 -8.5t80 -27t61 -46.5t39 -66q6 -18 6 -36.5t-6 -34.5t-18 -29t-30 -19q-18 -8 -37 -8t-35 6.5t-28 19.5q-14 12 -20 30q-12 33 -40 50.5t-68 17.5q-48 0 -69 -14t-21 -42q0 -18 8.5 -31t26 -24t44.5 -22t65 -23 q46 -14 82.5 -28t65 -29.5t49 -34t33.5 -42t19.5 -53.5t6.5 -69v-100q0 -61 -24.5 -105.5t-64.5 -74.5t-92.5 -44t-108.5 -14t-108 14t-92 44t-64 74t-24 106v138q0 20 7 37t19 29t29 18t36 6q20 0 36.5 -6t28.5 -18t19 -29t7 -37v-110q0 -54 25 -83t81 -29q57 0 82 28.5 t25 83.5v66q0 30 -14.5 50.5t-36 35t-48.5 24.5q-26 8 -50 16q-53 16 -98.5 35t-79.5 44.5t-53 60.5t-19 84z" />
<glyph unicode="&#xe19;" horiz-adv-x="772" d="M80 236v568q0 20 7 37t19 29t29 18t36 6q20 0 36.5 -6t28.5 -18t19 -29t7 -37v-550q0 -24 6.5 -44.5t20.5 -35t36.5 -22.5t53.5 -8q34 0 59 12t41 35t23 55q8 32 8 70v488q0 20 7 37t19 29t29 18t36 6q20 0 36.5 -6t28.5 -18t19 -29t7 -37v-727q0 -18 -7 -34.5t-19 -28 t-28 -18t-36 -6.5t-36 6.5t-28 18t-19 27.5t-7 35v19q-37 -53 -86.5 -79.5t-111.5 -26.5q-52 0 -95.5 15.5t-74 46.5t-47.5 76.5t-17 107.5z" />
<glyph unicode="&#xe1a;" horiz-adv-x="772" d="M80 238v566q0 20 7 37t19 29t29 18t36 6q20 0 36.5 -6t28.5 -18t19 -29t7 -37v-550q0 -54 33 -81t92 -27q58 0 90.5 26t32.5 82v550q0 20 7 37t19 29t29 18t36 6q20 0 36.5 -6t28.5 -18t19 -29t7 -37v-566q0 -41 -12 -75.5t-34 -61.5t-51 -47.5t-63 -34t-71 -20.5t-74 -7 t-74 7t-71 20.5t-64 34t-51.5 47.5t-34 61t-12.5 76z" />
<glyph unicode="&#xe1b;" horiz-adv-x="772" d="M80 238v566q0 20 7 37t19 29t29 18t36 6q20 0 36.5 -6t28.5 -18t19 -29t7 -37v-550q0 -54 33 -81t92 -27q58 0 90.5 26t32.5 82v878q0 20 7 37t19 29t29 18t36 6q20 0 36.5 -6t28.5 -18t19 -29t7 -37v-894q0 -41 -12 -75.5t-34 -61.5t-51 -47.5t-63 -34t-71 -20.5t-74 -7 t-74 7t-71 20.5t-64 34t-51.5 47.5t-34 61t-12.5 76z" />
<glyph unicode="&#xe1c;" horiz-adv-x="844" d="M80 223v585q0 16 6 30t16.5 24t24.5 16t30 6h143q18 0 32.5 -6t24.5 -16t15.5 -24t5.5 -30t-5.5 -30t-15.5 -24.5t-24.5 -16.5t-32.5 -6h-38v-483q0 -27 1 -46.5t5 -31.5t12 -18t21 -6q12 0 19.5 5t11.5 16t6 30t2 47v204q0 18 6 33.5t17 26t26 16.5t33 6t33 -6t26 -16.5 t17 -26t6 -33.5v-204q0 -29 1.5 -48.5t5.5 -30.5t11.5 -15t19.5 -4q13 0 21 6t12 18t5.5 31.5t1.5 46.5v556q0 20 6.5 37t19 29t28.5 18t36 6t37 -6t29 -18t19 -29t7 -37v-581q0 -60 -14 -103.5t-39 -71.5t-61 -42t-78 -14q-50 0 -88 18t-62 50q-24 -32 -59 -50t-85 -18 q-44 0 -81 14t-63 42t-40 71.5t-14 103.5z" />
<glyph unicode="&#xe1d;" horiz-adv-x="844" d="M80 223v585q0 16 6 30t16.5 24t24.5 16t30 6h143q18 0 32.5 -6t24.5 -16t15.5 -24t5.5 -30t-5.5 -30t-15.5 -24.5t-24.5 -16.5t-32.5 -6h-38v-483q0 -27 1 -46.5t5 -31.5t12 -18t21 -6q12 0 19.5 5t11.5 16t6 30t2 47v204q0 18 6 33.5t17 26t26 16.5t33 6t33 -6t26 -16.5 t17 -26t6 -33.5v-204q0 -29 1.5 -48.5t5.5 -30.5t11.5 -15t19.5 -4q13 0 21 6t12 18t5.5 31.5t1.5 46.5v884q0 20 6.5 37t19 29t28.5 18t36 6t37 -6t29 -18t19 -29t7 -37v-909q0 -60 -14 -103.5t-39 -71.5t-61 -42t-78 -14q-50 0 -88 18t-62 50q-24 -32 -59 -50t-85 -18 q-44 0 -81 14t-63 42t-40 71.5t-14 103.5z" />
<glyph unicode="&#xe1e;" horiz-adv-x="973" d="M48.5 822q3.5 18 13.5 33t26 25t36 13t38 -1t33 -14t25 -26q10 -15 14 -36l54 -314l15 -164l26 163l73 325q4 15 11.5 27.5t19 21.5t25.5 14t30 5t30 -5t26 -14t20 -22t11 -27l71 -325l26 -163l14 164l54 314q4 21 14 36.5t25 25.5t34 14t38 1q20 -3 35.5 -13t25.5 -25 t14 -33t0 -38l-132 -721q-6 -35 -32 -54q-24 -19 -58 -19t-58 19t-33 54l-125 511l-126 -511q-8 -36 -32 -55q-24 -18 -58 -18t-59 19t-32 54l-132 721q-4 20 -0.5 38z" />
<glyph unicode="&#xe1f;" horiz-adv-x="973" d="M48.5 822q3.5 18 13.5 33t26 25t36 13t38 -1t33 -14t25 -26q10 -15 14 -36l54 -314l15 -164l26 163l73 325q4 15 11.5 27.5t19 21.5t25.5 14t30 5t30.5 -5t26 -14t19.5 -22t11 -27l71 -325l26 -163l14 164l113 640q4 21 14.5 36.5t25.5 25.5t33 14t38 1t36 -13t25.5 -25 t12.5 -33q4 -18 0 -38l-190 -1047q-6 -35 -32 -54q-24 -19 -58 -19t-58 19t-33 54l-125 511l-126 -511q-9 -36 -33 -55q-23 -18 -57 -18t-59 19t-32 54l-132 721q-4 20 -0.5 38z" />
<glyph unicode="&#xe20;" horiz-adv-x="772" d="M6 74q0 16 5.5 29t15 23t22.5 16t29 6h10v430q0 18 -6 36t-20 32q-10 9 -14 16.5t-4.5 14.5t2.5 15q2 8 8 16q60 96 142 141.5t185 45.5q40 0 78.5 -6.5t73 -20.5t64 -34.5t50.5 -48t33 -61.5t12 -75v-568q0 -20 -7 -37t-19 -29t-29 -18.5t-36 -6.5q-20 0 -36.5 6.5 t-28.5 18.5t-19 28.5t-7 37.5v541q0 27 -9 49.5t-26 37.5t-42 24t-59 9q-49 0 -80.5 -14t-57.5 -40q16 -16 25 -34t9 -46v-534q0 -16 -5 -29t-15 -23t-23 -16t-29 -6h-120q-16 0 -29 6t-22.5 16t-15 23t-5.5 29z" />
<glyph unicode="&#xe21;" horiz-adv-x="772" d="M80 80v724q0 20 7 37t19 29t29 19t36 7q20 0 36.5 -7t28.5 -19t19 -28q7 -18 7 -38v-488q0 -36 7.5 -68t23.5 -55t40.5 -36t59.5 -13q36 0 58.5 10t35.5 26t18 38t5 47v539q0 20 7 37t19 29t29 19t36 7q20 0 36.5 -7t28.5 -19t19 -28q7 -18 7 -38v-578q0 -60 -17 -105 t-47.5 -74t-73.5 -43t-95 -14q-62 0 -112 27t-87 80v-17q0 -20 -7 -37t-19 -28.5t-29 -18t-35 -6.5t-35 6.5t-29 18t-19 28.5t-7 37z" />
<glyph unicode="&#xe22;" horiz-adv-x="753" d="M56 278q0 27 3 54.5t12.5 53.5t27 50t47.5 46q-26 17 -43 38.5t-27 45.5t-14 49t-4 49q0 42 10.5 75t29 57.5t42.5 41t51 27.5t55 15t53 4h47q17 0 31 -6t24.5 -16t15.5 -24t5 -30t-5.5 -30t-16.5 -24.5t-27.5 -16.5t-36.5 -6q-12 0 -28 -2t-31.5 -10t-26 -23.5 t-10.5 -41.5q0 -30 8 -50t22.5 -32t34 -16.5t41.5 -4.5q19 0 33.5 -5.5t24 -15t14 -22t4.5 -27.5q0 -14 -4.5 -27t-14 -22.5t-23.5 -14.5t-32 -5q-24 0 -44.5 -6t-35 -22t-22.5 -43t-8 -71q0 -30 6.5 -53t22 -40t41.5 -26q24 -9 62 -9t62 10t37 28t18 42t5 54v528 q0 20 6.5 37t19 29t28.5 19t36 7t37 -7t29 -19t19 -28q7 -18 7 -38v-556q0 -61 -20 -109.5t-58 -81.5t-95 -51t-131 -18q-69 0 -126.5 19.5t-99.5 57t-65 91.5t-23 122z" />
<glyph unicode="&#xe23;" horiz-adv-x="626" d="M41.5 217.5q3.5 18.5 12.5 34t23.5 27t33.5 15.5q18 4 37.5 2t35.5 -11t27 -24t14 -35q2 -17 8.5 -32t18.5 -26.5t28 -17.5t38 -6q41 0 63.5 27t22.5 87q0 33 -15 56t-37.5 39.5t-49 29.5t-50.5 25q-46 23 -83.5 44.5t-64.5 49.5t-42 66t-15 92q0 56 21.5 99.5t57 74 t82 46t97.5 15.5q52 0 95.5 -12.5t75.5 -35.5t52 -55t28 -72q4 -18 1 -36t-12 -33t-23 -26t-32 -16q-18 -4 -36.5 -1.5t-34 11.5t-26.5 23q-11 16 -14 34q-6 32 -25 49t-51 17q-13 0 -26 -5t-23 -14t-16 -23t-6 -34q0 -28 14 -49t34.5 -36t44 -26t43.5 -21q48 -24 88 -46.5 t69 -52t45 -69.5t16 -98q0 -63 -17 -114.5t-51.5 -87.5t-87.5 -56t-125 -20q-48 0 -92 11.5t-79.5 35t-59.5 59.5t-32 84q-4 19 -0.5 37.5z" />
<glyph unicode="&#xe24;" horiz-adv-x="772" d="M33 677.5q-1 7.5 2 15t9 15.5q60 94 146 140.5t189 46.5q59 0 115 -16.5t100 -49t71 -80t27 -108.5v-847q0 -20 -7 -37t-19 -29t-29 -18t-36 -6q-20 0 -36.5 6t-28.5 18t-19 29t-7 37v828q0 27 -10 49.5t-28 37.5t-44 24t-58 9q-50 0 -86 -16q-34 -16 -56 -38 q16 -14 24 -35t8 -47v-458h27q16 0 29.5 -6t23.5 -16t16 -24q5 -12 5 -28t-5.5 -29t-15.5 -23t-24 -16t-29 -6h-135q-16 0 -29 6t-23 16t-16 23t-6 29v510q0 18 -6 33t-20 29q-10 9 -14 16.5t-5 15z" />
<glyph unicode="&#xe25;" horiz-adv-x="753" d="M43 254q0 9 1 25t5.5 35.5t12.5 41.5t24 44t39 40.5t57 32.5q12 5 37.5 13t56.5 17.5t64.5 20t62 20t49 18t25.5 14.5q6 4 8.5 10t4 15t2 18.5t0.5 19.5q0 29 -7 48.5t-21 31t-35 16.5t-50 5q-52 0 -81.5 -21t-41.5 -63q-6 -19 -17 -33.5t-26 -23.5t-33 -11t-36 2t-32 15 t-23 26t-11 33t2 36q14 50 44 86t71 60t91 35.5t105 11.5q63 0 108.5 -12.5t77 -33.5t50.5 -47t29.5 -54t14 -55.5t3.5 -49.5v-560q0 -20 -7 -37t-19 -29t-29 -18.5t-37 -6.5t-36 6.5t-28.5 18.5t-19 28.5t-6.5 37.5v349q-8 -6 -15 -9.5t-12.5 -6t-11 -4.5t-13.5 -4 q-16 -6 -37.5 -12.5t-44 -13.5t-44.5 -14.5t-38 -15.5q-13 -6 -22.5 -16t-15.5 -23t-9 -28t-3 -31q0 -22 6 -41t18 -32.5t30 -20.5q19 -6 43 -4q36 4 61.5 -11.5t31.5 -49.5q4 -28 -3 -47t-22.5 -30.5t-36 -16.5t-42.5 -5q-69 0 -120 17t-84 50t-49 81.5t-16 111.5z" />
<glyph unicode="&#xe26;" horiz-adv-x="772" d="M6 74q0 16 5.5 29t15 23t22.5 16t29 6h10v430q0 18 -6 36t-20 32q-10 9 -14 16.5t-4.5 14.5t2.5 15q2 8 8 16q60 96 142 141.5t185 45.5q40 0 78.5 -6.5t73 -20.5t64 -34.5t50.5 -48t33 -61.5t12 -75v-855q0 -20 -7 -37t-19 -29t-29 -18t-36 -6q-20 0 -36.5 6t-28.5 18 t-19 29t-7 37v828q0 27 -9 49.5t-26 37.5t-42 24t-59 9q-49 0 -80.5 -14t-57.5 -40q16 -16 25 -34t9 -46v-534q0 -16 -5 -29t-15 -23t-23 -16t-29 -6h-120q-16 0 -29 6t-22.5 16t-15 23t-5.5 29z" />
<glyph unicode="&#xe27;" horiz-adv-x="653" d="M46 599q-4 17 0 35q8 52 28 99.5t54 83t80 56t106 20.5q44 0 82 -9.5t71 -31t59 -56t44.5 -85.5t28 -118t9.5 -155q0 -46 -4.5 -96.5t-17 -100t-33.5 -95.5t-53 -80.5t-77 -55t-105 -20.5q-48 0 -87 12t-70 34t-53.5 53t-37.5 69q-7 18 -5.5 36t10.5 33t24 26.5t35 16.5 q18 4 34.5 3t31 -8.5t25.5 -21t19 -35.5q10 -29 28 -46q18 -18 46 -18q26 0 45 23t32 64t19 94t6 113q0 20 -1 51t-4 64t-9.5 66.5t-18.5 60t-30.5 43.5t-44.5 17q-20 0 -35.5 -12t-26.5 -31t-18.5 -43t-11.5 -50q-3 -20 -12.5 -35t-23.5 -24t-31 -13t-35 0q-20 4 -35 13.5 t-24 23t-13 30.5z" />
<glyph unicode="&#xe28;" horiz-adv-x="780" d="M80 81v560q0 60 23 107.5t64 80t98 49.5t124 17q77 0 141 -23q5 4 10.5 9.5t10 12l9 13t6.5 11.5q8 17 23 26.5t32 12.5t35 0t34 -14q15 -10 24.5 -25.5t12.5 -32.5t-0.5 -34t-14.5 -33q-8 -10 -21 -22q-13 -14 -31 -22q18 -28 28 -61t10 -72v-560q0 -20 -7 -37t-19 -29 t-28 -18.5t-36 -6.5t-36 6.5t-28 18.5t-19 28.5t-7 37.5v533q0 28 -6.5 51t-22 40t-40 27t-60.5 10t-60.5 -9.5t-39.5 -26t-21 -40.5t-6 -52v-126q22 20 46.5 33t55.5 18q40 7 64.5 -11t32.5 -52q4 -18 0.5 -34t-12.5 -30t-23 -23.5t-30 -11.5q-32 -4 -57 -16.5t-42 -32 t-26 -45t-9 -55.5v-147q0 -20 -7 -37t-19 -29t-29 -18.5t-36 -6.5q-20 0 -36.5 6.5t-28.5 18.5t-19 28.5t-7 37.5z" />
<glyph unicode="&#xe29;" horiz-adv-x="782" d="M82 238v566q0 20 7 37t19 29t29 18t36 6q20 0 36.5 -6t28.5 -18t19 -29t7 -37v-550q0 -54 32 -81t93 -27q58 0 92.5 26t34.5 82v144h-124q-16 0 -30.5 6t-25 17t-16.5 25t-6 30v72q0 16 6 31t16.5 25.5t25 17t30.5 6.5t30.5 -6.5t25 -17t16.5 -24.5q7 -16 7 -32v-6h45 v262q0 20 7 37t19 29t29 18t36 6q20 0 36.5 -6t28.5 -18t19 -29t7 -37v-262h14q15 0 28.5 -5.5t23 -15t15 -23t5.5 -28.5t-5.5 -28.5t-15 -23t-23 -15t-28.5 -5.5h-14v-160q0 -62 -27.5 -108t-72 -77t-99.5 -46t-110 -15q-37 0 -74 7t-71 20.5t-64 34t-51.5 47.5t-34 61 t-12.5 76z" />
<glyph unicode="&#xe2a;" horiz-adv-x="766" d="M43 254q0 9 1 25t5.5 35.5t12.5 41.5t24 44t39 40.5t57 32.5q12 5 37.5 13t56.5 17.5t64.5 20t62 20t49 18t25.5 14.5q6 4 8.5 10t4 15t2 18.5t0.5 19.5q0 29 -7 48.5t-21 31t-35 16.5t-50 5q-52 0 -81.5 -21t-41.5 -63q-6 -19 -17 -33.5t-26 -23.5t-33 -11t-36 2t-32 15 t-23 26t-11 33t2 36q14 50 44 86t71 60t91 35.5t105 11.5q38 0 68.5 -4.5t56.5 -12.5q9 7 17.5 17.5t12.5 24.5q5 18 19 28t32 13t37.5 -1t35.5 -15q15 -10 24.5 -25.5t12.5 -32.5t-0.5 -34t-14.5 -33q-8 -10 -20 -22t-30 -20q19 -35 25.5 -71t6.5 -64v-560q0 -20 -7 -37 t-19 -29t-29 -18.5t-37 -6.5t-36 6.5t-28.5 18.5t-19 28.5t-6.5 37.5v349q-8 -6 -15 -9.5t-12.5 -6t-11 -4.5t-13.5 -4q-16 -6 -37.5 -12.5t-44 -13.5t-44.5 -14.5t-38 -15.5q-13 -6 -22.5 -16t-15.5 -23t-9 -28t-3 -31q0 -22 6 -41t18 -32.5t30 -20.5q19 -6 43 -4 q36 4 61.5 -11.5t31.5 -49.5q4 -28 -3 -47t-22.5 -30.5t-36 -16.5t-42.5 -5q-69 0 -120 17t-84 50t-49 81.5t-16 111.5z" />
<glyph unicode="&#xe2b;" horiz-adv-x="780" d="M82 81v723q0 20 7 37t19 29t29 18t36 6q20 0 36.5 -6t28.5 -18t19 -29t7 -37v-190l314 263q12 10 27 14.5t30 3.5t29 -8t24 -19t15 -27t3.5 -30t-8.5 -29q-8 -14 -20 -25l-79 -67q28 -20 46.5 -44.5t30 -54t16 -64.5t4.5 -77v-369q0 -20 -6.5 -37t-19 -29t-28.5 -19 q-16 -6 -36 -6t-37 6.5t-29 18.5t-19 28.5t-7 37.5v367q0 40 -11 74q-11 36 -40 56l-199 -167v-330q0 -20 -7 -37t-19 -29t-29 -18.5t-36 -6.5q-20 0 -36.5 6.5t-28.5 18.5t-19 28.5t-7 37.5z" />
<glyph unicode="&#xe2c;" horiz-adv-x="961" d="M48 790q-2 19 3 37t16 32t27 23.5t36 11.5t37 -3t31 -16t23.5 -27t11.5 -36l41 -368l6 -143l36 141l62 224q4 14 10 25t15 20t21.5 14t28.5 5t28 -5t21.5 -14t15.5 -20t10 -25l60 -224l40 -158l10 157l22 153q4 26 5.5 50t-2.5 43.5t-15.5 33.5t-35.5 21q-24 6 -40 26 q-16 22 -16 48q0 14 4.5 26t13 22t20 17t24.5 9q44 8 78 28q34 18 50 50q10 17 25 28.5t33 16.5t36.5 3t35.5 -12t28.5 -24.5t16.5 -32t3 -36.5t-12 -37q-18 -32 -43 -52t-52 -32q14 -18 22.5 -35.5t12.5 -37t3 -42.5t-5 -49l-93 -556q-3 -19 -12 -34.5t-22.5 -25.5t-30 -15 t-34.5 -5q-38 0 -62 20q-25 22 -37 60l-109 346l-106 -348q-12 -38 -36.5 -58t-60.5 -20q-18 0 -34.5 5t-29.5 15t-22 24.5t-11 33.5z" />
<glyph unicode="&#xe2d;" horiz-adv-x="782" d="M70 462q0 16 6 29t16 23t24 16q12 6 28 6h168q16 0 30 -6t24 -16t16 -24q6 -12 6 -28t-6 -29.5t-16 -24t-24 -16t-30 -5.5h-56q2 -54 9.5 -99.5t22.5 -77.5t39.5 -50t61.5 -18q40 0 66.5 21.5t41.5 60.5t21 92.5t6 117.5q0 83 -7 140.5t-24 94t-42.5 53t-61.5 16.5 q-18 0 -36 -5t-33.5 -14.5t-27.5 -25t-19 -36.5q-6 -18 -19.5 -29.5t-30 -16.5t-35 -4t-36.5 10q-16 8 -27.5 21.5t-17 30t-4.5 34t9 35.5q17 38 45.5 66t64.5 47.5t78.5 29.5t88.5 10q84 0 144.5 -28.5t100 -82.5t58 -132t18.5 -175q0 -94 -10 -166.5t-29 -126.5t-47 -90.5 t-64 -59t-79 -32.5t-92 -10q-72 0 -130.5 22t-100.5 77t-65 146t-23 229z" />
<glyph unicode="&#xe2e;" horiz-adv-x="782" d="M70 462q0 16 6 29t16 23t24 16q12 6 28 6h168q16 0 30 -6t24 -16t16 -24q6 -12 6 -28t-6 -29.5t-16 -24t-24 -16t-30 -5.5h-56q2 -54 9.5 -99.5t22.5 -77.5t39.5 -50t61.5 -18q40 0 66.5 21.5t41.5 60.5t21 92.5t6 117.5q0 83 -7 140.5t-24 94t-42.5 53t-61.5 16.5 q-18 0 -36 -5t-33.5 -14.5t-27.5 -25t-19 -36.5q-6 -18 -19.5 -29.5t-30 -16.5t-35 -4t-36.5 10q-16 8 -27.5 21.5t-17 30t-4.5 34t9 35.5q17 38 45.5 66t64.5 47.5t78.5 29.5t88.5 10q76 0 135 -25q11 7 19.5 20.5t12.5 29.5q5 18 19.5 28.5t32.5 13t38 -1.5q18 -4 34 -14 q15 -10 25 -25t13.5 -32t-0.5 -35t-14 -32q-4 -6 -11 -12.5t-15 -13.5t-17 -13.5t-19 -10.5q36 -54 52 -128t16 -167q0 -94 -10 -166.5t-29 -126.5t-47 -90.5t-64 -59t-79 -32.5t-92 -10q-72 0 -130.5 22t-100.5 77t-65 146t-23 229z" />
<glyph unicode="&#xe2f;" horiz-adv-x="753" d="M45 666q0 40 11.5 71.5t30.5 56t45 41.5t54 28t57 16t56 5h41q17 0 31 -6t23.5 -16t15.5 -24q6 -12 6 -28t-5 -30t-15 -24t-24 -16t-32 -5q-15 0 -34.5 -2t-36.5 -9.5t-29 -21.5t-12 -38q0 -16 5 -32.5t19 -29t37 -20.5t59 -8q80 0 121 27t41 87v116q0 20 7 37t19 29 t28 18t36 6t36 -6t28 -18t19 -29t7 -37v-723q0 -20 -7 -37t-19 -29t-28 -18.5t-36 -6.5t-36 6.5t-28 18.5t-19 28.5t-7 37.5v380q-32 -22 -73.5 -32.5t-86.5 -10.5q-75 0 -132.5 18t-95.5 50t-57.5 78t-19.5 102z" />
<glyph unicode="&#xe30;" horiz-adv-x="475" d="M64 182v86q0 17 6 31t16 24t24 15.5t30 5.5t30 -5.5t24.5 -15.5t16.5 -24.5t6 -30.5v-16h155q14 0 26 -6.5t22 -16.5t15 -23.5t5 -27.5t-5 -27.5t-15 -23.5t-22 -16.5t-26 -6.5h-232q-16 0 -30 6t-24 16t-16 24t-6 32zM64 638v86q0 17 6 31.5t16 24.5t24 16t30 6t30 -6 t24.5 -16t16.5 -24t6 -32v-16h155q14 0 26 -6t22 -16t15 -23.5t5 -27.5t-5 -27.5t-15 -23.5t-22 -16t-26 -6h-232q-16 0 -30 5.5t-24 15.5t-16 24.5t-6 30.5z" />
<glyph unicode="&#xe31;" d="M-492 1078v76q0 17 6 31.5t16.5 24.5t24 16t29.5 6t30 -6t24 -16t16 -24t6 -32v-9h326q14 0 26.5 -6t22 -15.5t14.5 -23t5 -27.5t-5 -27t-14.5 -23t-22 -15.5t-26.5 -5.5h-401q-16 0 -30 5.5t-24.5 15.5t-16.5 24.5t-6 30.5z" />
<glyph unicode="&#xe32;" horiz-adv-x="623" d="M14 688q-2 16 4 34q14 42 41 75t61 54.5t73 32.5t79 11q60 0 110.5 -16.5t86 -49.5t55 -83t19.5 -118v-547q0 -20 -6.5 -37t-19 -29t-29 -18.5t-36.5 -6.5t-36.5 6.5t-29 18.5t-19.5 28.5t-7 37.5v547q0 56 -22 85t-66 29q-31 0 -52.5 -20t-31.5 -58q-5 -18 -16.5 -31 t-27.5 -20t-34 -8.5t-36 4.5t-31 18t-20.5 27.5t-8.5 33.5z" />
<glyph unicode="&#xe33;" horiz-adv-x="623" d="M-338 1108q0 34 13 64.5t35 53t52 35.5t64 13t64.5 -13t53 -35.5t35.5 -53t13 -64.5t-13 -64t-35.5 -52t-53 -35t-64.5 -13t-64 13t-52 35t-35 52t-13 64zM-228 1108q0 -10 4.5 -20t12 -17.5t17 -12t20.5 -4.5q12 0 22 4.5t17 12t11.5 17.5t4.5 20q0 12 -4.5 22t-11.5 17 t-17 12t-22 5q-11 0 -20.5 -5t-17 -12t-12 -17t-4.5 -22zM14 688q-2 16 4 34q14 42 41 75t61 54.5t73 32.5t79 11q60 0 110.5 -16.5t86 -49.5t55 -83t19.5 -118v-547q0 -20 -6.5 -37t-19 -29t-29 -18.5t-36.5 -6.5t-36.5 6.5t-29 18.5t-19.5 28.5t-7 37.5v547q0 56 -22 85 t-66 29q-31 0 -52.5 -20t-31.5 -58q-5 -18 -16.5 -31t-27.5 -20t-34 -8.5t-36 4.5t-31 18t-20.5 27.5t-8.5 33.5z" />
<glyph unicode="&#xe34;" d="M-702 1065q0 15 6 28t15.5 23t22.5 15t28 5h488q15 0 28.5 -5t23 -15t15 -23t5.5 -28t-5.5 -28t-15 -23t-22.5 -15t-29 -5h-488q-15 0 -28 5t-22.5 15t-15.5 23t-6 28z" />
<glyph unicode="&#xe35;" d="M-702 1065q0 15 6 28t15.5 23t22.5 15t28 5h388v62q0 16 7 30t18 24.5t25 15.5q16 6 32 6t31 -5.5t26 -16t17 -24.5t6 -30v-133q0 -15 -5.5 -28t-15 -23t-22.5 -15t-29 -5h-478q-15 0 -28 5t-22.5 15t-15.5 23t-6 28z" />
<glyph unicode="&#xe36;" d="M-702 1065q0 15 6 28t15.5 23t22.5 15t28 5h292q0 29 11.5 55.5t31 46t45.5 31t56 11.5q29 0 55 -11.5t45.5 -31t31 -45.5t11.5 -56q0 -29 -11.5 -54.5t-31 -45.5t-46 -31t-54.5 -11h-436q-15 0 -28 5t-22.5 15t-15.5 23t-6 28zM-240 1134q0 -18 14 -31t32 -13t31 13 t13 31t-13 32t-31 14t-32 -14t-14 -32z" />
<glyph unicode="&#xe37;" d="M-702 1065q0 15 6 28t15.5 23t22.5 15t28 5h208v66q0 16 5.5 29.5t15 23t22.5 14.5t29 5q15 0 27.5 -5t22.5 -15t16 -23t6 -29v-66h55v66q0 16 5.5 29.5t15.5 23t23 14.5t27 5q15 0 28.5 -5t23 -15t15 -23t5.5 -29v-137q0 -15 -5.5 -28t-15 -23t-22.5 -15t-29 -5h-478 q-15 0 -28 5t-22.5 15t-15.5 23t-6 28z" />
<glyph unicode="&#xe38;" d="M-320 -177q0 14 5 26t13.5 21t21 14.5t26.5 5.5h108q15 0 27 -5.5t20.5 -14.5t13.5 -21.5t5 -25.5v-209q0 -18 -6 -33t-17 -25t-25 -16q-16 -6 -32 -6t-30.5 5.5t-25.5 16t-17.5 25.5t-6.5 33v142h-14q-15 0 -27 5.5t-20.5 14.5t-13.5 21.5t-5 25.5z" />
<glyph unicode="&#xe39;" d="M-578 -177q0 14 5 26t13.5 21t21 14.5t26.5 5.5h108q15 0 27 -5.5t20.5 -14.5t13.5 -21.5t5 -25.5v-103q0 -64 52 -64q50 0 50 64v102q0 17 6.5 31.5t17 24.5t24.5 16t30 6t30.5 -5.5t25 -16t16.5 -24.5t6 -32v-102q-1 -40 -12 -76t-35.5 -63.5t-63.5 -43.5t-95 -16 q-57 0 -96.5 16t-63.5 43.5t-36 63.5t-12 76v36h-18q-15 0 -27 5.5t-20.5 14.5t-13.5 21.5t-5 25.5z" />
<glyph unicode="&#xe3a;" d="M-280 -219q0 22 8 41.5t21 34t31.5 23t39.5 8.5q22 0 41.5 -8.5t34 -23t22.5 -33.5t8 -42q0 -21 -8 -39t-22.5 -32t-34 -22t-41.5 -8q-21 0 -39.5 8t-31.5 22t-21 32t-8 39z" />
<glyph unicode="&#xe3e;" />
<glyph unicode="&#xe3f;" horiz-adv-x="862" d="M86 99v847q0 20 8 38t21 31t31 21t39 8h183v43q0 14 5 24.5t13 18.5t19 12t23 4q25 0 42.5 -15.5t17.5 -43.5v-43q74 -2 128 -22t88.5 -56t51 -85.5t16.5 -108.5q0 -36 -4 -67t-14.5 -57.5t-29 -49t-46.5 -39.5q30 -17 53 -42t38 -55t22 -66q7 -34 7 -72q2 -156 -76 -238 q-76 -82 -234 -86v-112q0 -28 -17.5 -44t-42.5 -16q-12 0 -23 4t-19 12t-13 19t-5 25v112h-183q-20 0 -38.5 8t-31.5 21t-21 31t-8 39zM274 164h94v299h-94v-299zM274 622h94v256h-94v-256zM488 164q63 6 90.5 42.5t27.5 107.5q0 39 -9 65t-25.5 42.5t-38 25t-45.5 12.5 v-295zM488 631q20 4 36 13.5t27 24.5t17 37t6 52q0 26 -5 45t-15 32.5t-26 22.5q-16 8 -40 14v-241z" />
<glyph unicode="&#xe40;" horiz-adv-x="309" d="M64 81v723q0 20 7 37t19 29t29 18t36 6q20 0 36.5 -6t28.5 -18t19 -29t7 -37v-723q0 -20 -7 -37t-19 -29t-29 -18.5t-36 -6.5q-20 0 -36.5 6.5t-28.5 18.5t-19 28.5t-7 37.5z" />
<glyph unicode="&#xe41;" horiz-adv-x="585" d="M64 81v723q0 20 7 37t19 29t29 18t36 6q20 0 36.5 -6t28.5 -18t19 -29t7 -37v-723q0 -20 -7 -37t-19 -29t-29 -18.5t-36 -6.5q-20 0 -36.5 6.5t-28.5 18.5t-19 28.5t-7 37.5zM340 81v723q0 20 7 37t19 29t29 18t37 6t36 -6t28.5 -18t19 -29t6.5 -37v-723q0 -20 -6.5 -37 t-19 -29t-28.5 -19q-16 -6 -36 -6t-37 6.5t-29 18.5t-19 28.5t-7 37.5z" />
<glyph unicode="&#xe42;" horiz-adv-x="386" d="M-30 1189q0 17 6.5 32t17.5 26.5t26 18t32 6.5h374q15 0 27.5 -6t22.5 -15.5t16 -22.5t6 -28t-6 -28t-16 -22.5t-23 -15.5t-27 -6h-211q30 -25 45.5 -60.5t15.5 -80.5v-839h35q16 0 28.5 -6t22.5 -16t16 -24q5 -12 5 -28t-5.5 -29t-15.5 -23t-23 -16t-28 -6h-145 q-16 0 -29 6t-22.5 16t-15 23t-5.5 29v905q0 22 -6 43t-16 38.5t-24 31.5t-32 24q-20 10 -33 29t-13 44z" />
<glyph unicode="&#xe43;" horiz-adv-x="380" d="M-79 1097q-2 17 2 35q12 45 36.5 76.5t57.5 52.5t71.5 30t79.5 9q46 0 88 -11t74.5 -34.5t52 -58.5t19.5 -82q0 -26 -6 -46t-18 -39.5t-30.5 -39t-44.5 -45.5q-12 -12 -18.5 -24t-9.5 -24t-4 -26q-1 -12 -1 -28v-694h35q16 0 28.5 -6t22.5 -16t16 -24q5 -12 5 -28 t-5.5 -29t-15.5 -23t-23 -16t-28 -6h-145q-16 0 -29 6t-22.5 16t-15 23t-5.5 29v754q0 39 4.5 69.5t14.5 55.5t26 46t39 41q9 8 19.5 17t19.5 17.5t15 17t6 16.5q0 16 -16 27.5t-42 11.5q-12 0 -24.5 -2.5t-24 -9t-20.5 -18.5q-9 -11 -15 -31q-5 -18 -15.5 -31.5t-25 -22 t-31.5 -10.5q-16 -2 -34 3q-18 4 -31 15t-21.5 25.5t-10.5 31.5z" />
<glyph unicode="&#xe44;" horiz-adv-x="386" d="M-112 1200q0 15 6 28t15.5 22.5t22.5 15.5t28 6h358q17 0 32.5 -6.5t26.5 -18t17 -26.5t6 -32q0 -24 -12 -43.5t-33 -29.5q-18 -9 -32.5 -23.5t-24.5 -32t-16 -38t-6 -43.5v-831h35q16 0 28.5 -6t22.5 -16t16 -24q5 -12 5 -28t-5.5 -29t-15.5 -23t-23 -16t-28 -6h-145 q-16 0 -29 6t-22.5 16t-15 23t-5.5 29v913q0 45 16 81t46 60h-196q-15 0 -28 6t-22.5 15.5t-15.5 22.5t-6 28z" />
<glyph unicode="&#xe45;" horiz-adv-x="623" d="M14 688q-2 16 4 34q14 42 41 75t61 54.5t73 32.5t79 11q60 0 110.5 -16.5t86 -49.5t55 -83t19.5 -118v-834q0 -20 -6.5 -37t-19 -29t-29 -18t-36.5 -6t-36.5 6t-29 18t-19.5 29t-7 37v834q0 56 -22 85t-66 29q-31 0 -52.5 -20t-31.5 -58q-5 -18 -16.5 -31t-27.5 -20 t-34 -8.5t-36 4.5t-31 18t-20.5 27.5t-8.5 33.5z" />
<glyph unicode="&#xe46;" horiz-adv-x="737" d="M49 618q0 49 9.5 93.5t33.5 81t64 63.5q42 26 102 39q4 1 10 1.5t12.5 0t13.5 -3.5t13 -9l49 -54l43 53q5 6 11.5 9.5t13 4.5t12.5 1t10 -1q48 -8 82 -24t58 -39.5t38 -52t21 -61t10 -67.5t3 -71v-788q0 -20 -7 -37t-19 -29t-29 -18t-37 -6t-36 6t-28.5 18t-19.5 29 t-7 37v802q0 16 -1.5 34t-3.5 35t-7 31t-11 21l-56 -65l-8.5 -8.5t-8.5 -7t-9.5 -4t-13.5 -1.5q-16 0 -24 5q-6 6 -14 16l-58 65q-16 -16 -21 -44q-5 -29 -3 -61q0 -12 2 -25t8 -23t16 -17q8 -7 22 -7q18 0 33.5 -6t27 -17t18.5 -27q7 -14 7 -34q0 -18 -7 -33.5t-19 -27 t-29 -18.5t-37 -7q-42 -2 -83 13.5t-73 47t-52 79.5q-21 46 -21 108z" />
<glyph unicode="&#xe47;" d="M-706 1190q0 40 9 71t24 54t36 38.5t44 25t47 13.5t46 4h374q13 0 24.5 -5t19.5 -13.5t13 -20t5 -24.5t-5 -24.5t-13 -20t-20 -13.5t-24 -5h-368q-18 0 -30 -6.5t-20 -17t-11.5 -24.5t-3.5 -30q0 -14 2.5 -27t7.5 -24t14 -17t23 -6q20 0 31 13t15 40q4 25 21 39t41 14 q11 0 21.5 -3t18.5 -10t14 -17q4 -10 6 -22q3 -28 12.5 -41t31.5 -13q18 0 29 11t13 31q0 15 7 27.5t18 21.5t25 13t28 2q15 -2 27 -8t20.5 -16t12.5 -24t4 -30q-3 -46 -18.5 -77t-38 -49t-51.5 -25q-28 -7 -60 -4q-21 1 -39 7t-32.5 15.5t-26.5 21t-22 24.5 q-8 -12 -20 -24.5t-28 -22t-34 -15.5t-40 -6q-47 0 -81.5 16t-56.5 43.5t-32 63.5t-10 76z" />
<glyph unicode="&#xe48;" d="M-236 1388v105q0 17 6 31t17 24t25 16t30 6t29.5 -6t24 -16t16.5 -24t6 -31v-105q0 -17 -6 -31.5t-16.5 -24.5t-24.5 -16q-13 -5 -29 -5t-30 5.5t-25 16t-17 24.5t-6 31z" />
<glyph unicode="&#xe49;" d="M-500 1518q0 24 16 41.5t43 17.5h100q27 0 43 -17q16 -18 16 -42v-68q46 5 78 28.5t44 61.5q4 14 13.5 24t22 16t26.5 7t27 -3q14 -4 23.5 -14t15.5 -22t7 -25.5t-4 -27.5q-13 -36 -37.5 -67t-60 -54t-80.5 -36.5t-98 -14.5h-52q-26 0 -43 17q-16 18 -16 42v78h-25 q-26 0 -42.5 17t-16.5 41z" />
<glyph unicode="&#xe4a;" d="M-574 1378q4 44 16 74t30 48.5t40 27t46 8.5q32 0 54 -15t36 -36q14 22 38 36.5t58 14.5q22 0 40 -4.5t32.5 -15t24.5 -27.5q9 -17 15 -41q8 12 15 28t10 38q2 13 9.5 23t17.5 16.5t23 8.5t25 -1t23 -10t17 -17.5t9 -23t-1 -24.5q-9 -34 -26.5 -66t-41.5 -56t-54 -38.5 t-64 -14.5q-30 0 -48 17t-22 42q-2 9 -4 17t-5 14.5t-8 10t-9 3.5q-14 0 -20 -13q-6 -14 -8 -38q-2 -18 -15 -31t-33 -13t-33 13t-14 31q-2 23 -8.5 37t-19.5 14q-6 0 -10.5 -4.5t-7.5 -11.5t-5.5 -16.5t-3.5 -19.5q-1 -12 -7 -22.5t-15 -17.5t-20.5 -10t-23.5 -1t-22.5 7.5 t-17.5 14.5t-10.5 20.5t-1.5 23.5z" />
<glyph unicode="&#xe4b;" d="M-358 1497q0 12 4.5 23.5t12.5 20t19.5 13t25.5 4.5h75v52q0 14 5.5 26.5t14.5 21.5t21 14t26 5t26.5 -5t22 -14t14.5 -21.5t5 -26.5v-52h76q14 0 25 -4.5t19 -13t12.5 -19.5t4.5 -24t-4.5 -24t-12.5 -19.5t-20 -13.5q-10 -4 -24 -4h-76v-52q0 -14 -5 -26.5t-14.5 -21.5 t-22 -14t-26.5 -5t-26 5t-21 14t-14.5 21.5t-5.5 26.5v52h-75q-14 0 -26 4.5t-20 13t-12 19.5t-4 24z" />
<glyph unicode="&#xe4c;" d="M-222 1297.5q0 14.5 5 28.5q10 30 31.5 56t51 47t66 35t78.5 20q12 2 25 -1t22.5 -10t16.5 -17q6 -12 8 -24q2 -13 -1 -24.5t-10 -21.5t-17 -17t-23 -8q-47 -6 -76 -29.5t-37 -59.5q-4 -15 -14 -24.5t-23 -15t-28 -6t-29 4.5q-15 6 -25.5 16t-15.5 23t-5 27.5z" />
<glyph unicode="&#xe4d;" d="M-338 1108q0 34 13 64.5t35 53t52 35.5t64 13t64.5 -13t53 -35.5t35.5 -53t13 -64.5t-13 -64t-35.5 -52t-53 -35t-64.5 -13t-64 13t-52 35t-35 52t-13 64zM-228 1108q0 -10 4.5 -20t12 -17.5t17 -12t20.5 -4.5q12 0 22 4.5t17 12t11.5 17.5t4.5 20q0 12 -4.5 22t-11.5 17 t-17 12t-22 5q-11 0 -20.5 -5t-17 -12t-12 -17t-4.5 -22z" />
<glyph unicode="&#xe4e;" d="M-372 1114q4 28 15 53t28 45t41 34q26 14 58 22q5 28 19.5 54t38.5 45t57 31t75 12q13 0 25 -3.5t21.5 -10t16.5 -16.5t9 -22q2 -13 -1 -25.5t-10 -23t-17.5 -17t-23.5 -6.5q-23 -1 -38.5 -8t-24.5 -19t-12.5 -29t-3.5 -38q0 -15 -7.5 -23t-27.5 -8q-45 0 -66 -19 q-22 -18 -24 -58q-1 -16 -9.5 -28t-21 -20t-27.5 -11t-30 1q-16 3 -28 11.5t-20 20t-11 26t-1 30.5z" />
<glyph unicode="&#xe4f;" horiz-adv-x="1044" d="M62 452q0 64 16 123t46 110.5t72 93.5t93 72t110 46.5t123 16.5t123 -16.5t110 -46.5t93 -72t72 -93.5t46.5 -110.5t16.5 -123t-16.5 -123t-46.5 -110t-72 -93t-93 -72t-110 -46t-123 -16t-123 16t-110 46t-93 72t-72 93t-46 110t-16 123zM194 454q0 -45 12 -86.5 t33.5 -78t51 -66t66.5 -51.5t78.5 -33.5t86.5 -11.5t87 11.5t78.5 33.5t66.5 51.5t51 66t33 78.5t12 86q0 45 -12 87.5t-33 78.5t-51 66t-66.5 51.5t-78.5 33t-87 11.5t-86.5 -11.5t-78.5 -33t-66.5 -51.5t-51 -66t-33.5 -78.5t-12 -87.5zM291 454q0 48 18.5 90t49.5 74 t73 50t90 18t90 -18t73.5 -50t50 -74t18.5 -90t-18.5 -90t-50 -73t-73.5 -49.5t-90 -18.5t-90 18.5t-73 49.5t-49.5 73t-18.5 90zM408 454q0 -24 9 -44.5t24 -36t36 -24.5t45 -9t45 9t36.5 24.5t24.5 36t9 44.5t-9 45t-24.5 37t-36.5 25t-45 9t-45 -9t-36 -25t-24 -37 t-9 -45z" />
<glyph unicode="&#xe50;" horiz-adv-x="895" d="M43 406q0 86 26.5 155t78.5 118t127 75t171 26t171 -26t127 -75t79 -118t27 -155q0 -81 -14 -144t-40 -109.5t-62.5 -79t-81 -52.5t-96.5 -28.5t-110 -8.5q-86 0 -159 20.5t-127.5 69.5t-85.5 130q-31 82 -31 202zM223 377q0 -54 15.5 -98.5t44.5 -75.5t71 -49 q40 -17 92 -17t93 17.5t70 48.5t45 75.5t16 98.5q0 69 -17.5 116.5t-47.5 77t-70.5 42.5t-88.5 13q-46 0 -86.5 -13t-71 -42.5t-48 -77t-17.5 -116.5z" />
<glyph unicode="&#xe51;" horiz-adv-x="887" d="M34 125q-2 15 2 29q4 16 13 28q10 12 23 20t27.5 10t29.5 -2t27 -14q26 -22 56 -35t62 -20t66 -9t66 -1q58 0 105 20t80.5 56.5t52.5 88.5q18 52 18 116q0 49 -13.5 90.5t-41 71.5t-69.5 47.5t-100 17.5q-46 0 -84 -10.5t-65 -28.5t-42 -43t-15 -55q0 -24 7 -45t24 -36.5 t45 -24t71 -6.5q14 0 27.5 -4t24.5 -12.5t17 -19.5q6 -12 8 -27t-2 -28t-12.5 -24t-21 -17.5t-26.5 -8.5q-46 -6 -89 -2t-82 16.5t-71 33.5t-55 50t-35.5 65t-12.5 78q0 52 15 93.5t41.5 74t63 56t79 39t90.5 22.5t96 7q87 0 161.5 -20.5t130 -65t87 -114.5t31.5 -168 q0 -93 -28 -171.5t-82.5 -135.5t-136 -89t-187.5 -32q-41 0 -85.5 3t-89.5 12t-88 27t-83 47q-12 9 -20 22t-10 28z" />
<glyph unicode="&#xe52;" horiz-adv-x="1032" d="M-19 789q-1 15 4 29q5 17 16 29.5t25.5 19.5t31 9.5t34.5 -0.5q34 -6 61 -23.5t45 -46t28 -66.5q10 -36 10 -82v-328q0 -38 18.5 -71.5t55.5 -58t92.5 -38.5t127.5 -14q69 0 118 13t79.5 34.5t44.5 49.5t14 58v229q0 40 -13 62t-40 30l-113 -96l-110 92q-8 -2 -17 -9 t-16 -19t-11.5 -27t-4.5 -33v-55q0 -18 1 -35.5t5.5 -31.5t12.5 -23t22 -10q15 0 28.5 -6t23 -15.5t15 -23t5.5 -28.5t-5.5 -28.5t-15 -23t-23.5 -15t-28 -5.5q-52 -1 -88 9.5t-60 30t-38 45t-21.5 52t-9.5 53.5q-3 26 -3 47v53q0 45 15 86.5t43 75t69 58t93 34.5 q5 1 12 2.5t15 0.5t16.5 -4t18.5 -11l54 -47l52 44q8 7 14.5 11t13 5.5t14.5 1t20 -2.5q53 -8 96.5 -27.5t74.5 -49.5t48 -69.5t17 -84.5v-217q0 -59 -14 -107t-41 -85.5t-63.5 -64.5t-80.5 -44.5t-94.5 -26t-102.5 -8.5h-72q-106 0 -190 25t-141 71t-86.5 111t-29.5 145 v287q0 18 -0.5 32.5t-3.5 25.5t-9 19t-18 12q-14 5 -22.5 15.5t-13 24.5t-5.5 29z" />
<glyph unicode="&#xe53;" horiz-adv-x="909" d="M49 342v76q0 78 15 137t44.5 102.5t73.5 71t102 42.5q8 2 20 4.5t25.5 2.5t29 -5t30.5 -17l71 -58l72 60q14 11 27 15.5t25.5 5t23.5 -1.5q10 -1 18 -3q60 -13 104 -40.5t73 -64.5t43 -83t14 -96v-409q0 -20 -7 -36.5t-19.5 -28.5t-29 -19t-35.5 -7t-35.5 6.5t-29 18.5 t-19.5 28.5t-7 37.5v409q0 27 -7 48.5t-18 37.5t-26 26t-31 12l-138 -108l-136 108q-14 -2 -30.5 -12t-30 -32t-21.5 -57t-8 -87v-98q0 -38 3 -74t15.5 -61t36 -38t62.5 -7q18 2 32 -3t24 -16t15.5 -26t5.5 -32q0 -16 -6 -29.5t-16.5 -23.5t-24.5 -16t-30 -8 q-68 -7 -117 4.5t-82.5 36.5t-53.5 61t-30 77t-13.5 84t-3.5 85z" />
<glyph unicode="&#xe54;" horiz-adv-x="880" d="M43 332v108q0 86 29.5 149t83.5 104t130 60t170 19h134q72 0 83 56q4 20 15.5 34t27.5 22t34 10t36 -3q18 -6 32 -17.5t22 -26.5t10 -33t-2 -37q-8 -32 -26 -61.5t-49 -52t-76 -36t-105 -13.5h-150q-50 0 -90 -8.5t-68 -28t-43 -49.5t-15 -74v-122q0 -37 10 -68.5t32 -55 t56 -38.5q32 -14 78 -16q-18 22 -30 51t-12 67q0 11 2 28t9 35.5t19.5 38t33 35t50.5 26.5q32 11 74 15q16 1 31 -3.5t27 -12.5t20 -21q10 -13 12 -29q6 -32 -11.5 -56.5t-53.5 -34.5q-12 -4 -19.5 -9.5t-11.5 -11.5t-5 -12t-1 -10q0 -21 9 -38.5t22.5 -30.5t30.5 -20t33 -7 h143q16 0 30 -6t25 -17t17 -25t6 -30t-6 -30t-17 -24t-25 -16t-30 -6h-372q-70 0 -124.5 15t-94.5 39.5t-66.5 58t-43 70t-23.5 75t-7 74.5z" />
<glyph unicode="&#xe55;" horiz-adv-x="880" d="M43 332v108q0 68 18.5 122t53.5 93t84.5 65t111.5 38q-4 10 -5 22t-1 25q0 33 12 62t33 50t49.5 33t61.5 12t62 -12t50 -33t33 -50t12 -62q0 -8 -1 -15.5t-3 -15.5q50 8 59 54q4 20 15.5 34t27.5 22t34 10t36 -3q18 -6 32 -17.5t22 -26.5t10 -33t-2 -37q-8 -32 -26 -61.5 t-49 -52t-76 -36t-105 -13.5h-150q-50 0 -90 -8.5t-68 -28t-43 -49.5t-15 -74v-122q0 -37 10 -68.5t32 -55t56 -38.5q32 -14 78 -16q-18 22 -30 51t-12 67q0 11 2 28t9 35.5t19.5 38t33 35t50.5 26.5q32 11 74 15q16 1 31 -3.5t27 -12.5t20 -21q10 -13 12 -29 q6 -32 -11.5 -56.5t-53.5 -34.5q-12 -4 -19.5 -9.5t-11.5 -11.5t-5 -12t-1 -10q0 -21 9 -38.5t22.5 -30.5t30.5 -20t33 -7h143q16 0 30 -6t25 -17t17 -25t6 -30t-6 -30t-17 -24t-25 -16t-30 -6h-372q-70 0 -124.5 15t-94.5 39.5t-66.5 58t-43 70t-23.5 75t-7 74.5zM416 805 q0 -20 13 -33.5t32 -13.5q22 0 35.5 13t13.5 34q0 22 -14 35.5t-35 13.5q-19 0 -32 -13.5t-13 -35.5z" />
<glyph unicode="&#xe56;" horiz-adv-x="921" d="M25.5 755.5q-2.5 16.5 1 32.5t13 29.5t24.5 22.5q15 10 31.5 12t32.5 -1t30 -13t22 -24l58 -93q20 10 45.5 20.5t58 18.5t70.5 14t82 8q78 2 137 -11t103 -39t73 -61t46.5 -76.5t24.5 -86.5q6 -46 6 -92v-68q0 -73 -25 -139.5t-76 -116t-129 -77.5t-183 -25 q-78 2 -141.5 22t-108 54t-68.5 81t-24 103q0 52 19.5 92t55 67t83.5 39t105 8q16 -1 30 -7t23 -16.5t14 -24.5q5 -12 4 -28q-1 -30 -21 -49.5t-56 -19.5q-22 0 -36.5 -5.5t-23 -14.5t-11.5 -21t-3 -26q0 -20 11.5 -38t33.5 -30.5t52.5 -20t69.5 -7.5q46 -1 86.5 12.5 t70.5 39t48 62.5t18 84v66q0 56 -14 95t-40 65t-64 38t-84 12q-36 0 -69 -3.5t-65 -12t-64 -22.5t-65 -34q-8 -4 -19 -10t-25 -6t-30.5 10t-34.5 38l-90 142q-10 15 -12.5 31.5z" />
<glyph unicode="&#xe57;" horiz-adv-x="1073" d="M66 342v76q0 146 58 233t172 119q8 2 20.5 5.5t26.5 4t28.5 -4.5t28.5 -20l46 -49l52 51q12 12 26 16.5t26 5t23 -2t19 -4.5q66 -15 109 -46t67 -76t33.5 -102.5t9.5 -125.5q0 -30 -1 -52t-3.5 -42t-5.5 -39.5t-7 -42.5q24 36 38 76t14 92v244q0 46 9.5 83t27.5 65.5 t44.5 46t61.5 23.5q18 3 34.5 0.5t31.5 -9.5t25 -19q10 -13 16 -30q4 -14 4 -29t-5.5 -29t-15 -24.5t-23.5 -15.5q-11 -4 -17.5 -12t-10.5 -19t-5 -25.5t-1 -32.5v-205q0 -45 -9 -91t-26.5 -89.5t-44.5 -84t-63.5 -73.5t-82.5 -57.5t-102 -36.5q-21 -4 -42.5 0.5t-38.5 17 t-27.5 32t-10.5 43.5q0 15 4.5 29t12.5 26q16 25 25 48.5t13 48.5t4.5 50t0.5 51v82q0 47 -5 80.5t-14.5 55.5t-23.5 34t-33 16l-113 -108l-110 110q-16 -4 -32 -16t-28 -35t-20 -57t-8 -82v-92q0 -38 3.5 -74t16 -61t35.5 -38t63 -7q18 2 32 -3t24 -16t15 -26t5 -32 q0 -16 -6 -29.5t-16 -23.5t-24 -16t-30 -8q-68 -7 -117 4.5t-83 36.5t-53.5 61t-30 77t-13.5 84t-3 85z" />
<glyph unicode="&#xe58;" horiz-adv-x="913" d="M60 282v152q0 79 24 141.5t72 106.5t120 67q70 23 166 23h172q72 0 84 56q4 20 16 34t28 22t35.5 10t37.5 -3q18 -6 31.5 -17.5t22 -26.5t10.5 -33q1 -18 -3 -37q-8 -32 -26 -62t-48 -53.5t-74 -37.5q-46 -14 -106 -14h-194q-48 0 -83 -13t-57.5 -35t-33 -50t-10.5 -58 v-172q0 -24 6 -46t17.5 -38t27 -26t33.5 -12l133 110l139 -110q17 2 30.5 7t23.5 17t15 32t5 52q0 17 -2 32.5t-8 27.5t-18 19t-33 7q-36 0 -55.5 19t-21.5 49q-1 16 4 29t14.5 24t23.5 17t30 7q58 3 104 -6.5t78 -36t49 -72.5t17 -114q0 -62 -12 -110t-39 -82.5t-69 -56 t-102 -27.5q-8 -1 -19 -2t-24 0.5t-27 6.5t-28 15l-75 56l-69 -58q-12 -10 -25 -14t-25 -4t-23 2q-11 0 -19 2q-61 12 -106 39.5t-75 65t-44.5 83.5t-14.5 96z" />
<glyph unicode="&#xe59;" horiz-adv-x="938" d="M62 342v66q0 90 11 160t41.5 118t83.5 73t136 25q23 0 45.5 -2t44.5 -9t42 -18t38 -30q22 26 54 37q30 12 66 10h64q72 0 83 56q4 20 15.5 34t28 22t35 10t36.5 -3q18 -6 32 -17.5t22 -26.5t10 -33t-2 -37q-8 -32 -25 -61t-46.5 -51.5t-73 -35.5t-105.5 -13h-26 q-14 0 -28 -3t-22 -11t-10 -22t8 -38l176 -432q7 -16 7 -34t-6.5 -33t-18.5 -28t-30 -19q-17 -7 -34 -7.5t-32.5 5.5t-27.5 18q-12 14 -20 32l-204 509q-9 22 -19 37.5t-22 24.5t-26 12.5t-31 3.5q-25 0 -41.5 -11.5t-27.5 -37.5t-15 -68t-4 -100v-86q0 -38 3 -73 t15.5 -59.5t36 -37t62.5 -6.5q18 2 32 -2.5t24.5 -15.5t15.5 -26.5t5 -33.5q0 -16 -6 -30t-16.5 -24.5t-24.5 -17t-30 -8.5q-52 -6 -92.5 -1t-71.5 18t-53 34.5t-37 48t-24 57t-14 63t-6 65t-1 63.5z" />
<glyph unicode="&#xe5a;" horiz-adv-x="1026" d="M45 666q0 40 11.5 71.5t30.5 56t45 41.5t54 28t57 16t56 5h41q17 0 31 -6t23.5 -16t15.5 -24q6 -12 6 -28t-5 -30t-15 -24t-24 -15.5t-32 -5.5q-14 0 -33.5 -2.5t-37 -9.5t-29.5 -21t-12 -38q0 -16 5 -32.5t19 -29t37 -20.5t59 -8q80 0 121 27t41 87v116q0 20 7 37t19 29 t28 18t36 6t36 -6t28 -18t19 -29t7 -37v-723q0 -20 -7 -37t-19 -29t-28 -18.5t-36 -6.5t-36 6.5t-28 18.5t-19 28.5t-7 37.5v380q-32 -22 -73.5 -32.5t-86.5 -10.5q-75 0 -132.5 18t-95.5 50t-57.5 78t-19.5 102zM782 81v723q0 20 7 37t19 29t28 18t36 6t36.5 -6t28.5 -18 t18.5 -29t6.5 -37v-723q0 -20 -6.5 -37t-18.5 -29t-28.5 -18.5t-36.5 -6.5t-36 6.5t-28 18.5t-19 28.5t-7 37.5z" />
<glyph unicode="&#xe5b;" horiz-adv-x="1853" d="M63 452q0 47 10 95.5t30.5 94.5t50 86t69 69.5t89 47t108.5 17.5q70 0 123 -22t90 -59t58.5 -86t27.5 -104q2 -16 -2.5 -32t-13.5 -28.5t-23 -21.5t-31 -12q-16 -2 -32 2.5t-28.5 13.5t-21.5 23t-11 30q-10 60 -40 91t-82 35q-50 -1 -86 -21t-60 -53.5t-36 -78.5t-12 -95 t18.5 -96t51.5 -81t79.5 -56t102.5 -21q52 0 95.5 17t78.5 46t61.5 70t44.5 90t28 104t12 113q0 17 7 32.5t18.5 26.5t26.5 17q14 6 32 6q19 0 35.5 -7.5t28.5 -20.5q32 -38 62 -76t54 -77q21 32 35.5 54t25.5 38.5t19 27.5t15 22q11 15 27 15q7 0 13.5 -4t11.5 -10 q13 -18 27 -38t26.5 -39t23 -36t18.5 -29q14 19 23 32t15 22t10.5 15t8.5 11h305q18 0 33 -7t27 -19t19 -28q7 -14 7 -32t-7 -34t-19 -28t-27 -18.5t-33 -6.5h-242q-20 -28 -47 -69.5t-59 -103.5q-4 -6 -9 -8.5t-11 -2.5t-11 3t-9 10q-12 23 -25 46.5t-25 45.5t-23.5 42 t-20.5 34q-23 -38 -47.5 -86t-47.5 -107q-6 -13 -13.5 -19.5t-15.5 -6.5t-16 6.5t-14 20.5q-22 53 -45 99.5t-45 82.5q-18 -90 -62.5 -165t-107 -129.5t-139.5 -84.5t-159 -30q-68 0 -126 17.5t-105 48.5t-83 72.5t-60 90t-36.5 101.5t-12.5 105z" />
<glyph unicode="&#x2000;" horiz-adv-x="838" />
<glyph unicode="&#x2001;" horiz-adv-x="1677" />
<glyph unicode="&#x2002;" horiz-adv-x="838" />
<glyph unicode="&#x2003;" horiz-adv-x="1677" />
<glyph unicode="&#x2004;" horiz-adv-x="559" />
<glyph unicode="&#x2005;" horiz-adv-x="419" />
<glyph unicode="&#x2006;" horiz-adv-x="279" />
<glyph unicode="&#x2007;" horiz-adv-x="279" />
<glyph unicode="&#x2008;" horiz-adv-x="209" />
<glyph unicode="&#x2009;" horiz-adv-x="335" />
<glyph unicode="&#x200a;" horiz-adv-x="93" />
<glyph unicode="&#x200b;" />
<glyph unicode="&#x2010;" horiz-adv-x="585" d="M72 354q0 14 5 27t14 22.5t22 15t30 5.5h300q16 0 29 -5.5t22.5 -15t14.5 -22.5t5 -28q0 -14 -5 -27.5t-14 -22.5t-22 -15t-30 -6h-300q-16 0 -29 6t-22.5 15.5t-14.5 22.5q-5 14 -5 28z" />
<glyph unicode="&#x2011;" horiz-adv-x="585" d="M72 354q0 14 5 27t14 22.5t22 15t30 5.5h300q16 0 29 -5.5t22.5 -15t14.5 -22.5t5 -28q0 -14 -5 -27.5t-14 -22.5t-22 -15t-30 -6h-300q-16 0 -29 6t-22.5 15.5t-14.5 22.5q-5 14 -5 28z" />
<glyph unicode="&#x2012;" horiz-adv-x="585" d="M72 354q0 14 5 27t14 22.5t22 15t30 5.5h300q16 0 29 -5.5t22.5 -15t14.5 -22.5t5 -28q0 -14 -5 -27.5t-14 -22.5t-22 -15t-30 -6h-300q-16 0 -29 6t-22.5 15.5t-14.5 22.5q-5 14 -5 28z" />
<glyph unicode="&#x2013;" horiz-adv-x="731" d="M0 432q0 15 5.5 28t15 22.5t23 15.5t28.5 6h587q15 0 28 -6t23 -15.5t15.5 -22.5t5.5 -28t-5.5 -28t-15.5 -22.5t-23 -15.5t-28 -6h-587q-15 0 -28.5 6t-23 15.5t-15 22.5t-5.5 28z" />
<glyph unicode="&#x2014;" horiz-adv-x="1466" d="M0 432q0 15 5.5 28t15 22.5t23 15.5t28.5 6h1322q15 0 28.5 -6t23 -15.5t15 -22.5t5.5 -28t-5.5 -28t-15 -22.5t-22.5 -15.5t-29 -6h-1322q-15 0 -28.5 6t-23 15.5t-15 22.5t-5.5 28z" />
<glyph unicode="&#x2018;" horiz-adv-x="325" d="M53 832q0 34 5 63t13.5 53t20.5 44t26 36q10 11 23 23.5t28 23t30 17t29 6.5q20 0 31 -11t11 -27q0 -14 -8 -23t-21 -18.5t-29 -20t-30 -26t-25 -38t-15 -54.5q8 6 18 9t23 3q21 0 37 -8t27 -22t17 -32t6 -38q0 -22 -8 -41t-21.5 -34t-31.5 -23t-38 -8q-30 0 -51.5 10 t-36.5 29.5t-22.5 46.5t-7.5 60z" />
<glyph unicode="&#x2019;" horiz-adv-x="325" d="M56 724q0 14 8 23t21 18.5t28.5 20t29.5 26t25 37.5q12 23 16 55q-8 -6 -18 -9t-24 -3q-21 0 -36.5 8t-27 22t-17 32t-5.5 38q0 22 7.5 41t21 34t31.5 23t38 8q30 0 52 -10t37 -29.5t22 -46.5t7 -60q0 -34 -5 -63t-13 -53t-20 -44t-26 -36q-10 -12 -23 -24t-28 -22.5 t-30.5 -17t-29.5 -6.5q-20 0 -30.5 11t-10.5 27z" />
<glyph unicode="&#x201c;" horiz-adv-x="571" d="M50 832q0 34 5 63t13.5 53t20.5 44t26 36q10 11 23 23.5t27.5 23t30.5 17t30 6.5q20 0 30.5 -11t10.5 -27q0 -14 -8.5 -23t-21.5 -18.5t-28 -20t-29 -26t-25.5 -38t-15.5 -54.5q8 6 18 9t23 3q21 0 37 -8t27.5 -22t17 -32t5.5 -38q0 -22 -8 -41t-21.5 -34t-31.5 -23 t-38 -8q-30 0 -52 10t-36.5 29.5t-22 46.5t-7.5 60zM299 832q0 34 5 63t13.5 53t20.5 44t26 36q10 11 23 23.5t28 23t30 17t29 6.5q20 0 31 -11t11 -27q0 -14 -8 -23t-21 -18.5t-29 -20t-30 -26t-25 -38t-15 -54.5q8 6 18 9t23 3q21 0 37 -8t27 -22t17 -32t6 -38 q0 -22 -8 -41t-21.5 -34t-31.5 -23t-38 -8q-30 0 -51.5 10t-36.5 29.5t-22.5 46.5t-7.5 60z" />
<glyph unicode="&#x201d;" horiz-adv-x="571" d="M56 724q0 14 8 23t21 18.5t28.5 20t29.5 26t25 37.5q12 23 16 55q-8 -6 -18 -9t-24 -3q-21 0 -36.5 8t-27 22t-17 32t-5.5 38q0 22 7.5 41t21 34t31.5 23t38 8q30 0 52 -10t37 -29.5t22 -46.5t7 -60q0 -34 -5 -63t-13 -53t-20 -44t-26 -36q-10 -12 -23 -24t-28 -22.5 t-30.5 -17t-29.5 -6.5q-20 0 -30.5 11t-10.5 27zM304 724q0 14 8.5 23t21.5 18.5t28.5 20t29.5 26t25 37.5q11 23 15 55q-8 -6 -18 -9t-22 -3q-21 0 -37.5 8t-27.5 22t-17 32t-6 38q0 22 8 41t21.5 34t31.5 23q19 8 39 8q30 0 51.5 -10t36 -29.5t22.5 -46.5t8 -60 q0 -34 -5 -63t-14 -53t-21 -44t-26 -36q-10 -12 -23 -24t-27.5 -22.5t-30 -17t-29.5 -6.5q-20 0 -31 11t-11 27z" />
<glyph unicode="&#x2022;" horiz-adv-x="608" d="M51 408q0 48 20 91.5t54.5 76t80.5 52t97 19.5q52 0 98 -19.5t80.5 -52t55 -76t20.5 -91.5q0 -50 -20.5 -94.5t-55 -78t-81 -52.5t-97.5 -19q-52 0 -97.5 19t-80 52.5t-54.5 78t-20 94.5z" />
<glyph unicode="&#x202f;" horiz-adv-x="335" />
<glyph unicode="&#x205f;" horiz-adv-x="419" />
<glyph unicode="&#x20ac;" horiz-adv-x="880" d="M16 435q0 13 5 24t14 20t20 14t24 5h43v38v24v26h-43q-13 0 -24 5t-20 13t-14 19.5t-5 24.5t5 24.5t14 19.5t20 13t24 5h53q6 46 18 91t31.5 84t47.5 72.5t66.5 58t88.5 37.5t114 13q70 0 127.5 -21.5t100 -59t68.5 -88.5t34 -110q2 -20 -2.5 -38.5t-15 -33t-25.5 -25 t-35 -13.5q-20 -4 -38.5 0.5t-34 15t-25.5 26t-12 35.5q-3 30 -13.5 56.5t-29.5 46t-46 30.5t-63 11q-40 0 -68 -15.5t-47.5 -41.5t-32.5 -60q-12 -35 -18 -71h132q13 0 24 -5t19.5 -13t13.5 -19.5t5 -24.5t-5 -24.5t-13.5 -19.5t-20 -13t-23.5 -5h-144v-25.5v-22.5v-20v-20 h144q13 0 24 -5t19.5 -14t13.5 -20t5 -24t-5 -24t-13.5 -20t-20 -14t-23.5 -5h-137q5 -42 16 -81t31 -69t50 -48.5t74 -18.5q42 0 71.5 16.5t48 45t27.5 66t9 80.5q0 20 9.5 36.5t25 27t34.5 14.5q19 3 41 -1q20 -4 34.5 -14t24.5 -25t15 -33t4 -38q-4 -70 -27 -132 t-64 -109.5t-101 -75.5q-62 -28 -142 -28q-72 0 -126 14.5t-94 41.5t-67 63t-44.5 79t-27 91t-13.5 98h-47q-13 0 -24 5t-20 14t-14 20t-5 24z" />
<glyph unicode="&#x2122;" horiz-adv-x="1157" d="M46 985q0 25 16 42t44 17h323q27 0 43 -17t16 -42t-16 -42t-43 -17h-99v-430q0 -29 -18 -45.5t-44 -16.5t-43.5 16t-17.5 46v430h-101q-27 0 -43.5 17t-16.5 42zM526 496v470q0 19 7 35.5t20 28t29 18t36 6.5q30 0 53 -16t32 -43l114 -329q17 47 31 87t27 78.5t27 78.5 t32 86q9 26 31.5 42t51.5 16q18 0 34.5 -6t28.5 -18t19 -28t7 -34v-472q0 -29 -17 -45.5t-43 -16.5t-42.5 16t-16.5 46v330l-125 -352q-6 -17 -18.5 -25.5t-29.5 -8.5t-30 9q-12 9 -18 25l-123 352v-330q0 -29 -16.5 -45.5t-42.5 -16.5t-42 16t-16 46z" />
<glyph unicode="&#x25cc;" horiz-adv-x="983" d="M240 420l65 32q-2 -16 -2 -34q0 -17 2 -31zM309 242l25 67q19 -27 45 -47zM322 600l65 -24q-31 -18 -49 -44zM456 604l36 66l30 -64q-14 2 -28 2q-20 0 -38 -4zM461 230q17 -4 33 -4q14 0 26 4l-28 -62zM600 576l74 24l-27 -70q-19 28 -47 46zM602 260q25 17 43 41 l19 -59zM682 391q2 10 2 27q0 16 -2 32l62 -32z" />
<glyph unicode="&#x25fc;" horiz-adv-x="785" d="M0 0v785h785v-785h-785z" />
<glyph unicode="&#xf700;" horiz-adv-x="702" d="M60 460q0 15 5 28.5t15 23t23 15t28 5.5h107q32 0 49 -17t25 -49l56 -218q17 54 28.5 94.5t20 75t14.5 66.5q5 32 11 69q4 36 1.5 70t-14 60.5t-32.5 42.5t-51 16q-40 0 -66.5 -21.5t-40.5 -62.5q-6 -18 -18 -30t-27.5 -19t-33.5 -7t-36 6q-17 6 -29.5 18.5t-19 28 t-7.5 33.5q0 16 6 34q16 39 41 71t59.5 54.5t78 35t95.5 12.5q24 0 48 -3q22 -4 46 -10q10 7 18 18l12 20q10 16 25 26t32 13t35 0q16 -3 32 -13q15 -10 25 -25.5t13.5 -32.5t-0.5 -34.5t-15 -32.5q-8 -10 -17.5 -20.5t-19.5 -17.5q25 -38 38 -91q12 -52 6 -124 q-6 -71 -39 -189.5t-90 -288.5q-6 -22 -17.5 -40t-26.5 -31.5t-36 -21t-46 -7.5t-45 8t-36 21t-27 31t-17 40l-88 299h-27q-15 0 -28 5.5t-23 15.5t-15 23t-5 27z" />
<glyph unicode="&#xf701;" d="M-818 1065q0 15 6 28t15.5 23t22.5 15t28 5h364q15 0 28 -5t22.5 -15t15.5 -23t6 -28t-6 -28t-15.5 -23t-22.5 -15t-28 -5h-364q-15 0 -28 5t-22.5 15t-15.5 23t-6 28z" />
<glyph unicode="&#xf702;" d="M-818 1065q0 15 6 28t15.5 23t22.5 15t28 5h259v62q0 16 6.5 30t17.5 24.5t26 16t31 5.5t31 -5.5t26 -16t17 -24.5t6 -30v-133q0 -15 -5 -28t-15 -23t-23 -15t-28 -5h-349q-15 0 -28 5t-22.5 15t-15.5 23t-6 28z" />
<glyph unicode="&#xf703;" d="M-818 1065q0 15 6 28t15.5 23t22.5 15t28 5h156q0 29 11.5 55.5t31 46t45.5 31t56 11.5q29 0 55 -11.5t45.5 -31t31 -45.5t11.5 -56q0 -29 -11.5 -54.5t-31 -45.5t-46 -31t-54.5 -11h-300q-15 0 -28 5t-22.5 15t-15.5 23t-6 28zM-492 1134q0 -18 14 -31t32 -13t31 13 t13 31t-13 32t-31 14t-32 -14t-14 -32z" />
<glyph unicode="&#xf704;" d="M-818 1065q0 15 6 28t15.5 23t22.5 15t28 5h82v66q0 16 6 29.5t15.5 23t22.5 14.5t28 5t28 -5t22.5 -15t15.5 -23t6 -29v-66h56v66q0 16 5 29.5t15 23t23 14.5t28 5t28 -5t23 -15t15 -23t5 -29v-137q0 -15 -5 -28t-15 -23t-23 -15t-28 -5h-353q-15 0 -28 5t-22.5 15 t-15.5 23t-6 28z" />
<glyph unicode="&#xf705;" d="M-496 1067v159q0 18 6 32t17 25t25 16.5t31 5.5q16 0 30.5 -5.5t25.5 -16.5t17 -25t6 -32v-159q0 -18 -6 -32.5t-17 -25t-25 -16t-31 -5.5q-16 0 -30.5 5.5t-25.5 16t-17 25.5t-6 32z" />
<glyph unicode="&#xf706;" d="M-684 1188q0 26 15 42.5t41 16.5h75q12 0 21.5 -5t17 -13.5t11 -19.5t3.5 -23v-70q18 3 34 11.5t28 21t21 28t13 33.5q6 24 23 37t37 13q16 0 30.5 -7t24 -20t12.5 -30t-3 -39q-10 -36 -31 -67t-51.5 -54t-69 -36t-84.5 -14h-44q-12 0 -22 4.5t-17 13.5t-11 20t-4 24v72 h-16q-25 0 -39.5 17.5t-14.5 43.5z" />
<glyph unicode="&#xf707;" d="M-778 1055q2 42 12 71t26 47.5t35.5 26.5t40.5 8q28 0 46 -14t30 -35q12 22 34 35q20 14 48 14q34 0 59 -20.5t38 -64.5q7 11 12 27t9 38q2 12 8 22t15 16t20 8t21 -1q11 -2 19.5 -9.5t14.5 -17.5t7.5 -22.5t-1.5 -24.5q-8 -34 -22 -64.5t-34 -53.5t-46 -37t-55 -14 q-26 0 -42.5 15t-17.5 42q-3 44 -22 44q-12 0 -17.5 -12.5t-6.5 -36.5q0 -18 -12 -31q-11 -13 -29 -13q-17 0 -28.5 13t-11.5 31q-1 24 -6.5 36.5t-17.5 12.5t-17.5 -14.5t-6.5 -36.5q0 -12 -5 -22t-13 -16.5t-18 -10t-20 -1.5t-19 7t-15 14t-9 20t-3 24z" />
<glyph unicode="&#xf708;" d="M-668 1162q0 24 15 40t43 16h70v56q0 14 5 25.5t13 19t19 12t24 4.5q12 0 23.5 -4.5t19.5 -12.5t13 -19t5 -25v-56h70q14 0 24 -4t17.5 -12t11.5 -18.5t4 -22.5q0 -24 -15 -40.5t-42 -16.5h-70v-55q0 -14 -5 -25.5t-13 -19.5t-20 -12t-24 -4t-23 4t-19.5 12t-13 19 t-4.5 26v55h-70q-14 0 -24.5 4.5t-18 12.5t-11.5 18.5t-4 22.5z" />
<glyph unicode="&#xf709;" d="M-622 1052q0 16 6 30q10 30 32.5 57t53.5 49t69.5 36.5t80.5 18.5q14 2 26 -1t22 -9.5t17 -17.5t9 -23q2 -14 -1 -26.5t-10 -23t-18 -16.5t-24 -8q-49 -6 -78 -30t-39 -62q-4 -15 -14 -25.5t-24 -15.5t-30 -6t-30 5q-16 5 -26 15.5t-16 24t-6 28.5z" />
<glyph unicode="&#xf70a;" d="M-256 1076v142q0 20 7 36t19 27.5t28 18t34 6.5t34 -6.5t28 -18t19 -27.5t7 -36v-142q0 -20 -7 -36t-19 -28t-28 -18t-34 -6t-34 6t-28 18t-19 28t-7 36z" />
<glyph unicode="&#xf70b;" d="M-518 1190q0 13 5 24.5t13.5 20.5t21 14t26.5 5h100q15 0 27.5 -5t21 -14t13 -20.5t4.5 -24.5v-64q22 3 40.5 11.5t32 21t23 29t15.5 34.5q4 12 11.5 22t17 16t21 10t23.5 4q17 0 34 -8t29 -21t17 -31t-2 -40q-12 -38 -35 -69t-58 -55t-83 -38q-47 -12 -109 -14h-55 q-15 0 -27 5t-20.5 13t-13.5 20t-5 26v64h-22q-15 0 -27 5t-20.5 13.5t-13.5 20t-5 25.5z" />
<glyph unicode="&#xf70c;" d="M-666 1072q2 49 16 83.5t34.5 55.5t46.5 31t53 10q36 0 61 -16.5t41 -41.5q16 25 43.5 41.5t64.5 16.5q24 0 45 -5t37 -17t28 -31t18 -47q10 13 16 31.5t10 44.5q2 14 10.5 25.5t20.5 19t26.5 9.5t28.5 -1t25.5 -11.5t19 -20t10 -26.5t-1.5 -29q-10 -40 -29.5 -76 t-45.5 -63t-60 -43.5t-73 -16.5q-34 0 -55.5 17.5t-23.5 50.5q0 10 -3 19.5t-7 16.5t-9 11t-11 4q-15 0 -22.5 -15t-9.5 -39q0 -10 -4 -19.5t-11.5 -16.5t-17.5 -11t-21 -4q-22 0 -37 15q-15 16 -17 36q-2 24 -9.5 39t-22.5 15q-13 0 -20.5 -17t-9.5 -43q0 -14 -6.5 -25 t-17 -19t-23.5 -12t-27 -2t-25 8t-19 16.5t-12 23.5q-4 14 -4 28z" />
<glyph unicode="&#xf70d;" d="M-384 1175q0 14 5 25.5t13 20.5t20 14q14 5 28 5h77v54q0 16 6 29t16.5 23t23.5 15t28 5t28.5 -5t24 -15t16.5 -23t6 -29v-54h78q15 0 27 -5t20.5 -14t13 -21t4.5 -25q0 -14 -4.5 -25.5t-13.5 -20.5t-21 -14t-26 -5h-78v-55q0 -16 -6 -29t-16.5 -22.5t-24 -14.5t-28.5 -5 q-14 0 -27.5 5t-24 14.5t-16.5 23t-6 28.5v55h-77q-15 0 -27.5 5t-21 14t-13 21t-4.5 25z" />
<glyph unicode="&#xf70e;" d="M-323 1066q-1 16 5 31q12 32 35.5 60.5t56 51.5t73 38.5t85.5 20.5q14 2 27 -1.5t24 -11t18 -18.5t9 -25t-1 -27t-11 -24t-19 -18t-25 -8q-52 -6 -83 -31.5t-41 -65.5q-4 -16 -15 -27t-25 -17t-31 -6t-32 6q-16 6 -27.5 17t-17 25t-5.5 30z" />
<glyph unicode="&#xf70f;" horiz-adv-x="1183" d="M37 679q-1 7 2 14.5t9 16.5q60 94 147 138.5t189 44.5q42 0 82 -7.5t76 -21.5t66 -35t51 -48t33 -60t12 -72v-393q0 -24 6 -44t19 -34.5t33.5 -22.5t50.5 -8t50.5 8t33.5 22.5t19 34.5t6 44v548q0 20 6.5 37t19 29t28.5 18t36 6t37 -6t29 -18t19 -29t7 -37v-572 q0 -62 -25 -107t-65 -74t-93 -43t-109 -14t-108 14t-92.5 44t-65 74.5t-24.5 105.5v390q0 30 -10 53t-28 38t-43 22t-56 7q-48 0 -86 -15q-37 -15 -61 -39q14 -16 20 -37t6 -49v-454h27q16 0 29.5 -6t23.5 -16t16 -24q5 -12 5 -28t-5.5 -29t-15.5 -23t-24 -16t-29 -6h-135 q-16 0 -29 6t-23 16t-16 23t-6 29v505q0 18 -6 36.5t-20 32.5q-10 9 -14 16.5t-5 14.5z" />
<glyph unicode="&#xf710;" d="M-612 1078v76q0 17 6 31.5t16 24.5t24 16t30 6t29.5 -6t24 -16t16.5 -24t6 -32v-9h500q14 0 26 -6t22 -15.5t15 -23t5 -27.5t-5 -27t-15 -23t-22 -15.5t-26 -5.5h-576q-16 0 -30 5.5t-24 15.5t-16 24.5t-6 30.5z" />
<glyph unicode="&#xf711;" d="M-633 1108q0 34 13 64.5t35.5 53t52 35.5t63.5 13t64.5 -13t53 -35.5t35.5 -53t13 -64.5t-13 -64t-35.5 -52t-52.5 -35t-65 -13q-34 0 -63.5 13t-52 35t-35.5 52t-13 64zM-522 1108q0 -10 4 -20t11.5 -17.5t17 -12t20.5 -4.5q12 0 21.5 4.5t17.5 12t12 17.5t4 20 q0 12 -4 22t-12 17t-18 12t-21 5q-10 0 -20 -5t-17.5 -12t-11.5 -17t-4 -22z" />
<glyph unicode="&#xf712;" d="M-841 1191q0 40 8.5 70.5t22.5 53.5t33 38.5t40 25t43.5 13.5t43.5 4h344q12 0 22 -5t18 -13t13 -20t5 -24q0 -13 -5 -24.5t-13 -20.5t-18 -14t-22 -5h-338q-16 0 -27.5 -6t-18 -17t-9.5 -25t-3 -29q0 -14 1.5 -27.5t6 -23.5t12.5 -16t21 -6q19 0 29 12q8 13 12 40 q4 25 20 39.5t38 14.5q21 0 37 -14q17 -14 19 -38q2 -28 10.5 -41t28.5 -13q16 0 25.5 10t11.5 32q0 15 6.5 27.5t17 20.5t23.5 12t27 3q28 -3 44 -24t14 -55q-3 -46 -16.5 -76t-34.5 -48t-47.5 -25t-55.5 -4q-20 1 -36 7t-30 15.5t-25 21t-19 23.5q-8 -12 -19 -24 t-25 -21.5t-31.5 -15.5t-37.5 -6q-44 0 -75 16t-51.5 43.5t-30 63t-9.5 75.5z" />
<glyph unicode="&#xf713;" d="M-465 1386v108q0 17 5.5 31t15 24t22.5 15.5t29 5.5t29 -5.5t22.5 -15t14.5 -23.5t5 -32v-108q0 -17 -5 -30.5t-14.5 -23.5t-23 -15.5t-28.5 -5.5q-16 0 -29 5.5t-22.5 15.5t-15 24t-5.5 30z" />
<glyph unicode="&#xf714;" d="M-684 1518q0 24 16 41.5t42 17.5h100q27 0 43 -17q16 -18 16 -42v-68q46 5 78.5 28.5t44.5 61.5q4 14 13 24t21.5 16t26.5 7q13 1 27 -3t24 -14t16 -22t7 -25.5t-5 -27.5q-13 -36 -37.5 -67t-59.5 -54t-80 -36.5t-99 -14.5h-52q-26 0 -42 17q-16 18 -16 42v78h-26 q-26 0 -42 17t-16 41z" />
<glyph unicode="&#xf715;" d="M-738 1378q4 44 16.5 74t30 48.5t39.5 27t46 8.5q32 0 54 -15t36 -36q14 22 38.5 36.5t58.5 14.5q22 0 40 -4.5t32.5 -15t24.5 -27.5t16 -41q8 12 14 28t10 38q2 13 9 23t18 16.5t23 8.5q14 2 26 -1t22 -10t17 -17.5t9 -23t-2 -24.5q-9 -34 -26 -66t-41 -56t-54 -38 q-31 -15 -65 -15q-30 0 -47 17t-21 42q-2 18 -8 32q-8 13 -18 13q-7 0 -11.5 -5.5t-8 -13.5t-6 -19t-2.5 -23q-2 -18 -15 -31t-33 -13t-33 13t-15 31q-1 12 -3.5 23t-5.5 19t-8 13.5t-12 5.5q-6 0 -10.5 -4.5t-7.5 -11.5t-5 -16.5t-3 -19.5q-1 -12 -7 -22.5t-15 -17.5 t-21 -10t-24 -1t-22 7.5t-17 14.5t-10 20.5t-3 23.5z" />
<glyph unicode="&#xf716;" d="M-604 1497q0 12 4.5 23.5t12.5 20t19.5 13t25.5 4.5h75v52q0 14 5.5 26.5t14.5 21.5t21 14t26 5t26.5 -5t22 -14t14.5 -21.5t5 -26.5v-52h76q14 0 25 -4.5t19 -13t12.5 -19.5t4.5 -24t-4.5 -24t-12.5 -19.5t-20 -13.5q-10 -4 -24 -4h-76v-52q0 -14 -5 -26.5t-14.5 -21.5 t-22 -14t-26.5 -5t-26 5t-21 14t-14.5 21.5t-5.5 26.5v52h-75q-14 0 -26 4.5t-20 13t-12 19.5t-4 24z" />
<glyph unicode="&#xf717;" d="M-466 1297.5q0 14.5 6 28.5q10 30 31 56t51 47t66.5 35t78.5 20q12 2 24.5 -1t22.5 -10t16 -17q7 -12 9 -24q2 -13 -1 -24.5t-10 -21.5t-17.5 -17t-22.5 -8q-47 -6 -76 -29q-30 -24 -38 -60q-4 -15 -13.5 -24.5t-23 -15t-28.5 -6t-29 4.5q-15 6 -25 16t-15.5 23 t-5.5 27.5z" />
<glyph unicode="&#xf718;" d="M-320 -432q0 14 5 26t13.5 21t21 14t26.5 5h108q15 0 27 -5t20.5 -14t13.5 -21t5 -26v-190q0 -18 -6 -32.5t-17 -25t-25 -16.5q-16 -6 -32 -6t-30.5 6t-25.5 16t-17.5 25t-6.5 33v123h-14q-15 0 -27 5.5t-20.5 14.5t-13.5 21t-5 26z" />
<glyph unicode="&#xf719;" d="M-578 -432q0 14 5 26t13.5 21t21 14t26.5 5h108q15 0 27 -5t20.5 -14t13.5 -21t5 -26v-84q0 -64 52 -64q50 0 50 64v83q0 17 6.5 31t17 24.5t24.5 16t30 5.5t30.5 -5t25 -15.5t16.5 -25t6 -31.5v-83q-1 -40 -12 -76t-35.5 -63t-63.5 -43t-95 -16q-57 0 -96.5 16t-63.5 43 t-36 63t-12 76v17h-18q-15 0 -27 5.5t-20.5 14.5t-13.5 21t-5 26z" />
<glyph unicode="&#xf71a;" d="M-280 -461q0 22 8 41.5t21 34t31.5 23t39.5 8.5q22 0 41.5 -8.5t34 -23t22.5 -33.5t8 -42q0 -20 -8 -38.5t-22.5 -32t-34 -21.5t-41.5 -8q-21 0 -39.5 8t-31.5 21.5t-21 32t-8 38.5z" />
<glyph unicode="&#xf71d;" horiz-adv-x="961" d="M48 790q-2 19 3 37t16 32t27 23.5t36 11.5t37 -3t31 -16t23.5 -27t11.5 -36l51 -466l88 320q4 14 11 25t17 20t23.5 14t29.5 5t28.5 -5t23 -14t17.5 -20q6 -11 10 -25l90 -336l38 264q4 26 5.5 50t-2.5 43.5t-15.5 33.5t-35.5 21q-24 6 -40 26q-16 22 -16 48q0 14 4.5 26 t13 22t20 17t24.5 9q44 8 78 28q34 18 50 50q10 17 25 28.5t33 16.5t36.5 3t35.5 -12t28.5 -24.5t16.5 -32t3 -36.5t-12 -37q-18 -32 -43 -52t-52 -32q14 -18 22.5 -35.5t12.5 -37t3 -42.5t-5 -49l-93 -556q-3 -19 -12 -34.5t-22.5 -25.5t-30 -15t-34.5 -5q-38 0 -62 20 q-25 22 -37 60l-109 346l-106 -348q-12 -38 -36.5 -58t-60.5 -20q-18 0 -34.5 5t-29.5 15t-22 24.5t-11 33.5z" />
<glyph unicode="&#xf881;" horiz-adv-x="1169" d="M33 677.5q-1 7.5 2 15t9 15.5q60 94 146.5 140.5t189.5 46.5q65 0 125 -17q60 -16 107 -54q42 36 92 53.5t102 17.5q34 0 69 -6.5t66.5 -20.5t58.5 -34.5t47 -48t31.5 -61.5t11.5 -75v-855q0 -20 -7 -37t-19.5 -29t-29 -18t-36.5 -6t-36.5 6t-29 18t-19 29t-6.5 37v834 q0 28 -7.5 49t-20.5 35.5t-31 21.5q-20 8 -42 8q-20 0 -38 -6t-33 -19t-24 -33.5t-11 -50.5v-839q0 -20 -7 -37t-19 -29t-29 -18t-37 -6t-36 6t-28.5 18t-19 29t-6.5 37v828q0 54 -33.5 87t-99.5 33q-26 0 -48.5 -4.5t-42.5 -12t-36 -17.5q-16 -9 -28 -20q16 -17 23 -38.5 t7 -43.5v-458h27q16 0 29.5 -6t23.5 -16t16 -24q5 -12 5 -28t-5.5 -29t-15.5 -23t-24 -16t-29 -6h-135q-16 0 -29 6t-23 16t-16 23t-6 29v510q0 18 -6 33t-20 29q-10 9 -14 16.5t-5 15z" />
<glyph unicode="&#xf882;" horiz-adv-x="1165" d="M6 74q0 16 5.5 29t15 23t22.5 16t29 6h10v430q0 18 -6 36t-20 32q-10 9 -14 16.5t-4.5 14.5t2.5 15q2 8 8 16q60 96 142 141.5t185 45.5q64 0 123.5 -17.5t103.5 -53.5q22 18 47 31t50 21.5t50 12.5t48 4q34 0 68 -6.5t65.5 -20.5t58.5 -34t47 -47t32 -61t12 -75v-855 q0 -20 -7 -37t-19.5 -29t-29 -18t-36.5 -6t-36.5 6t-29 18t-19 29t-6.5 37v832q0 28 -7.5 49t-20.5 35.5t-31 22t-41 7.5q-20 0 -37.5 -6t-31.5 -18t-23 -30t-11 -41v-851q0 -20 -7 -37t-19 -29t-29 -18t-36 -6q-20 0 -36.5 6t-28.5 18t-19 29t-7 37v828q0 54 -30 86t-98 32 q-52 0 -89 -14.5t-57 -39.5q7 -9 11.5 -17.5t8.5 -18t5 -21t1 -25.5v-530q0 -16 -5 -29t-15 -23t-23 -16t-29 -6h-120q-16 0 -29 6t-22.5 16t-15 23t-5.5 29z" />
<glyph d="M-623 1114q4 28 15 53t28.5 45t41.5 34t56 22q5 28 20 54t39 45t57 31t75 12q13 0 25 -3.5t22 -10t16.5 -16.5t8.5 -22q2 -13 -0.5 -25.5t-10 -23t-18 -17t-23.5 -6.5q-23 -1 -38 -8t-24 -19t-13 -29t-4 -38q0 -15 -8 -23t-27 -8q-45 0 -67 -19q-22 -18 -24 -58 q-1 -16 -9 -28t-20.5 -20t-27.5 -11t-30 1q-16 3 -28 11.5t-20 20t-11.5 26t-0.5 30.5z" />
<glyph horiz-adv-x="623" d="M-633 1108q0 34 13 64.5t35.5 53t52 35.5t63.5 13t64.5 -13t53 -35.5t35.5 -53t13 -64.5t-13 -64t-35.5 -52t-52.5 -35t-65 -13q-34 0 -63.5 13t-52 35t-35.5 52t-13 64zM-522 1108q0 -10 4 -20t11.5 -17.5t17 -12t20.5 -4.5q12 0 21.5 4.5t17.5 12t12 17.5t4 20 q0 12 -4 22t-12 17t-18 12t-21 5q-10 0 -20 -5t-17.5 -12t-11.5 -17t-4 -22zM14 688q-2 16 4 34q14 42 41 75t61 54.5t73 32.5t79 11q60 0 110.5 -16.5t86 -49.5t55 -83t19.5 -118v-547q0 -20 -6.5 -37t-19 -29t-29 -18.5t-36.5 -6.5t-36.5 6.5t-29 18.5t-19.5 28.5t-7 37.5 v547q0 56 -22 85t-66 29q-31 0 -52.5 -20t-31.5 -58q-5 -18 -16.5 -31t-27.5 -20t-34 -8.5t-36 4.5t-31 18t-20.5 27.5t-8.5 33.5z" />
<glyph horiz-adv-x="623" d="M-633 1108q0 34 13 64.5t35.5 53t52 35.5t63.5 13t64.5 -13t53 -35.5t35.5 -53t13 -64.5t-13 -64t-35.5 -52t-52.5 -35t-65 -13q-34 0 -63.5 13t-52 35t-35.5 52t-13 64zM-522 1108q0 -10 4 -20t11.5 -17.5t17 -12t20.5 -4.5q12 0 21.5 4.5t17.5 12t12 17.5t4 20 q0 12 -4 22t-12 17t-18 12t-21 5q-10 0 -20 -5t-17.5 -12t-11.5 -17t-4 -22zM14 688q-2 16 4 34q14 42 41 75t61 54.5t73 32.5t79 11q60 0 110.5 -16.5t86 -49.5t55 -83t19.5 -118v-547q0 -20 -6.5 -37t-19 -29t-29 -18.5t-36.5 -6.5t-36.5 6.5t-29 18.5t-19.5 28.5t-7 37.5 v547q0 56 -22 85t-66 29q-31 0 -52.5 -20t-31.5 -58q-5 -18 -16.5 -31t-27.5 -20t-34 -8.5t-36 4.5t-31 18t-20.5 27.5t-8.5 33.5z" />
<glyph d="M-626 1065q0 15 5 28t15 23t23 15t28 5h413q15 0 28.5 -5t23 -15t15 -23t5.5 -28t-5.5 -28t-15 -23t-22.5 -15t-29 -5h-413q-15 0 -28 5t-23 15t-15 23t-5 28z" />
<glyph d="M-626 1065q0 15 5 28t15 23t23 15t28 5h313v62q0 16 7 30t18 24.5t25 15.5q16 6 32 6t31 -5.5t26 -16t17 -24.5t6 -30v-133q0 -15 -5.5 -28t-15 -23t-22.5 -15t-29 -5h-403q-15 0 -28 5t-23 15t-15 23t-5 28z" />
<glyph d="M-626 1065q0 15 5 28t15 23t23 15t28 5h217q0 29 11.5 55.5t31 46t45.5 31t56 11.5q29 0 55 -11.5t45.5 -31t31 -45.5t11.5 -56q0 -29 -11.5 -54.5t-31 -45.5t-46 -31t-54.5 -11h-361q-15 0 -28 5t-23 15t-15 23t-5 28zM-240 1134q0 -18 14 -31t32 -13t31 13t13 31 t-13 32t-31 14t-32 -14t-14 -32z" />
<glyph d="M-626 1065q0 15 5 28t15 23t23 15t28 5h133v66q0 16 5.5 29.5t15 23t22.5 14.5t29 5q15 0 27.5 -5t22.5 -15t16 -23t6 -29v-66h55v66q0 16 5.5 29.5t15.5 23t23 14.5t27 5q15 0 28.5 -5t23 -15t15 -23t5.5 -29v-137q0 -15 -5.5 -28t-15 -23t-22.5 -15t-29 -5h-403 q-15 0 -28 5t-23 15t-15 23t-5 28z" />
<glyph d="M-900 1065q0 15 5.5 28t15 23t22.5 15t29 5h478q15 0 28 -5t22.5 -15t15.5 -23t6 -28t-6 -28t-15.5 -23t-22.5 -15t-28 -5h-478q-15 0 -28.5 5t-23 15t-15 23t-5.5 28z" />
<glyph d="M-900 1065q0 15 5.5 28t15 23t22.5 15t29 5h378v62q0 16 6 30t17 24.5t26 16t31 5.5t31 -5.5t26 -16t17.5 -24.5t6.5 -30v-133q0 -15 -5.5 -28t-15.5 -23t-23 -15t-27 -5h-468q-15 0 -28.5 5t-23 15t-15 23t-5.5 28z" />
<glyph d="M-900 1065q0 15 5.5 28t15 23t22.5 15t29 5h285q0 29 11.5 55.5t31 46t45.5 30.5q25 12 55 12q29 0 55.5 -11.5t46 -31t31 -45.5t11.5 -56q0 -29 -11.5 -54.5t-31 -45.5t-45.5 -31t-56 -11h-428q-15 0 -28.5 5t-23 15t-15 23t-5.5 28zM-444 1134q0 -18 13 -31t31 -13 t32 13t14 31t-14 32t-32 14t-31 -14t-13 -32z" />
<glyph d="M-900 1065q0 15 5.5 28t15 23t22.5 15t29 5h197v66q0 16 5.5 29.5t15.5 23t23 14.5t27 5q15 0 28.5 -5t23 -15t15 -23t5.5 -29v-66h56v66q0 16 5.5 29.5t15 23t22.5 14.5t29 5q15 0 27.5 -5t22.5 -15t15.5 -23t5.5 -29v-137q0 -15 -5.5 -28t-15.5 -23t-23 -15t-27 -5 h-468q-15 0 -28.5 5t-23 15t-15 23t-5.5 28z" />
<glyph d="M-436 1386v108q0 17 5 31t15 24t23 15.5t29 5.5t29 -5.5t22.5 -15t15 -23.5t5.5 -32v-108q0 -17 -5.5 -30.5t-15 -23.5t-22.5 -15.5t-29 -5.5t-29 5.5t-23 15.5t-15 24t-5 30z" />
<glyph d="M-682 1518q0 24 16 41.5t42 17.5h100q27 0 43 -17q16 -18 16 -42v-68q46 5 78.5 28.5t44.5 61.5q4 14 13 24t21.5 16t26.5 7q13 1 27 -3t24 -14t16 -22t7 -25.5t-5 -27.5q-13 -36 -37.5 -67t-59.5 -54t-80 -36.5t-99 -14.5h-52q-26 0 -42 17q-16 18 -16 42v78h-26 q-26 0 -42 17t-16 41z" />
<glyph d="M-706 1378q4 44 16.5 74t30 48.5t39.5 27t46 8.5q32 0 54 -15t36 -36q14 22 38.5 36.5t58.5 14.5q22 0 40 -4.5t32.5 -15t24.5 -27.5t16 -41q8 12 14 28t10 38q2 13 9 23t18 16.5t23 8.5q14 2 26 -1t22 -10t17 -17.5t9 -23t-2 -24.5q-9 -34 -26 -66t-41 -56t-54 -38 q-31 -15 -65 -15q-30 0 -47 17t-21 42q-2 18 -8 32q-8 13 -18 13q-7 0 -11.5 -5.5t-8 -13.5t-6 -19t-2.5 -23q-2 -18 -15 -31t-33 -13t-33 13t-15 31q-1 12 -3.5 23t-5.5 19t-8 13.5t-12 5.5q-6 0 -10.5 -4.5t-7.5 -11.5t-5 -16.5t-3 -19.5q-1 -12 -7 -22.5t-15 -17.5 t-21 -10t-24 -1t-22 7.5t-17 14.5t-10 20.5t-3 23.5z" />
<glyph d="M-563 1497q0 12 4.5 23.5t12.5 20t20 13.5q10 4 24 4h76v52q0 14 5 26.5t14.5 21.5t22 14t26.5 5t26 -5t21 -14t14.5 -21.5t5.5 -26.5v-52h75q14 0 26 -4.5t20 -13t12 -19.5t4 -24t-4.5 -24t-12.5 -19.5t-19.5 -13t-25.5 -4.5h-75v-56q0 -14 -5.5 -27t-14.5 -22t-21 -14 t-26 -5t-26.5 5t-22 14t-14.5 21q-5 14 -5 28v56h-76q-14 0 -25 4.5t-19 13t-12.5 19.5t-4.5 24z" />
<glyph d="M-900 1065q0 15 6 28t15.5 23t22.5 15t28 5h686q15 0 28.5 -5t23 -15t15 -23t5.5 -28t-5.5 -28t-15 -23t-22.5 -15t-29 -5h-686q-15 0 -28 5t-22.5 15t-15.5 23t-6 28z" />
<glyph d="M-900 1065q0 15 6 28t15.5 23t22.5 15t28 5h592v62q0 16 6 30t17 24.5t26 16t31 5.5t31 -5.5t26 -16t17.5 -24.5t6.5 -30v-133q0 -15 -5.5 -28t-15.5 -23t-23 -15t-27 -5h-682q-15 0 -28 5t-22.5 15t-15.5 23t-6 28z" />
<glyph d="M-899 1065q0 15 5.5 28t15.5 23t23 15t27 5h490q0 29 11.5 55.5t31 46t45.5 31t56 11.5q29 0 55 -11.5t45.5 -31t31 -45.5t11.5 -56q0 -29 -11.5 -54.5t-31 -45.5t-46 -31t-54.5 -11h-634q-15 0 -27.5 5t-22.5 15t-15.5 23t-5.5 28zM-240 1134q0 -18 14 -31t32 -13t31 13 t13 31t-13 32t-31 14t-32 -14t-14 -32z" />
<glyph d="M-900 1065q0 15 6 28t15.5 23t22.5 15t28 5h406v66q0 16 5.5 29.5t15 23t22.5 14.5t29 5q15 0 27.5 -5t22.5 -15t16 -23t6 -29v-66h55v66q0 16 5.5 29.5t15.5 23t23 14.5t27 5q15 0 28.5 -5t23 -15t15 -23t5.5 -29v-137q0 -15 -5.5 -28t-15 -23t-22.5 -15t-29 -5h-676 q-15 0 -28 5t-22.5 15t-15.5 23t-6 28z" />
<glyph d="M-236 1305v105q0 17 6 31t17 24.5t25 16t30 5.5t29.5 -5.5t24 -15.5t16.5 -24.5t6 -31.5v-105q0 -17 -6 -31t-16.5 -24t-24.5 -16q-13 -6 -29 -6t-30 6t-25 16t-17 24t-6 31z" />
<glyph d="M-500 1436q0 24 16 41t43 17h100q27 0 43 -17t16 -41v-68q46 5 78 28.5t44 61.5q4 14 13.5 24t22 16t26.5 7t27 -4q14 -4 23.5 -13.5t15.5 -21.5t7 -26t-4 -28q-13 -36 -37.5 -67t-60 -54t-80.5 -36t-98 -15h-52q-26 0 -42.5 17t-16.5 42v79h-25q-26 0 -42.5 17t-16.5 41 z" />
<glyph d="M-574 1296q4 44 16 73.5t30 48t40 27.5t46 9q32 0 54 -15t36 -37q14 22 38 37t58 15q22 0 40 -5t32.5 -15t24.5 -27q9 -17 15 -41q8 12 15 28t10 38q2 13 9.5 22.5t17.5 16.5t23 9t25 -2q12 -3 23 -10t17 -17.5t9 -23t-1 -24.5q-9 -34 -26.5 -65.5t-41.5 -56t-54 -39 t-64 -14.5q-30 0 -48 17t-22 43q-2 9 -4 16.5t-5 14t-8 10t-9 3.5q-14 0 -20 -14q-6 -13 -8 -36q-2 -18 -15 -31t-33 -13t-33 13t-14 31q-2 23 -8.5 36.5t-19.5 13.5q-6 0 -10.5 -4t-7.5 -11.5t-5.5 -17t-3.5 -19.5q-1 -12 -7 -22t-15 -17t-20.5 -10t-23.5 -2 q-12 2 -22.5 7.5t-17.5 14.5t-10 21q-4 12 -2 24z" />
<glyph d="M-358 1416q0 12 4.5 23t12.5 20t19.5 13.5t25.5 4.5h75v51q0 14 5.5 27t14.5 22t21 14t26 5t26.5 -5t22 -14t14.5 -22t5 -27v-51h76q14 0 25 -4.5t19 -13.5t12.5 -20t4.5 -23q0 -13 -4.5 -24.5t-12.5 -19.5t-20 -13q-10 -5 -24 -5h-76v-51q0 -14 -5 -26.5t-14.5 -21.5 t-22 -14t-26.5 -5t-26 5t-21 14t-14.5 21t-5.5 27v51h-75q-14 0 -26 5t-20 13t-12 19t-4 25z" />
<glyph d="M-465 1304v108q0 17 5.5 30.5t15 23.5t22.5 15.5t29 5.5t29 -5.5t22.5 -15.5t14.5 -24t5 -30v-108q0 -17 -5 -31.5t-14.5 -24t-23 -15t-28.5 -5.5q-16 0 -29 5.5t-22.5 15.5t-15 23.5t-5.5 31.5z" />
<glyph d="M-715 1436q0 24 15.5 41t43.5 17h100q27 0 42.5 -17t15.5 -41v-68q46 5 78 28.5t44 61.5q4 14 14 24t22 16t26 7t28 -4q14 -4 23.5 -13.5t15 -21.5t6.5 -26t-3 -28q-13 -36 -37.5 -67t-60 -54t-80.5 -36q-44 -13 -98 -15h-52q-26 0 -42.5 17t-16.5 42v79h-25 q-26 0 -42.5 17t-16.5 41z" />
<glyph d="M-738 1296q4 44 16 74t30 48.5t40 27t46 8.5q32 0 54 -15t36 -36q14 22 38 36.5t58 14.5q22 0 40 -4.5t32.5 -15t24.5 -27.5q9 -17 15 -41q8 12 15 28t10 38q2 13 9.5 23t17.5 16.5t23 8.5t25 -1t23 -10t17 -17.5t9 -23t-1 -24.5q-9 -34 -26.5 -66t-41.5 -56t-54 -38.5 t-64 -14.5q-30 0 -48 17t-22 42q-2 9 -4 17t-5 14.5t-8 10t-9 3.5q-14 0 -20 -13q-6 -14 -8 -38q-2 -18 -15 -31t-33 -13t-33 13t-14 31q-2 23 -8.5 37t-19.5 14q-6 0 -10.5 -4.5t-7.5 -11.5t-5.5 -16.5t-3.5 -19.5q-1 -12 -7 -22.5t-15 -17.5t-20.5 -10t-23.5 -1t-22.5 7.5 t-17.5 14.5t-10.5 20.5t-1.5 23.5z" />
<glyph d="M-604 1415q0 12 4.5 23.5t12.5 20t19.5 13t25.5 4.5h75v52q0 14 5.5 26.5t14.5 21.5t21 14t26 5t26.5 -5t22 -14t14.5 -21.5t5 -26.5v-52h76q14 0 25 -4.5t19 -13t12.5 -19.5t4.5 -24t-4.5 -24t-12.5 -19.5t-20 -13.5q-10 -4 -24 -4h-76v-52q0 -14 -5 -26.5t-14.5 -21.5 t-22 -14t-26.5 -5t-26 5t-21 14t-14.5 21.5t-5.5 26.5v52h-75q-14 0 -26 4.5t-20 13t-12 19.5t-4 24z" />
<glyph d="M-428 -177q0 14 4.5 26t13 21t21 14.5t27.5 5.5h107q15 0 27 -5.5t21 -14.5t14 -21.5t5 -25.5v-209q0 -18 -6.5 -33t-17 -25t-25.5 -16t-31 -6t-31 5.5t-26 16t-17 25.5t-6 33v142h-14q-15 0 -27.5 5.5t-21 14.5t-13 21.5t-4.5 25.5z" />
<glyph d="M-598 -177q0 14 4.5 26t13 21t21 14.5t27.5 5.5h107q15 0 27 -5.5t21 -14.5t14 -21.5t5 -25.5v-103q0 -64 51 -64t51 64v102q0 17 6 31.5t17 24.5t25 16t30 6t30 -5.5t25 -16t17 -24.5t6 -32v-102q-1 -40 -12.5 -76t-35.5 -63.5t-63 -43.5t-96 -16t-96 16t-63.5 43.5 t-36 63.5t-11.5 76v36h-18q-15 0 -27.5 5.5t-21 14.5t-13 21.5t-4.5 25.5z" />
<glyph d="M-408 -219q0 22 8 41.5t22 34t32 23t39 8.5q22 0 41.5 -8.5t34 -23t23 -33.5t8.5 -42q0 -21 -8.5 -39t-23 -32t-34 -22t-41.5 -8q-21 0 -39 8t-32 22t-22 32t-8 39z" />
<glyph d="M-422 -177q0 14 4.5 26t13 21t21 14.5t27.5 5.5h107q15 0 27 -5.5t21 -14.5t14 -21.5t5 -25.5v-209q0 -18 -6.5 -33t-17 -25t-25.5 -16t-31 -6t-31 5.5t-26 16t-17 25.5t-6 33v142h-14q-15 0 -27.5 5.5t-21 14.5t-13 21.5t-4.5 25.5z" />
<glyph d="M-684 -177q0 14 4.5 26t13 21t21 14.5t27.5 5.5h107q15 0 27 -5.5t21 -14.5t14 -21.5t5 -25.5v-103q0 -64 51 -64t51 64v102q0 17 6 31.5t17 24.5t25 16t30 6t30 -5.5t25 -16t17 -24.5t6 -32v-102q-1 -40 -12.5 -76t-35.5 -63.5t-63 -43.5t-96 -16t-96 16t-63.5 43.5 t-36 63.5t-11.5 76v36h-18q-15 0 -27.5 5.5t-21 14.5t-13 21.5t-4.5 25.5z" />
<glyph d="M-372 -219q0 22 8 41.5t21 34t31 23.5q20 8 40 8q22 0 41 -8.5t34 -23t23 -33.5t8 -42q0 -21 -8 -39t-23 -32t-34 -22t-41 -8q-20 0 -39 8t-32 22t-21 32t-8 39z" />
<glyph d="M-612 1078v76q0 17 6 31.5t16 24.5t24 16t30 6t29.5 -6t24 -16t16.5 -24t6 -32v-9h521q14 0 26.5 -6t22 -15.5t15 -23t5.5 -27.5t-5.5 -27t-15 -23t-22 -15.5t-26.5 -5.5h-597q-16 0 -30 5.5t-24 15.5t-16 24.5t-6 30.5z" />
<glyph d="M-438 1386v108q0 17 5 31t15 24t23 15.5t29 5.5t29 -5.5t22 -15t14.5 -23.5t5.5 -32v-108q0 -17 -5.5 -30.5t-14.5 -23.5t-23 -16q-12 -5 -28 -5t-29 5.5t-23 15.5t-15 24t-5 30z" />
<glyph d="M-654 1518q0 24 16 41.5t43 17.5h100q27 0 43 -17q16 -18 16 -42v-68q46 5 78 28.5t44 61.5q4 14 13.5 24t22 16t26.5 7t27 -3q14 -4 23.5 -14t15.5 -22t7 -25.5t-4 -27.5q-13 -36 -37.5 -67t-60 -54t-80.5 -36.5t-98 -14.5h-52q-26 0 -43 17q-16 18 -16 42v78h-25 q-26 0 -42.5 17t-16.5 41z" />
<glyph d="M-615 1378q4 44 16.5 74t30 48.5t39.5 27t46 8.5q32 0 54.5 -15t35.5 -36q14 22 38.5 36.5t58.5 14.5q22 0 40 -4.5t32 -15t24 -27.5t16 -41q8 12 14 28t10 38q2 13 9.5 23t18 16.5t23.5 8.5t25 -1t22.5 -10t17 -17.5t9 -23t-1.5 -24.5q-9 -34 -26 -66t-41 -56t-54 -38.5 t-65 -14.5q-30 0 -47.5 17t-21.5 42q-2 18 -8 31.5t-17 13.5q-7 0 -12 -5.5t-8 -13.5t-5.5 -19t-3.5 -23q-2 -18 -15 -31t-33 -13t-33 13t-15 31q-1 12 -3 23t-5.5 19t-8.5 13.5t-11 5.5t-10.5 -4.5t-8 -11.5t-5.5 -16.5t-2 -19.5q-1 -12 -7.5 -22.5t-15.5 -17.5t-20 -10 t-24 -1q-12 2 -22.5 7.5t-17.5 14.5t-10 20.5t-2 23.5z" />
<glyph d="M-563 1497q0 12 4.5 23.5t12.5 20t20 13.5q10 4 24 4h76v52q0 14 5 26.5t14.5 21.5t22 14t26.5 5t26 -5t21 -14t14.5 -21.5t5.5 -26.5v-52h75q14 0 26 -4.5t20 -13t12 -19.5t4 -24t-4.5 -24t-12.5 -19.5t-19.5 -13t-25.5 -4.5h-75v-52q0 -14 -5.5 -26.5t-14.5 -21.5 t-21 -14t-26 -5t-26.5 5t-22 14t-14.5 21.5t-5 26.5v52h-76q-14 0 -25 4.5t-19 13t-12.5 19.5t-4.5 24z" />
<glyph d="M-770 1065q0 15 5.5 28t15 23t22.5 15t29 5h552q15 0 27.5 -5t22.5 -15t15.5 -23t5.5 -28t-5.5 -28t-15.5 -23t-23 -15t-27 -5h-552q-15 0 -28.5 5t-23 15t-15 23t-5.5 28z" />
<glyph d="M-770 1065q0 15 5.5 28t15 23t22.5 15t29 5h456v62q0 16 7 30t18 24.5t25 15.5q16 6 32 6t31 -5.5t26 -16t17 -24.5t6 -30v-133q0 -15 -5.5 -28t-15 -23t-22.5 -15t-29 -5h-546q-15 0 -28.5 5t-23 15t-15 23t-5.5 28z" />
<glyph d="M-770 1065q0 15 5.5 28t15 23t22.5 15t29 5h360q0 29 11.5 55.5t31 46t45.5 31t56 11.5q29 0 55 -11.5t45.5 -31t31 -45.5t11.5 -56q0 -29 -11.5 -54.5t-31 -45.5t-46 -31t-54.5 -11h-504q-15 0 -28.5 5t-23 15t-15 23t-5.5 28zM-240 1134q0 -18 14 -31t32 -13t31 13 t13 31t-13 32t-31 14t-32 -14t-14 -32z" />
<glyph d="M-770 1065q0 15 5.5 28t15 23t22.5 15t29 5h276v66q0 16 5.5 29.5t15 23t22.5 14.5t29 5q15 0 27.5 -5t22.5 -15t16 -23t6 -29v-66h55v66q0 16 5.5 29.5t15.5 23t23 14.5t27 5q15 0 28.5 -5t23 -15t15 -23t5.5 -29v-137q0 -15 -5.5 -28t-15 -23t-22.5 -15t-29 -5h-546 q-15 0 -28.5 5t-23 15t-15 23t-5.5 28z" />
<glyph d="M-525 1386v108q0 17 5.5 31t15 24t22.5 15.5t29 5.5t29 -5.5t22.5 -15t14.5 -23.5t5 -32v-108q0 -17 -5 -30.5t-14.5 -23.5t-23 -15.5t-28.5 -5.5q-16 0 -29 5.5t-22.5 15.5t-15 24t-5.5 30z" />
<glyph d="M-658 1497q0 12 5 23.5t13 20t19 13t25 4.5h76v52q0 14 5 26.5t14 21.5t21.5 14t26.5 5t26.5 -5t21.5 -14t14 -21.5t5 -26.5v-52h76q14 0 25.5 -4.5t19.5 -13t12.5 -19.5t4.5 -24t-5 -24t-13 -19.5t-19 -13t-25 -4.5h-76v-52q0 -14 -5 -26.5t-14 -21.5t-21.5 -14 t-26.5 -5t-26.5 5t-21.5 14t-14 21.5t-5 26.5v52h-76q-14 0 -25.5 4.5t-19.5 13t-12.5 19.5t-4.5 24z" />
</font>
</defs>
</svg>
